<?xml version="1.0" encoding="utf-8"?>
<!-- Generator: Adobe Illustrator 18.1.1, SVG Export Plug-In . SVG Version: 6.00 Build 0)  -->
<svg version="1.1" id="Layer_1" xmlns="http://www.w3.org/2000/svg" xmlns:xlink="http://www.w3.org/1999/xlink" x="0px" y="0px" width="500px" height="500px" viewBox="0 0 500 500" enable-background="new 0 0 500 500" xml:space="preserve"><clipPath id="SVGID_2_">
				<use xlink:href="#SVGID_1_" overflow="visible"/>
			</clipPath>
<symbol id="New_Symbol_1" viewBox="-46 -56.4 91.9 112.9">
	<path fill="#FFFFFF" stroke="#000000" stroke-width="0.5881" stroke-miterlimit="10" d="M10.8-5.7c0,0-15.2-5.9-19.2,10
		c0,0,1.8-0.4,4.7-0.6C-2.3,3.5,8.2,4.7,10.8-5.7z"/>
	<g>
		<path fill="#1F0E3A" stroke="#8E66AB" stroke-width="0.5881" stroke-miterlimit="10" d="M16.9,0.9c0,0-6-12.5-1.8-18.9
			c0.4-8.1-20.9-26-20.9-26s-7.1-12.5-4.6-12.2c3,0.4,6.6,4.1,6.6,10.2c0,0,18.9,12.1,21.5,23.6C19-16.4,16.9,0.9,16.9,0.9z"/>
		<path fill="#1F0E3A" stroke="#8E66AB" stroke-width="0.5881" stroke-miterlimit="10" d="M4.8,6.4c0,0-3.1-12.8,1.1-19.2
			c0.4-8.1-20.9-26-20.9-26s-7.1-12.5-4.6-12.2c3,0.4,6.3,4.7,6.3,10.7c0,0,23.8,16.6,23.2,28.4C9.7-6.8,4.8,6.4,4.8,6.4z"/>
		<path fill="#1F0E3A" stroke="#8E66AB" stroke-width="0.5881" stroke-miterlimit="10" d="M11.3,6.1c0,0,5.8-16.7,10.1-16
			c0,0,6.9,2.5,6.1,15.1c0,0,4.4,0.9,6,2.5c1.4,1.4-3.4,3.9-7.4-1.6C26,6,25.9,5.7,25.9,5.5c-0.3-1.8-1.6-9.6-4.5-11.6
			C21.4-6.1,16.7,4,11.3,6.1z"/>
		<path fill="#1F0E3A" stroke="#8E66AB" stroke-width="0.5881" stroke-miterlimit="10" d="M20.1,4.5c0,0,7.2-17.9,11.9-17.2
			c0,0,7.6,2.8,6.8,16.6c0,0,4.8,0.9,6.6,2.8C47,8.3,41.6,11,37.2,5c-0.2-0.2-0.3-0.5-0.3-0.8c-0.3-2-1.8-10.6-5-12.8
			C31.9-8.6,26,2.2,20.1,4.5z"/>
		<path fill="#1F0E3A" stroke="#8E66AB" stroke-width="0.5881" stroke-miterlimit="10" d="M17.6,1.8c0,0,0.4-13.3,5.2-20.5
			c0.4-9.1-18.3-24-18.3-24s-6-11.7-3.2-11.4c3.4,0.4,6.9,5.4,6,10.6c0,0,23,15.9,19.9,26.3C24.3-6.3,17.6,1.8,17.6,1.8z"/>
		<g>
			<path fill="#F3F0E0" stroke="#E1D1A5" stroke-width="0.5881" stroke-miterlimit="10" d="M10.5,12.8c0,0-38.1,18-40.8,16.9
				c-2.6-1.1-6.4-12.2,11.1-17.7c7-2.2,15.9,0.7,19.6,0.9s8.2-1.4,9.4-1.6C11.7,10.9,10.5,12.8,10.5,12.8z"/>
			<path fill="#F3F0E0" stroke="#E1D1A5" stroke-width="0.5881" stroke-miterlimit="10" d="M1.2,17.1c-0.6,0.1-14.1,5-15.1,2.9
				S-9,14,0.8,13"/>
			<path fill="#F3F0E0" stroke="#E1D1A5" stroke-width="0.5881" stroke-miterlimit="10" d="M-32.2,25.9c0,0,5.3-3.9,20.9-5.5"/>
			<path fill="#F3F0E0" stroke="#E1D1A5" stroke-width="0.5881" stroke-miterlimit="10" d="M-12.2,17.2c0,0-4.6-2-16.1-0.6"/>
			<path fill="#F3F0E0" stroke="#E1D1A5" stroke-width="0.5881" stroke-miterlimit="10" d="M-8.2,14.9c0,0-2.6-3.1-7.8-3.6"/>
		</g>
		<path fill="#1F0E3A" stroke="#8E66AB" stroke-width="0.5881" stroke-miterlimit="10" d="M23.5,27.9c0,0-0.4,1,0.5,4.8
			c0.9,3.8,3,10-1.6,17.9c-0.2,0.3-0.3,0.5-0.5,0.7c-1.3,1.7,0.3,2.7,1.7,1.5c1.7-1.5,5.9-8.7,1.5-19.7c-0.9-2-0.7-4.9-0.7-4.9
			S24.2,27.3,23.5,27.9z"/>
		<path fill="#FBCD65" stroke="#CB7128" stroke-width="0.5881" stroke-miterlimit="10" d="M20.7,13.6c0,0,1.2,3.4-1.8,7.6
			s-1.2,9.9,7.5,9.9s12.8-11.2,10.2-16.1c0,0-3-0.1-5.7,2c0,0,0.4-3.4,2.9-4.9c0,0-2.2-2.6-7.1-2c0,0-1.8-2.5-3.8-4.1L20.7,13.6z"/>
		<path d="M31.9,21.6c0.2-1.5,0.8-2.6,1.5-2.6c0.6,0.1,1,1.4,0.8,2.8c-0.2,1.5-0.8,2.6-1.5,2.6C32,24.4,31.7,23.1,31.9,21.6z"/>
		<path fill="#8E66AB" stroke="#1F0E3A" stroke-width="0.5881" stroke-miterlimit="10" d="M-15.7-44c0,0,0-6.3,2.7-9.5
			c0.3-0.4,0.9-0.1,0.9,0.3c0.1,1.8,0.4,5.4,1.1,7.9L-15.7-44z"/>
		<path fill="#FBCD65" stroke="#EB8523" stroke-width="0.5881" stroke-miterlimit="10" d="M15.1,0.1c0,0-22.3,7-35.6-9.3
			s-0.3-32.9,6.1-36.8c0,0,13-1.5,26.2,20.2C15.2-20.3,20.3-7.8,15.1,0.1z"/>
		<g>
			<defs>
				<path id="SVGID_1_" d="M15.1,0.1c0,0-22.3,7-35.6-9.3s-0.3-32.9,6.1-36.8c0,0,13-1.5,26.2,20.2C15.2-20.3,20.3-7.8,15.1,0.1z"/>
			</defs>
			<use xlink:href="#SVGID_1_" overflow="visible" fill="#FBCD65"/>

			<path clip-path="url(#SVGID_2_)" fill="#1F0E3A" stroke="#8E66AB" stroke-width="0.5881" stroke-miterlimit="10" d="M-27.6-34.6
				c0,0,13.5-13.4,28.9-6.4l3.6,3.9c0,0-20.7-0.3-33.7,20.1L-27.6-34.6z"/>
			<path clip-path="url(#SVGID_2_)" fill="#1F0E3A" stroke="#8E66AB" stroke-width="0.5881" stroke-miterlimit="10" d="M-14.2,1.5
				c0,0,17.3-6.8,28.5-27.9l2.6,5.3c0,0-3.6,21.5-18.9,24.8L-14.2,1.5z"/>
			<path clip-path="url(#SVGID_2_)" fill="#1F0E3A" stroke="#8E66AB" stroke-width="0.5881" stroke-miterlimit="10" d="M-24.2-8.3
				c0,0,5.4-17.4,33.1-25.8l4.9,5.1c0,0-19.2,9.5-30,28.8L-24.2-8.3z"/>
			<use xlink:href="#SVGID_1_" overflow="visible" fill="none" stroke="#CB7128" stroke-width="0.5881" stroke-miterlimit="10"/>
		</g>
		<path fill="#D68B58" stroke="#763718" stroke-width="0.5881" stroke-miterlimit="10" d="M-2.1,2.1c0,0,17,0.6,19.5-10
			c0,0,9.7,1.3,8.3,12.8c-0.5,4.3-2.5,8.5-5.9,11.2c-3.6,2.9-7.1,3.1-7.1,3.1l0.7-3.8c0,0-5.7,1.8-11.1-1.1l3.1-2.6c0,0-7.8,0-9.6-6
			l3.8,0.9C-0.4,6.7-2,3.8-2.1,2.1z"/>
		<path fill="#1F0E3A" stroke="#8E66AB" stroke-width="0.5881" stroke-miterlimit="10" d="M25.7,29.2c0,0-0.2,1.1,1.4,5
			c1.6,3.8,5,9.9,1.5,19.1c-0.1,0.3-0.3,0.6-0.4,0.9c-1,2,0.8,2.8,2.1,1.2c1.5-1.8,4.6-10.2-2-20.9c-1.3-2-1.6-5-1.6-5
			S26.3,28.5,25.7,29.2z"/>
		<g>
			<path fill="#F3F0E0" stroke="#E1D1A5" stroke-width="0.5881" stroke-miterlimit="10" d="M14.2,10.6c0,0-55.6,7.5-58.5,5
				c-2.9-2.4-3.2-18,21.2-18c9.7,0,19.9,7.3,24.5,9s11,1.6,12.6,1.8C16.5,8.7,14.2,10.6,14.2,10.6z"/>
			<path fill="#F3F0E0" stroke="#E1D1A5" stroke-width="0.5881" stroke-miterlimit="10" d="M0.7,12.3c-0.8-0.1-19.9,0.6-20.3-2.4
				s8.6-5.6,21.4-3"/>
			<path fill="#F3F0E0" stroke="#E1D1A5" stroke-width="0.5881" stroke-miterlimit="10" d="M-45.2,10.1c0,0,8.4-2.9,28.8,1.5"/>
			<path fill="#F3F0E0" stroke="#E1D1A5" stroke-width="0.5881" stroke-miterlimit="10" d="M-16.4,7c0,0-5.1-4.4-20.2-7.2"/>
			<path fill="#F3F0E0" stroke="#E1D1A5" stroke-width="0.5881" stroke-miterlimit="10" d="M-10.4,5.8c0,0-2-4.9-8.4-7.7"/>
		</g>
	</g>
</symbol>
<g>

		<use xlink:href="#New_Symbol_1" width="91.9" height="112.9" x="-46" y="-56.4" transform="matrix(1.0744 0 0 -1.0744 266.7588 158.319)" overflow="visible"/>

		<use xlink:href="#New_Symbol_1" width="91.9" height="112.9" x="-46" y="-56.4" transform="matrix(1.0744 0 0 -1.0744 94.3377 197.448)" overflow="visible"/>

		<use xlink:href="#New_Symbol_1" width="91.9" height="112.9" x="-46" y="-56.4" transform="matrix(1.0744 0 0 -1.0744 182.4325 92.5814)" overflow="visible"/>

		<use xlink:href="#New_Symbol_1" width="91.9" height="112.9" x="-46" y="-56.4" transform="matrix(1.0744 0 0 -1.0744 83.465 362.3267)" overflow="visible"/>

		<use xlink:href="#New_Symbol_1" width="91.9" height="112.9" x="-46" y="-56.4" transform="matrix(1.0744 0 0 -1.0744 189.3263 293.6104)" overflow="visible"/>

		<use xlink:href="#New_Symbol_1" width="91.9" height="112.9" x="-46" y="-56.4" transform="matrix(1.0744 0 0 -1.0744 416.5349 249.0421)" overflow="visible"/>

		<use xlink:href="#New_Symbol_1" width="91.9" height="112.9" x="-46" y="-56.4" transform="matrix(1.0744 0 0 -1.0744 379.5333 390.1727)" overflow="visible"/>

		<use xlink:href="#New_Symbol_1" width="91.9" height="112.9" x="-46" y="-56.4" transform="matrix(1.0744 0 0 -1.0744 386.1398 117.4861)" overflow="visible"/>

		<use xlink:href="#New_Symbol_1" width="91.9" height="112.9" x="-46" y="-56.4" transform="matrix(1.0744 0 0 -1.0744 225.4202 407.4178)" overflow="visible"/>

		<use xlink:href="#New_Symbol_1" width="91.9" height="112.9" x="-46" y="-56.4" transform="matrix(1.0744 0 0 -1.0744 301.6984 283.1882)" overflow="visible"/>
</g>
</svg>
