<?xml version="1.0" encoding="utf-8"?>
<!-- Generator: Adobe Illustrator 19.1.0, SVG Export Plug-In . SVG Version: 6.00 Build 0)  -->
<svg version="1.1" id="Layer_4" xmlns="http://www.w3.org/2000/svg" xmlns:xlink="http://www.w3.org/1999/xlink" x="0px" y="0px"
	 viewBox="0 0 100 100" style="enable-background:new 0 0 100 100;" xml:space="preserve">
<style type="text/css">
	.st0{fill:#D2D2F9;}
	.st1{fill:#BA8574;stroke:#BA8574;stroke-width:0.0481;stroke-miterlimit:10;}
	.st2{fill:#9494D6;stroke:#9494D6;stroke-width:0.04;stroke-miterlimit:10;}
	.st3{fill:#E4E4F9;stroke:#E4E4F9;stroke-width:0.0481;stroke-miterlimit:10;}
	.st4{fill:#AAAAE5;stroke:#AAAAE5;stroke-width:0.0481;stroke-miterlimit:10;}
	.st5{fill:#915D4E;stroke:#915D4E;stroke-width:0.0481;stroke-miterlimit:10;}
	.st6{fill:#B3B3F2;stroke:#B3B3F2;stroke-width:0.0481;stroke-miterlimit:10;}
	.st7{fill:#8B8BD1;stroke:#8B8BD1;stroke-width:0.04;stroke-miterlimit:10;}
	.st8{fill:#A1A1E2;stroke:#A1A1E2;stroke-width:0.0481;stroke-miterlimit:10;}
	.st9{fill:#D9D9F9;stroke:#D9D9F9;stroke-width:0.0481;stroke-miterlimit:10;}
	.st10{fill:#BEBEF4;stroke:#BEBEF4;stroke-width:0.0481;stroke-miterlimit:10;}
	.st11{fill:#8080C1;stroke:#8080C1;stroke-width:0.04;stroke-miterlimit:10;}
	.st12{fill:#C1C1EA;stroke:#C1C1EA;stroke-width:0.0481;stroke-miterlimit:10;}
	.st13{fill:#202020;}
	.st14{fill:#DEDEFF;stroke:#DEDEFF;stroke-width:0.04;stroke-miterlimit:10;}
	.st15{fill:#9797D3;stroke:#9797D3;stroke-width:0.0481;stroke-miterlimit:10;}
	.st16{fill:#B9B9F9;stroke:#B9B9F9;stroke-width:0.0481;stroke-miterlimit:10;}
	.st17{fill:#A7A7EA;stroke:#A7A7EA;stroke-width:0.04;stroke-miterlimit:10;}
	.st18{fill:#6252C1;stroke:#6252C1;stroke-width:0.0481;stroke-miterlimit:10;}
</style>
<g id="XMLID_1_">
	<path class="st0" d="M9.177,26.793c-0.114,0.827-0.084,1.633,0.014,2.533c0.118-0.731,0.272-1.349,0.443-1.953
		c0,0-0.016,0.001-0.017-0.016C9.449,27.154,9.313,26.966,9.177,26.793z"/>
	<g>
		<path class="st1" d="M10.817,24.489c-0.3,0.608-0.538,1.133-0.745,1.641c0.119,0.157,0.238,0.314,0.389,0.486
			c0.201,0.202,0.419,0.42,0.654,0.653l0.386,0.389c0.152,0.172,0.35,0.294,0.533,0.448c0.366,0.293,0.749,0.601,1.131,0.91
			c0.232,0.153,0.479,0.305,0.712,0.474c0.595,0.381,1.191,0.778,1.848,1.093c1.104,0.604,2.269,1.125,3.497,1.596
			c0.475,0.192,0.95,0.368,1.44,0.527c0.703,0.248,1.422,0.479,2.155,0.678c1.795,0.53,3.65,0.961,5.55,1.277
			c3.41,0.566,6.969,0.821,10.486,0.786c1.242-0.014,2.483-0.061,3.706-0.139c0.804-0.062,1.625-0.125,2.412-0.219
			c3.857-0.418,7.555-1.218,10.883-2.392c4.012-1.441,7.455-3.441,9.789-5.755c0.794-0.772,1.409-1.586,1.895-2.394
			c-0.036-0.112-0.056-0.192-0.109-0.335c-0.178-0.445-0.508-1.078-0.972-1.835c-0.96-1.513-2.855-3.427-5.642-5.033
			c-5.529-3.295-14.446-5.285-23.653-4.683c-4.604,0.285-9.302,1.09-13.6,2.655c-0.479,0.147-0.956,0.326-1.417,0.521
			c-0.509,0.197-1.017,0.409-1.525,0.654c-1.079,0.492-2.139,1.048-3.15,1.635c-0.931,0.567-1.829,1.15-2.643,1.825
			c-0.44,0.307-0.814,0.66-1.188,1.029l-0.545,0.521c-0.093,0.1-0.187,0.168-0.28,0.269l-0.17,0.2
			C11.698,23.02,11.122,24.01,10.817,24.489z M19.932,18.823c0.158-0.087,0.349-0.158,0.523-0.262
			c0.507-0.261,1.013-0.522,1.537-0.767c5.916-2.755,13.398-4.196,20.651-3.967c6.301,0.2,12.439,1.681,17.23,4.665
			c7.171,4.492-1.859,3.797-5.63,3.486C43.35,21.094,33.22,19.44,22.358,21.992c-0.24,0.057-0.465,0.082-0.705,0.123
			c-0.514,0.068-1.029,0.087-1.499,0.056C17.858,22.031,16.55,20.709,19.932,18.823z"/>
	</g>
	<path class="st0" d="M19.554,36.329c0.212,0.057,0.424,0.129,0.621,0.203c0.04-0.227,0.08-0.439,0.121-0.65
		c0.014-0.065,0.012-0.113,0.026-0.178C20.055,35.923,19.805,36.126,19.554,36.329z"/>
	<path class="st0" d="M20.503,34.083c-0.061,0.535-0.121,1.086-0.181,1.62c0.454-0.372,0.907-0.776,1.374-1.229
		C21.288,34.36,20.895,34.214,20.503,34.083z"/>
	<g>
		<path class="st2" d="M27.369,42.508c1.009-0.635,2.306-1.345,3.711-2.156c2.156,0.258,4.338,0.37,6.516,0.353
			c-4.879,3.297-10.101,6.041-15.112,7.988c-0.636,0.25-1.337,0.502-2.053,0.754c-0.061-1.208-0.12-2.351-0.175-3.398
			C22.929,45.029,25.414,43.726,27.369,42.508z"/>
		<path class="st2" d="M39.895,75.845c-5.379,2.008-11.323,3.57-16.881,3.826c-0.136-1.044-0.272-2.104-0.393-3.18
			c5.748-0.344,11.862-2.105,17.347-4.295C39.949,73.422,39.93,74.633,39.895,75.845z"/>
	</g>
	<g>
		<path class="st3" d="M19.905,37.946c3.53,1.207,7.32,2.002,11.176,2.406c-1.406,0.811-2.702,1.521-3.711,2.156
			c-1.955,1.219-4.44,2.522-7.113,3.542C20.008,41.137,19.905,37.946,19.905,37.946z"/>
		<path class="st3" d="M37.597,40.705c0.694,0.006,1.388-0.004,2.064-0.029c0.036,1.403,0.11,3.804,0.176,6.868
			c-4.883,3.2-10.14,5.865-15.682,7.831c-1.035,0.361-2.151,0.726-3.301,1.059c-0.157-2.479-0.31-4.829-0.423-6.987
			c0.717-0.253,1.417-0.505,2.053-0.754C27.495,46.747,32.718,44.002,37.597,40.705z"/>
		<path class="st3" d="M39.968,72.195c-5.485,2.19-11.6,3.951-17.347,4.295c-0.189-1.59-0.363-3.23-0.537-4.869
			c5.998-0.547,12.358-2.64,17.946-5.125C40.019,68.385,39.994,70.306,39.968,72.195z"/>
		<path class="st3" d="M39.611,83.375c-4.772,1.421-10.361,2.533-15.654,2.538c-0.331-1.94-0.651-4.042-0.943-6.242
			c5.557-0.256,11.502-1.818,16.881-3.826C39.831,78.445,39.748,80.982,39.611,83.375z"/>
	</g>
	<g>
		<path class="st4" d="M24.155,55.375c5.542-1.966,10.8-4.631,15.682-7.831c0.108,5.047,0.219,11.9,0.192,18.953
			c-5.587,2.484-11.947,4.578-17.946,5.125c-0.498-5.113-0.921-10.39-1.229-15.187C22.004,56.101,23.12,55.737,24.155,55.375z"/>
		<path class="st4" d="M39.611,83.375c-0.321,6.079-0.857,11.166-1.725,13.845c-0.128,0.037-0.272,0.059-0.4,0.096
			c-0.016,0.001-0.016,0.001-0.032,0.001c-1.327-0.112-2.042-0.246-2.042-0.246s-1.345-0.143-3.658-0.719
			c-1.532-0.394-3.522-0.982-5.707-2.013c-0.787-2.052-1.477-4.979-2.09-8.426C29.25,85.908,34.84,84.796,39.611,83.375z"/>
	</g>
	<g>
		<path class="st5" d="M11.926,21.333l0.169-0.216c0.093-0.1,0.186-0.201,0.28-0.285l0.575-0.586
			c0.31-0.334,0.653-0.654,1.014-0.942c0.062-0.067,0.125-0.118,0.187-0.168c0.844-0.725,1.757-1.357,2.717-1.99
			c1.23-0.756,2.527-1.466,3.876-2.081c0.491-0.244,0.983-0.456,1.492-0.653c0.286-0.108,0.572-0.231,0.875-0.339
			c2.322-0.91,4.75-1.565,7.234-2.029c2.227-0.438,4.492-0.7,6.729-0.849c2.624-0.179,5.207-0.146,7.717,0.099
			c6.152,0.544,11.765,2.19,15.885,4.505c0.264,0.152,0.528,0.303,0.791,0.454c2.905,1.731,4.919,3.818,5.919,5.523
			c0.362,0.616,0.622,1.106,0.816,1.551c-0.179,0.394-0.405,0.806-0.664,1.219c-0.036-0.112-0.056-0.192-0.109-0.335
			c-0.178-0.445-0.508-1.078-0.972-1.835c-0.96-1.513-2.855-3.427-5.642-5.033c-5.529-3.295-14.446-5.285-23.653-4.683
			c-4.604,0.285-9.302,1.09-13.6,2.655c-0.479,0.147-0.956,0.326-1.417,0.521c-0.509,0.197-1.017,0.409-1.525,0.654
			c-1.079,0.492-2.139,1.048-3.15,1.635c-0.931,0.567-1.829,1.15-2.643,1.825c-0.44,0.307-0.814,0.66-1.188,1.029l-0.545,0.521
			c-0.093,0.1-0.187,0.168-0.28,0.269l-0.17,0.2c-0.945,1.052-1.521,2.042-1.826,2.521c-0.3,0.608-0.538,1.133-0.745,1.641
			c-0.17-0.22-0.306-0.408-0.424-0.549c-0.051-0.063-0.085-0.126-0.136-0.189c0.146-0.409,0.307-0.851,0.532-1.311
			C10.347,23.555,10.952,22.467,11.926,21.333z"/>
		<path class="st5" d="M19.932,18.823c0.158-0.087,0.349-0.158,0.523-0.262c0.507-0.261,1.013-0.522,1.537-0.767
			c5.916-2.755,13.398-4.196,20.651-3.967c6.301,0.2,12.439,1.681,17.23,4.665c7.171,4.492-1.859,3.797-5.63,3.486
			C43.35,21.094,33.22,19.44,22.358,21.992c-0.24,0.057-0.465,0.082-0.705,0.123c-0.514,0.068-1.029,0.087-1.499,0.056
			C17.858,22.031,16.55,20.709,19.932,18.823z"/>
	</g>
	<path class="st6" d="M31.843,5.501c-1.41,1.57-3.337,4.401-1.498,6.543c2.227-0.438,4.492-0.7,6.729-0.849
		c2.624-0.179,5.207-0.146,7.717,0.099c1.881-2.765-0.963-5.047-2.894-6.185c-1.552-0.071-3.101-0.078-4.68-0.019
		C35.445,5.157,33.643,5.289,31.843,5.501z"/>
	<g>
		<path class="st7" d="M20.256,46.049c0.055,1.047,0.114,2.19,0.175,3.398c-2.056,0.674-4.373,1.293-6.657,1.475
			c-0.088-1.046-0.158-2.076-0.243-3.057C15.779,47.572,18.094,46.904,20.256,46.049z"/>
		<path class="st7" d="M22.621,76.49c0.121,1.077,0.257,2.137,0.393,3.18c-1.643,0.078-3.258,0.041-4.814-0.143
			c-0.28-1.022-0.529-2.062-0.779-3.134C19.091,76.59,20.834,76.606,22.621,76.49z"/>
		<path class="st7" d="M50.651,67.036c3.602-2.071,7.044-4.523,10.184-7.287c-0.168,1.555-0.35,3.144-0.549,4.732
			c-2.866,2.334-5.952,4.386-9.145,6.167c-3.066,1.712-6.982,3.585-11.246,5.197c0.035-1.212,0.055-2.422,0.073-3.65
			C44.022,70.575,47.729,68.726,50.651,67.036z"/>
	</g>
	<g>
		<path class="st8" d="M12.833,34.805c1.666,0.97,3.44,1.808,5.323,2.528c-1.857,1.247-3.572,2.005-5.121,2.434
			C12.915,37.432,12.85,35.692,12.833,34.805z"/>
		<path class="st8" d="M20.744,15.065c-1.349,0.615-2.645,1.325-3.876,2.081c-0.961,0.633-1.873,1.264-2.717,1.99
			c-0.063,0.051-0.125,0.101-0.187,0.168c-1.499-3.833,2.801-8.383,5.425-10.707c-0.032,0.017-0.064,0.019-0.096,0.02
			c0.048-0.018,0.095-0.036,0.143-0.054c0.016-0.001,0.016-0.001,0.032-0.017c0.589-0.216,1.21-0.449,1.815-0.665
			c0.478-0.163,0.94-0.326,1.418-0.473c0.175-0.055,0.35-0.126,0.542-0.182c0.16-0.038,0.303-0.092,0.463-0.13
			c2.634-0.76,5.374-1.282,8.138-1.595c-1.41,1.569-3.337,4.401-1.498,6.543c-2.484,0.464-4.912,1.12-7.234,2.029
			c-0.303,0.108-0.588,0.232-0.875,0.339C21.727,14.609,21.235,14.821,20.744,15.065z"/>
		<path class="st8" d="M22.084,71.621c-1.929,0.185-3.817,0.207-5.63,0.033c-0.852-4.648-1.517-9.496-2.027-14.092
			c2.159-0.097,4.368-0.551,6.428-1.128C21.163,61.232,21.586,66.509,22.084,71.621z"/>
		<path class="st8" d="M26.047,94.338c-0.525-0.239-1.068-0.525-1.612-0.827c-1.682-1.825-3.106-4.531-4.327-7.826
			c1.248,0.147,2.542,0.228,3.849,0.227C24.57,89.359,25.26,92.286,26.047,94.338z"/>
		<path class="st8" d="M44.821,81.583c4.914-1.926,9.702-4.639,14.043-8.093c-1.479,7.478-3.61,14.367-6.737,18.776
			c-1.442,0.716-2.918,1.368-4.397,1.955c-2.767,1.088-6.179,2.183-9.844,2.998c0.868-2.679,1.404-7.766,1.725-13.845
			C41.51,82.804,43.262,82.189,44.821,81.583z"/>
		<path class="st8" d="M40.029,66.497c0.027-7.052-0.084-13.906-0.192-18.953c3.765-2.448,7.308-5.227,10.6-8.255
			c2.801-0.605,5.466-1.398,7.947-2.379c1.256-0.515,2.461-1.06,3.601-1.651c0.025,1.532,0.036,8.309-0.531,16.866
			c-3.529,3.585-7.526,6.72-11.786,9.332C47.002,63.09,43.68,64.876,40.029,66.497z"/>
	</g>
	<g>
		<path class="st9" d="M18.156,37.333c0.115,0.06,0.246,0.104,0.361,0.148c0.442,0.177,0.931,0.304,1.389,0.464
			c0,0,0.103,3.191,0.351,8.103c-2.163,0.855-4.477,1.523-6.725,1.817c-0.229-3.106-0.397-5.875-0.496-8.098
			C14.584,39.339,16.298,38.581,18.156,37.333z"/>
		<path class="st9" d="M20.854,56.435c-2.06,0.577-4.27,1.031-6.428,1.128c-0.247-2.298-0.46-4.533-0.652-6.64
			c2.285-0.182,4.601-0.801,6.658-1.475C20.545,51.605,20.697,53.955,20.854,56.435z"/>
		<path class="st9" d="M22.084,71.621c0.174,1.639,0.348,3.279,0.537,4.869c-1.787,0.115-3.53,0.1-5.2-0.096
			c-0.348-1.552-0.666-3.138-0.968-4.74C18.267,71.828,20.154,71.806,22.084,71.621z"/>
		<path class="st9" d="M23.957,85.912c-1.307,0-2.601-0.08-3.849-0.227c-0.7-1.878-1.342-3.952-1.908-6.157
			c1.556,0.184,3.171,0.22,4.814,0.143C23.306,81.871,23.627,83.972,23.957,85.912z"/>
		<path class="st9" d="M47.73,94.221c1.479-0.588,2.955-1.24,4.397-1.955c-1.057,1.508-2.238,2.714-3.53,3.569
			c-0.016,0.017-0.032,0.017-0.032,0.017c-3.829,1.176-7.189,1.511-9.43,1.563c-0.468-0.015-0.889-0.031-1.278-0.081
			c-0.129,0.005-0.258-0.006-0.372-0.018c0.128-0.037,0.272-0.059,0.4-0.096C41.551,96.405,44.963,95.309,47.73,94.221z"/>
		<path class="st9" d="M39.611,83.375c0.136-2.393,0.219-4.93,0.283-7.53c4.264-1.612,8.18-3.485,11.246-5.197
			c3.193-1.781,6.279-3.833,9.145-6.167c-0.387,3.016-0.854,6.067-1.422,9.009c-4.341,3.454-9.129,6.166-14.043,8.093
			C43.262,82.189,41.51,82.804,39.611,83.375z"/>
		<path class="st9" d="M39.968,72.195c0.026-1.889,0.051-3.81,0.061-5.698c3.651-1.621,6.973-3.407,9.639-5.04
			c4.259-2.612,8.257-5.747,11.786-9.332c-0.151,2.426-0.362,5-0.619,7.623c-3.14,2.764-6.582,5.216-10.184,7.287
			C47.729,68.726,44.022,70.575,39.968,72.195z"/>
		<path class="st9" d="M39.661,40.676c1.08-0.04,2.159-0.097,3.22-0.201c2.573-0.241,5.124-0.627,7.556-1.186
			c-3.292,3.028-6.834,5.806-10.6,8.255C39.771,44.48,39.697,42.079,39.661,40.676z"/>
	</g>
	<path class="st10" d="M41.898,5.109c3.071,0.127,6.054,0.5,8.834,1.074c0.016-0.017,0.032-0.001,0.049,0.014
		c3.72,1.539,9.601,4.756,9.896,9.602c-4.121-2.315-9.733-3.961-15.885-4.505C46.673,8.529,43.828,6.247,41.898,5.109z"/>
	<g>
		<path class="st11" d="M13.531,47.866c0.085,0.981,0.156,2.011,0.243,3.057c-1.833,0.165-3.645,0.056-5.264-0.513
			c-0.131-0.915-0.278-1.829-0.425-2.727C9.779,48.087,11.635,48.098,13.531,47.866z"/>
		<path class="st11" d="M18.2,79.528c-1.734-0.193-3.409-0.55-4.963-1.122c-0.075-0.288-0.15-0.559-0.225-0.847
			c-0.141-0.753-0.282-1.506-0.424-2.275c1.521,0.556,3.149,0.915,4.834,1.11C17.671,77.466,17.92,78.506,18.2,79.528z"/>
		<path class="st11" d="M69.418,50.214c-0.219,1.912-0.453,3.841-0.687,5.786c-0.107,0.149-0.215,0.298-0.339,0.432
			c-2.407,2.946-5.146,5.646-8.106,8.048c0.199-1.589,0.381-3.177,0.549-4.732C64.069,56.901,66.967,53.71,69.418,50.214z"/>
	</g>
	<g>
		<path class="st12" d="M5.709,28.553C5.897,28.82,6.07,29.136,6.338,29.4c0.321,0.375,0.657,0.75,0.995,1.141
			c0.321,0.391,0.72,0.699,1.088,1.057c-0.913,0.179-1.781,0.276-2.636,0.276c-0.09-0.691-0.181-1.381-0.287-2.055
			c-0.109-0.754-0.215-1.444-0.302-2.038C5.35,28.001,5.52,28.253,5.709,28.553z"/>
		<path class="st12" d="M13.035,39.768c0.099,2.223,0.267,4.992,0.496,8.098c-1.895,0.232-3.751,0.221-5.445-0.184
			c-0.045-0.353-0.09-0.691-0.152-1.043c-0.13-0.883-0.259-1.749-0.388-2.616c-0.197-1.397-0.395-2.793-0.592-4.173
			C8.406,40.264,10.479,40.476,13.035,39.768z"/>
		<path class="st12" d="M13.774,50.923c0.192,2.107,0.404,4.342,0.652,6.64c-1.692,0.063-3.36-0.1-4.912-0.607
			c-0.066-0.482-0.15-0.979-0.217-1.476c-0.145-0.866-0.275-1.749-0.404-2.615c-0.081-0.449-0.146-0.882-0.211-1.331
			c-0.062-0.369-0.109-0.754-0.171-1.123C10.13,50.978,11.941,51.088,13.774,50.923z"/>
		<path class="st12" d="M17.421,76.394c-1.685-0.195-3.312-0.554-4.834-1.11c-0.121-0.641-0.242-1.298-0.363-1.939
			c-0.146-0.882-0.292-1.78-0.455-2.678c1.471,0.51,3.048,0.822,4.684,0.987C16.755,73.257,17.073,74.842,17.421,76.394z"/>
		<path class="st12" d="M20.108,85.685c-1.604-0.182-3.15-0.512-4.587-0.99c-0.554-1.012-1.046-2.091-1.444-3.238
			c-0.327-0.988-0.575-2.012-0.84-3.051c1.554,0.571,3.23,0.928,4.963,1.121C18.766,81.734,19.409,83.807,20.108,85.685z"/>
		<path class="st12" d="M52.127,92.266c3.96-1.971,7.772-4.47,11.242-7.472c-0.731,1.173-1.545,2.268-2.412,3.253
			c-3.511,4.068-8.054,6.433-12.008,7.694c-0.112,0.036-0.239,0.074-0.352,0.094C49.888,94.98,51.07,93.774,52.127,92.266z"/>
		<path class="st12" d="M60.286,64.481c2.96-2.402,5.699-5.102,8.106-8.048c0.098,0.045,0.181,0.09,0.263,0.135
			c-0.195,1.702-0.405,3.42-0.599,5.138c-0.024,0.227-0.048,0.437-0.072,0.664c-0.072,0.664-0.161,1.313-0.233,1.977
			c-2.597,3.47-5.614,6.519-8.888,9.143C59.431,70.548,59.898,67.497,60.286,64.481z"/>
		<path class="st12" d="M60.835,59.749c0.257-2.624,0.467-5.197,0.619-7.623c3.748-3.771,6.944-8.069,9.317-12.789
			c-0.435,3.469-0.895,7.133-1.352,10.878C66.967,53.71,64.069,56.901,60.835,59.749z"/>
	</g>
	<path class="st13" d="M68.392,56.433c0.098,0.045,0.181,0.09,0.263,0.135c-0.001-0.016,0.015-0.033,0.015-0.033
		C68.571,56.49,68.49,56.461,68.392,56.433z"/>
	<path class="st13" d="M73.57,22.288c0.001,0.032,0.002,0.048-0.013,0.081c0.016-0.001,0.016-0.001,0.016-0.001
		C73.572,22.337,73.571,22.321,73.57,22.288z"/>
	<g>
		<path class="st14" d="M4.452,18.676c0.242-0.864,0.696-1.672,1.221-2.74c0.03-0.05,0.077-0.1,0.107-0.165
			c0.382-0.579,0.988-1.618,1.982-2.656l0.496-0.551l0.671-0.606c0.47-0.389,0.872-0.856,1.391-1.198
			c0.063-0.051,0.126-0.085,0.189-0.136c0.44-0.307,0.879-0.646,1.319-0.969C12.381,9.327,12.917,9,13.47,8.673
			c0.174-0.103,0.348-0.19,0.522-0.278c2.071-1.159,4.309-2.146,6.669-2.896c0.271-0.091,0.543-0.149,0.814-0.24
			c0.446-0.146,0.91-0.26,1.373-0.39c4.47-1.28,9.188-1.973,13.829-2.147C42.092,2.536,47.401,2.983,52.17,4.08
			c4.753,1.097,8.946,2.764,12.167,4.757c3.219,1.945,5.403,4.236,6.487,6.051c0.549,0.883,0.884,1.645,1.097,2.154
			c0.166,0.542,0.257,0.829,0.257,0.829s0.091,0.271,0.24,0.814c0.043,0.273,0.071,0.61,0.119,1.012
			c0.047,0.402,0.145,0.866,0.069,1.401c-0.007,0.258-0.028,0.55-0.049,0.857c-0.038,0.276-0.092,0.568-0.145,0.861
			c-0.397,1.887-1.443,4.12-3.366,6.225c-0.046,0.066-0.109,0.117-0.155,0.167c-0.403,0.435-0.855,0.871-1.308,1.275
			c-2.467,2.206-5.785,4.105-9.538,5.585c-1.925,0.734-3.984,1.343-6.128,1.827c-2.928,0.674-6.01,1.112-9.132,1.326
			c-1.046,0.071-2.11,0.111-3.175,0.103c-0.016,0.001-0.016,0.001-0.016,0.001c-2.112,0.047-4.245-0.019-6.366-0.214
			c-4.516-0.364-8.969-1.214-13.054-2.578c0.04-0.227,0.08-0.439,0.121-0.65c0.014-0.065,0.012-0.113,0.026-0.178
			c0.454-0.372,0.907-0.776,1.374-1.229c2.074,0.665,4.24,1.181,6.448,1.55c2.923,0.488,5.917,0.731,8.902,0.732
			c1.888,0.01,3.757-0.076,5.606-0.258c0.241-0.025,0.482-0.05,0.723-0.075c4.532-0.492,8.9-1.495,12.785-2.898
			c4.073-1.54,7.612-3.56,10.104-5.961c0.623-0.604,1.164-1.238,1.64-1.885c0.276-0.381,0.504-0.761,0.731-1.157
			c0.879-1.534,1.323-3.035,1.357-4.262c0.078-0.503,0.029-0.953-0.018-1.355c-0.047-0.402-0.075-0.723-0.118-0.996
			c-0.149-0.527-0.223-0.798-0.223-0.798s-0.091-0.271-0.256-0.797c-0.244-0.475-0.53-1.239-1.11-2.056
			c-1.08-1.702-3.191-3.77-6.191-5.465c-5.97-3.456-15.251-5.658-24.901-5.265c-4.819,0.164-9.762,0.881-14.354,2.344
			c-0.016,0.001-0.032,0.017-0.032,0.017c-0.479,0.147-0.923,0.341-1.385,0.504C19.621,7.039,17.889,7.75,16.275,8.6
			c-0.032,0.017-0.063,0.035-0.095,0.052c-0.963,0.568-1.944,1.089-2.806,1.767c-0.298,0.221-0.597,0.426-0.88,0.63
			c-0.157,0.119-0.313,0.254-0.47,0.373c-0.375,0.337-0.749,0.673-1.124,1.01c-0.593,0.539-1.023,1.135-1.442,1.571
			c-0.386,0.466-0.628,0.911-0.827,1.177c-0.258,0.429-0.469,0.824-0.633,1.202c-0.67,1.493-0.784,2.772-0.629,4.316
			c-0.202,1.944,0.066,3.483,1.384,5.515c0.118,0.141,0.254,0.329,0.425,0.565l0.001,0.016c-0.114,0.827-0.084,1.633,0.014,2.533
			c-0.016,0.436-0.033,0.856-0.018,1.243c-0.333-0.278-0.682-0.555-0.953-0.884c-0.32-0.359-0.639-0.702-0.959-1.045
			c-0.251-0.249-0.423-0.533-0.594-0.785c-0.341-0.487-0.614-0.881-0.801-1.148c-0.522-1.013-0.97-1.787-1.259-2.599l-0.001-0.016
			c-0.001-0.016-0.018-0.048-0.019-0.064c-0.218-1.073-0.446-2-0.745-3.086C4.022,20.112,4.124,19.382,4.452,18.676z"/>
		<path class="st14" d="M10.307,28.09l0.402,0.404c0.169,0.203,0.368,0.341,0.552,0.512c0.399,0.308,0.783,0.648,1.182,0.972
			c0.066,0.046,0.133,0.092,0.199,0.138c0.795,0.535,1.591,1.118,2.479,1.569c1.236,0.696,2.566,1.292,3.942,1.854
			c0.475,0.176,0.95,0.368,1.44,0.543c-0.061,0.535-0.121,1.086-0.181,1.62c-0.266,0.22-0.517,0.423-0.767,0.626
			c-0.261-0.087-0.523-0.174-0.784-0.261c-2.356-0.88-4.559-1.943-6.558-3.192c-0.78-0.568-1.59-1.086-2.29-1.689
			c-0.066-0.03-0.116-0.076-0.166-0.123c-0.197-0.525-0.379-1.083-0.565-1.738c0.118-0.73,0.272-1.349,0.443-1.953
			C9.836,27.592,10.071,27.825,10.307,28.09z"/>
		<path class="st14" d="M88.451,24.12l-10.877,0.842C77.92,24.707,82.862,21.376,88.451,24.12z"/>
		<path class="st14" d="M83.959,61.934c-0.059,1.019,0.215,2.299,1.844,2.287c-0.187,0.168-0.391,0.321-0.596,0.458
			c-0.441,0.291-0.914,0.583-1.387,0.875c-0.364,0.191-0.729,0.366-1.093,0.557c0.082-1.262-1.561-2.039-2.737-2.431
			c0.88-0.21,1.724-0.5,2.5-0.9C83.029,62.533,83.519,62.241,83.959,61.934z"/>
	</g>
	<g>
		<path class="st15" d="M8.421,31.598c0.066,0.046,0.116,0.092,0.183,0.154c0.284,0.264,0.583,0.495,0.883,0.742
			c0.515,0.384,1.03,0.784,1.56,1.168c0.149,0.107,0.298,0.215,0.448,0.322c0.43,0.29,0.876,0.564,1.338,0.821
			c0.017,0.887,0.082,2.627,0.202,4.962c-2.555,0.709-4.629,0.496-6.08,0.082c-0.086-0.578-0.172-1.139-0.257-1.701
			c-0.135-1.012-0.285-2.022-0.419-3.018c-0.17-1.107-0.324-2.198-0.493-3.257C6.64,31.874,7.508,31.777,8.421,31.598z"/>
		<path class="st15" d="M13.964,19.305c-0.36,0.288-0.703,0.607-1.014,0.942l-0.575,0.586c-0.094,0.084-0.187,0.184-0.28,0.285
			l-0.169,0.216c-0.974,1.134-1.579,2.221-1.882,2.749c-0.225,0.46-0.386,0.902-0.532,1.311c-0.272-0.361-0.48-0.741-0.686-1.072
			c-0.12-0.189-0.24-0.378-0.344-0.568l-0.264-0.587c-0.399-0.743-0.605-1.51-0.851-2.469c0.205-0.976,0.354-1.756,0.712-2.528
			l0.236-0.59c0.106-0.198,0.211-0.395,0.333-0.593c0.076-0.116,0.136-0.247,0.212-0.379c0.15-0.296,0.316-0.609,0.562-0.925
			c0.185-0.233,0.428-0.629,0.799-1.063c0.388-0.402,0.82-0.934,1.383-1.423c0.36-0.304,0.735-0.625,1.095-0.928
			c0.407-0.338,0.881-0.614,1.305-0.92c0.016-0.017,0.032-0.017,0.047-0.034c0.865-0.613,1.831-1.101,2.796-1.621
			c0.792-0.385,1.602-0.738,2.445-1.076c0.032-0.001,0.065-0.002,0.096-0.02C16.765,10.922,12.465,15.472,13.964,19.305z"/>
		<path class="st15" d="M16.453,71.654c-1.636-0.165-3.213-0.477-4.684-0.987c-0.333-2.005-0.683-4.025-1.034-6.077
			c-0.417-2.534-0.819-5.085-1.221-7.635c1.552,0.507,3.22,0.67,4.912,0.607C14.937,62.158,15.602,67.007,16.453,71.654z"/>
		<path class="st15" d="M24.435,93.511c-0.577-0.317-1.171-0.666-1.766-1.063c-2.647-1.741-5.262-4.354-7.148-7.752
			c1.438,0.479,2.983,0.808,4.587,0.99C21.329,88.98,22.753,91.686,24.435,93.511z"/>
		<path class="st15" d="M67.752,64.347c-0.256,2.22-0.494,4.472-0.75,6.692c-0.01,0.162-0.036,0.34-0.046,0.502
			c-0.038,0.292-0.074,0.6-0.096,0.891c-0.17,1.507-0.324,2.997-0.478,4.471c-0.092,1.423-0.606,2.782-1.105,4.108
			c-0.531,1.327-1.162,2.577-1.893,3.75c0,0,0.001,0.032-0.015,0.033c-3.47,3.002-7.282,5.5-11.242,7.472
			c3.127-4.409,5.258-11.298,6.737-18.776C62.138,70.866,65.154,67.817,67.752,64.347z"/>
		<path class="st15" d="M68.203,23.328c-0.194-0.444-0.454-0.935-0.816-1.551c-1-1.705-3.014-3.792-5.919-5.523
			c-0.264-0.151-0.528-0.303-0.791-0.454c-0.294-4.846-6.175-8.063-9.896-9.602c4.13,0.846,7.794,2.161,10.629,3.766
			c2.867,1.587,4.857,3.449,5.881,4.96c0.544,0.738,0.811,1.406,1.036,1.817c0.162,0.462,0.236,0.701,0.236,0.701
			s0.073,0.239,0.236,0.701c0.025,0.241,0.068,0.53,0.113,0.867c0.046,0.353,0.109,0.754,0.045,1.192
			C68.958,21.089,68.725,22.179,68.203,23.328z"/>
		<path class="st15" d="M71.035,37.357c-0.026,0.178-0.051,0.357-0.077,0.535c-0.049,0.421-0.098,0.843-0.162,1.265
			c-0.014,0.065-0.012,0.113-0.026,0.178c-2.373,4.72-5.569,9.019-9.317,12.789c0.568-8.557,0.556-15.334,0.531-16.866
			c1.726-0.887,3.335-1.867,4.763-2.937c0.565-0.425,1.098-0.848,1.597-1.302c0.484-0.438,0.951-0.891,1.385-1.359
			c1.319-1.405,2.28-2.893,2.92-4.337c-0.136,0.667-0.255,1.381-0.368,2.24C72.059,29.364,71.597,32.964,71.035,37.357z"/>
		<path class="st15" d="M69.458,62.089c0.014-0.065,0.011-0.146,0.024-0.211c0.061-0.099,0.122-0.182,0.183-0.281
			c0.467,0.838,1.109,2.895,0.371,7.328c0,0,9.408,6.91,20.984-6.303c-0.932,1.406-2.027,2.754-3.306,3.932
			c-3.851,3.613-9.533,5.697-14.14,5.498c-1.406-0.06-2.541-0.212-3.111-0.336c-0.845-0.146-1.527-0.282-2.177-0.403
			c0.363-2.805,0.725-5.642,1.071-8.463C69.396,62.591,69.419,62.332,69.458,62.089z"/>
		<path class="st15" d="M92.303,34.336c-0.315-0.65-0.898-1.144-1.355-1.708c-0.519-0.513-1.116-0.943-1.664-1.342
			c-1.172-0.698-2.349-1.106-3.195-1.284c-0.438-0.064-0.78-0.132-1.023-0.172c-0.227-0.04-0.372-0.034-0.372-0.034
			s-0.631-0.041-1.647-0.019c-0.998,0.07-2.396,0.235-3.812,0.756c-1.418,0.473-2.921,1.271-4.078,2.266
			c-1.111,0.929-1.977,1.93-2.609,2.728c0.013-0.097,0.025-0.195,0.038-0.276c0.359-3.354,0.66-6.076,0.831-7.551
			c0.24-2.204,0.237-3.575,0.156-5.331c0.541-0.198,1.114-0.413,1.799-0.648c0,0-2.561,7.034,2.399,5.913
			c-0.768,0.61-1.341,1.26-2.157,1.872c1.352-0.954,2.468-1.319,4.253-1.902c0.223-0.089,0.542-0.182,1.006-0.28
			c0.208-0.04,0.464-0.114,0.752-0.173c0.289-0.043,0.61-0.087,0.963-0.133c0.16-0.038,0.401-0.063,0.611-0.055
			c0.193-0.007,0.354-0.029,0.354-0.029s0.177-0.007,0.403-0.015c0.242-0.009,0.501,0.03,0.662,0.024
			c0.275,0.006,0.501,0.03,0.711,0.038c0.097,0.013,0.195,0.025,0.292,0.038c0.081-0.003,0.146,0.011,0.227,0.024
			c0.113,0.012,0.211,0.024,0.308,0.037c0.032-0.001,0.065,0.014,0.081,0.013c4.406,0.884,8.48,4.104,8.226,12.86
			c-0.133-0.528-0.303-1.199-0.495-2.031C93.591,36.853,93.122,35.547,92.303,34.336z"/>
		<path class="st15" d="M89.283,34.271c-0.67-1.088-1.295-1.823-1.994-2.41c0.409,0.162,0.836,0.356,1.281,0.598
			c0.48,0.337,0.994,0.689,1.462,1.123c0.405,0.485,0.953,0.884,1.265,1.453c0.781,1.036,1.293,2.227,1.734,3.211
			c0.255,0.781,0.472,1.402,0.636,1.896c0.164,0.494,0.211,0.896,0.269,1.152c0.132,0.511,0.246,0.975,0.343,1.407
			c0.139,0.705,0.26,1.346,0.349,1.988c-1.935-3.849-3.02-4.389-3.616-3.931c-0.066-0.917-0.181-1.817-0.357-2.649
			c-0.121-0.641-0.306-1.279-0.486-1.789c-0.108-0.303-0.184-0.606-0.307-0.86C89.615,34.952,89.437,34.523,89.283,34.271z"/>
	</g>
	<g>
		<path class="st16" d="M9.191,29.326c0.186,0.655,0.368,1.213,0.565,1.738c-0.1-0.093-0.216-0.169-0.316-0.262
			c-0.084-0.078-0.183-0.155-0.267-0.232C9.159,30.183,9.175,29.762,9.191,29.326z"/>
		<path class="st16" d="M68.67,56.535c-0.098-0.045-0.18-0.074-0.278-0.103c0.124-0.134,0.231-0.283,0.339-0.432
			C68.705,56.179,68.695,56.357,68.67,56.535z"/>
		<path class="st16" d="M69.545,61.392c-0.026,0.162-0.036,0.324-0.062,0.486c0.061-0.099,0.122-0.182,0.183-0.281
			c0.467,0.838,1.109,2.895,0.371,7.328c0,0,9.408,6.91,20.984-6.303c0.474-0.712,0.914-1.454,1.306-2.179
			c1.13-2.14,1.922-4.267,2.5-6.08c0.561-1.828,0.923-3.359,1.157-4.432c0.201-1.089,0.308-1.69,0.308-1.69s0.106-0.617,0.259-1.704
			c0.153-1.087,0.32-2.658,0.377-4.581c0.18-3.815-0.569-9.176-3.452-13.78c-1.393-2.288-3.308-4.314-5.567-5.617
			c-2.259-1.303-4.84-1.691-7.211-1.683c-1.145,0.011-2.382,0.154-3.264,0.316c-0.32,0.06-0.592,0.135-0.848,0.193
			c-0.528,0.117-0.926,0.261-1.214,0.336c0,0-2.561,7.034,2.399,5.913l0.016-0.001c0.454-0.372,0.99-0.715,1.688-1.031
			c0.237-0.138,0.57-0.28,1.065-0.427c0.239-0.074,0.511-0.148,0.813-0.256c0.321-0.044,0.674-0.106,1.074-0.185
			c0.192-0.039,0.466-0.066,0.692-0.058c0.209-0.008,0.387-0.014,0.387-0.014s0.209-0.008,0.467-0.017
			c0.258,0.006,0.55,0.044,0.728,0.053c0.599,0.042,1.022,0.139,1.347,0.208c0.325,0.068,0.554,0.141,0.718,0.199
			c1.977,0.652,2.833,1.54,4.144,2.508c-1.374-0.933-2.574-1.082-4.395-1.466c-0.081-0.013-0.178-0.026-0.276-0.054
			c4.406,0.884,8.48,4.104,8.226,12.86c0.017,0.016,0.018,0.048,0.002,0.064c0.116,0.512,0.114,0.899,0.156,1.156
			c0.133,0.979,0.163,1.769,0.158,2.495c0,0,0,0,0.001,0.016c0.426,4.067-0.192,9.528-4.085,15.466
			c2.71-6.507,1.225-9.97,0.004-11.538c-0.167,1.136-0.351,2.272-0.603,3.282c-0.258,1.3-0.552,2.489-0.886,3.502
			c-0.351,0.981-0.642,1.815-0.945,2.343c-0.27,0.543-0.436,0.855-0.436,0.855s-0.392,0.725-1.207,1.804
			c-0.584,0.78-1.484,1.734-2.665,2.536c-0.059,1.019,0.215,2.299,1.844,2.287l0.016-0.001c0.188-0.152,0.376-0.305,0.548-0.44
			c0.313-0.254,0.628-0.459,0.845-0.709c0.249-0.235,0.452-0.436,0.638-0.621c0.374-0.369,0.671-0.622,0.841-0.822
			c0.509-0.632,0.991-1.118,1.409-1.602c0.046-0.05,0.077-0.1,0.123-0.166c0.093-0.1,0.186-0.217,0.262-0.316
			c0.03-0.05,0.061-0.083,0.108-0.133c0.43-0.597,0.859-1.194,1.3-1.92c-0.471,0.776-0.8,1.482-1.159,2.222
			c-0.36,0.723-0.835,1.419-1.429,2.345c-0.016,0.017-0.015,0.033-0.03,0.05c-0.153,0.232-0.416,0.516-0.771,0.949
			c-0.186,0.201-0.387,0.434-0.603,0.7c-0.215,0.282-0.529,0.52-0.841,0.822c-0.343,0.319-0.716,0.704-1.155,1.044
			c-0.456,0.324-0.943,0.665-1.43,1.022c-0.505,0.309-1.043,0.588-1.581,0.882c-0.523,0.262-1.08,0.46-1.604,0.689
			c-1.051,0.362-2.01,0.624-2.731,0.748c-0.689,0.139-1.139,0.172-1.139,0.172s-2.086,0.32-4.619-0.102
			c-0.276-0.054-0.537-0.109-0.814-0.179c-0.131-0.043-0.356-0.019-0.393-0.147l-0.001-0.452c0.033-0.421,0.065-0.842,0.098-1.262
			c0.073-0.632,0.082-1.246,0.092-1.843c0.027-0.582,0.006-1.13-0.029-1.645c-0.013-0.338-0.04-0.644-0.083-0.933
			c-0.007-0.193-0.03-0.37-0.053-0.547c-0.071-0.594-0.216-1.025-0.277-1.361c-0.093-0.335-0.166-0.542-0.22-0.718
			c-0.054-0.143-0.108-0.286-0.161-0.43c-0.285-0.715-0.597-1.285-0.97-1.771C69.858,58.96,69.677,60.16,69.545,61.392z
			 M88.451,24.12l-10.877,0.842C77.92,24.707,82.862,21.376,88.451,24.12z"/>
		<path class="st16" d="M82.727,66.111c-0.127,0.069-0.269,0.139-0.396,0.208c-0.508,0.229-1.018,0.393-1.495,0.588
			c-0.989,0.311-1.868,0.538-2.526,0.643c-0.656,0.138-1.059,0.169-1.059,0.169s-1.926,0.282-4.229-0.036
			c-0.133-0.108-0.052,0.325-0.04-0.628c0.04-0.647,0.032-1.292,0.008-1.937c-0.018-0.483-0.067-0.933-0.116-1.383
			c0.991,0.189,2.045,0.311,3.127,0.351c1.324,0.031,2.691-0.101,3.987-0.407C81.167,64.072,82.809,64.849,82.727,66.111z"/>
	</g>
	<path class="st17" d="M90.83,46.735c-0.037,0.292-0.091,0.584-0.129,0.876c1.22,1.568,2.705,5.03-0.004,11.538
		c3.893-5.938,4.512-11.399,4.085-15.466c0.002,0.92-0.047,1.761,0.023,2.775c-0.056-0.643-0.11-1.206-0.179-1.768
		c-1.935-3.849-3.02-4.389-3.616-3.931C91.146,42.689,91.062,44.758,90.83,46.735z"/>
	<g>
		<path class="st18" d="M3.703,23.674c0.03,0.806,0.094,1.642,0.213,2.687c0.074,0.675,0.22,1.993,0.409,3.615
			c0.004,0.097,0.023,0.177,0.026,0.273c0.187,1.542,0.391,3.116,0.581,4.738c0.118,0.996,0.253,2.024,0.372,3.052
			c0.001,0.016,0.002,0.048,0.002,0.064c0.047,0.402,0.11,0.787,0.157,1.188c0.203,1.558,0.424,3.131,0.613,4.737
			c0.132,0.931,0.264,1.878,0.38,2.826c0.02,0.112,0.024,0.209,0.044,0.321c0.111,0.803,0.221,1.605,0.333,2.424
			c0.131,0.915,0.262,1.83,0.393,2.745c0.065,0.433,0.113,0.851,0.177,1.284c0.089,0.658,0.195,1.332,0.284,1.99
			c0.039,0.192,0.063,0.385,0.086,0.578c0.431,2.905,0.862,5.793,1.324,8.648c0.274,1.716,0.563,3.416,0.852,5.099
			c0.224,1.25,0.431,2.469,0.654,3.687c0.059,0.288,0.119,0.593,0.178,0.881c0.184,1.042,0.384,2.067,0.584,3.092
			c0.02,0.096,0.039,0.176,0.059,0.272c0.391,1.389,0.718,2.797,1.155,4.12c0.233,0.621,0.481,1.224,0.762,1.811
			c2.053,4.425,5.309,7.773,8.532,9.831c1.753,1.145,3.494,1.967,5.066,2.57c1.719,0.662,3.251,1.072,4.505,1.365
			c0.862,0.194,1.578,0.344,2.163,0.452c0.016-0.001,0.016-0.001,0.032-0.001c1.055,0.17,1.622,0.214,1.622,0.214
			s0.747,0.133,2.122,0.211c0.501,0.03,1.067,0.057,1.729,0.064c2.513-0.126,6.03-0.564,10.127-1.895
			c4.049-1.329,8.718-3.779,12.418-7.952c1.564-1.753,2.957-3.79,4.05-6.041c0.195-0.395,0.373-0.805,0.552-1.215
			c0.562-1.36,1.138-2.786,1.274-4.34c0.187-1.475,0.39-2.951,0.592-4.443c0.009-0.178,0.036-0.34,0.062-0.503
			c0.59,0.236,1.259,0.453,2.057,0.633c0.587,0.156,1.789,0.385,3.277,0.475c2.393,0.136,5.269-0.197,7.895-1.183
			c2.675-0.955,5.184-2.485,7.306-4.42c2.089-1.95,3.664-4.284,4.822-6.538c1.141-2.286,1.914-4.477,2.489-6.37
			c0.51-1.891,0.838-3.484,1.023-4.589c0.168-1.12,0.258-1.736,0.258-1.736s0.39-2.516,0.437-6.439
			c0.08-3.892-0.592-9.369-3.344-14.333c-1.367-2.466-3.356-4.732-5.863-6.187c-2.508-1.471-5.379-1.864-7.861-1.788
			c-1.225,0.03-2.542,0.208-3.486,0.421c-0.337,0.061-0.623,0.169-0.911,0.228c-0.544,0.133-0.973,0.311-1.26,0.402
			c-0.509,0.196-0.937,0.39-1.349,0.599c-0.002-0.048,0.012-0.113,0.01-0.162c0.091-0.584,0.023-1.098-0.026-1.548
			c-0.033-0.451-0.079-0.82-0.107-1.126c-0.168-0.607-0.244-0.927-0.244-0.927s-0.092-0.303-0.26-0.91
			c-0.231-0.556-0.585-1.414-1.155-2.41c-1.156-2.006-3.444-4.502-6.798-6.604C58.404,3.347,47.73,0.567,36.616,1.079
			C32.039,1.25,27.369,1.925,22.931,3.22c-0.048,0.018-0.08,0.019-0.128,0.037c-0.399,0.112-0.814,0.24-1.213,0.368
			c-0.431,0.129-0.845,0.274-1.258,0.434c-0.048,0.018-0.079,0.035-0.128,0.037c-0.016,0.001-0.016,0.001-0.016,0.001
			c-1.148,0.382-2.26,0.827-3.339,1.335c-1.301,0.597-2.567,1.258-3.766,1.98c-0.095,0.052-0.174,0.103-0.268,0.155
			c-0.236,0.154-0.457,0.291-0.678,0.429c-0.33,0.222-0.661,0.444-0.992,0.65C10.628,9.054,10.11,9.46,9.592,9.851
			c-0.173,0.119-0.329,0.254-0.47,0.389c-0.328,0.287-0.639,0.605-0.967,0.891l-0.685,0.671l-0.51,0.6
			c-1.148,1.237-1.779,2.487-2.161,3.05L4.8,15.468c-0.521,1.181-0.906,2.083-1,3.039c-0.17,0.636-0.13,1.264-0.089,1.924
			c0.001,0.016,0.001,0.032,0.002,0.048c-0.019,0.775-0.026,1.469-0.032,2.163C3.693,22.98,3.69,23.319,3.703,23.674z
			 M68.286,71.314c0.363-2.805,0.725-5.642,1.071-8.463c0.039-0.26,0.061-0.519,0.101-0.762c0.014-0.065,0.011-0.146,0.024-0.211
			c0.026-0.162,0.036-0.324,0.062-0.486c0.131-1.231,0.312-2.432,0.445-3.647c0.373,0.486,0.685,1.056,0.97,1.771
			c0.054,0.143,0.108,0.286,0.161,0.43c0.055,0.175,0.127,0.382,0.22,0.718c0.061,0.337,0.206,0.767,0.277,1.361
			c0.023,0.177,0.045,0.353,0.053,0.547c0.043,0.289,0.071,0.594,0.083,0.933c0.035,0.515,0.056,1.063,0.029,1.645
			c-0.01,0.597-0.019,1.211-0.092,1.843c-0.033,0.421-0.065,0.842-0.098,1.262l0.001,0.452c0.037,0.128,0.262,0.103,0.393,0.147
			c0.277,0.07,0.537,0.125,0.814,0.179c2.533,0.422,4.619,0.102,4.619,0.102s0.451-0.033,1.139-0.172
			c0.721-0.124,1.68-0.386,2.731-0.748c0.524-0.229,1.081-0.428,1.604-0.689c0.538-0.294,1.076-0.573,1.581-0.882
			c0.487-0.357,0.974-0.698,1.43-1.022c0.439-0.339,0.812-0.724,1.155-1.044c0.311-0.302,0.625-0.54,0.841-0.822
			c0.216-0.266,0.417-0.5,0.603-0.7c0.355-0.433,0.619-0.717,0.771-0.949c0.015-0.017,0.015-0.033,0.03-0.05
			c0.595-0.926,1.069-1.621,1.429-2.345c0.36-0.74,0.688-1.446,1.159-2.222c-0.441,0.726-0.87,1.323-1.3,1.92
			c-0.047,0.05-0.078,0.084-0.108,0.133c-0.077,0.1-0.169,0.216-0.262,0.316c-0.046,0.066-0.076,0.116-0.123,0.166
			c-0.418,0.484-0.9,0.97-1.409,1.602c-0.17,0.2-0.467,0.453-0.841,0.822c-0.187,0.184-0.389,0.386-0.638,0.621
			c-0.217,0.25-0.532,0.456-0.845,0.709c-0.172,0.135-0.36,0.288-0.548,0.44l-0.016,0.001c-0.187,0.168-0.391,0.321-0.596,0.458
			c-0.441,0.291-0.914,0.583-1.387,0.875c-0.364,0.191-0.729,0.366-1.093,0.557c-0.127,0.069-0.269,0.139-0.396,0.208
			c-0.508,0.229-1.018,0.393-1.495,0.588c-0.989,0.311-1.868,0.538-2.526,0.643c-0.656,0.138-1.059,0.169-1.059,0.169
			s-1.926,0.282-4.229-0.036c-0.133-0.108-0.052,0.325-0.04-0.628c0.04-0.647,0.032-1.292,0.008-1.937
			c-0.018-0.483-0.067-0.933-0.116-1.383c0.991,0.189,2.045,0.311,3.127,0.351c1.324,0.031,2.691-0.101,3.987-0.407
			c0.88-0.21,1.724-0.5,2.5-0.9c0.539-0.246,1.029-0.539,1.469-0.846c1.18-0.803,2.081-1.756,2.665-2.536
			c0.815-1.079,1.207-1.804,1.207-1.804s0.166-0.313,0.436-0.855c0.303-0.528,0.595-1.362,0.945-2.343
			c0.333-1.013,0.628-2.202,0.886-3.502c0.253-1.01,0.436-2.146,0.603-3.282c0.037-0.292,0.091-0.584,0.129-0.876
			c0.233-1.977,0.317-4.046,0.18-5.977c-0.066-0.917-0.181-1.817-0.357-2.649c-0.121-0.641-0.306-1.279-0.486-1.789
			c-0.108-0.303-0.184-0.606-0.307-0.86c-0.245-0.507-0.422-0.936-0.577-1.189c-0.67-1.088-1.295-1.823-1.994-2.41
			c0.409,0.162,0.836,0.356,1.281,0.598c0.48,0.337,0.994,0.689,1.462,1.123c0.405,0.485,0.953,0.884,1.265,1.453
			c0.781,1.036,1.293,2.227,1.734,3.211c0.255,0.781,0.472,1.402,0.636,1.896c0.164,0.494,0.211,0.896,0.269,1.152
			c0.132,0.511,0.246,0.975,0.343,1.407c0.139,0.705,0.26,1.346,0.349,1.988c0.069,0.562,0.123,1.125,0.179,1.768
			c-0.07-1.014-0.021-1.855-0.023-2.775c-0.001-0.016-0.001-0.016-0.001-0.016c0.005-0.726-0.024-1.516-0.158-2.495
			c-0.042-0.257-0.04-0.644-0.156-1.156c0.016-0.017,0.014-0.049-0.002-0.064c-0.133-0.528-0.303-1.199-0.495-2.031
			c-0.379-1.067-0.847-2.373-1.667-3.584c-0.315-0.65-0.898-1.144-1.355-1.708c-0.519-0.513-1.116-0.943-1.664-1.342
			c-1.172-0.698-2.349-1.106-3.195-1.284c-0.438-0.064-0.78-0.132-1.023-0.172c-0.227-0.04-0.372-0.034-0.372-0.034
			s-0.631-0.041-1.647-0.019c-0.998,0.07-2.396,0.235-3.812,0.756c-1.418,0.473-2.921,1.271-4.078,2.266
			c-1.111,0.929-1.977,1.93-2.609,2.728c0.013-0.097,0.025-0.195,0.038-0.276c0.359-3.354,0.66-6.076,0.831-7.551
			c0.24-2.204,0.237-3.575,0.156-5.331c0,0,0,0-0.016,0.001c0.015-0.033,0.014-0.049,0.013-0.081
			c0.001,0.032,0.002,0.048,0.003,0.081c0.541-0.198,1.114-0.413,1.799-0.648c0.288-0.075,0.686-0.219,1.214-0.336
			c0.256-0.058,0.528-0.133,0.848-0.193c0.881-0.162,2.119-0.305,3.264-0.316c2.372-0.008,4.952,0.38,7.211,1.683
			c2.259,1.303,4.175,3.329,5.567,5.617c2.883,4.604,3.632,9.965,3.452,13.78c-0.057,1.922-0.224,3.494-0.377,4.581
			c-0.153,1.087-0.259,1.704-0.259,1.704s-0.107,0.601-0.308,1.69c-0.234,1.074-0.596,2.604-1.157,4.432
			c-0.578,1.813-1.37,3.94-2.5,6.08c-0.392,0.725-0.833,1.467-1.306,2.179c-0.932,1.406-2.027,2.754-3.306,3.932
			c-3.851,3.613-9.533,5.697-14.14,5.498c-1.406-0.06-2.541-0.212-3.111-0.336C69.619,71.571,68.936,71.435,68.286,71.314z
			 M73.155,36.229c0.666-0.735,1.599-1.673,2.73-2.506c1.114-0.848,2.461-1.496,3.769-1.9c1.322-0.453,2.577-0.564,3.462-0.63
			c0.903-0.018,1.469,0.01,1.469,0.01s0.113,0.012,0.325,0.052c0.211,0.024,0.503,0.078,0.877,0.145
			c0.325,0.052,0.7,0.167,1.109,0.313c0.167,0.155,0.319,0.327,0.47,0.499c0.555,0.593,0.954,1.352,1.425,2.303
			c0.122,0.254,0.251,0.668,0.447,1.177c0.106,0.238,0.149,0.543,0.225,0.847c0.147,0.479,0.283,1.103,0.339,1.73
			c0.367,2.471,0.205,5.479-0.223,8.286c-0.254,1.413-0.476,2.793-0.817,4.049c-0.275,1.269-0.571,2.41-0.892,3.341
			c-0.337,0.916-0.615,1.685-0.887,2.179c-0.256,0.494-0.391,0.773-0.391,0.773s-0.363,0.659-1.084,1.638
			c-0.722,0.963-1.935,2.186-3.614,3.04c-1.677,0.886-3.791,1.32-5.887,1.366c-1.113,0.009-2.23-0.078-3.268-0.217
			c-0.06-0.32-0.12-0.625-0.178-0.881c-0.137-0.64-0.315-1.085-0.425-1.436c-0.126-0.35-0.247-0.572-0.318-0.747
			c-0.157-0.301-0.312-0.585-0.483-0.837c-0.395-0.631-0.832-1.115-1.299-1.501c0.148-1.216,0.297-2.415,0.43-3.614
			c0.244-2.091,0.49-4.165,0.721-6.191c0.403-3.468,0.778-6.822,1.143-9.999c0.011-0.13,0.023-0.259,0.034-0.389
			C72.582,36.88,72.814,36.597,73.155,36.229z M5.196,27.781c0.153,0.22,0.324,0.472,0.513,0.772
			C5.897,28.82,6.07,29.136,6.338,29.4c0.321,0.375,0.657,0.75,0.995,1.141c0.321,0.391,0.72,0.699,1.088,1.057
			c0.066,0.046,0.116,0.092,0.183,0.154c0.284,0.264,0.583,0.495,0.883,0.742c0.515,0.384,1.03,0.784,1.56,1.168
			c0.149,0.107,0.298,0.215,0.448,0.322c0.43,0.29,0.876,0.564,1.338,0.821c1.666,0.97,3.44,1.808,5.323,2.528
			c0.115,0.06,0.246,0.104,0.361,0.148c0.442,0.177,0.931,0.304,1.389,0.464c3.53,1.207,7.32,2.002,11.176,2.406
			c2.156,0.258,4.338,0.37,6.516,0.353c0.694,0.006,1.388-0.004,2.064-0.029c1.08-0.04,2.159-0.097,3.22-0.201
			c2.573-0.241,5.124-0.627,7.556-1.186c2.801-0.605,5.466-1.398,7.947-2.379c1.256-0.515,2.461-1.06,3.601-1.651
			c1.726-0.887,3.335-1.867,4.763-2.937c0.565-0.425,1.098-0.848,1.597-1.302c0.484-0.438,0.951-0.891,1.385-1.359
			c1.319-1.405,2.28-2.893,2.92-4.337c-0.136,0.667-0.255,1.381-0.368,2.24c-0.223,1.799-0.686,5.399-1.248,9.793
			c-0.026,0.178-0.051,0.357-0.077,0.535c-0.049,0.421-0.098,0.843-0.162,1.265c-0.014,0.065-0.012,0.113-0.026,0.178
			c-0.435,3.469-0.895,7.133-1.352,10.878c-0.219,1.912-0.453,3.841-0.687,5.786c-0.026,0.179-0.035,0.356-0.061,0.535
			c0,0-0.016,0.017-0.015,0.033c-0.195,1.702-0.405,3.42-0.599,5.138c-0.024,0.227-0.048,0.437-0.072,0.664
			c-0.072,0.664-0.161,1.313-0.233,1.977c-0.256,2.22-0.494,4.472-0.75,6.692c-0.01,0.162-0.036,0.34-0.046,0.502
			c-0.038,0.292-0.074,0.6-0.096,0.891c-0.17,1.507-0.324,2.997-0.478,4.471c-0.092,1.423-0.606,2.782-1.105,4.108
			c-0.531,1.327-1.162,2.577-1.893,3.75c0,0,0.001,0.032-0.015,0.033c-0.731,1.173-1.545,2.268-2.412,3.253
			c-3.511,4.068-8.054,6.433-12.008,7.694c-0.112,0.036-0.239,0.074-0.352,0.094c-0.016,0.017-0.032,0.017-0.032,0.017
			c-3.829,1.176-7.189,1.511-9.43,1.563c-0.468-0.015-0.889-0.031-1.278-0.081c-0.129,0.005-0.258-0.006-0.372-0.018
			c-0.016,0.001-0.016,0.001-0.032,0.001c-1.327-0.112-2.042-0.246-2.042-0.246s-1.345-0.143-3.658-0.719
			c-1.532-0.394-3.522-0.982-5.707-2.013c-0.525-0.239-1.068-0.525-1.612-0.827c-0.577-0.317-1.171-0.666-1.766-1.063
			c-2.647-1.741-5.262-4.354-7.148-7.752c-0.554-1.012-1.046-2.091-1.444-3.238c-0.327-0.988-0.575-2.012-0.84-3.051
			c-0.075-0.288-0.15-0.559-0.225-0.847c-0.141-0.753-0.282-1.506-0.424-2.275c-0.121-0.641-0.242-1.298-0.363-1.939
			c-0.146-0.882-0.292-1.78-0.455-2.678c-0.333-2.005-0.683-4.025-1.034-6.077c-0.417-2.534-0.819-5.085-1.221-7.635
			c-0.066-0.482-0.15-0.979-0.217-1.476c-0.145-0.866-0.275-1.749-0.404-2.615c-0.081-0.449-0.146-0.882-0.211-1.331
			c-0.062-0.369-0.109-0.754-0.171-1.123c-0.131-0.915-0.278-1.829-0.425-2.727c-0.045-0.353-0.09-0.691-0.152-1.043
			c-0.13-0.883-0.259-1.749-0.388-2.616c-0.197-1.397-0.395-2.793-0.592-4.173c-0.086-0.578-0.172-1.139-0.257-1.701
			c-0.135-1.012-0.285-2.022-0.419-3.018c-0.17-1.107-0.324-2.198-0.493-3.257c-0.09-0.691-0.181-1.381-0.287-2.055
			C5.389,29.065,5.283,28.375,5.196,27.781z M3.843,20.941c0.179-0.83,0.281-1.56,0.609-2.266c0.242-0.864,0.696-1.672,1.221-2.74
			c0.03-0.049,0.077-0.1,0.107-0.165c0.382-0.579,0.988-1.618,1.982-2.656l0.496-0.551l0.671-0.606
			c0.47-0.389,0.872-0.856,1.391-1.198c0.063-0.051,0.126-0.085,0.189-0.136c0.44-0.307,0.879-0.646,1.319-0.969
			C12.381,9.327,12.917,9,13.47,8.673c0.174-0.103,0.348-0.19,0.522-0.278c2.071-1.159,4.309-2.146,6.669-2.896
			c0.271-0.091,0.543-0.149,0.814-0.24c0.446-0.146,0.91-0.26,1.373-0.39c4.47-1.28,9.188-1.973,13.829-2.147
			C42.092,2.536,47.401,2.983,52.17,4.08c4.753,1.097,8.946,2.764,12.167,4.757c3.219,1.945,5.403,4.236,6.487,6.051
			c0.549,0.883,0.884,1.645,1.097,2.154c0.165,0.542,0.257,0.829,0.257,0.829s0.091,0.271,0.24,0.814
			c0.043,0.273,0.071,0.611,0.119,1.012c0.047,0.402,0.145,0.866,0.068,1.401c-0.006,0.258-0.028,0.55-0.049,0.857
			c-0.038,0.276-0.092,0.568-0.145,0.861c-0.397,1.887-1.443,4.12-3.366,6.225c-0.046,0.066-0.109,0.117-0.155,0.167
			c-0.403,0.435-0.855,0.871-1.308,1.275c-2.467,2.206-5.785,4.105-9.538,5.585c-1.925,0.734-3.984,1.343-6.128,1.827
			c-2.928,0.674-6.01,1.112-9.132,1.326c-1.046,0.071-2.11,0.111-3.175,0.103c-0.016,0.001-0.016,0.001-0.016,0.001
			c-2.112,0.047-4.245-0.019-6.366-0.214c-4.516-0.364-8.969-1.214-13.054-2.578c-0.196-0.073-0.409-0.146-0.621-0.203
			c-0.261-0.087-0.523-0.174-0.784-0.261c-2.357-0.88-4.559-1.943-6.558-3.192c-0.78-0.568-1.59-1.086-2.29-1.689
			c-0.066-0.03-0.116-0.076-0.166-0.123c-0.1-0.093-0.216-0.169-0.316-0.262c-0.084-0.078-0.183-0.155-0.267-0.232
			c-0.333-0.278-0.682-0.555-0.953-0.884c-0.32-0.359-0.639-0.702-0.959-1.045c-0.251-0.249-0.423-0.533-0.594-0.785
			c-0.341-0.487-0.614-0.881-0.801-1.148c-0.522-1.013-0.97-1.787-1.259-2.599l-0.001-0.016c-0.001-0.016-0.018-0.048-0.019-0.064
			C4.37,22.955,4.142,22.028,3.843,20.941z"/>
		<path class="st18" d="M8.218,23.166l0.264,0.587c0.104,0.19,0.224,0.379,0.344,0.568c0.206,0.331,0.414,0.711,0.686,1.072
			c0.051,0.063,0.085,0.126,0.136,0.189c0.118,0.141,0.254,0.329,0.424,0.549c0.119,0.157,0.238,0.314,0.389,0.486
			c0.201,0.202,0.419,0.42,0.654,0.653l0.386,0.389c0.152,0.172,0.35,0.294,0.533,0.448c0.366,0.293,0.749,0.601,1.131,0.91
			c0.232,0.153,0.479,0.305,0.712,0.474c0.595,0.381,1.191,0.778,1.848,1.093c1.104,0.604,2.269,1.125,3.497,1.596
			c0.475,0.192,0.95,0.368,1.44,0.527c0.703,0.248,1.422,0.479,2.155,0.678c1.795,0.53,3.65,0.961,5.55,1.277
			c3.41,0.566,6.969,0.821,10.486,0.786c1.242-0.014,2.483-0.061,3.706-0.139c0.804-0.062,1.625-0.125,2.412-0.219
			c3.857-0.418,7.555-1.218,10.883-2.392c4.012-1.441,7.455-3.441,9.789-5.755c0.794-0.772,1.409-1.586,1.895-2.394
			c0.259-0.413,0.486-0.825,0.664-1.219c0.522-1.149,0.755-2.239,0.755-3.126c0.064-0.438,0.001-0.839-0.045-1.192
			c-0.045-0.337-0.088-0.626-0.113-0.867c-0.163-0.462-0.236-0.701-0.236-0.701s-0.074-0.239-0.236-0.701
			c-0.225-0.411-0.492-1.079-1.036-1.817c-1.025-1.511-3.014-3.373-5.881-4.96c-2.835-1.604-6.499-2.92-10.629-3.766
			c-0.017-0.015-0.033-0.031-0.049-0.014c-2.781-0.574-5.764-0.946-8.834-1.074c-1.552-0.071-3.101-0.078-4.68-0.019
			c-1.773,0.066-3.575,0.198-5.374,0.411c-2.764,0.313-5.504,0.835-8.138,1.595c-0.16,0.038-0.303,0.092-0.463,0.13
			c-0.192,0.056-0.366,0.127-0.542,0.182c-0.479,0.147-0.94,0.309-1.418,0.473c-0.605,0.216-1.226,0.449-1.815,0.665
			c-0.015,0.017-0.015,0.017-0.032,0.017c-0.048,0.018-0.095,0.036-0.143,0.054c-0.843,0.338-1.652,0.691-2.445,1.076
			c-0.965,0.52-1.931,1.008-2.796,1.621c-0.016,0.017-0.032,0.017-0.047,0.034c-0.424,0.306-0.898,0.582-1.305,0.92
			c-0.36,0.304-0.735,0.624-1.095,0.928c-0.563,0.489-0.995,1.021-1.383,1.423c-0.371,0.433-0.614,0.83-0.799,1.063
			c-0.246,0.316-0.412,0.629-0.562,0.925c-0.076,0.132-0.135,0.263-0.212,0.379c-0.122,0.198-0.227,0.396-0.333,0.593l-0.236,0.59
			c-0.358,0.772-0.507,1.552-0.712,2.528c-0.155-1.543-0.041-2.822,0.629-4.316c0.163-0.377,0.375-0.772,0.633-1.202
			c0.2-0.266,0.441-0.71,0.827-1.177c0.419-0.435,0.849-1.032,1.442-1.571c0.375-0.337,0.749-0.673,1.124-1.01
			c0.157-0.119,0.313-0.254,0.47-0.373c0.283-0.204,0.582-0.409,0.88-0.63c0.862-0.678,1.843-1.198,2.806-1.767
			c0.032-0.017,0.063-0.035,0.095-0.052c1.614-0.851,3.346-1.561,5.129-2.209c0.462-0.162,0.906-0.357,1.385-0.504
			c0,0,0.016-0.017,0.032-0.017c4.593-1.463,9.536-2.18,14.354-2.344c9.651-0.393,18.931,1.81,24.901,5.265
			c3,1.695,5.111,3.762,6.191,5.465c0.579,0.817,0.866,1.581,1.11,2.056c0.165,0.526,0.256,0.797,0.256,0.797
			s0.075,0.272,0.224,0.799c0.042,0.273,0.071,0.594,0.118,0.996c0.047,0.402,0.096,0.852,0.018,1.355
			c-0.035,1.228-0.479,2.729-1.357,4.262c-0.227,0.396-0.455,0.775-0.731,1.157c-0.476,0.647-1.017,1.281-1.64,1.885
			c-2.492,2.401-6.031,4.421-10.104,5.961c-3.885,1.404-8.252,2.406-12.784,2.898c-0.241,0.025-0.482,0.05-0.723,0.075
			c-1.849,0.182-3.718,0.268-5.606,0.258c-2.985-0.001-5.98-0.244-8.902-0.732c-2.208-0.369-4.374-0.885-6.448-1.55
			c-0.408-0.114-0.8-0.261-1.192-0.391c-0.491-0.175-0.966-0.367-1.44-0.543c-1.376-0.562-2.706-1.157-3.942-1.854
			c-0.888-0.451-1.685-1.034-2.479-1.569c-0.066-0.046-0.133-0.092-0.199-0.138c-0.399-0.324-0.783-0.665-1.182-0.972
			c-0.184-0.171-0.383-0.308-0.552-0.512l-0.402-0.405c-0.236-0.265-0.47-0.499-0.672-0.717c0,0-0.016,0.001-0.017-0.016
			c-0.169-0.203-0.305-0.392-0.441-0.564l-0.001-0.016c-0.17-0.236-0.306-0.424-0.425-0.565c-1.318-2.032-1.586-3.571-1.384-5.515
			C7.613,21.656,7.82,22.423,8.218,23.166z"/>
		<path class="st18" d="M86.239,27.091c-0.016,0.001-0.049-0.014-0.081-0.013c-0.097-0.013-0.195-0.025-0.308-0.037
			c-0.081-0.013-0.146-0.027-0.227-0.024c-0.097-0.013-0.195-0.025-0.292-0.038c-0.21-0.008-0.437-0.032-0.711-0.038
			c-0.161,0.006-0.421-0.033-0.662-0.024c-0.226,0.008-0.403,0.015-0.403,0.015s-0.161,0.022-0.354,0.029
			c-0.21-0.008-0.451,0.017-0.611,0.055c-0.353,0.046-0.674,0.09-0.963,0.133c-0.288,0.059-0.544,0.133-0.752,0.173
			c-0.464,0.098-0.784,0.191-1.006,0.28c-1.785,0.583-2.901,0.948-4.253,1.902c0.816-0.611,1.389-1.262,2.157-1.872l0.016-0.001
			c0.454-0.372,0.99-0.715,1.688-1.031c0.237-0.138,0.57-0.28,1.065-0.427c0.239-0.074,0.511-0.148,0.813-0.256
			c0.321-0.044,0.674-0.106,1.074-0.185c0.192-0.039,0.466-0.066,0.692-0.058c0.209-0.008,0.387-0.014,0.387-0.014
			s0.209-0.008,0.467-0.017c0.258,0.006,0.55,0.044,0.728,0.053c0.599,0.042,1.022,0.139,1.347,0.208
			c0.325,0.068,0.554,0.141,0.718,0.199c1.977,0.652,2.833,1.54,4.144,2.508c-1.374-0.933-2.574-1.082-4.395-1.466
			C86.434,27.132,86.337,27.12,86.239,27.091z"/>
	</g>
</g>
</svg>
