<?xml version="1.0" encoding="utf-8"?>
<!-- Generator: Adobe Illustrator 16.0.0, SVG Export Plug-In . SVG Version: 6.00 Build 0)  -->
<!DOCTYPE svg PUBLIC "-//W3C//DTD SVG 1.1//EN" "http://www.w3.org/Graphics/SVG/1.1/DTD/svg11.dtd">
<svg role="img" version="1.1" xmlns="http://www.w3.org/2000/svg" xmlns:xlink="http://www.w3.org/1999/xlink" x="0px" y="0px"
	 width="399.96px" height="267.12px" viewBox="0 0 399.96 267.12" enable-background="new 0 0 399.96 267.12" xml:space="preserve">
<g id="Layer_9">
	<rect x="-19.887" y="-30.016" fill="#94DEEA" width="433.132" height="220.632"/>
</g>
<g id="Layer_2">
	<path fill="#A4D186" d="M321.277,127.147c0,0,2.981-7.457,7.456-4.971c0,0,5.468-4.971,8.451,0.497c0,0,2.486-5.965,6.96-4.971
		c0,0,4.475-3.978,7.457-1.989c0,0,2.981-3.479,6.462-2.485c0,0,1.492-4.972,3.978-2.983c0,0,4.473-4.971,7.456-1.988
		c0,0,4.475-1.492,4.972,2.485c0,0,4.97-1.491,6.462,1.989c0,0,2.983-4.474,6.96-0.994c0,0,1.851-3.48,6.96-0.995
		c0,0,6.96-4.474,10.937,0s3.977,32.81,3.977,32.81l-91.47-2.485L321.277,127.147z"/>
	<path fill="#87BC64" d="M-16.762,147.031c0,0,344.004-28.832,435.474-4.474l-5.468,130.244L-10.3,278.271L-16.762,147.031z"/>
	<path fill="#C6CECE" d="M124.419,137.089c0,0,29.33,16.405,48.22,37.781c0,0,18.805,21.063,26.347,31.815
		c10.797,15.391,24.938,32.3,30.849,41.086c7.445,11.067,17.372,21.55,27.314,27.019s156.095-1.988,156.095-1.988l2.982-107.874
		c0,0-34.798-10.438-41.758-12.925s-23.364-6.959-33.804-10.439s-41.759-7.457-43.25-8.451S124.419,137.089,124.419,137.089z"/>
	<path fill="none" stroke="#59893A" stroke-miterlimit="10" d="M-16.762,147.031c0,0,344.004-28.832,435.474-4.474l-5.468,130.244
		L-10.3,278.271L-16.762,147.031z"/>
	<path fill="none" stroke="#82AF64" stroke-miterlimit="10" d="M321.277,127.147c0,0,2.981-7.457,7.456-4.971
		c0,0,5.468-4.971,8.451,0.497c0,0,2.486-5.965,6.96-4.971c0,0,4.475-3.978,7.457-1.989c0,0,2.981-3.479,6.462-2.485
		c0,0,1.492-4.972,3.978-2.983c0,0,4.473-4.971,7.456-1.988c0,0,4.475-1.492,4.972,2.485c0,0,4.97-1.491,6.462,1.989
		c0,0,2.983-4.474,6.96-0.994c0,0,1.851-3.48,6.96-0.995c0,0,6.96-4.474,10.937,0s3.977,32.81,3.977,32.81l-91.47-2.485
		L321.277,127.147z"/>
</g>
<g id="Layer_3">
	<path fill="#E4F2F4" d="M202.644-24.198l-97.95,68.738l1.289,101.817l-0.879,0.971l184.322-6.556c0.43-1.718,0-99.669,0-99.669"/>
	<g>
		<ellipse fill="#A6C7C9" cx="202.604" cy="23.078" rx="11.7" ry="15.036"/>
		<g>
			<ellipse fill="#94DEEA" cx="202.859" cy="23.078" rx="9.103" ry="12.066"/>
			<ellipse fill="none" stroke="#6A9393" stroke-miterlimit="10" cx="202.859" cy="23.078" rx="9.103" ry="12.066"/>
		</g>
		<ellipse fill="none" stroke="#6A9393" stroke-miterlimit="10" cx="202.604" cy="23.078" rx="11.7" ry="15.036"/>
	</g>
	<path fill="#589699" d="M130.04,147.216c0.43-1.289,1.289-91.507,1.289-91.507l139.622,1.719l-1.718,84.203L130.04,147.216z"/>
	<path fill="#212626" d="M-1.42,39.384c0-1.289,0.43-43.391,0.43-43.391S173-8.302,174.29-9.162s30.932-21.91,30.932-21.91
		l87.21,67.878l-16.324,1.718L203.073-22.05l-98.38,66.589L-1.42,39.384z"/>
	<path fill="#C6E5E5" d="M-13.449,128.743c1.719,0,96.662-1.289,96.662-1.289l22.769,1.719l-0.43,10.31
		c0,0-118.572,3.867-118.572,2.578S-13.449,128.743-13.449,128.743z"/>
	<path fill="#759695" d="M84.297,127.231c-0.442-13.318,0.442-84.204,0.442-84.204l20.331,0.43l1.326,85.922L84.297,127.231z"/>
	<path fill="#212626" d="M106.841,41.532c0-1.289-8.592-48.976-8.592-48.976L-1.42-6.154l-1.718,42.961L106.841,41.532z"/>
	<path fill="none" stroke="#97C8C9" stroke-miterlimit="10" d="M202.644-24.198l-97.95,68.738l1.289,101.817l-0.879,0.971
		l184.322-6.556c0.43-1.718,0-99.669,0-99.669"/>
	<path fill="none" stroke="#6A9393" stroke-miterlimit="10" d="M84.087,127.024c-0.43-13.318,0.43-84.204,0.43-84.204l19.762,0.43
		l1.289,85.922L84.087,127.024z"/>
	<path fill="none" stroke="#6A9393" stroke-miterlimit="10" d="M289.425,140.771c0.43-1.718,0-99.669,0-99.669l-86.781-65.301
		l-97.95,68.738l-124.587-6.444l7.304,113.417L289.425,140.771z"/>
	<path fill="none" stroke="#6A9393" stroke-miterlimit="10" d="M-13.449,128.743c1.719,0,96.662-1.289,96.662-1.289l22.769,1.719
		l-0.43,10.31c0,0-118.572,3.867-118.572,2.578S-13.449,128.743-13.449,128.743z"/>
	<polygon fill="#E4F2F4" points="105.982,129.172 105.552,139.482 -12.59,144.209 -12.59,133.468 	"/>
	<polygon fill="none" stroke="#6A9393" stroke-miterlimit="10" points="106.298,129.583 106.298,139.517 -12.59,144.209
		-13.323,133.515 	"/>
	<path fill="none" stroke="#121414" stroke-miterlimit="10" d="M-1.42,39.384c0-1.289,0.43-43.391,0.43-43.391
		S173-8.302,174.29-9.162s30.932-21.91,30.932-21.91l87.21,67.878l-16.324,1.718L203.073-22.05l-98.38,66.589L-1.42,39.384z"/>
	<polyline fill="none" stroke="#121414" stroke-miterlimit="10" points="98.249,-7.443 -1.42,-6.154 -3.139,36.807 106.841,41.532
		"/>
	<polygon fill="#6D7A7A" points="106.841,47.117 -3.568,42.391 -3.139,35.518 106.841,41.103 	"/>
	<polygon fill="none" stroke="#3F4747" stroke-miterlimit="10" points="106.841,47.117 -3.568,42.391 -3.139,35.518 106.841,41.103
			"/>
	<polyline fill="#6D7A7A" points="104.098,41.186 203.503,-27.205 279.544,33.37 293.735,34.408 293.901,41.855 273.959,41.103
		202.644,-20.332 106.841,47.117 96.101,46.688 	"/>
	<polyline fill="none" stroke="#3F4747" stroke-miterlimit="10" points="103.877,41.338 203.503,-27.205 279.544,33.37
		293.735,34.408 293.901,41.855 273.959,41.103 202.644,-20.332 106.841,47.117 96.101,46.688 	"/>
	<path fill="none" stroke="#387575" stroke-miterlimit="10" d="M130.04,147.216c0.43-1.289,1.289-91.507,1.289-91.507l139.622,1.719
		l-1.718,84.203L130.04,147.216z"/>
</g>
<g id="Layer_4">
	<g>
		<path fill="#195E91" d="M95.37,167.148c0,0-0.429,1.461,0,2.491c0,0,6.69,2.147,12.694,0.859l1.544-0.43
			c0,0-0.172-3.178-2.917-3.093c-0.772,0.172-1.998-2.548-1.998-2.548L95.37,167.148z"/>
		<path fill="none" stroke="#014170" stroke-width="0.95" stroke-miterlimit="10" d="M95.37,167.148c0,0-0.429,1.461,0,2.491
			c0,0,6.69,2.147,12.694,0.859l1.544-0.43c0,0-0.172-3.178-2.917-3.093c-0.772,0.172-2.516-2.548-2.516-2.548L95.37,167.148z"/>
		<g>
			<path fill="#D7F3F4" d="M108.959,169.23c0.168,0.542,0.191,0.975,0.191,0.975l-1.544,0.43
				c-6.004,1.288-12.695-0.859-12.695-0.859c-0.124-0.298-0.176-0.96-0.188-1.283c0,0,4.677,1.601,8.873,1.277
				S108.959,169.23,108.959,169.23z"/>
			<path fill="none" stroke="#8CB5C4" stroke-width="0.95" stroke-miterlimit="10" d="M109.15,168.822c0.168,0.542,0,1.383,0,1.383
				l-1.544,0.43c-6.004,1.288-12.695-0.859-12.695-0.859c-0.124-0.298-0.176-0.96-0.188-1.283c0,0,3.909,1.033,8.106,1.326
				C106.417,170.068,109.15,168.822,109.15,168.822z"/>
		</g>
		<path fill="#D7F3F4" d="M109.608,170.069c0,0,0-2.921-2.917-3.093c-3.792-0.223-4.718,3.694-4.718,3.694s3.174,0.515,4.975,0.085
			S109.608,170.069,109.608,170.069z"/>
		<path fill="none" stroke="#8CB5C4" stroke-width="0.95" stroke-miterlimit="10" d="M109.864,170.097c0,0-0.043-3.175-2.96-3.347
			c-3.792-0.224-5.316,4.238-5.316,4.238s3.059,0.014,4.903-0.149C108.538,170.658,108.752,170.341,109.864,170.097z"/>
	</g>
	<g>
		<path fill="#195E91" d="M83.737,168.673c0,0-0.457,1.555,0,2.651c0,0,7.121,2.286,13.511,0.915l1.644-0.457
			c0,0-0.183-3.383-3.104-3.292c-0.822,0.183-1.826-1.371-1.826-1.371L83.737,168.673z"/>
		<path fill="none" stroke="#014170" stroke-width="0.95" stroke-miterlimit="10" d="M83.737,168.673c0,0-0.457,1.555,0,2.651
			c0,0,7.121,2.286,13.511,0.915l1.644-0.457c0,0-0.183-3.383-3.104-3.292c-0.822,0.183-1.826-1.371-1.826-1.371L83.737,168.673z"/>
		<g>
			<path fill="#D7F3F4" d="M98.201,170.889c0.179,0.577,0.203,1.038,0.203,1.038l-1.644,0.457
				c-6.39,1.371-13.511-0.915-13.511-0.915c-0.132-0.316-0.188-1.021-0.2-1.365c0,0,4.978,1.703,9.443,1.359
				S98.201,170.889,98.201,170.889z"/>
			<path fill="none" stroke="#8CB5C4" stroke-width="0.95" stroke-miterlimit="10" d="M98.404,170.454c0.179,0.577,0,1.473,0,1.473
				l-1.644,0.457c-6.39,1.371-13.511-0.915-13.511-0.915c-0.132-0.316-0.188-1.021-0.2-1.365c0,0,4.16,1.1,8.628,1.411
				C95.496,171.781,98.404,170.454,98.404,170.454z"/>
		</g>
		<path fill="#D7F3F4" d="M98.892,171.782c0,0,0-3.109-3.104-3.292c-4.036-0.237-5.021,3.932-5.021,3.932s3.378,0.548,5.295,0.091
			S98.892,171.782,98.892,171.782z"/>
		<path fill="none" stroke="#8CB5C4" stroke-width="0.95" stroke-miterlimit="10" d="M99.165,171.811c0,0-0.046-3.379-3.15-3.562
			c-4.036-0.238-5.658,4.511-5.658,4.511s3.256,0.015,5.219-0.159C97.752,172.408,97.981,172.071,99.165,171.811z"/>
	</g>
	<path fill="#CEAB89" d="M83.875,131.12c0,0-2.25,4.75-1.125,8.5s2.5,4.75,2.5,4.75l0.875,10.375c0,0-2.375,3.25-2.75,8.5
		s-0.125,5.875-0.125,5.875s5.117-1.292,8.506-1.834c2.282-0.365,2.869-0.041,2.869-0.041s-0.5-9.75,0.125-11s1.5-2.875,1.625-4.75
		s-0.5-9.75-0.5-9.75s0.75,14,0.375,15.625S95,160.995,95,164.62s0.25,2.875,0.25,2.875s4-0.875,5.875-1.75s4.25-0.125,4.25-0.125
		s-0.75-8-0.25-9.75s1-5.25,0.25-6.875s-2.25-15.75-2-19.875c0,0-4.625-1.125-9.625-0.5S83.875,131.12,83.875,131.12z"/>
	<path fill="none" stroke="#A87A54" stroke-width="0.95" stroke-miterlimit="10" d="M97.125,131.495c0,0,0,5.875,0.125,6.75
		s-0.625,2.125-1.875,1.75"/>
	<path fill="#A87A54" d="M93.125,161.87c-3,0-5.266-7.197-5.266-7.197s0.51,4.382,1.801,5.672S93.125,161.87,93.125,161.87z"/>
	<path fill="#A87A54" d="M97.875,160.62c0,0,2.625,0.625,3.75-0.625s2.25-3.25,2.25-3.25s-0.424,2.814-1.901,3.741
		C99.441,162.075,97.875,160.62,97.875,160.62z"/>
	<path fill="#A87A54" d="M94.875,154.995c-3.5,1.25-4.625-3-4.625-3s-0.289,2.698,1.634,3.562S94.875,154.995,94.875,154.995z"/>
	<path fill="#A87A54" d="M104.625,152.62c0,0,0,1.875-2.25,3.5S98,155.245,98,155.245s3.086,1.462,4.394,0.157
		S104.625,152.62,104.625,152.62z"/>
	<g>
		<path fill="#8EA5A5" d="M94.203,217.258c-3.221,0-5.832,1.397-5.832,3.123c0,1.724,2.611,3.121,5.832,3.121
			c3.222,0,5.833-1.397,5.833-3.121C100.036,218.655,97.425,217.258,94.203,217.258z M94.312,222.232
			c-2.12,0-3.838-0.896-3.838-2.003c0-1.107,1.718-2.003,3.838-2.003c2.119,0,3.836,0.896,3.836,2.003
			C98.148,221.336,96.431,222.232,94.312,222.232z"/>

			<ellipse fill="none" stroke="#5D6D6D" stroke-width="0.8" stroke-miterlimit="10" cx="94.204" cy="220.381" rx="5.832" ry="3.121"/>
		<path fill="none" stroke="#5D6D6D" stroke-width="0.8" stroke-miterlimit="10" d="M98.387,220.219
			c0,1.106-1.956,2.014-4.075,2.014c-2.12,0-4.048-0.945-4.048-2.052s1.929-1.954,4.048-1.954
			C96.431,218.227,98.387,219.112,98.387,220.219z"/>
	</g>
	<path fill="none" stroke="#A87A54" stroke-width="0.95" stroke-miterlimit="10" d="M83.875,131.12c0,0-2.25,4.75-1.125,8.5
		s2.5,4.75,2.5,4.75l0.875,10.375c0,0-2.375,3.25-2.75,8.5s-0.125,5.875-0.125,5.875s5.117-1.292,8.506-1.834
		c2.282-0.365,2.869-0.041,2.869-0.041s-0.5-9.75,0.125-11s1.5-2.875,1.625-4.75s-0.5-9.75-0.5-9.75s0.75,14,0.375,15.625
		S95,160.995,95,164.62s0.37,2.528,0.37,2.528s3.88-0.528,5.755-1.403s4.25-0.125,4.25-0.125s-0.75-8-0.25-9.75s1-5.25,0.25-6.875
		s-2.25-15.75-2-19.875c0,0-4.625-1.125-9.625-0.5S83.875,131.12,83.875,131.12z"/>
	<g>
		<path fill="#8EA5A5" d="M101.236,218.741l10.4-0.029c-0.182,0.729-1.09,1.26-1.69,1.1c-0.983-0.256-1.436-0.289-2.196-0.076
			c-0.817,0.231-1.016,0.103-1.672-0.072c-0.654-0.172-1.679,0.112-1.679,0.112s-0.835,0.18-1.405,0.04
			c-1.06-0.263-1.634,0.096-1.634,0.096L101.236,218.741z"/>
		<path fill="none" stroke="#5D6D6D" stroke-width="0.8" stroke-miterlimit="10" d="M101.236,218.741l10.4-0.029
			c-0.182,0.729-1.09,1.26-1.69,1.1c-0.983-0.256-1.436-0.289-2.196-0.076c-0.817,0.231-1.016,0.103-1.672-0.072
			c-0.654-0.172-1.679,0.112-1.679,0.112s-0.676,0.44-1.247,0.3c-1.061-0.261-1.792-0.164-1.792-0.164L101.236,218.741z"/>
		<path fill="#8EA5A5" d="M99.702,217.771c-1.867,0.021-3.41,0.825-3.444,1.796c-0.031,0.972,1.457,1.74,3.324,1.717
			c1.869-0.021,3.412-0.824,3.445-1.795C103.059,218.52,101.57,217.749,99.702,217.771z M100.543,219.445
			c-0.011,0.33-0.512,0.604-1.12,0.611c-0.603,0.007-1.086-0.255-1.077-0.585c0.014-0.332,0.513-0.605,1.119-0.615
			C100.073,218.85,100.555,219.115,100.543,219.445z"/>
		<path fill="none" stroke="#5D6D6D" stroke-width="0.8" stroke-miterlimit="10" d="M103.042,219.069
			c-0.58-1.081-2.023-1.317-3.34-1.299c-1.867,0.021-3.41,0.825-3.444,1.796c-0.031,0.972,1.457,1.74,3.324,1.717
			c1.869-0.021,3.381-0.686,3.413-1.654 M100.543,219.445c-0.011,0.33-0.512,0.604-1.12,0.611c-0.603,0.007-1.086-0.255-1.077-0.585
			c0.014-0.332,0.513-0.605,1.119-0.615C100.073,218.85,100.555,219.115,100.543,219.445z"/>
	</g>
	<g>
		<path fill="#8EA5A5" d="M99.826,222.711l8.747,3.265c-0.533,1.081-1.57,1.617-1.992,1.179c-0.689-0.718-1.054-0.909-1.805-0.816
			c-0.806,0.099-0.905-0.173-1.364-0.65c-0.46-0.478-1.47-0.357-1.47-0.357s-0.597-0.486-1.002-0.887
			c-0.755-0.745-1.62,0.131-1.62,0.131L99.826,222.711z"/>
		<path fill="none" stroke="#5D6D6D" stroke-width="0.8" stroke-miterlimit="10" d="M99.826,222.711l8.747,3.265
			c-0.533,1.081-1.57,1.617-1.992,1.179c-0.689-0.718-1.054-0.909-1.805-0.816c-0.806,0.099-0.905-0.173-1.364-0.65
			c-0.46-0.478-1.47-0.357-1.47-0.357s-0.508-0.118-0.913-0.519c-0.755-0.745-1.708-0.237-1.708-0.237L99.826,222.711z"/>
		<path fill="#8EA5A5" d="M99.044,220.703c-1.579-0.561-3.295,0.203-3.829,1.706c-0.534,1.505,0.315,3.178,1.895,3.739
			c1.581,0.562,3.296-0.202,3.83-1.705C101.474,222.94,100.625,221.264,99.044,220.703z M98.878,223.583
			c-0.182,0.514-0.745,0.781-1.259,0.598c-0.512-0.181-0.779-0.745-0.597-1.258c0.182-0.512,0.745-0.78,1.257-0.598
			C98.793,222.507,99.061,223.07,98.878,223.583z"/>
		<path fill="none" stroke="#5D6D6D" stroke-width="0.8" stroke-miterlimit="10" d="M101.143,223.591
			c0.077-1.868-0.985-2.493-2.099-2.888c-1.579-0.561-3.295,0.203-3.829,1.706c-0.534,1.505,0.315,3.178,1.895,3.739
			c1.581,0.562,3.296-0.202,3.83-1.705c0.014-0.039,0.027-0.078,0.039-0.117 M98.878,223.583c-0.182,0.514-0.745,0.781-1.259,0.598
			c-0.512-0.181-0.779-0.745-0.597-1.258c0.182-0.512,0.745-0.78,1.257-0.598C98.793,222.507,99.061,223.07,98.878,223.583z"/>
	</g>
</g>
<g id="Layer_5">
	<g>
		<path fill="#6D4738" d="M127.769,160.172c0,0-0.579,4.775-1.592,5.933s6.512,3.328,10.129,2.315s0.868-1.448,0.145-1.882
			s-3.473-1.014-3.328-2.46s0.434-3.328,0.434-3.328L127.769,160.172z"/>
		<path fill="none" stroke="#47281C" stroke-width="0.85" stroke-miterlimit="10" d="M127.769,160.172c0,0-0.579,4.775-1.592,5.933
			s6.512,3.328,10.129,2.315s0.868-1.448,0.145-1.882s-3.473-1.014-3.328-2.46s0.434-3.328,0.434-3.328L127.769,160.172z"/>
		<path fill="#B3F4F4" d="M126.489,165.565c0,0-0.508-0.218-0.943,0.58c-0.233,0.428-0.652,1.74-0.652,1.74s-0.435-0.145-0.435,0.29
			s-0.217,0.869,0.363,1.015s8.009,2.412,12.977,2.03c4.712-0.362,5.365-1.812,3.407-3.263c-1.921-1.424-5.438-1.74-5.438-1.74
			s-1.812,0.29-2.465,2.393c0,0-4.712-0.362-6.38-1.812C126.263,166.224,126.489,165.565,126.489,165.565z"/>
		<path fill="none" stroke="#64BCBA" stroke-width="0.85" stroke-miterlimit="10" d="M125.981,165.348c0,0-0.294-0.097-0.729,0.701
			c-0.233,0.428-0.358,1.837-0.358,1.837s-0.435-0.145-0.435,0.29s-0.217,0.869,0.363,1.015s8.009,2.412,12.977,2.03
			c4.712-0.362,5.365-1.812,3.407-3.263c-1.921-1.424-5.438-1.74-5.438-1.74s-1.812,0.29-2.465,2.393c0,0-4.712-0.362-6.38-1.812
			C126.263,166.224,125.981,165.348,125.981,165.348z"/>
	</g>
	<g>
		<path fill="#6D4738" d="M115.386,162.075c0,0-0.579,4.775-1.592,5.933s6.512,3.328,10.129,2.315s0.868-1.448,0.145-1.882
			s-3.473-1.014-3.328-2.46s0.434-3.328,0.434-3.328L115.386,162.075z"/>
		<path fill="none" stroke="#47281C" stroke-width="0.85" stroke-miterlimit="10" d="M115.386,162.075c0,0-0.579,4.775-1.592,5.933
			s6.512,3.328,10.129,2.315s0.868-1.448,0.145-1.882s-3.473-1.014-3.328-2.46s0.434-3.328,0.434-3.328L115.386,162.075z"/>
		<path fill="#B3F4F4" d="M114.106,167.469c0,0-0.508-0.218-0.943,0.58c-0.233,0.428-0.652,1.74-0.652,1.74s-0.435-0.145-0.435,0.29
			s-0.217,0.869,0.363,1.015s8.009,2.412,12.977,2.03c4.712-0.362,5.365-1.812,3.407-3.263c-1.921-1.424-5.438-1.74-5.438-1.74
			s-1.812,0.29-2.465,2.393c0,0-4.712-0.362-6.38-1.812C113.88,168.127,114.106,167.469,114.106,167.469z"/>
		<path fill="none" stroke="#64BCBA" stroke-width="0.85" stroke-miterlimit="10" d="M113.701,167.237c0,0-0.331-0.061-0.766,0.737
			c-0.233,0.428-0.424,1.814-0.424,1.814s-0.435-0.145-0.435,0.29s-0.217,0.869,0.363,1.015s8.009,2.412,12.977,2.03
			c4.712-0.362,5.365-1.812,3.407-3.263c-1.921-1.424-5.438-1.74-5.438-1.74s-1.812,0.29-2.465,2.393c0,0-4.712-0.362-6.38-1.812
			C113.88,168.127,113.701,167.237,113.701,167.237z"/>
	</g>
	<path fill="#D7F3F4" d="M121.174,98.548c0,0-5.354,8.538-4.341,16.497s3.618,22.43,3.618,22.43s-3.907,3.473-4.775,12.734
		s-2.026,12.734-2.026,12.734s2.899,1.639,5.933,1.302c2.605-0.289,3.907-0.868,3.907-0.868s0.47-4.896,1.881-9.116
		c0.048-0.145,0.869-3.039,1.158-3.907c1.461-4.388,3.184-5.21,3.618-6.367c0,0,1.737-1.736,1.881-3.473s-0.724,4.775-0.724,4.775
		s-3.328,4.052-4.196,11.143c-0.729,5.951-1.737,6.366-1.737,6.366s4.197,1.737,8.538,0.29c0,0,0.289-2.171,0.723-3.763
		s3.618-7.38,5.644-12.444c0.036-0.09,1.592-0.868,1.302-4.775c3.184-8.828,4.137-25.562,3.473-30.1
		c-0.869-5.933-3.039-12.3-3.039-12.3S135.645,103.034,121.174,98.548z"/>
	<path fill="#8BB2B2" d="M130.725,142.9c-2.46,2.171-5.499,0.218-5.499,0.218s1.623,2.046,3.501,1.576s1.998-1.432,1.998-1.432"/>
	<path fill="#8BB2B2" d="M140.854,146.082c-3.184,1.736-5.354-0.868-5.354-0.868s0.723,2.113,3.007,2.342
		C140.141,147.719,140.854,146.082,140.854,146.082"/>
	<path fill="none" stroke="#8BB2B2" stroke-width="0.85" stroke-miterlimit="10" d="M132.027,140.514c0,0,1.447-8.394,1.447-15.339
		s-0.29-9.551-0.29-9.551s2.17-0.145,3.039-2.604"/>
	<path fill="none" stroke="#8BB2B2" stroke-width="0.85" stroke-miterlimit="10" d="M121.174,98.548c0,0-5.354,8.538-4.341,16.497
		s3.618,22.43,3.618,22.43s-3.907,3.473-4.775,12.734s-2.026,12.734-2.026,12.734s2.899,1.639,5.933,1.302
		c2.605-0.289,3.907-0.868,3.907-0.868s0.47-4.896,1.881-9.116c0.048-0.145,0.869-3.039,1.158-3.907
		c1.461-4.388,3.184-5.21,3.618-6.367c0,0,1.737-1.736,1.881-3.473s-0.724,4.775-0.724,4.775s-3.225,4.065-4.196,11.143
		c-0.734,5.349-1.357,6.505-1.357,6.505s3.817,1.599,8.158,0.151c0,0,0.289-2.171,0.723-3.763s3.618-7.38,5.644-12.444
		c0.036-0.09,1.592-0.868,1.302-4.775c3.184-8.828,4.137-25.562,3.473-30.1c-0.869-5.933-3.039-12.3-3.039-12.3
		S135.645,103.034,121.174,98.548z"/>
	<path fill="#281C18" d="M125.394,38.968c0,0-1.294-0.647-1.941,0.462c0,0-1.849-1.941-2.866-0.832c0,0-1.386-0.646-1.849-0.185
		c0,0-1.664-0.555-1.941,0.37c0,0-2.958-0.647-3.143,1.202c0,0-1.571-0.369-1.756,0.925c0,0-3.144,0.925-2.126,3.698
		c0,0-1.294-0.277-1.109,0.924c0,0-2.866,0.554-2.034,3.513c0,0-0.924,1.756,0.462,1.941c0,0-2.403,1.479-0.647,3.605
		c0,0-0.462,2.958,2.126,2.403c0,0-2.034,0.647-0.924,2.588c0,0-0.185,2.681,2.958,2.126c0,0-0.832,1.756,0.37,2.218
		c0,0,0,1.757,1.941,1.017c0,0,0.185,1.941,2.219,1.571c0,0,1.017,1.386,2.219,0.555c0,0,0.924,2.589,2.866,1.479
		c0,0,1.109,1.109,1.756,0.185c0,0,1.849,0.647,3.605-1.017c0,0,2.409,0.462,3.238-1.294c0,0,2.956-0.74,3.048-2.219
		c0,0,1.756-1.016,1.571-2.773c0,0,3.513-4.345,1.941-6.286c0,0,1.018-1.387,0.093-2.312c0,0,0.647-2.126-0.555-2.958
		c0,0,1.109-1.294,0-2.034c0,0,0.199-1.129-0.36-1.755c-0.1-0.112-0.225-0.208-0.38-0.279
		C133.159,45.346,125.394,38.968,125.394,38.968z"/>
	<path fill="none" stroke="#110C0A" stroke-width="0.85" stroke-miterlimit="10" d="M125.394,38.968c0,0-1.294-0.647-1.941,0.462
		c0,0-1.849-1.941-2.866-0.832c0,0-1.386-0.646-1.849-0.185c0,0-1.664-0.555-1.941,0.37c0,0-2.958-0.647-3.143,1.202
		c0,0-1.571-0.369-1.756,0.925c0,0-3.144,0.925-2.126,3.698c0,0-1.294-0.277-1.109,0.924c0,0-2.866,0.554-2.034,3.513
		c0,0-0.924,1.756,0.462,1.941c0,0-2.403,1.479-0.647,3.605c0,0-0.462,2.958,2.126,2.403c0,0-2.034,0.647-0.924,2.588
		c0,0-0.185,2.681,2.958,2.126c0,0-0.832,1.756,0.37,2.218c0,0,0,1.757,1.941,1.017c0,0,0.185,1.941,2.219,1.571
		c0,0,1.017,1.386,2.219,0.555c0,0,0.924,2.589,2.866,1.479c0,0,1.109,1.109,1.756,0.185c0,0,1.849,0.647,3.605-1.017
		c0,0,2.409,0.462,3.238-1.294c0,0,2.956-0.74,3.048-2.219c0,0,1.756-1.016,1.571-2.773c0,0,3.513-4.345,1.941-6.286
		c0,0,1.018-1.387,0.093-2.312c0,0,0.647-2.126-0.555-2.958c0,0,1.109-1.294,0-2.034c0,0,0.199-1.129-0.36-1.755
		c-0.1-0.112-0.225-0.208-0.38-0.279C133.159,45.346,125.394,38.968,125.394,38.968z"/>
	<path fill="#67B4E8" d="M136.945,66.264c0.16,0.797,3.126-1.624,7.43,2.838c2.179,2.26,1.496,2.581,2.611,6.406
		c0.727,2.49,3.984,6.853,3.984,9.722c0,4.781-2.231,6.216-2.231,6.216s-5.897-1.275-7.172-6.694s-1.594-9.084-2.231-11.156
		S136.945,66.264,136.945,66.264z"/>
	<path fill="none" stroke="#1B7CB2" stroke-width="0.85" stroke-miterlimit="10" d="M136.945,66.264
		c0.16,0.797,3.126-1.624,7.43,2.838c2.179,2.26,2.05,3.978,3.166,7.803c0.727,2.49,3.43,5.456,3.43,8.324
		c0,4.781-2.231,6.216-2.231,6.216s-5.897-1.275-7.172-6.694s-1.594-9.084-2.231-11.156S136.945,66.264,136.945,66.264z"/>
	<path fill="#67B4E8" d="M119.095,100.211c0,0,9.562,3.825,17.691,2.869s7.969-2.072,7.969-2.072s-2.072-12.272-2.231-19.922
		c-0.263-12.631-5.415-15.745-10.838-15.938c-4.463-0.159-12.272-0.637-12.591,7.013s1.116,22.153,0.638,24.066
		S119.095,100.211,119.095,100.211z"/>
	<path fill="none" stroke="#1B7CB2" stroke-width="0.85" stroke-miterlimit="10" d="M138.198,67.573
		c-1.871-1.711-4.166-2.341-6.512-2.425c-4.463-0.159-12.272-0.637-12.591,7.013s1.116,22.153,0.638,24.066
		s-0.638,3.985-0.638,3.985s9.562,3.825,17.691,2.869s7.969-2.072,7.969-2.072s-2.072-12.272-2.231-19.922
		c-0.036-1.713-0.161-3.251-0.365-4.63"/>
	<path fill="none" stroke="#1B7CB2" stroke-width="0.85" stroke-miterlimit="10" d="M142.159,76.456
		c-0.649-4.391-2.093-7.175-3.96-8.883"/>
	<path fill="#67B4E8" d="M123.717,66.104c0,0-6.854,0.478-7.81,10.359c-0.675,6.98,1.753,18.328,9.084,17.691
		s0.797-11.475,0.797-11.475s-1.435,0.956-1.594-0.797S123.717,66.104,123.717,66.104z"/>
	<path fill="#1B7CB2" d="M124.992,83.261c0,0-2.709,1.594-3.347,4.622c0,0-0.056-2.989,1.354-3.856
		c1.811-1.113,1.992-0.774,1.992-0.774"/>
	<path fill="#1B7CB2" d="M124.673,82.839c-2.55-0.16-3.984,2.072-3.984,2.072s0.339-1.734,1.958-2.276s2.026,0.147,2.026,0.147"/>
	<path fill="none" stroke="#1B7CB2" stroke-width="0.85" stroke-miterlimit="10" d="M124.274,65.598c0,0-7.41,0.984-8.366,10.866
		c-0.675,6.98,1.753,18.328,9.084,17.691s1.095-10.95,1.095-10.95s-1.733,0.431-1.892-1.322c-0.042-0.459-0.095-1.76-0.149-3.43"/>
	<path fill="#6D4738" d="M128.817,66.423c0,0,0.956-3.985,0.478-6.854l9.084,0.957c0,0-0.159,6.375,0.797,7.172
		s-2.709,3.506-5.259,2.869S128.817,66.423,128.817,66.423z"/>
	<path fill="none" stroke="#47281C" stroke-width="0.85" stroke-miterlimit="10" d="M128.817,66.423c0,0,0.956-3.985,0.478-6.854
		l9.084,0.957c0,0-0.159,6.375,0.797,7.172s-2.709,3.506-5.259,2.869S128.817,66.423,128.817,66.423z"/>
	<path fill="#6D4738" d="M141.849,34.993c0,0,4.175,3.121,3.883,8.228c-0.185,3.235-0.74,3.975-0.462,5.639
		c0.185,1.109,0.851,3.864-1.479,8.135c-2.219,4.067-6.194,6.748-9.707,5.454c-3.154-1.162-12.018-6.656-11.186-16.547
		s6.164-11.603,8.598-12.387C136.95,31.757,141.849,34.993,141.849,34.993z"/>
	<path fill="none" stroke="#47281C" stroke-width="0.85" stroke-miterlimit="10" d="M141.849,34.993c0,0,4.175,3.121,3.883,8.228
		c-0.185,3.235-0.74,3.975-0.462,5.639c0.185,1.109,0.851,3.864-1.479,8.135c-2.219,4.067-6.194,6.748-9.707,5.454
		c-3.154-1.162-12.018-6.656-11.186-16.547s6.164-11.603,8.598-12.387C136.95,31.757,141.849,34.993,141.849,34.993z"/>
	<path fill="#281C18" d="M144.083,37.46c-0.999-1.416-1.626-2.222-1.625-2.221c0,0-5.508-3.482-10.962-1.725
		c-2.434,0.784-7.766,2.496-8.598,12.387c-0.221,2.627,0.819,6.749,2.589,9.152c0,0,1.433-13.404,9.247-16.806
		C141.908,35.124,144.083,37.46,144.083,37.46z"/>
	<path fill="none" stroke="#110C0A" stroke-width="0.85" stroke-miterlimit="10" d="M144.083,37.46
		c-1.136-1.975-2.235-2.468-2.234-2.467c0,0-4.899-3.236-10.354-1.479c-2.434,0.784-8.088,2.126-8.92,12.018
		c-0.221,2.627,1.142,7.118,2.911,9.521"/>
	<path fill="#6D4738" d="M126.422,55.766c-0.154,0.44-0.431,0.79-0.843,1.043c-1.529,0.94-4.252-0.647-4.992-2.218
		c-1-2.125-0.204-4.621,1.387-5.177c1.404-0.491,2.906,0.399,3.773,2.14c0,0,1.173,0.803,0.942,2.34"/>
	<path fill="none" stroke="#47281C" stroke-width="0.85" stroke-miterlimit="10" d="M126.422,55.766
		c-0.154,0.44-0.431,0.79-0.843,1.043c-1.529,0.94-4.252-0.647-4.992-2.218c-1-2.125-0.204-4.621,1.387-5.177
		c1.404-0.491,3.31-0.511,4.087,2.588"/>
	<path fill="none" stroke="#47281C" stroke-width="0.85" stroke-miterlimit="10" d="M121.696,52.279c0,0,1.294-2.311,3.698,0.37"/>
	<path fill="none" stroke="#47281C" stroke-width="0.85" stroke-miterlimit="10" d="M124.192,51.725c0,0-1.479,0.462-0.832,2.588
		c0.542,1.779,2.126,0.739,2.126,0.739"/>
	<path fill="none" stroke="#47281C" stroke-width="0.85" stroke-miterlimit="10" d="M139.261,45.531c0,0-0.73,1.521-0.092,2.958
		c0.739,1.664,1.664,0.185,2.403,1.664c0.301,0.602-0.186,1.941-1.572,1.941"/>
	<ellipse fill="#070707" cx="135.332" cy="47.889" rx="0.971" ry="1.525"/>

		<ellipse transform="matrix(0.9952 0.0981 -0.0981 0.9952 5.3767 -13.7147)" fill="#070707" cx="142.204" cy="47.839" rx="0.874" ry="1.373"/>
	<path fill="#281C18" d="M132.094,44.329c0.144-0.241,1.574-3.464,4.394-4.16c0,0-1.387-0.555-3.235,1.017
		C132.195,42.085,132.094,44.329,132.094,44.329z"/>
	<path fill="#281C18" d="M144.06,43.815c0,0-0.262-2.681-3.228-3.247c0,0,1.441-1.278,2.584,0
		C144.274,41.527,144.06,43.815,144.06,43.815z"/>
	<path fill="#511111" d="M132.328,50.338c0,0,2.126,3.143,4.992,3.513s4.622-0.647,4.622-0.647s-2.22,6.393-6.193,5.917
		c-2.312-0.277-2.589-2.958-2.866-4.992C132.669,52.569,132.328,50.338,132.328,50.338z"/>

		<ellipse transform="matrix(0.9958 0.0917 -0.0917 0.9958 5.7802 -12.2412)" fill="#912626" cx="136.164" cy="56.81" rx="1.433" ry="1.016"/>
	<path fill="#110C0A" d="M126.688,47.01c-1.849-1.664-1.941-5.362-1.941-5.362s-0.595,1.646,0.13,3.341S126.688,47.01,126.688,47.01
		z"/>
	<path fill="#110C0A" d="M127.982,45.254c-1.109-0.462-2.126-2.588-2.126-2.588s-0.07,0.875,0.565,1.874
		S127.982,45.254,127.982,45.254z"/>
	<path fill="#110C0A" d="M130.479,40.539c-1.387-0.37-3.79-1.756-3.79-1.756s0.751,1.125,1.895,1.517S130.479,40.539,130.479,40.539
		z"/>
	<path fill="#110C0A" d="M135.008,37.211c-0.832-1.386-5.27-1.757-5.547-1.757c0,0,2.276-0.436,3.694,0.234
		S135.008,37.211,135.008,37.211z"/>
	<path fill="#110C0A" d="M138.983,36.749c-1.571-2.496-5.824-3.051-6.286-2.958c0,0,3.137-0.348,4.438,0.597
		S138.983,36.749,138.983,36.749z"/>
	<path fill="#110C0A" d="M140.832,36.287c-0.462-1.017-2.681-2.218-2.681-2.218s1.404-0.074,1.967,0.674
		S140.832,36.287,140.832,36.287z"/>

		<ellipse transform="matrix(0.9958 0.0917 -0.0917 0.9958 5.7802 -12.2412)" fill="none" stroke="#751212" stroke-width="0.85" stroke-miterlimit="10" cx="136.164" cy="56.81" rx="1.433" ry="1.016"/>
	<g>
		<path fill="#67B4E8" d="M128.436,61.893c0,0-1.423-0.7-2.379,2.169s-0.159,0.479-0.159,0.479s0.319,5.737,7.013,9.244
			c0,0,0.318-3.347,2.55-4.144c0,0-2.55,0-4.94-2.709C129.102,65.324,127.569,63.34,128.436,61.893z"/>
		<path fill="#67B4E8" d="M138.914,63.805c0,0,0.017,4.181-2.374,5.456c0,0,2.356,1.323,3.347,3.666c0,0,0.956-3.347,0.319-5.419
			S138.914,63.805,138.914,63.805z"/>
		<path fill="none" stroke="#1B7CB2" stroke-width="0.85" stroke-miterlimit="10" d="M128.436,61.893c0,0-1.727,0.171-2.273,1.8
			c-0.962,2.867,0.16,6.216,6.854,9.722c0,0-0.387-3.288,1.845-4.084c0,0-1.845-0.059-4.235-2.769
			C129.207,64.954,128.201,63.143,128.436,61.893z"/>
		<path fill="none" stroke="#1B7CB2" stroke-width="0.85" stroke-miterlimit="10" d="M139.129,64.113c0,0-0.339,3.714-2.73,4.989
			c0,0,2.933,1.561,3.629,3.516c0,0,0.956-3.347,0.319-5.419S139.129,64.113,139.129,64.113z"/>
	</g>
	<path fill="#6D4738" d="M137.424,70.886c-1.753-1.275-3.985-2.391-6.375,0c-1.625,1.625-0.478,3.028,0.957,3.825
		s5.1,1.115,6.056,3.028s0.478,2.072,0.478,2.072s2.231,13.866,10.2,11.634c4.303-5.897-0.956-10.2-3.825-12.75
		s-4.303-3.984-4.303-3.984S139.177,72.161,137.424,70.886z"/>
	<path fill="none" stroke="#47281C" stroke-width="0.85" stroke-miterlimit="10" d="M137.424,70.886
		c-1.753-1.275-3.985-2.391-6.375,0c-1.625,1.625-0.478,3.028,0.957,3.825s5.1,1.115,6.056,3.028s1.002,3.052,1.002,3.052
		s1.708,12.886,9.676,10.654c4.426-4.678-0.956-10.2-3.825-12.75s-4.303-3.984-4.303-3.984S139.177,72.161,137.424,70.886z"/>
	<path fill="#6D4738" d="M124.992,94.155c0,0-2.869-8.447,0-10.678s3.347-0.957,6.853-4.144s4.463-4.781,4.463-4.781
		s1.984-8.286,6.694-6.056c3.028,1.434,4.463,3.985,1.913,4.303c-0.707,0.088-1.594-0.956-2.709,0.319s-0.551,1.438-0.638,2.391
		c-0.16,1.753-1.435,2.391-3.028,1.594c-0.713-0.356-3.188,13.069-9.403,15.619C126.096,93.967,124.992,94.155,124.992,94.155z"/>
	<path fill="none" stroke="#47281C" stroke-width="0.85" stroke-miterlimit="10" d="M125.354,83.205
		c2.554-1.857,3.138-0.824,6.491-3.872c3.506-3.188,4.463-4.781,4.463-4.781s1.984-8.286,6.694-6.056
		c3.028,1.434,4.463,3.985,1.913,4.303c-0.707,0.088-1.594-0.956-2.709,0.319s-0.551,1.438-0.638,2.391
		c-0.16,1.753-1.435,2.391-3.028,1.594c-0.713-0.356-3.727,12.025-9.403,15.619c-2.714,1.718-4.144,1.435-4.144,1.435"/>
	<path fill="none" stroke="#1B7CB2" stroke-width="0.85" stroke-miterlimit="10" d="M124.673,94.438c0,0-2.55-8.73,0.319-10.961
		c0.125-0.097,0.246-0.188,0.362-0.272"/>
</g>
<g id="Layer_6">
	<g>
		<path fill="#2D373D" d="M54.658,164.954l-0.142,4.525c0,0,3.415,1.22,6.591,0.879c0,0,0.341-1.19,0.341-0.906
			c0,0.282,0.284,0.906,0.284,0.906s5.441,1.971,10.096,1.305c3.96-0.565,4.754-1.334,4.754-1.334s-0.565-7.496-7.355-5.091
			c0,0-2.121-0.708-2.829-2.405c-0.707-1.697-3.819-1.132-6.931-0.142C56.355,163.682,54.658,164.954,54.658,164.954z"/>
		<path fill="#14191C" d="M66.963,163.455c0,0-3.536-1.557-5.658,2.405c0,0,3.305-2.834,5.644-2.251L66.963,163.455z"/>
		<path fill="none" stroke="#14191C" stroke-width="0.85" stroke-miterlimit="10" d="M76.449,169.12
			c0.223,0.815,0.132,1.209,0.132,1.209s-0.793,0.769-4.754,1.334c-4.655,0.666-10.096-1.305-10.096-1.305s-0.284-0.624-0.284-0.906
			c0-0.284-0.341,0.906-0.341,0.906c-3.176,0.341-6.591-0.879-6.591-0.879l0.043-1.388c0,0,3.428,1.587,7.001,0.679
			c0,0,7.378,2.871,14.81,0.442"/>
		<path fill="#14191C" d="M68.069,164.463c0,0-2.72-1.197-4.353,1.851c0,0,2.542-2.18,4.342-1.732L68.069,164.463z"/>
		<path fill="#14191C" d="M69.264,165.367c0,0-2.35-1.034-3.76,1.599c0,0,2.196-1.883,3.751-1.496L69.264,165.367z"/>
		<path fill="none" stroke="#14191C" stroke-width="0.85" stroke-miterlimit="10" d="M54.658,164.954l-0.142,4.525
			c0,0,3.415,1.22,6.591,0.879c0,0,0.341-1.19,0.341-0.906c0,0.282,0.284,0.906,0.284,0.906s5.441,1.971,10.096,1.305
			c3.96-0.565,4.611-1.232,4.611-1.232s0.727-7.667-7.213-5.192c0,0-2.121-0.708-2.829-2.405c-0.707-1.697-3.819-1.132-6.931-0.142
			C56.355,163.682,54.658,164.954,54.658,164.954z"/>
		<path fill="none" stroke="#14191C" stroke-width="0.85" stroke-miterlimit="10" d="M66.099,169.962
			c0.056-0.17,1.183-6.021,6.352-5.218c3.861,0.6,4.036,4.924,4.036,4.924"/>
	</g>
	<g>
		<path fill="#2D373D" d="M38.496,167.821l-0.151,4.836c0,0,3.649,1.303,7.042,0.938c0,0,0.364-1.271,0.364-0.969
			s0.303,0.969,0.303,0.969s5.814,2.105,10.788,1.395c4.231-0.604,5.08-1.426,5.08-1.426s-0.604-8.01-7.859-5.44
			c0,0-2.267-0.756-3.022-2.569s-4.081-1.209-7.406-0.151S38.496,167.821,38.496,167.821z"/>
		<path fill="#14191C" d="M51.645,166.22c0,0-3.778-1.663-6.045,2.569c0,0,3.531-3.027,6.031-2.405L51.645,166.22z"/>
		<path fill="none" stroke="#14191C" stroke-width="0.85" stroke-miterlimit="10" d="M61.634,172.042
			c0.238,0.871,0.288,1.522,0.288,1.522s-0.848,0.821-5.08,1.426c-4.974,0.711-10.788-1.395-10.788-1.395s-0.303-0.666-0.303-0.969
			s-0.364,0.969-0.364,0.969c-3.394,0.364-7.042-0.938-7.042-0.938l0.047-1.483c0,0,3.662,1.695,7.48,0.726
			c0,0,6.853,1.995,11.156,1.268S61.634,172.042,61.634,172.042z"/>
		<path fill="#14191C" d="M52.826,167.297c0,0-2.907-1.279-4.651,1.977c0,0,2.717-2.329,4.64-1.851L52.826,167.297z"/>
		<path fill="#14191C" d="M54.102,168.263c0,0-2.511-1.104-4.018,1.708c0,0,2.347-2.012,4.008-1.599L54.102,168.263z"/>
		<path fill="none" stroke="#14191C" stroke-width="0.85" stroke-miterlimit="10" d="M50.721,173.172
			c0.061-0.182,1.245-6.298,6.788-5.575c2.788,0.363,4.125,4.445,4.125,4.445"/>
		<path fill="none" stroke="#14191C" stroke-width="0.85" stroke-miterlimit="10" d="M38.496,167.821l-0.151,4.836
			c0,0,3.649,1.303,7.042,0.938c0,0,0.364-1.271,0.364-0.969s0.303,0.969,0.303,0.969s5.814,2.105,10.788,1.395
			c4.231-0.604,5.08-1.426,5.08-1.426s-0.604-8.01-7.859-5.44c0,0-2.267-0.756-3.022-2.569s-4.081-1.209-7.406-0.151
			S38.496,167.821,38.496,167.821z"/>
	</g>
	<path fill="#336689" d="M35.02,96.94c0,0-1.703,8.71-0.151,16.625c1.511,7.708,2.025,16.033,2.116,19.647
		c0.151,6.045,0,5.979,0,6.348c0,0-2.418,3.476-1.058,12.241c1.014,6.531,1.257,9.188,1.209,10.58
		c-0.05,1.455,0.35,2.917-0.262,3.777c-0.645,0.907,0.158,3.115,0.158,3.115s8.853-3.845,13.689-2.938l2.105,0.407
		c0,0-0.426-2.85-1.333-3.757s-1.36-11.334-1.058-13.753s0.906-5.593,1.662-8.615s0.907-6.196,0.907-6.196s0.756,8.312,0.151,10.277
		s-0.217,14.007,0.454,16.02c0.151,0.453-1.209,0.907-0.454,3.477l0.907,1.965c0,0,3.778-2.116,8.463-2.721s5.29-0.604,5.29-0.604
		s-0.604-3.173-1.511-3.627s-0.907-0.454-0.907-0.454s1.662-12.544,2.116-16.775s0.303-13.602-0.453-21.31
		s-2.721-22.065-2.267-24.03S35.02,96.94,35.02,96.94z"/>
	<path fill="#1E4960" d="M52.098,163.438c0,0-1.36-0.756-3.627-1.813s-6.952,1.36-7.557,1.662c0,0,5.126-4.188,7.708-2.571
		S52.098,163.438,52.098,163.438z"/>
	<path fill="#1E4960" d="M66.304,159.207c-1.62-1.54-5.592-0.22-7.447,0.965c0,0,4.125-0.982,6.098-0.831
		S66.304,159.207,66.304,159.207"/>
	<path fill="#1E4960" d="M40.46,151.65c0.454,0,3.388,1.366,5.806-1.656s3.715-7.109,3.715-7.109s-4.033,6.435-5.741,7.556
		S40.46,151.65,40.46,151.65z"/>
	<path fill="#1E4960" d="M44.517,153.915c0.604-0.151,2.267-0.453,3.174-1.965s3.325-6.499,3.325-6.499s-1.507,5.926-3.133,7.569
		C46.998,153.915,44.517,153.915,44.517,153.915z"/>
	<path fill="#1E4960" d="M58.671,152.486c-2.116-1.059-4.987-7.557-4.987-7.557s0.452,4.536,3.132,6.801
		C58.428,153.093,58.671,152.486,58.671,152.486z"/>
	<path fill="#1E4960" d="M61.81,149.534c-5.882,0.46-7.254-6.499-7.708-6.649c0,0,1.845,2.788,4.155,4.683
		S61.81,149.534,61.81,149.534z"/>
	<path fill="none" stroke="#1E4960" stroke-width="0.85" stroke-miterlimit="10" d="M34.113,105.252c0,0,5.696,2.259,9.626-0.008
		s4.127-3.468,4.127-3.468"/>
	<path fill="none" stroke="#1E4960" stroke-width="0.85" stroke-miterlimit="10" d="M59.05,101.021c0,0,2.418,4.836,6.197,4.534"/>
	<path fill="none" stroke="#1E4960" stroke-width="0.85" stroke-miterlimit="10" d="M53.772,111.772
		c1.378-0.687,2.276-2.984,2.557-4.97c0.161-1.14,0-4.875,0-4.875l-2.569,0.302c0,0,0.151,3.93-0.151,5.743
		s-0.907,3.022-1.209,3.476C52.4,111.449,52.395,112.459,53.772,111.772z"/>
	<path fill="none" stroke="#1E4960" stroke-width="0.85" stroke-miterlimit="10" d="M53.004,134.421c0,0,0.907-7.858,0.151-14.66
		s-0.756-8.312-0.756-8.312"/>
	<path fill="none" stroke="#1E4960" stroke-width="0.85" stroke-miterlimit="10" d="M35.02,96.94c0,0-1.703,8.71-0.151,16.625
		c1.511,7.708,2.025,16.033,2.116,19.647c0.151,6.045,0,5.979,0,6.348c0,0-2.418,3.476-1.058,12.241
		c1.014,6.531,1.257,9.188,1.209,10.58c-0.05,1.455,0.35,2.917-0.262,3.777c-0.645,0.907,0.158,3.115,0.158,3.115
		s8.89-2.96,13.984-2.943l1.81,0.412c0,0-0.426-2.85-1.333-3.757s-1.36-11.334-1.058-13.753s0.906-5.593,1.662-8.615
		s0.907-6.196,0.907-6.196s0.756,8.312,0.151,10.277s-0.217,14.007,0.454,16.02c0.151,0.453-1.209,0.907-0.454,3.477l0.907,1.965
		c0,0,3.796-1.991,8.463-2.721c3.872-0.605,5.29-0.604,5.29-0.604s-0.604-3.173-1.511-3.627s-0.907-0.454-0.907-0.454
		s1.662-12.544,2.116-16.775s0.303-13.602-0.453-21.31s-2.721-22.065-2.267-24.03S35.02,96.94,35.02,96.94z"/>
	<path fill="#B2F7F7" d="M60.91,54.027c0,0,3.59,1.934,5.8,6.214c1.602,3.104,7.205,8.141,8.7,9.528
		c1.934,1.795,6.352,10.633,0.414,12.29c-6.872,1.918-12.98-8.976-15.604-15.604S60.91,54.027,60.91,54.027z"/>
	<path fill="none" stroke="#5FB2B0" stroke-width="0.85" stroke-miterlimit="10" d="M60.91,54.027c0,0,3.59,1.934,5.8,6.214
		c1.602,3.104,7.205,8.141,8.7,9.528c1.934,1.795,6.352,10.633,0.414,12.29c-6.872,1.918-12.98-8.976-15.604-15.604
		S60.91,54.027,60.91,54.027z"/>
	<path fill="#F9C9B7" d="M79.138,60.104c0,0-2.21,1.104-3.038-2.486c-0.572-2.481,0.768-4.596,1.519-4.971
		c0.276-0.138-0.276-1.933-0.276-1.933s1.381-1.104,2.348,1.795c0.482,1.447,0.414,2.071,0.414,2.071L79.138,60.104z"/>
	<path fill="none" stroke="#D88E77" stroke-width="0.85" stroke-miterlimit="10" d="M79.138,60.104c0,0-2.21,1.104-3.038-2.486
		c-0.572-2.481,0.768-4.596,1.519-4.971c0.276-0.138-0.276-1.933-0.276-1.933s1.381-1.104,2.348,1.795
		c0.482,1.447,0.414,2.071,0.414,2.071L79.138,60.104z"/>
	<path fill="#5FB2B0" d="M83.026,62.655c1.86,2.425,0.993,3.085-0.712,3.938c-1.706,0.853-4.992-0.024-5.913-1.865
		c-0.921-1.842-0.708-3.978,0.998-4.831C79.104,59.045,81.772,61.021,83.026,62.655z"/>
	<path fill="#F9C9B7" d="M77.65,59.186c0,0-1.298,0.738-0.308,2.713c0.826,1.646-0.69,2.486-0.69,2.486s-0.414,2.347,2.209,3.176
		s1.795,0.276,1.795,0.276s0.553-2.762,1.243-3.452s1.795-0.69,2.624-2.762s-0.829-4.833-0.829-4.833L77.65,59.186z"/>
	<path fill="none" stroke="#D88E77" stroke-width="0.85" stroke-miterlimit="10" d="M77.188,59.281
		c-0.127,0.766-0.171,2.152,0.154,2.617c1.057,1.509-0.69,2.486-0.69,2.486s-0.414,2.347,2.209,3.176s1.795,0.276,1.795,0.276
		s0.553-2.762,1.243-3.452s1.795-0.69,2.624-2.762s-0.829-4.833-0.829-4.833h-5.523"/>
	<path fill="#F9C9B7" d="M81.761,52.646c0,0-3.176,0.967-3.59,4.143s1.381,6.767,3.59,5.662s2.413-0.173,2.413-0.173
		s2.175-2.81,1.454-5.903C84.661,52.232,81.761,52.646,81.761,52.646z"/>
	<path fill="none" stroke="#D88E77" stroke-width="0.85" stroke-miterlimit="10" d="M84.174,62.278c0,0,2.175-2.81,1.454-5.903
		c-0.966-4.143-3.866-3.729-3.866-3.729s-3.176,0.967-3.59,4.143s1.381,6.767,3.59,5.662c0.276-0.138,0.521-0.245,0.738-0.325"/>
	<path fill="#B2F7F7" d="M70.576,75.293c0,4.899-1.916-3.446,2.347-8.562c2.762-3.314,3.038-4.839,3.038-4.839
		s0.552,4.011,3.452,4.563s3.729-0.276,3.729-0.276l-1.381,4.419c0,0-0.251,9.826-5.36,10.792S70.576,75.293,70.576,75.293z"/>
	<path fill="none" stroke="#5FB2B0" stroke-width="0.85" stroke-miterlimit="10" d="M73.89,65.627c0,0,1.321,4.19,4.221,4.881
		s3.832-0.49,3.832-0.49"/>
	<path fill="none" stroke="#5FB2B0" stroke-width="0.85" stroke-miterlimit="10" d="M72.428,67.39
		c0.152-0.225,0.317-0.444,0.496-0.658c2.762-3.314,3.038-3.956,3.038-3.956s0.803,2.776,3.703,3.328s3.478,0.075,3.478,0.075
		l-1.381,4.419c0,0-0.829,10.495-5.938,11.461"/>
	<path fill="none" stroke="#5FB2B0" stroke-width="0.85" stroke-miterlimit="10" d="M72.428,67.39
		c-1.345,1.982-2.782,6.395-2.782,9.066"/>
	<path fill="#B2F7F7" d="M49.034,51.404c-0.415,0.138-5.938,0.69-6.905,0.552s-5.938,1.104-6.628,4.281s-0.138,23.614-0.138,24.028
		s0.527,7.606-0.609,12.22c-0.271,1.103-0.641,5.366-0.641,5.366s15.197,6.304,23.344,3.818s8.562-4.143,8.562-4.143
		S65.467,83.993,64.5,82.06s-0.829-13.097-0.829-17.123c0-5.248-0.347-9.438-3.59-11.6C55.938,50.575,49.034,51.404,49.034,51.404z"
		/>
	<path fill="none" stroke="#5FB2B0" stroke-width="0.85" stroke-miterlimit="10" d="M62.402,55.053
		c-0.411-0.514-1.738-1.327-2.321-1.716c-4.143-2.762-11.047-1.933-11.047-1.933c-0.415,0.138-5.938,0.69-6.905,0.552
		s-5.938,1.104-6.628,4.281s-0.138,23.614-0.138,24.028s-0.543,5.304-0.826,13.538c-0.054,1.563-0.321,4.521-0.321,4.521
		s15.094,5.831,23.241,3.345s8.562-4.143,8.562-4.143S65.467,83.993,64.5,82.06c-0.86-1.721-0.834-12.579-1.629-17.565"/>
	<path fill="#B2F7F7" d="M54.005,61.623c0,0-0.415,12.014-0.138,15.88s2.762,6.214,2.624,9.804s-1.519,14.914-1.519,14.914
		s1.602,0.459,2.209-0.552c0.415-0.69,1.519-12.29,1.519-14.5s-2.762-6.628-2.762-9.666s0.414-16.157,0.414-16.157L54.005,61.623z"
		/>
	<path fill="#B2F7F7" d="M26.802,66.042c0.414-0.138,4.695-2.071,6.628-5.248s3.038-7.319,5.662-8.009s5.523,10.909,0.138,17.813
		S26.802,84.683,24.04,83.44s2.347-17.261,2.347-17.261"/>
	<path fill="none" stroke="#5FB2B0" stroke-width="0.85" stroke-miterlimit="10" d="M40.622,68.368
		c-0.385,0.78-0.846,1.529-1.393,2.23C33.844,77.503,26.802,84.683,24.04,83.44s2.347-17.261,2.347-17.261"/>
	<path fill="none" stroke="#5FB2B0" stroke-width="0.85" stroke-miterlimit="10" d="M26.802,66.042
		c0.414-0.138,4.695-2.071,6.628-5.248s1.872-7.12,6.619-8.465"/>
	<path fill="#F9C9B7" d="M30.581,51.236c0,0,0.25-2.212,2.259-2.295c0,0,0.106,0.736,0.379,1.371
		c0.318,0.74,4.406,2.344,2.586,5.171c-1.82,2.827-3.102,1.666-3.102,1.666l-1.988-5.879"/>
	<path fill="none" stroke="#D88E77" stroke-width="0.85" stroke-miterlimit="10" d="M30.581,51.236c0,0,0.25-2.212,2.259-2.295
		c0,0,0.106,0.736,0.379,1.371c0.318,0.74,4.406,2.344,2.586,5.171c-1.82,2.827-3.102,1.666-3.102,1.666l-1.988-5.879"/>
	<path fill="#5FB2B0" d="M32.602,64.494c-0.99,1.354-4.91,1.926-6.418,0.824c-1.509-1.103-2.622-4.813-1.632-6.167
		c0.99-1.354,3.708,0.159,5.217,1.262C31.276,61.515,33.591,63.14,32.602,64.494z"/>
	<path fill="#F9C9B7" d="M24.869,64.246l1.519-3.866c0,0-1.411-4.641-0.69-6.905c0.967-3.038,4.005-3.038,4.005-3.038
		s9.528,3.314,3.729,10.357l-1.519,0.829l-0.276,3.59c0,0-2.9,2.899-4.419,1.795S24.869,64.246,24.869,64.246z"/>
	<path fill="none" stroke="#D88E77" stroke-width="0.85" stroke-miterlimit="10" d="M24.869,64.246l1.519-3.866
		c0,0-1.411-4.641-0.69-6.905c0.967-3.038,4.005-3.038,4.005-3.038s9.528,3.314,3.729,10.357l-1.519,0.829l-0.276,3.59
		c0,0-2.9,2.899-4.419,1.795S24.869,64.246,24.869,64.246z"/>
	<path fill="#B2F7F7" d="M24.402,60.912c0,0,0.867,3.196,4.595,3.334s3.328-0.414,3.328-0.414l0.276,2.624l-0.552,0.829
		c0,0-0.553,3.161-0.553,5.662c0,2.485-0.966,4.833-0.966,4.833s-1.795,6.628-7.181,5.662c-3.588-0.644-6.628-6.628-4.143-11.6
		s3.59-6.766,3.59-6.766l-0.414-0.829L24.402,60.912z"/>
	<path fill="none" stroke="#5FB2B0" stroke-width="0.85" stroke-miterlimit="10" d="M22.383,64.246c0,0,1.38,3.142,4.645,4.339
		c2.545,0.934,5.574-0.41,5.574-0.41"/>
	<path fill="none" stroke="#5FB2B0" stroke-width="0.85" stroke-miterlimit="10" d="M30.062,80.593
		c-1.126,1.195-4.481,3.248-6.712,2.848c-3.588-0.644-6.628-6.628-4.143-11.6s3.59-6.766,3.59-6.766l-0.414-0.829l1.755-3.334
		c0,0-0.007,1.585,3.354,3.202c3.089,1.485,4.833-0.281,4.833-0.281l0.276,4.344l-1.368,0.74c0,0-0.326,1.204-0.449,3.702
		c-0.204,4.168-1.519,6.237-2.792,7.271"/>
	<path fill="#F9C9B7" d="M45.787,52.272c0,0,0.625-5.888,0.446-7.047s10.437,0.357,10.437,0.357s0,5.799,0.446,6.958
		s-2.141,9.634-2.141,9.634L45.787,52.272z"/>
	<path fill="none" stroke="#D88E77" stroke-width="0.85" stroke-miterlimit="10" d="M45.787,52.272c0,0,0.625-5.888,0.446-7.047
		s10.437,0.357,10.437,0.357s0,5.799,0.446,6.958s-2.141,9.634-2.141,9.634L45.787,52.272z"/>
	<path fill="#F9C9B7" d="M58.633,20.604c0.268,0,3.391,3.212,3.123,7.226s-0.089,4.639,0.446,5.353s2.409,4.282-0.178,9.01
		c-2.993,5.469-4.996,8.118-8.832,7.939c-3.671-0.17-11.418-4.282-13.292-13.381s1.657-16.957,9.01-17.93
		C54.976,18.017,58.633,20.604,58.633,20.604z"/>
	<path fill="none" stroke="#D88E77" stroke-width="0.85" stroke-miterlimit="10" d="M58.633,20.604c0.268,0,3.391,3.212,3.123,7.226
		s-0.089,4.639,0.446,5.353s2.409,4.282-0.178,9.01c-2.993,5.469-4.996,8.118-8.832,7.939c-3.671-0.17-11.418-4.282-13.292-13.381
		s1.657-16.957,9.01-17.93C54.976,18.017,58.633,20.604,58.633,20.604z"/>
	<path fill="#99644D" d="M41.684,36.037l2.498,0.089c0,0-0.357-1.427,0.446-2.052s2.319-3.836,0.714-5.531s-1.428-5.888,1.605-6.958
		c0,0,0.892-0.268,1.517,0.089s3.479,2.409,6.333,2.052c0.319-0.04-0.625-0.089-0.803-0.714c0,0,1.249,0.892,4.371-0.268
		l-0.625-0.446c0,0,0.625,1.07,2.944-0.446c0,0-0.409-0.372-0.535-0.625c-0.178-0.356-1.134-2.208-3.479-2.676
		c-1.338-0.268-12.043-3.925-16.325,3.212c0,0-4.461,1.249-4.015,9.01c0.201,3.492,2.855,4.996,2.855,4.996L41.684,36.037z"/>
	<path fill="none" stroke="#774639" stroke-width="0.85" stroke-miterlimit="10" d="M41.684,36.037l2.545-0.287
		c0,0,0.168-1.782,0.766-2.604c0.793-1.092,1.953-2.908,0.347-4.603s-1.428-5.888,1.605-6.958c0,0,0.892-0.268,1.517,0.089
		s3.479,2.409,6.333,2.052c0.319-0.04-0.625-0.089-0.803-0.714c0,0,1.249,0.892,4.371-0.268l-0.625-0.446
		c0,0,0.625,1.07,2.944-0.446c0,0-0.409-0.372-0.535-0.625c-0.178-0.356-1.134-2.208-3.479-2.676
		c-1.338-0.268-12.043-3.925-16.325,3.212c0,0-4.461,1.249-4.015,9.01c0.201,3.492,2.855,4.996,2.855,4.996L41.684,36.037z"/>
	<g>
		<path fill="#F9C9B7" d="M43.009,40.275c-0.286,0.493-0.73,0.772-1.236,1.025c-1.071,0.535-3.692-0.946-4.46-3.39
			c-0.769-2.444-0.455-5.037,1.285-5.584c1.739-0.547,3.771,0.99,4.541,3.435c0.077,0.243,0.142,0.488,0.195,0.731"/>
		<path fill="none" stroke="#D88E77" stroke-width="0.85" stroke-miterlimit="10" d="M38.472,34.966
			c0.268,0,2.676-0.803,3.747,2.052"/>
		<path fill="none" stroke="#D88E77" stroke-width="0.85" stroke-miterlimit="10" d="M40.346,39.07
			c0.089-0.268-0.625-2.408,1.516-2.676"/>
		<path fill="none" stroke="#D88E77" stroke-width="0.85" stroke-miterlimit="10" d="M43.009,40.275
			c-0.286,0.493-0.73,0.772-1.236,1.025c-1.071,0.535-3.692-0.946-4.46-3.39c-0.769-2.444-0.455-5.037,1.285-5.584
			c1.739-0.547,3.771,0.99,4.541,3.435c0.077,0.243,0.142,0.488,0.195,0.731"/>
	</g>
	<path fill="none" stroke="#D88E77" stroke-width="0.85" stroke-miterlimit="10" d="M55.511,31.131c0,0-0.385,2.37,0.625,3.211
		c1.07,0.892,2.23,0.357,2.23,1.784c0,1.875-2.24,1.897-2.24,1.897"/>
	<ellipse fill="#1E2121" cx="51.264" cy="32.889" rx="1.017" ry="1.453"/>
	<ellipse fill="#1E2121" cx="59.427" cy="32.578" rx="1.017" ry="1.453"/>
	<path fill="#774639" d="M48.941,30.003c0,0,1.771-3.613,4.161-4.276c0,0-1.25-1.749-3.036,0.944
		C49.296,27.832,48.941,30.003,48.941,30.003z"/>
	<path fill="#774639" d="M57.295,26.914c0.268-0.089,2.409,0.658,3.39,3.654c0,0,0.09-2.495-1.07-3.387
		C58.918,26.646,57.295,26.914,57.295,26.914z"/>
	<path fill="#681010" d="M49.623,37.821c0,0,1.873,2.319,5.709,2.587c1.959,0.137,3.212,0,4.372-0.981c0,0-1.679,2.792-2.32,5.174
		c-0.624,2.319-2.488,2.257-3.479,2.141C52.389,46.563,48.999,42.46,49.623,37.821z"/>
	<ellipse fill="#B22F2F" cx="54.574" cy="45.243" rx="1.829" ry="0.981"/>
	<path fill="#EFEEE4" d="M49.489,39.674c0,0,1.739,2.509,6.2,2.331c0,0,2.41,0.119,3.302-0.595c0.099-0.079,0.713-1.983,0.713-1.983
		s-0.567,0.464-3.689,0.731c-3.112,0.267-6.391-2.337-6.391-2.337L49.489,39.674z"/>

		<ellipse fill="none" stroke="#7C1111" stroke-width="0.85" stroke-miterlimit="10" cx="54.574" cy="45.243" rx="1.829" ry="0.981"/>
	<path fill="#B2F7F7" d="M46.144,48.437c0,0-1.338,0-1.606,0.892s-1.249,3.301-1.249,3.301s3.212,7.494,7.047,9.545
		c0,0,1.695-3.211,0.803-3.211c-0.616,0,4.189,4.832,4.549,5.531l-3.211-8.118c0,0-3.122-2.319-4.639-4.639
		S46.144,48.437,46.144,48.437z"/>
	<path fill="#B2F7F7" d="M54.797,62.71c0.179-0.268,2.082-7.166,2.26-8.683c0.231-1.962,0.707-1.748,0.238-2.67v-1.583
		c0,0,2.052,2.205,2.409,3.9s0.446,6.449,0.446,6.449l-1.427-3.39L55.6,64.227L54.797,62.71z"/>
	<path fill="none" stroke="#5FB2B0" stroke-width="0.85" stroke-miterlimit="10" d="M45.787,47.889c0,0-0.981,0.548-1.249,1.44
		s-1.249,3.301-1.249,3.301s3.212,7.494,7.047,9.545c0,0,0.337-4.417,1.044-3.874c0.449,0.345,3.947,5.494,4.308,6.193l-3.211-8.118
		c0,0-3.122-2.319-4.639-4.639S45.787,47.889,45.787,47.889z"/>
	<path fill="none" stroke="#5FB2B0" stroke-width="0.85" stroke-miterlimit="10" d="M54.797,62.71
		c0.179-0.268,1.623-6.384,2.105-7.833c0.624-1.875,0.399-4.539,0.399-4.539l0,0c0,0,2.046,1.641,2.402,3.336
		s0.446,6.449,0.446,6.449l-1.784-3.032L55.6,64.227L54.797,62.71z"/>
	<path fill="none" stroke="#D88E77" stroke-width="0.85" stroke-miterlimit="10" d="M49.623,37.821c0,0,1.873,2.319,5.709,2.587
		c1.959,0.137,3.212,0,4.372-0.981c0,0-1.679,2.792-2.32,5.174c-0.624,2.319-3.197,2.305-4.282,1.795
		C51.828,45.797,48.999,42.46,49.623,37.821z"/>
	<path fill="#71CCC7" d="M60.496,85.65c-2.071,0.829-4.833,1.105-8.286-0.276s-9.528-9.666-9.528-9.666s4.204,10.177,10.199,11.124
		S60.496,85.65,60.496,85.65z"/>
	<path fill="#71CCC7" d="M59.529,78.055c-4.004,1.795-12.428-0.552-12.428-0.552s4.823,2.289,8.097,1.932
		S59.529,78.055,59.529,78.055z"/>
	<path fill="none" stroke="#5FB2B0" stroke-width="0.85" stroke-miterlimit="10" d="M54.005,61.623c0,0-0.415,12.014-0.138,15.88
		s2.762,6.214,2.624,9.804s-1.519,14.914-1.519,14.914s1.602,0.459,2.209-0.552c0.415-0.69,1.519-12.29,1.519-14.5
		s-2.762-6.628-2.762-9.666c0-2.679,0.387-12.896,0.463-15.344"/>
</g>
<g id="Layer_8">
	<g>
		<path fill="#2B2D2D" d="M215.645,151.783c2.292,10.631-3.561,20.242-10.773,21.086c-7.212,0.844-14.084-7.229-15.347-18.031
			c-1.264-10.802-0.264-18.842,6.787-20.579C211.206,130.591,213.207,140.484,215.645,151.783z"/>
		<path fill="#949B9B" d="M201.535,152.156c1.257,6.542,0.318,14.035-2.848,14.645c-3.165,0.607-5.933-5.1-7.274-12.376
			c-1.208-6.55-0.158-12.889,3.007-13.496C197.587,140.32,200.277,145.615,201.535,152.156z"/>
		<path fill="#555E5E" d="M197.199,153.712c0,1.014-0.496,1.668-1.111,1.668c-0.614,0-1-0.71-1-1.722
			c0-1.015,0.498-1.724,1.111-1.724C196.814,151.935,197.199,152.698,197.199,153.712z"/>
		<path fill="none" stroke="#0E0F0F" stroke-miterlimit="10" d="M215.645,151.783c2.292,10.631-3.561,20.242-10.773,21.086
			c-7.212,0.844-14.084-7.229-15.347-18.031c-1.264-10.802-0.264-18.842,6.787-20.579
			C211.206,130.591,213.207,140.484,215.645,151.783z"/>
		<path fill="#0E0F0F" d="M202.193,172.778c0.88,0.162,1.776,0.196,2.678,0.091c7.213-0.844,13.065-10.455,10.773-21.086
			c-2.438-11.299-4.438-21.192-19.334-17.524c0,0,5.684-0.334,8.596,14.87C208.875,169.85,202.193,172.778,202.193,172.778z"/>
	</g>
	<g>
		<path fill="#2B2D2D" d="M271.373,199.736c4.136,19.18-6.423,36.519-19.435,38.04c-13.013,1.522-25.409-13.041-27.688-32.529
			c-2.28-19.488-0.477-33.994,12.244-37.127C263.368,161.502,266.978,179.351,271.373,199.736z"/>
		<path fill="#949B9B" d="M245.92,200.408c2.269,11.802,0.573,25.321-5.138,26.419c-5.71,1.097-10.703-9.198-13.123-22.325
			c-2.179-11.818-0.284-23.252,5.426-24.349C238.796,179.056,243.651,188.606,245.92,200.408z"/>
		<path fill="#555E5E" d="M238.099,203.216c0,1.827-0.896,3.009-2.005,3.009c-1.107,0-1.805-1.281-1.805-3.108
			c0-1.828,0.897-3.108,2.005-3.108C237.402,200.008,238.099,201.388,238.099,203.216z"/>
		<path fill="none" stroke="#0E0F0F" stroke-miterlimit="10" d="M271.373,199.736c4.136,19.18-6.423,36.519-19.435,38.04
			c-13.013,1.522-25.409-13.041-27.688-32.529c-2.28-19.488-0.477-33.994,12.244-37.127
			C263.368,161.502,266.978,179.351,271.373,199.736z"/>
		<path fill="#0E0F0F" d="M247.105,237.614c1.589,0.291,3.206,0.353,4.833,0.162c13.012-1.521,23.57-18.86,19.435-38.04
			c-4.396-20.386-8.005-38.234-34.879-31.616c0,0,10.254-0.602,15.508,26.826C259.162,232.327,247.105,237.614,247.105,237.614z"/>
	</g>
	<path fill="#1570BA" d="M325.92,126.497c-2.055-8.627-21.157-30.401-21.157-30.401s-18.692-19.719-67.58-10.271
		c-31.223,2.876-35.536,30.195-35.536,30.195s-2.054-0.821-3.492,1.438s-5.341,12.53-5.341,12.53s-3.348,2.574-2.314,6.881
		c0.489,2.037,0.245,1.059,0.245,1.059s0.94-2.805,1.875-1.467c1.822,2.608,6.545,15.473,6.881,23.658
		c0.037,0.928,3.394,3.972,7.273,8.426c7.109,8.163,16.792,19.415,16.792,19.415l1.324-7.894c0,0,1.867-11.905,7.119-9.41
		c7.058,3.353,14.491,22.463,17.741,36.463s7.5,24.75,20.5,27s50.664,3.359,77.414-5.641c0,0,21.393-7.928,27.676-13.313
		s8.677-9.274,9.574-11.07s6.582-21.542,3.74-28.723c-1.063-2.688-2.395-2.394-2.395-2.394s-1.729-16.982-12.195-25.063
		c-12.03-9.289-40.203-18.427-40.203-18.427L325.92,126.497z"/>
	<path fill="none" stroke="#02458E" stroke-miterlimit="10" d="M220.243,184.198c0,0-0.807-21.578,10.979-23.749
		c9.474-1.745,16.127,14.887,18.918,22.64s13.024,39.076,16.746,41.867s5.272,3.101,5.272,3.101"/>
	<path fill="none" stroke="#02458E" stroke-miterlimit="10" d="M256.342,201.386c0,0,11.475,4.032,30.393,2.481
		c14.916-1.223,72.394-10.758,85.904-15.816c13.956-5.226,15.507-8.994,16.127-11.785"/>
	<path fill="none" stroke="#02458E" stroke-miterlimit="10" d="M254.671,195.86c0,0,11.475,4.032,30.393,2.481
		c14.916-1.223,72.89-9.592,85.904-15.816c14.266-6.823,15.007-7.5,15.627-10.291"/>
	<path fill="#C6CECE" d="M349.149,217.911c-10.412,2.638-23.808,4.165-28.459,4.165c-2.141,0-2.938-1.308-3.193-3.332
		c-0.3-2.374,0-5.239,0-7.08c0-4.026,1.655-3.471,5.137-3.471c4.859,0,21.474-2.775,21.474-2.775s14.949-4,17.675-4.86
		c2.638-0.833,3.888-1.526,4.165-0.277s0.277,9.995,0.277,9.995s0.124,1.905-1.666,2.638
		C358.45,215.412,349.149,217.911,349.149,217.911z"/>
	<path fill="#C6CECE" d="M314.082,180.397c-13.346,7.492-15.777,16.587-15.777,16.587s30.093-4.621,46.098-7.288
		c17.491-2.915,30.428-9.109,30.428-9.109c-7.652-13.666-37.352-8.018-37.352-8.018C327.306,174.354,319.72,177.233,314.082,180.397
		"/>
	<path fill="none" stroke="#748483" stroke-miterlimit="10" d="M300.674,192.247c10.75-0.182,29.209-3.128,44.821-6.194
		c20.407-4.009,27.331-8.199,27.331-8.199"/>
	<path fill="none" stroke="#748483" stroke-miterlimit="10" d="M303.771,188.239c10.956-0.524,27.903-3.268,42.397-6.114
		c12.61-2.478,20.072-5.024,23.933-6.608"/>
	<path fill="none" stroke="#748483" stroke-miterlimit="10" d="M308.509,184.387c10.875-0.839,26.001-3.33,39.118-5.906
		c8.533-1.677,14.709-3.385,19.007-4.805"/>
	<path fill="none" stroke="#748483" stroke-miterlimit="10" d="M314.346,180.455c9.602-1.169,20.848-3.095,30.911-5.071
		c6.08-1.194,10.955-2.067,14.814-3.179"/>
	<path fill="none" stroke="#02458E" stroke-miterlimit="10" d="M244.009,141.596c0,0,27.33,15.852,34.618,27.33"/>
	<path fill="none" stroke="#02458E" stroke-miterlimit="10" d="M250.021,174.027c0,0,6.742,5.283,9.475,11.479"/>
	<path fill="none" stroke="#02458E" stroke-miterlimit="10" d="M332.013,134.307c0,0,26.966,16.581,30.428,26.42"/>
	<g>
		<path fill="#94DEEA" d="M281.907,173.663c3.906,8.466,1.817,17.303-3.526,19.769c-5.346,2.466-13.521-2.558-17.428-11.023
			c-3.905-8.465-3.462-17.127,3.28-19.636C269.75,160.72,278.001,165.198,281.907,173.663z"/>
		<path fill="#CDF3F7" d="M279.003,181.033c1.556,3.502,0.647,7.123-1.562,8.105c-2.211,0.983-5.542-1.128-7.1-4.629
			c-1.558-3.502-1.325-7.06,1.46-8.052C274.08,175.646,277.445,177.533,279.003,181.033z"/>
		<path fill="#CDF3F7" d="M267.596,180.697c0.615,1.589,0.136,3.178-0.868,3.567c-1.003,0.39-2.438-0.619-3.056-2.209
			c-0.617-1.589-0.438-3.164,0.82-3.545C265.522,178.198,266.978,179.107,267.596,180.697z"/>
		<path fill="#CDF3F7" d="M281.725,172.752c-4.097-7.707-12.233-11.937-17.491-9.979c-5.575,2.074-6.843,8.356-4.907,15.255
			c0,0,4.899-2.694,11.102-4C277.352,172.569,281.725,172.752,281.725,172.752z"/>
		<path fill="none" stroke="#02458E" stroke-miterlimit="10" d="M281.907,173.663c3.906,8.466,1.817,17.303-3.526,19.769
			c-5.346,2.466-13.521-2.558-17.428-11.023c-3.905-8.465-3.462-17.127,3.28-19.636C269.75,160.72,278.001,165.198,281.907,173.663z
			"/>
	</g>
	<g>
		<path fill="#94DEEA" d="M381.39,156.718c3.716,7.147,5.102,13.075,2.047,14.595c-4.554,2.265-11.109-2.502-15.057-9.523
			c-4.324-7.691-0.171-18.123,2.504-16.205C375.584,148.954,377.445,149.131,381.39,156.718z"/>
		<path fill="#CDF3F7" d="M384.54,164.473c0.121,1.447-0.872,2.667-1.916,3.131c-1.91,0.85-4.788-0.975-6.134-3.999
			c-1.346-3.025-1.145-6.1,1.262-6.956c1.205-0.43,2.989-0.214,4.098,1.118C382.855,158.975,384.451,163.408,384.54,164.473z"/>
		<path fill="#CDF3F7" d="M374.119,160.311c0.531,1.373,0.117,2.745-0.75,3.082s-2.106-0.535-2.641-1.908
			c-0.533-1.373-0.379-2.733,0.709-3.062C372.327,158.151,373.585,158.937,374.119,160.311z"/>
		<path fill="#CDF3F7" d="M379.567,153.62c-3.098-4.555-7.898-8.866-9.475-8.381c-2.368,0.729-4.791,6.805-3.118,12.765
			c0,0,4.388-1.751,9.591-3.456C378.839,153.803,379.567,153.62,379.567,153.62z"/>
		<path fill="none" stroke="#02458E" stroke-miterlimit="10" d="M381.39,156.718c3.716,7.147,5.102,13.075,2.047,14.595
			c-4.554,2.265-11.109-2.502-15.057-9.523c-4.324-7.691-0.171-18.123,2.504-16.205C375.584,148.954,377.445,149.131,381.39,156.718
			z"/>
	</g>
	<path fill="#94DEEA" d="M235.45,100.726c-0.352,0.526-4.914,21.76-4.036,34.396c0,0,40.538,0.176,64.404-3.159
		c23.866-3.334,30.102-5.466,30.102-5.466s-16.823-26.997-20.1-29.456c-0.702-0.527-2.281,0.702-28.077,1.755
		C258.427,99.584,235.45,100.726,235.45,100.726z"/>
	<path fill="#50BEC9" d="M231.062,100.901c0,0-7.02,24.042-5.791,33.869c0,0-18.161-11.317-20.356-13.512
		c-1.755-1.755,5.265-20.357,8.774-22.813C213.689,98.445,230.01,101.077,231.062,100.901z"/>
	<path fill="#02458E" d="M229.835,148.985c0,0-2.636,3.51-1.934,5.791l-6.49-4.914c0,0-0.022-3.604,1.931-4.387
		C224.155,145.149,229.835,148.985,229.835,148.985z"/>
	<path fill="none" stroke="#02458E" stroke-miterlimit="10" d="M192.814,129.989c0,0,5.407,0,9.118,12.503
		c2.472,8.327,2.281,22.989,2.281,22.989"/>
	<path fill="none" stroke="#02458E" stroke-miterlimit="10" d="M325.92,126.497c-2.055-8.627-21.157-30.401-21.157-30.401
		s-18.692-19.719-67.58-10.271c-31.223,2.876-35.536,30.195-35.536,30.195s-2.054-0.821-3.492,1.438s-5.341,12.53-5.341,12.53
		s-3.348,2.574-2.314,6.881c0.489,2.037,0.236-2.519,2.119-0.408c4.58,5.134,6.381,20.158,6.881,23.658
		c0.005,0.031,24.065,27.841,24.065,27.841l1.324-7.894c0,0,2.933-11.142,7.119-9.41c7.221,2.986,14.491,22.463,17.741,36.463
		s7.5,24.75,20.5,27s50.664,3.359,77.414-5.641c0,0,21.393-7.928,27.676-13.313s8.677-9.274,9.574-11.07s6.582-21.542,3.74-28.723
		c-1.063-2.688-2.395-2.394-2.395-2.394s-1.729-16.982-12.195-25.063c-12.03-9.289-40.203-18.427-40.203-18.427L325.92,126.497z"/>
	<path fill="none" stroke="#748483" stroke-miterlimit="10" d="M314.082,180.397c-13.346,7.492-15.777,16.587-15.777,16.587
		s30.093-4.621,46.098-7.288c17.491-2.915,30.428-9.109,30.428-9.109c-7.652-13.666-37.352-8.018-37.352-8.018
		C327.306,174.354,319.72,177.233,314.082,180.397"/>
	<path fill="none" stroke="#02458E" stroke-miterlimit="10" d="M235.45,100.726c-0.352,0.526-4.914,21.76-4.036,34.396
		c0,0,40.538,0.176,64.404-3.159c23.866-3.334,30.102-5.466,30.102-5.466s-16.823-26.997-20.1-29.456
		c-0.702-0.527-2.281,0.702-28.077,1.755C258.427,99.584,235.45,100.726,235.45,100.726z"/>
	<path fill="none" stroke="#02458E" stroke-miterlimit="10" d="M231.062,100.901c0,0-7.02,24.042-5.791,33.869
		c0,0-18.161-11.317-20.356-13.512c-1.755-1.755,5.265-20.357,8.774-22.813C213.689,98.445,230.01,101.077,231.062,100.901z"/>
	<path fill="#1570BA" d="M218.954,134.771l-2.808-3.51c0,0,1.58-3.861,0.176-6.142s-6.144-3.158-10.354-2.457
		s-8.029,3.287-7.37,6.844c0.878,4.738,10.529,6.142,14.565,4.212l2.281,5.089L218.954,134.771z"/>
	<path fill="none" stroke="#02458E" stroke-miterlimit="10" d="M218.954,134.771l-2.808-3.51c0,0,1.58-3.861,0.176-6.142
		s-6.144-3.158-10.354-2.457s-8.029,3.287-7.37,6.844c0.878,4.738,10.529,6.142,14.565,4.212l2.281,5.089"/>
</g>
<g id="Layer_7">
	<path fill="#CE2C38" d="M279.781,117.543c0,0,5.385,13.68,6.284,14.216c7.322,4.361,41.095,25.772,46.607,52.763
		c5.799,28.392,3.688,44.24,0.283,47.955c0,0,11.192-2.617,16.715-4.334c3.603-1.12,3.715-1.548,3.715-1.548s1.1-5.025,1.359-10.393
		c0.529-10.941-0.917-25.729-4.455-36.349c-4.521-20.501-25.781-37.772-41.757-49.811c-0.428-0.322-1.474-2.471-1.893-2.786
		C301.688,127.257,279.781,117.543,279.781,117.543z"/>
	<path fill="#CE2C38" d="M234.718,86.236c0,0,22.595-2.055,33.481,13.557l20.747-1.027c0,0-16.023-16.022-32.25-15.406
		S234.718,86.236,234.718,86.236z"/>
	<path fill="none" stroke="#A30D1F" stroke-miterlimit="10" d="M281.952,116.115c0,0,3.856,15.466,5.791,16.665
		c9.773,6.052,39.764,26.446,44.93,51.743c5.799,28.392,3.688,44.24,0.283,47.955c0,0,11.192-2.617,16.715-4.334
		c3.603-1.12,3.715-1.548,3.715-1.548s1.1-5.025,1.359-10.393c0.529-10.941-0.917-25.729-4.455-36.349
		c-4.319-19.585-23.914-36.223-39.585-48.167c-1.172-0.893-11.3-14.733-12.42-15.573
		C293.333,116.115,281.952,116.115,281.952,116.115z"/>
	<path fill="none" stroke="#A30D1F" stroke-miterlimit="10" d="M233.401,86.313c0,0,23.911-2.132,34.798,13.479l20.747-1.027
		c0,0-16.023-16.022-32.25-15.406S233.401,86.313,233.401,86.313z"/>
	<g>
		<path fill="#CE2C38" d="M330.599,140.505c-19.574,1.088-44.431-21.75-44.897-21.75l12.584-2.641c0,0,13.671,14.603,37.129,15.224
			c0,0-7.302,2.331-13.516,2.331C321.898,133.669,324.229,138.33,330.599,140.505z"/>
		<path fill="none" stroke="#8E041C" stroke-miterlimit="10" d="M330.599,140.505c-19.574,1.088-44.431-21.75-44.897-21.75
			l12.584-2.641c0,0,13.671,14.603,37.129,15.224c0,0-7.302,2.331-13.516,2.331C321.898,133.669,324.229,138.33,330.599,140.505z"/>
		<path fill="#CE2C38" d="M278.711,118.134c0,0-4.351,26.409-9.166,29.206c0,0,8.389-1.087,12.739-6.369
			c0,0,5.281,4.816,11.341,6.369c0,0-1.864-23.716-1.864-29.517C291.761,117.046,278.711,118.134,278.711,118.134z"/>
		<path fill="none" stroke="#8E041C" stroke-miterlimit="10" d="M278.711,118.134c0,0-4.351,26.409-9.166,29.206
			c0,0,8.389-1.087,12.739-6.369c0,0,5.281,4.816,11.341,6.369c0,0-1.864-23.716-1.864-29.517
			C291.761,117.046,278.711,118.134,278.711,118.134z"/>
		<path fill="#CE2C38" d="M309.626,83.646c12.607,6.876,12.738,29.828,12.738,29.828s-0.776,1.553-6.482,3.717
			c-7.811,2.962-18.338,0-18.338,0c-6.591,4.584-16.332,2.579-16.332,2.579c-8.596,5.158-24.642,4.011-24.642,4.011
			c-12.034-10.889-4.585-36.103-4.585-36.103s12.899-1.081,27.191,10.881c0,0,7.924-4.66,12.739-1.398c0,0,8.275-5.674,11.185-8.389
			C307.762,84.422,309.626,83.646,309.626,83.646z"/>
		<path fill="none" stroke="#8E041C" stroke-miterlimit="10" d="M279.177,98.56c0,0,4.505,9.166,2.035,21.21"/>
		<path fill="none" stroke="#8E041C" stroke-miterlimit="10" d="M291.916,97.162c0,0,4.971,5.126,5.628,20.029"/>
		<path fill="#A30D1F" d="M281.212,119.77c-8.596,5.158-24.642,4.011-24.642,4.011s1.634-6.268,9.246-6.579
			c0,0,4.816,0.156,8.855,1.864S281.212,119.77,281.212,119.77z"/>
		<path fill="#A30D1F" d="M322.364,113.474c0,0-0.776,1.553-6.482,3.717c-7.811,2.962-18.338,0-18.338,0s3.537-0.3,7.421-2.319
			s12.541-4.051,14.914-3.417c2.33,0.622,2.641,1.864,2.641,1.864"/>
		<path fill="none" stroke="#A30D1F" stroke-miterlimit="10" d="M281.212,119.77c-8.596,5.158-24.642,4.011-24.642,4.011
			s1.634-6.268,9.246-6.579c0,0,4.816,0.156,8.855,1.864S281.212,119.77,281.212,119.77z"/>
		<path fill="none" stroke="#8E041C" stroke-miterlimit="10" d="M322.364,113.474c0,0-0.776,1.553-6.482,3.717
			c-7.811,2.962-17.664,0.353-17.664,0.353s2.863-0.652,6.747-2.672s12.541-4.051,14.914-3.417
			C322.209,112.076,322.364,113.474,322.364,113.474"/>
		<path fill="none" stroke="#8E041C" stroke-miterlimit="10" d="M309.626,83.646c12.607,6.876,12.738,29.828,12.738,29.828
			s-0.776,1.553-6.482,3.717c-7.811,2.962-18.338,0-18.338,0c-6.591,4.584-16.332,2.579-16.332,2.579
			c-8.596,5.158-24.642,4.011-24.642,4.011c-12.034-10.889-4.585-36.103-4.585-36.103s12.899-1.081,27.191,10.881
			c0,0,7.924-4.66,12.739-1.398c0,0,8.275-5.674,11.185-8.389C307.762,84.422,309.626,83.646,309.626,83.646z"/>
	</g>
</g>
<g id="Layer_10">
	<g>
		<path fill="#F9C9B7" d="M107.591,108.005c0.204-0.306,6.821-7.272,7.33-8.087c0.51-0.815,0.691-4.395-0.204-7.845
			c-0.713-2.75-0.611-5.604-0.611-5.604s-2.954-1.018-3.464,0.611c0,0,0.306,3.158,0.102,4.687s-0.815,4.482-0.611,5.603
			c0.204,1.122-6.622,6.215-6.622,6.215s0.418,2.93,1.641,3.644C106.374,107.942,107.591,108.005,107.591,108.005z"/>
		<path fill="none" stroke="#D88E77" stroke-width="0.85" stroke-miterlimit="10" d="M107.591,108.005
			c0.204-0.306,6.821-7.272,7.33-8.087c0.51-0.815,0.691-4.395-0.204-7.845c-0.713-2.75-0.611-5.604-0.611-5.604
			s-2.954-1.018-3.464,0.611c0,0,0.306,3.158,0.102,4.687s-0.815,4.482-0.611,5.603c0.204,1.122-6.622,6.215-6.622,6.215
			s0.418,2.93,1.641,3.644C106.374,107.942,107.591,108.005,107.591,108.005z"/>
		<path fill="#E55E5E" d="M101.826,114.435c0,0,5.321-4.102,6.43-6.208c0.134-0.255-1.791-0.566-3.217-2.4
			c-1.427-1.833-1.732-2.649-1.732-2.649l-3.362,3.159c0,0,0.225,1.884,0.816,3.667
			C101.494,112.217,101.826,114.435,101.826,114.435z"/>
		<path fill="none" stroke="#C13D33" stroke-width="0.85" stroke-miterlimit="10" d="M101.826,114.435c0,0,5.321-4.102,6.43-6.208
			c0.134-0.255-1.791-0.566-3.217-2.4c-1.427-1.833-1.732-2.649-1.732-2.649l-3.362,3.159c0,0-2.682,3.329-2.091,5.113
			C98.586,113.663,101.826,114.435,101.826,114.435z"/>
		<path fill="#F9C9B7" d="M111.975,84.941c-0.286-0.611,0.476-0.712-0.095-1.833c-0.572-1.121-1.62-1.426-1.906-0.204
			c-0.287,1.223-0.381,1.324-0.762,2.139c-0.382,0.815,0.953,3.566,1.715,3.26S111.975,84.941,111.975,84.941z"/>
		<path fill="none" stroke="#D88E77" stroke-width="0.85" stroke-miterlimit="10" d="M111.975,84.941
			c-0.286-0.611,0.476-0.712-0.095-1.833c-0.572-1.121-1.62-1.426-1.906-0.204c-0.287,1.223-0.381,1.324-0.762,2.139
			c-0.382,0.815,0.953,3.566,1.715,3.26S111.975,84.941,111.975,84.941z"/>
		<path fill="#F9C9B7" d="M113.698,88.914c0,0,3.464-2.037,3.057-4.89c-0.407-2.853-2.853-4.075-4.076-2.751
			c-1.222,1.325-2.343,7.03-0.916,6.928c1.426-0.102,1.493-0.888,1.391-0.48C113.052,88.128,113.698,88.914,113.698,88.914z"/>
		<path fill="none" stroke="#D88E77" stroke-width="0.85" stroke-miterlimit="10" d="M113.698,88.914
			c0.723-0.479,3.406-2.447,3.057-4.89c-0.407-2.853-2.853-4.075-4.076-2.751c-1.222,1.325-2.343,7.03-0.916,6.928
			c0.89-0.063,1.542-0.564,1.882-0.833"/>
	</g>
	<path fill="#E55E5E" d="M83.31,131.589c0,0-1.421-3.886-0.474-5.497s-0.512-15.09,0.379-17.817
		c1.517-4.644,6.445-5.213,9.762-4.455s8.936,1.071,8.814,9.951c-0.103,7.487,1.706,10.899,2.18,11.373s0.119,4.332-0.26,4.71
		s-2.962-1.204-9.881-0.256c-5.381,0.737-5.387,0.792-10.235,2.085L83.31,131.589z"/>
	<path fill="none" stroke="#C13D33" stroke-width="0.85" stroke-miterlimit="10" d="M101.693,112.264
		c0.058,0.475,0.091,0.977,0.098,1.508c0.095,7.487,1.706,10.899,2.18,11.373s0.119,4.332-0.26,4.71s-2.962-1.204-9.881-0.256
		c-5.381,0.737-5.387,0.792-10.235,2.085l-0.285-0.095c0,0-1.421-3.886-0.474-5.497s-0.512-15.09,0.379-17.817
		c1.517-4.644,6.445-5.213,9.762-4.455c1.474,0.337,3.361,0.861,5.01,1.998"/>
	<path fill="#F9C9B7" d="M90.229,106.379c0.285-0.284,0.474-2.938,0.189-4.359s7.487,0.379,7.487,0.379l0.853,4.833l-2.085,2.653
		L90.229,106.379z"/>
	<path fill="none" stroke="#D88E77" stroke-width="0.85" stroke-miterlimit="10" d="M90.229,106.191
		c0.285-0.284,0.474-2.749,0.189-4.171s7.487,0.379,7.487,0.379l0.853,4.833"/>
	<path fill="#F9C9B7" d="M95.915,84.297c0,0,7.961-0.474,7.677,8.435c0,0,0,1.517-0.758,3.412c-0.649,1.623,0.289,3.422-0.285,4.928
		c-0.758,1.99-3.412,4.454-7.392,4.549c-3.412,0.081-9.951-2.749-10.235-9.667s1.165-8.565,3.791-10.141
		C92.503,83.539,95.915,84.297,95.915,84.297z"/>
	<path fill="none" stroke="#D88E77" stroke-width="0.85" stroke-miterlimit="10" d="M95.915,84.297c0,0,7.961-0.474,7.677,8.435
		c0,0,0,1.517-0.758,3.412c-0.649,1.623,0.289,3.422-0.285,4.928c-0.758,1.99-3.412,4.454-7.392,4.549
		c-3.412,0.081-9.951-2.749-10.235-9.667s1.165-8.565,3.791-10.141C92.503,83.539,95.915,84.297,95.915,84.297z"/>
	<ellipse fill="#282625" cx="93.65" cy="96.002" rx="0.938" ry="1.185"/>
	<ellipse fill="#282625" cx="99.65" cy="96.292" rx="0.863" ry="1.09"/>
	<path fill="none" stroke="#D88E77" stroke-width="0.85" stroke-miterlimit="10" d="M97.242,94.438c0,0-0.474,1.611,0.095,2.369
		s1.157,0.688,1.517,1.138c0.379,0.474,0.189,1.516-0.853,1.8c-0.828,0.226-1.327-0.095-1.327-0.095"/>
	<path fill="#774639" d="M92.124,92.827c0,0,1.232-1.517,3.412-2.085c0,0-0.814-0.503-2.085,0.19
		C92.409,91.5,92.124,92.827,92.124,92.827z"/>
	<path fill="#774639" d="M101.913,93.803c0,0-0.787-1.675-2.54-2.556c0,0,0.777-0.376,1.737,0.493
		C101.898,92.453,101.913,93.803,101.913,93.803z"/>
	<path fill="#661610" d="M92.124,98.324c0,0,1.614,2.213,4.265,2.369c1.611,0.095,2.938-0.568,2.938-0.568s-1.516,1.232-1.421,2.274
		s-0.853,2.18-2.085,2.18c-1.424,0-2.654-0.568-3.412-2.938C91.917,100.106,92.124,98.324,92.124,98.324z"/>
	<path fill="#A53D3A" d="M96.673,103.347c0,0.68-0.721,1.137-1.611,1.137c-0.89,0-1.707-0.741-1.707-1.421s0.956-1.134,1.801-0.853
		C95.726,102.399,96.673,102.667,96.673,103.347z"/>
	<path fill="#99644D" d="M104.444,89.794c1.137,3.602-1.042,6.255-1.232,6.729s-0.474,1.327-0.474,1.327h-0.19v-1.138l0.853-2.464
		c0.853-3.222-1.421-5.118-1.421-5.118c-0.379-2.654-3.033-2.18-3.033-2.18c-2.18,2.464-4.17,0.189-4.17,0.189
		c-0.568,1.327-3.412,1.896-3.412,1.896c0.379,3.127-2.938,4.549-3.317,5.023s-0.189,1.611-0.189,1.611h-1.611
		c0,0-1.8-2.179-2.748-1.611c-0.367,0.22-1.327-6.918,2.748-9.572c1.065-0.694,2.559-0.284,2.559-0.284s0.568-0.758,0.189-1.042
		s-1.137-1.042-1.896-0.853c0,0,1.706-0.948,2.843,0.664c0,0,0.474-1.895,2.085-2.18c0,0-0.568,1.422-0.284,1.99
		c0,0,0.568-1.611,1.421-1.801c0,0-0.663,1.137-0.379,1.421c0,0,0.474-0.379,1.801-0.758c0,0-0.475,0.758-0.285,0.948
		c0,0,3.601-1.706,5.118-0.474l-0.284,0.758c0,0,2.085-0.379,3.127,0.948l-0.474,0.284c0,0,2.843,1.232,2.559,2.938l-0.758,0.758
		c0,0,0.853,1.137,1.421,1.232S104.444,89.794,104.444,89.794z"/>
	<path fill="#E55E5E" d="M87.291,104.863l4.644,4.17c0,0-0.17-2.096,0.569-1.227c1.611,1.896,3.98,2.269,3.98,2.269l-3.528-4.236
		c0,0-4.053-1.261-4.432-2.493S87.291,104.863,87.291,104.863z"/>
	<path fill="#E55E5E" d="M96.673,109.886c0,0,1.219-2.739,1.314-4.066l2.003-1.525l0.853,2.843l-1.193-0.35
		C99.65,106.788,97.621,109.412,96.673,109.886z"/>
	<path fill="#C13D33" d="M98.284,125.808c-6.634-0.569-8.624-7.392-8.624-7.392s0.394,5.042,3.694,6.485
		S98.284,125.808,98.284,125.808z"/>
	<path fill="#C13D33" d="M100.274,123.059c-3.98,0.663-7.487-2.369-7.771-2.369c0,0,2.146,2.452,4.222,2.698
		S100.274,123.059,100.274,123.059z"/>
	<path fill="#C13D33" d="M93.735,127.514c0,0-1.422-0.569-2.938,0.189s-2.559,0.664-2.938,0.664c0,0,1.475-0.594,2.777-1.347
		S93.735,127.514,93.735,127.514z"/>
	<path fill="#F9C9B7" d="M79.433,107.118c-0.222-0.333-7.206-7.428-7.76-8.314s-0.751-4.782,0.222-8.536
		c0.776-2.993,0.665-6.097,0.665-6.097s3.215-1.108,3.769,0.665c0,0-0.333,3.436-0.111,5.099s0.887,4.877,0.665,6.097
		s7.206,6.762,7.206,6.762s-0.444,2.438-1.774,3.215S79.433,107.118,79.433,107.118z"/>
	<path fill="none" stroke="#D88E77" stroke-width="0.85" stroke-miterlimit="10" d="M79.433,107.118
		c-0.222-0.333-7.206-7.428-7.76-8.314s-0.751-4.782,0.222-8.536c0.776-2.993,0.665-6.097,0.665-6.097s3.215-1.108,3.769,0.665
		c0,0-0.333,3.436-0.111,5.099s0.887,4.877,0.665,6.097s7.206,6.762,7.206,6.762s-0.444,2.438-1.774,3.215
		S79.433,107.118,79.433,107.118z"/>
	<path fill="none" stroke="#774639" stroke-width="0.85" stroke-miterlimit="10" d="M104.444,89.794
		c1.137,3.602-1.042,6.255-1.232,6.729s-0.474,1.327-0.474,1.327h-0.19v-1.138l0.853-2.464c0.853-3.222-1.421-5.118-1.421-5.118
		c-0.379-2.654-3.033-2.18-3.033-2.18c-2.18,2.464-4.17,0.189-4.17,0.189c-0.568,1.327-3.412,1.896-3.412,1.896
		c0.379,3.127-2.938,4.549-3.317,5.023s-0.189,1.611-0.189,1.611h-1.611c0,0-1.8-2.179-2.748-1.611
		c-0.367,0.22-1.327-6.918,2.748-9.572c1.065-0.694,2.559-0.284,2.559-0.284s0.568-0.758,0.189-1.042s-1.137-1.042-1.896-0.853
		c0,0,1.706-0.948,2.843,0.664c0,0,0.474-1.895,2.085-2.18c0,0-0.568,1.422-0.284,1.99c0,0,0.568-1.611,1.421-1.801
		c0,0-0.663,1.137-0.379,1.421c0,0,0.474-0.379,1.801-0.758c0,0-0.475,0.758-0.285,0.948c0,0,3.601-1.706,5.118-0.474l-0.284,0.758
		c0,0,2.085-0.379,3.127,0.948l-0.474,0.284c0,0,2.843,1.232,2.559,2.938l-0.758,0.758c0,0,0.853,1.137,1.421,1.232
		S104.444,89.794,104.444,89.794z"/>
	<path fill="none" stroke="#911C1C" stroke-width="0.85" stroke-miterlimit="10" d="M96.673,103.347c0,0.68-0.721,1.137-1.611,1.137
		c-0.89,0-1.707-0.741-1.707-1.421s0.956-1.134,1.801-0.853C95.726,102.399,96.673,102.667,96.673,103.347z"/>
	<g>
		<path fill="#F9C9B7" d="M86.248,96.049c0,0,0.095-2.654-2.274-2.749c-1.621-0.065-3.033,1.706-2.18,4.075
			c0.936,2.6,4.075,3.412,4.644,1.611"/>
		<path fill="none" stroke="#D88E77" stroke-width="0.85" stroke-miterlimit="10" d="M86.248,96.049c0,0,0.095-2.654-2.274-2.749
			c-1.621-0.065-3.033,1.706-2.18,4.075c0.936,2.6,4.075,3.412,4.644,1.611"/>
		<path fill="none" stroke="#D88E77" stroke-width="0.85" stroke-miterlimit="10" d="M83.026,95.48c0,0,1.99-0.853,2.749,1.611"/>
		<path fill="none" stroke="#D88E77" stroke-width="0.85" stroke-miterlimit="10" d="M85.396,96.428c0,0-1.327,0.284-1.232,1.327
			s1.232,0.948,1.232,0.948"/>
	</g>
	<path fill="none" stroke="#C13D33" stroke-width="0.85" stroke-miterlimit="10" d="M87.291,104.863l4.644,4.17
		c0,0,0.086-2.674,0.825-1.805c1.611,1.896,3.356,2.847,3.356,2.847l-2.762-3.756c0,0-4.329-1.557-5-2.657
		C87.967,103.029,87.291,104.863,87.291,104.863z"/>
	<path fill="none" stroke="#C13D33" stroke-width="0.85" stroke-miterlimit="10" d="M96.974,109.691c0,0,0.914-2.36,1.009-3.687
		l1.962-1.113l0.899,2.247l-1.361-0.02C99.482,107.118,97.921,109.217,96.974,109.691z"/>
	<path fill="#E55E5E" d="M82.776,111.772c0,0-3.297-3.497-4.562-4.765c-0.222-0.222,2.66,0.221,4.212-1.774s1.885-2.882,1.885-2.882
		l3.658,3.437c0,0,0.665,2.66-0.887,3.991S82.776,111.772,82.776,111.772z"/>
	<path fill="none" stroke="#C13D33" stroke-width="0.85" stroke-miterlimit="10" d="M83.091,112.106c0,0-3.612-3.831-4.877-5.099
		c-0.222-0.222,2.982-0.582,4.708-2.429c0.981-1.049,1.389-2.228,1.389-2.228l4.043,3.84"/>
	<path fill="#F9C9B7" d="M74.879,82.508c0.311-0.665-0.519-0.775,0.104-1.995c0.623-1.22,1.763-1.552,2.074-0.222
		c0.312,1.33,0.415,1.44,0.83,2.328c0.415,0.887-1.037,3.88-1.867,3.547S74.879,82.508,74.879,82.508z"/>
	<path fill="none" stroke="#D88E77" stroke-width="0.85" stroke-miterlimit="10" d="M74.879,82.508
		c0.311-0.665-0.519-0.775,0.104-1.995c0.623-1.22,1.763-1.552,2.074-0.222c0.312,1.33,0.415,1.44,0.83,2.328
		c0.415,0.887-1.037,3.88-1.867,3.547S74.879,82.508,74.879,82.508z"/>
	<path fill="#F9C9B7" d="M73.003,86.831c0,0-3.769-2.217-3.326-5.321s3.104-4.434,4.435-2.993s2.55,7.649,0.998,7.538
		s-2.067-1.277-1.956-0.833S73.003,86.831,73.003,86.831z"/>
	<path fill="none" stroke="#D88E77" stroke-width="0.85" stroke-miterlimit="10" d="M73.003,86.831
		c-0.954-0.669-3.68-2.841-3.326-5.321c0.443-3.104,3.104-4.434,4.435-2.993s2.55,7.649,0.998,7.538s-1.69-0.64-2.328-0.998"/>
</g>
</svg>
