<?xml version="1.0" encoding="utf-8"?>
<!-- Generator: Adobe Illustrator 19.1.0, SVG Export Plug-In . SVG Version: 6.00 Build 0)  -->
<svg version="1.1" id="Layer_4" xmlns="http://www.w3.org/2000/svg" xmlns:xlink="http://www.w3.org/1999/xlink" x="0px" y="0px"
	 viewBox="0 0 300 250" style="enable-background:new 0 0 300 250;" xml:space="preserve">
<style type="text/css">
	.st0{fill:#CFDEE2;}
	.st1{fill:#E1F0F4;}
	.st2{fill:#82A1A8;}
</style>
<g id="XMLID_2_">
	<path class="st0" d="M124.17,68.519c2.856-0.832,5.999-1.531,9.286-2.373c3.318-0.719,6.81-1.51,10.447-2.157
		c0.914-0.164,1.828-0.339,2.753-0.503c0.924-0.144,1.859-0.288,2.794-0.421c1.88-0.277,3.78-0.575,5.701-0.791
		c1.921-0.236,3.862-0.483,5.814-0.606l2.928-0.247l2.938-0.144c0.986-0.051,1.962-0.123,2.938-0.154l2.938-0.051
		c1.952-0.072,3.903,0.021,5.835,0.051c0.966,0,1.921,0.092,2.876,0.134c0.955,0.051,1.9,0.072,2.845,0.144
		c1.88,0.175,3.76,0.267,5.578,0.524c3.657,0.401,7.16,1.007,10.467,1.644c3.297,0.719,6.41,1.469,9.235,2.311
		c0.719,0.226,1.418,0.442,2.106,0.657c-63.482-8.783-59.661,6.317-57.288,10.775c-0.966-0.277-2.219-0.637-3.719-1.058
		c-0.986-0.277-2.085-0.575-3.277-0.914c-1.192-0.339-2.506-0.596-3.893-0.935c-2.784-0.637-5.917-1.459-9.389-2.044
		c-1.736-0.329-3.534-0.657-5.403-1.017c-1.87-0.329-3.832-0.555-5.824-0.842c-1.274-0.195-2.578-0.37-3.903-0.524
		c0.36-0.103,0.729-0.216,1.099-0.329C121.356,69.289,122.732,68.919,124.17,68.519z"/>
	<path class="st0" d="M237.534,78.627c-0.709-0.473-1.356-0.894-1.941-1.243c-1.839-1.068-2.948-1.664-3.082-1.726
		c0.031,0.021,0.103,0.103,0.236,0.216c-2.589-1.602-5.157-2.938-6.852-3.77c-0.277-0.216-0.596-0.452-0.955-0.709
		c2.476,0.493,8.649,1.222,12.203-2.876c0.092,0.298,0.175,0.596,0.236,0.904c0.38,1.592,0.575,3.215,0.596,4.859
		c0,0.822-0.041,1.654-0.134,2.486c-0.062,0.411-0.092,0.832-0.185,1.243C237.616,78.216,237.575,78.421,237.534,78.627z"/>
	<path class="st0" d="M206.974,168.744c-3.164,1.356-6.646,2.64-10.324,4.027c-1.859,0.647-3.77,1.305-5.711,1.983
		c-1.972,0.627-3.975,1.263-6.009,1.921c-2.065,0.596-4.15,1.202-6.266,1.818c-2.137,0.555-4.294,1.13-6.471,1.695
		c-4.355,1.099-8.813,2.126-13.302,2.989l-3.359,0.688c-1.12,0.205-2.239,0.401-3.369,0.606c-2.229,0.431-4.479,0.76-6.697,1.12
		c-2.229,0.329-4.438,0.657-6.626,0.986c-2.188,0.277-4.345,0.586-6.482,0.822c-4.263,0.473-8.392,0.914-12.327,1.243
		c-3.924,0.318-7.642,0.596-11.084,0.781c-0.945,0.051-1.87,0.103-2.763,0.144c1.849-0.914,3.677-1.818,5.424-2.763
		c1.972-1.099,3.862-2.209,5.65-3.246c1.777-1.058,3.4-2.157,4.91-3.154c1.52-0.976,2.886-1.911,4.047-2.804
		c1.192-0.873,2.198-1.664,3.03-2.301c1.561-1.212,2.465-1.962,2.578-2.054c-0.134,0.051-1.233,0.514-3.01,1.356
		c-0.945,0.452-2.106,0.986-3.4,1.644c-1.294,0.668-2.804,1.335-4.417,2.116c-1.623,0.75-3.349,1.613-5.187,2.496
		c-1.87,0.842-3.832,1.726-5.835,2.691c-2.024,0.904-4.119,1.839-6.256,2.794c-2.126,0.945-4.314,1.839-6.492,2.773
		c-0.688,0.277-1.387,0.565-2.075,0.842c-0.76,0.308-1.531,0.616-2.291,0.924c-0.729,0.298-1.459,0.596-2.178,0.883
		c-2.188,0.791-4.304,1.674-6.4,2.404c-2.085,0.74-4.099,1.5-6.03,2.137c-1.202,0.411-2.363,0.781-3.482,1.14
		c0.38-0.668,0.77-1.335,1.13-2.024l1.15-2.332c-1.048,1.387-2.085,2.763-3.174,4.088l-0.647,0.77l-1.007,1.192l-1.489,1.623
		l-0.236,0.257c-1.192,1.222-2.393,2.404-3.698,3.462c-0.627,0.555-1.284,1.068-1.962,1.561c-0.668,0.503-1.356,0.955-2.054,1.397
		c-0.709,0.431-1.418,0.842-2.147,1.222c-0.729,0.37-1.469,0.729-2.229,1.017c-0.75,0.308-1.531,0.555-2.301,0.77
		c-0.781,0.205-1.561,0.401-2.352,0.524c-0.791,0.154-1.592,0.216-2.393,0.257c-0.791,0.041-1.592,0.031-2.383-0.041
		c-0.637-0.051-1.274-0.144-1.9-0.257c0.339-0.205,0.668-0.411,1.007-0.616c3.061-1.9,6.061-3.914,8.968-6.04
		c1.387-1.017,2.763-2.065,4.099-3.143c1.469-1.181,2.907-2.414,4.304-3.688c1.335-1.222,2.64-2.476,3.873-3.801
		c0.606-0.668,1.222-1.335,1.798-2.034c0.575-0.678,1.109-1.376,1.654-2.085c4.458-2.291,8.998-4.448,13.549-6.543
		c4.581-2.116,9.194-4.14,13.837-6.112c9.286-3.924,18.695-7.581,28.197-10.93c9.512-3.338,19.127-6.389,28.854-9.029
		c9.728-2.609,19.538-4.931,29.46-6.656c9.923-1.715,19.948-2.876,30.015-3.195c5.033-0.154,10.067-0.062,15.09,0.267
		c5.044,0.288,10.067,0.657,15.09,1.089c5.023,0.452,10.036,0.986,15.018,1.705c4.982,0.729,9.923,1.685,14.782,3.071
		c1.212,0.329,2.455,0.637,3.729,0.74c1.284,0.113,2.558,0.031,3.811-0.103c2.517-0.318,4.992-0.822,7.468-1.325
		c0.596-0.123,1.192-0.247,1.777-0.38c0.113,0.164,0.216,0.318,0.318,0.483c-0.277,0.308-0.586,0.637-0.894,0.924
		c-0.544,0.514-1.109,1.007-1.726,1.459c-0.606,0.452-1.243,0.873-1.9,1.253c-0.647,0.39-1.335,0.74-2.024,1.058
		c-0.699,0.318-1.407,0.596-2.126,0.863c-0.719,0.257-1.448,0.493-2.188,0.688c-0.74,0.216-1.5,0.37-2.25,0.514
		c-0.76,0.144-1.52,0.257-2.291,0.339c-0.77,0.103-1.551,0.144-2.322,0.195c-0.781,0.021-1.551,0.062-2.332,0.031
		c-0.781,0-1.561-0.041-2.342-0.072c-0.781-0.031-1.572-0.134-2.352-0.185l-2.342-0.298l-2.332-0.401l-2.322-0.493l-2.311-0.575
		l-1.027-0.267l-0.842,0.709c-0.401,0.339-1.017,0.781-1.572,1.15c-0.575,0.38-1.171,0.75-1.777,1.089
		c-1.212,0.688-2.476,1.305-3.78,1.839c-2.609,1.068-5.352,1.828-8.146,2.28c-2.794,0.483-5.65,0.657-8.516,0.555l-4.438-0.195
		l-4.468-0.175c-2.044-0.072-4.078-0.154-6.122-0.205c-0.914-0.031-1.818-0.051-2.732-0.072c-0.031,0-0.072,0-0.103,0
		c-2.989-0.041-5.978-0.062-8.978-0.021c-1.5,0.041-2.999,0.082-4.489,0.164c-1.5,0.072-2.999,0.164-4.489,0.298
		c-1.5,0.134-2.989,0.318-4.468,0.514l-1.448,0.236l-24.129,1.099c18.418-7.365,42.568-8.187,58.52-6.954
		c15.963,1.222,25.783-5.732,25.783-5.732s-56.877-0.822-87.169,6.543c-30.282,7.375-40.924,23.739-15.141,18.829
		c22.003-4.191,39.25-11.371,43.821-13.385c1.428-0.021,2.845-0.021,4.273,0.021c1.479,0.051,2.958,0.082,4.448,0.164
		c1.479,0.062,2.958,0.175,4.438,0.267c1.335,0.082,2.66,0.175,3.996,0.288c-0.606,0.267-1.222,0.544-1.859,0.832
		C208.546,168.097,207.765,168.415,206.974,168.744z"/>
	<path class="st0" d="M287.703,148.487c0,0-12.285-8.998-13.097-3.677C273.784,150.131,287.703,148.487,287.703,148.487z
		 M53.745,190.305c0.781-1.068,1.623-2.096,2.465-3.123c0.873-1.017,1.746-2.034,2.691-2.999c-2.26,1.479-4.314,3.277-6.225,5.218
		c-0.503,0.503-0.986,1.027-1.448,1.572c-0.041-1.674-0.041-3.842,0-6.358c0.041-1.51,0.072-3.143,0.175-4.869
		c0.041-0.75,0.092-1.51,0.154-2.291c0.072-1.017,0.164-2.054,0.277-3.112c0.205-1.87,0.462-3.79,0.791-5.722
		c0.175-0.955,0.401-1.962,0.575-2.886c0.236-0.986,0.452-2.003,0.709-2.958c0.996-3.842,2.352-7.673,3.575-11.34
		c0.39-1.243,0.76-2.476,1.068-3.677c-0.144,14.145,5.455,36.733,49.491,16.281c23.934-11.114,49.738-18.017,75.798-21.921
		c9.214-1.376,18.48-2.363,27.776-2.958c13.456-0.873,29.173,3.616,41.664-3.267c7.571-4.17,9.122-11.7,8.084-19.271
		c0.164,0.38,0.318,0.76,0.462,1.14c0.401,0.986,0.77,1.972,1.12,2.938c0.76,2.229,1.541,4.376,2.157,6.461
		c0.144,0.473,0.277,0.945,0.411,1.418c0.462,1.561,0.894,3.051,1.263,4.468c0.955,3.667,1.644,6.78,2.065,8.978
		c0.442,2.198,0.637,3.472,0.637,3.472s0.164-1.284,0.175-3.544c0.031-2.147-0.062-5.167-0.503-8.772
		c0.021,0.031,0.051,0.072,0.082,0.103c0.76,0.904,1.582,1.746,2.363,2.558c1.253,1.263,2.506,2.404,3.688,3.359
		c-0.914-0.031-1.828,0-2.722,0.134c1.15,0,2.27,0.164,3.38,0.38c0.01,0,0.031,0.01,0.041,0.01c1.12,0.247,2.219,0.544,3.287,0.924
		c0.175,0.062,0.349,0.134,0.524,0.195c1.941,0.75,3.78,1.736,5.485,2.886c0.914,0.647,1.798,1.325,2.64,2.075
		c0.832,0.74,1.644,1.5,2.393,2.332c0.38,0.411,0.74,0.832,1.099,1.263c0.37,0.411,0.688,0.873,1.037,1.305
		c0.308,0.411,0.606,0.832,0.894,1.253c-0.565,0.113-1.14,0.226-1.705,0.339c-2.476,0.473-4.961,0.935-7.458,1.212
		c-1.243,0.123-2.506,0.185-3.739,0.062c-1.243-0.123-2.455-0.452-3.657-0.791c-2.424-0.699-4.869-1.366-7.345-1.88
		c-2.476-0.524-4.972-0.945-7.468-1.325c-5.003-0.75-10.015-1.305-15.049-1.787c-5.023-0.452-10.056-0.853-15.09-1.161
		c-5.044-0.349-10.108-0.473-15.162-0.339c-10.108,0.257-20.185,1.376-30.149,3.051c-9.964,1.695-19.835,3.914-29.573,6.626
		c-9.738,2.691-19.353,5.793-28.865,9.183c-9.502,3.41-18.901,7.108-28.187,11.094c-4.633,1.993-9.245,4.047-13.816,6.184
		c-4.581,2.137-9.122,4.325-13.611,6.656l-0.051,0.031l-0.041,0.051c-2.137,2.876-4.592,5.506-7.211,7.971
		c-2.63,2.455-5.413,4.746-8.279,6.903c-2.886,2.167-5.845,4.212-8.885,6.153c-0.37,0.236-0.74,0.473-1.109,0.699
		c-0.092-0.021-0.175-0.031-0.267-0.051c-0.401-0.082-0.822-0.185-1.222-0.318c0.01-0.267,0.021-0.534,0.051-0.801
		c0.051-0.627,0.144-1.253,0.247-1.88s0.226-1.253,0.36-1.88c0.144-0.616,0.288-1.233,0.473-1.849
		c0.164-0.616,0.39-1.222,0.596-1.828c0.226-0.606,0.452-1.212,0.709-1.798c0.493-1.202,1.048-2.383,1.664-3.523
		c0.308-0.586,0.637-1.15,0.966-1.705c0.103-0.185,0.205-0.36,0.318-0.534l0.586-0.062c0,0-0.01-0.288-0.041-0.832
		c0.051-0.082,0.113-0.175,0.164-0.257C52.194,192.452,52.964,191.384,53.745,190.305z M68.341,182.868
		c0,0-13.508,4.088-17.596,18.007C50.745,200.875,60.155,197.598,68.341,182.868z"/>
	<path class="st0" d="M188.32,101.462c0.647,1.592-1.325,2.075-3.513,2.188c-0.318,0-0.678-0.01-1.079-0.01
		c-0.873,0-1.911-0.021-3.102,0c-0.062,0-0.123,0-0.185,0c-1.263,0.051-2.691-0.062-4.242-0.072
		c-0.77-0.021-1.572-0.031-2.414-0.051c-0.832-0.021-1.685,0-2.568-0.082c-1.767-0.103-3.626-0.185-5.547-0.257
		c-1.911-0.175-3.883-0.339-5.886-0.473c-2.003-0.236-4.027-0.473-6.061-0.699c-1.007-0.154-2.013-0.308-3.02-0.462
		c-0.996-0.154-2.013-0.257-2.989-0.473c-1.972-0.37-3.934-0.678-5.793-1.12c-0.935-0.205-1.87-0.38-2.763-0.596
		s-1.777-0.431-2.63-0.637c-0.863-0.185-1.674-0.442-2.476-0.647c-0.801-0.226-1.592-0.401-2.322-0.637
		c-1.469-0.462-2.845-0.832-4.037-1.243c-1.192-0.38-2.219-0.74-3.082-1.027c-3.359-3.164-4.407-6.718,9.214-6.019
		c14.186,0.74,27.848,5.3,41.623,8.372C177.77,98.041,187.303,98.945,188.32,101.462z"/>
	<path class="st0" d="M12.831,107.05l1.9,1.366c0.616,0.462,1.274,0.883,1.931,1.305c0.668,0.411,1.305,0.863,1.993,1.233
		c0.678,0.38,1.346,0.781,2.044,1.14l2.106,1.027c1.428,0.627,2.876,1.233,4.376,1.695c0.75,0.247,1.51,0.442,2.28,0.637
		c0.668,0.144,1.325,0.288,2.034,0.36c0.288,0.945,0.586,1.88,0.986,2.773c0.195,0.514,0.431,1.007,0.678,1.5
		c0.236,0.493,0.473,0.986,0.76,1.459c1.068,1.911,2.383,3.667,3.801,5.311c0.719,0.822,1.459,1.613,2.219,2.383l2.291,2.28
		c0.77,0.75,1.541,1.5,2.291,2.26c0.74,0.781,1.459,1.531,2.147,2.363c0.349,0.421,0.678,0.812,0.976,1.233
		c0.288,0.421,0.555,0.873,0.801,1.335c0.483,0.924,0.883,1.911,1.243,2.917c0.709,2.003,1.222,4.088,1.654,6.184
		c0.637,3.092,1.099,6.235,1.418,9.389c-0.586,1.561-1.14,3.164-1.664,4.807c-0.318,0.996-0.575,1.972-0.863,2.948
		c-0.257,1.068-0.503,2.044-0.719,3.061c-0.39,1.921-0.729,3.821-0.945,5.68c-0.226-0.329-0.462-0.668-0.699-1.037
		c-0.699-1.017-1.438-2.198-2.25-3.482c-0.781-1.305-1.664-2.691-2.506-4.222c-0.421-0.77-0.863-1.551-1.305-2.352
		c-0.442-0.801-0.853-1.644-1.294-2.486c-0.894-1.685-1.715-3.482-2.578-5.29c-0.442-0.894-0.811-1.839-1.212-2.773
		c-0.411-0.924-0.812-1.859-1.222-2.804c-0.729-1.9-1.459-3.811-2.178-5.68c-0.637-1.911-1.274-3.79-1.89-5.609
		c-0.544-1.839-1.079-3.626-1.582-5.311c-0.514-1.695-0.832-3.328-1.222-4.818c-0.349-1.51-0.77-2.866-0.986-4.099
		c-0.257-1.233-0.483-2.311-0.668-3.195c-0.38-1.767-0.606-2.773-0.606-2.773s0.082,1.027,0.216,2.835
		c0.072,0.904,0.164,1.993,0.277,3.256c0.031,0.473,0.082,0.976,0.144,1.489c-0.36-0.164-0.729-0.349-1.089-0.524
		c-0.637-0.318-1.274-0.668-1.9-1.027c-0.616-0.37-1.222-0.75-1.818-1.161c-0.596-0.411-1.192-0.822-1.767-1.253
		c-1.15-0.873-2.239-1.818-3.287-2.804c-1.048-0.986-2.013-2.054-2.938-3.164c-0.924-1.099-1.777-2.26-2.558-3.482
		c-0.791-1.202-1.489-2.465-2.147-3.76c-0.627-1.305-1.202-2.63-1.705-3.996c-0.257-0.637-0.442-1.294-0.668-1.941
		c0.113,0.103,0.226,0.216,0.349,0.318l1.736,1.551c0.575,0.524,1.171,1.027,1.787,1.5L12.831,107.05z M45.424,157.085
		c2.455,2.455,3.277,1.633,0.822-9.009c-2.455-10.642-8.598-14.319-8.598-14.319C31.105,127.614,42.969,154.63,45.424,157.085z"/>
	<path class="st0" d="M7.767,102.232c-0.298-0.236-0.575-0.483-0.853-0.74c-0.062-0.216-0.123-0.421-0.175-0.627
		c0.216-0.134,0.452-0.277,0.678-0.401c0.041-0.021,0.082-0.051,0.134-0.072c6.533,2.373,10.467,1.592,12.594,0.575
		c-0.503,0.76-0.904,1.418-1.202,1.941c-0.473,0.842-0.729,1.356-0.781,1.479c0.072-0.113,0.39-0.596,0.966-1.356
		c0.586-0.791,1.51-1.88,2.702-3.195c0.031-0.021,0.041-0.041,0.072-0.062c0.092-0.092,0.164-0.164,0.205-0.226
		c0.031-0.031,0.062-0.072,0.092-0.103c0.606-0.647,1.294-1.346,2.054-2.075c0.38-0.37,0.791-0.74,1.212-1.13
		c2.547-2.311,5.783-4.869,9.687-7.355c2.239-1.418,4.684-2.835,7.324-4.16c-4.941,4.304-9.358,9.8-9.235,16.384
		c0.092,4.17,1.839,8.177,4.253,11.587c5.229,7.386,16.733,17.956,21.027,3.873c0,0,0.832,8.362,1.017,15.223
		c-0.021,0.462-0.051,1.058-0.092,1.787c-0.072,0.883-0.144,1.972-0.288,3.195c-0.082,0.616-0.164,1.263-0.257,1.952
		c-0.123,0.678-0.247,1.397-0.38,2.147c-0.144,0.74-0.329,1.5-0.503,2.291c-0.236,0.781-0.421,1.602-0.699,2.414
		c-0.503,1.654-1.192,3.349-1.9,5.105c-0.729,1.767-1.479,3.606-2.25,5.465c-0.082,0.205-0.164,0.411-0.247,0.627
		c-0.051-0.894-0.123-1.777-0.205-2.66c-0.205-2.147-0.452-4.294-0.832-6.41c-0.38-2.126-0.842-4.242-1.52-6.317
		c-0.339-1.037-0.719-2.054-1.212-3.041c-0.462-0.976-1.12-1.972-1.818-2.763c-0.678-0.832-1.428-1.654-2.178-2.424
		c-0.75-0.781-1.51-1.541-2.27-2.301l-2.27-2.291c-0.74-0.77-1.459-1.551-2.147-2.352c-0.688-0.812-1.346-1.644-1.962-2.506
		c-0.616-0.863-1.192-1.757-1.705-2.671c-0.277-0.452-0.514-0.924-0.74-1.397c-0.247-0.473-0.473-0.945-0.668-1.438
		c-0.431-0.966-0.75-1.972-1.079-2.979l-0.113-0.318l-0.329-0.031c-0.709-0.041-1.479-0.195-2.209-0.349
		c-0.74-0.175-1.479-0.36-2.209-0.596c-1.459-0.442-2.886-1.017-4.294-1.623c-1.387-0.637-2.763-1.315-4.109-2.065
		c-0.688-0.339-1.325-0.781-1.993-1.161c-0.657-0.39-1.315-0.801-1.941-1.243l-1.911-1.294l-1.849-1.397
		c-0.627-0.452-1.233-0.935-1.808-1.438L7.767,102.232z"/>
	<path class="st1" d="M22.836,97.322c-0.462,0.565-0.873,1.099-1.253,1.602c-0.555,0.74-1.037,1.428-1.438,2.044
		c-2.126,1.017-6.061,1.798-12.594-0.575c0.473-0.257,0.976-0.503,1.489-0.729c1.12-0.493,2.291-0.894,3.493-1.212
		c2.404-0.616,4.91-0.996,7.447-1.099C20.925,97.312,21.881,97.301,22.836,97.322z"/>
	<path class="st1" d="M45.424,157.085c-2.455-2.455-14.319-29.471-7.776-23.328c0,0,6.143,3.677,8.598,14.319
		C48.701,158.718,47.879,159.54,45.424,157.085z"/>
	<path class="st1" d="M50.745,200.875c4.088-13.919,17.596-18.007,17.596-18.007C60.155,197.598,50.745,200.875,50.745,200.875z"/>
	<path class="st1" d="M237.143,68.519c-3.554,4.099-9.728,3.369-12.203,2.876c-0.483-0.339-1.027-0.719-1.633-1.12
		c-0.38-0.247-0.781-0.503-1.212-0.781c0.37-0.123,0.74-0.236,1.12-0.349c0.473-0.164,0.966-0.288,1.448-0.421
		c0.483-0.134,0.955-0.288,1.448-0.39l1.448-0.38l1.459-0.329c0.966-0.247,1.962-0.401,2.938-0.616
		c0.483-0.113,0.986-0.175,1.479-0.267l1.479-0.267l1.489-0.226c0.103,0.267,0.205,0.544,0.298,0.832
		C236.866,67.553,237.02,68.026,237.143,68.519z"/>
	<path class="st1" d="M274.606,144.81c0.812-5.321,13.097,3.677,13.097,3.677S273.784,150.131,274.606,144.81z"/>
	<path class="st1" d="M194.011,166.207c-4.571,2.013-21.818,9.194-43.821,13.385c-25.783,4.91-15.141-11.453,15.141-18.829
		c30.293-7.365,87.169-6.543,87.169-6.543s-9.82,6.954-25.783,5.732c-15.953-1.233-40.102-0.411-58.52,6.954l24.129-1.099
		l-0.77,0.123l-2.198,0.452l2.239-0.123l2.229-0.051C193.887,166.207,193.949,166.207,194.011,166.207z"/>
	<path class="st1" d="M133.826,89.145c-13.621-0.699-12.573,2.856-9.214,6.019c-0.01-0.01-0.01-0.01-0.021-0.01
		c-0.842-0.329-1.531-0.555-1.983-0.74c-0.39-0.154-0.616-0.247-0.688-0.267c0.144,0.134,0.924,0.791,2.301,1.726
		c0.781,0.493,1.705,1.14,2.835,1.757c1.089,0.647,2.342,1.284,3.739,1.952c0.031,0.021,0.062,0.041,0.092,0.051
		c1.438,0.657,3.01,1.387,4.715,2.024c0.853,0.308,1.726,0.627,2.63,0.955c0.894,0.329,1.839,0.565,2.794,0.863
		c1.89,0.606,3.893,1.048,5.927,1.51c2.034,0.473,4.14,0.729,6.225,1.089c2.106,0.236,4.222,0.442,6.297,0.596
		c2.075,0.082,4.129,0.123,6.102,0.154c1.983-0.082,3.893-0.185,5.701-0.298c1.808-0.092,3.503-0.411,5.074-0.606
		c1.561-0.205,2.989-0.401,4.242-0.709c1.253-0.267,2.342-0.544,3.236-0.76c1.777-0.431,2.784-0.729,2.784-0.729
		s-0.647-0.041-1.808-0.072c2.188-0.113,4.16-0.596,3.513-2.188c-1.017-2.517-10.549-3.421-12.871-3.945
		C161.674,94.446,148.012,89.885,133.826,89.145z M109.923,72.761c0.021,0,0.051,0,0.072,0c2.178,0.072,4.304,0.257,6.4,0.339
		c2.085,0.072,4.129,0.267,6.122,0.442c1.983,0.185,3.924,0.329,5.793,0.534c1.87,0.216,3.677,0.421,5.413,0.616
		c3.472,0.36,6.636,0.883,9.45,1.253c2.825,0.37,5.28,0.77,7.293,1.109c1.685,0.277,3.071,0.493,4.109,0.657
		c1.305,0.195,2.075,0.298,2.219,0.318c-0.154-0.041-0.996-0.298-2.434-0.719c-2.373-4.458-6.194-19.558,57.288-10.775
		c2.003,0.657,3.862,1.294,5.526,1.962c0.38,0.154,0.76,0.308,1.12,0.452c0.863,0.349,1.664,0.688,2.414,1.017
		c0.801,0.349,1.531,0.688,2.198,1.017c1.551,0.77,2.773,1.387,3.575,1.859c0.709,0.411,1.109,0.678,1.202,0.74
		c-0.103-0.103-0.699-0.647-1.787-1.479c1.695,0.832,4.263,2.167,6.852,3.77c0,0.01,0,0.01,0.01,0.01
		c0.38,0.36,1.181,1.109,2.342,2.157c0.627,0.555,1.305,1.253,2.085,2.013c0.257,0.247,0.534,0.514,0.811,0.77
		c0.123,0.113,0.236,0.226,0.36,0.349c0.442,0.442,0.873,0.935,1.346,1.428c0.586,0.637,1.253,1.243,1.87,1.972
		c0.627,0.709,1.274,1.438,1.952,2.209c0.647,0.781,1.325,1.582,2.013,2.414c1.346,1.685,2.702,3.513,4.057,5.413
		c1.366,1.911,2.63,3.975,3.924,6.071c0.637,1.048,1.222,2.147,1.849,3.215c0.586,1.099,1.192,2.188,1.746,3.308
		c1.12,2.239,2.198,4.489,3.154,6.769c0.38,0.883,0.75,1.767,1.099,2.65c1.037,7.571-0.514,15.1-8.084,19.271
		c-12.491,6.882-28.207,2.393-41.664,3.267c-9.296,0.596-18.562,1.582-27.776,2.958c-26.06,3.903-51.864,10.806-75.798,21.921
		c-44.037,20.452-49.635-2.137-49.491-16.281c0.154-0.586,0.288-1.161,0.411-1.736c0.216-0.863,0.339-1.736,0.493-2.558
		c0.113-0.832,0.236-1.633,0.318-2.414c0.062-0.77,0.113-1.51,0.154-2.219c0.01-0.709,0.01-1.376,0.021-2.003
		c-0.01-1.263-0.072-2.352-0.103-3.246c-0.164-1.787-0.257-2.815-0.257-2.815s-0.021,0.36-0.051,1.027
		c-0.185-6.862-1.017-15.223-1.017-15.223c-4.294,14.083-15.799,3.513-21.027-3.873c-2.414-3.41-4.16-7.416-4.253-11.587
		c-0.123-6.584,4.294-12.08,9.235-16.384c0.791-0.411,1.602-0.801,2.434-1.181c1.767-0.894,3.667-1.602,5.578-2.414
		c0.966-0.349,1.952-0.719,2.948-1.079c0.493-0.185,0.986-0.37,1.489-0.555c0.514-0.164,1.017-0.318,1.531-0.483
		c1.027-0.329,2.065-0.657,3.102-0.986c1.058-0.277,2.126-0.565,3.195-0.842c2.137-0.616,4.355-1.007,6.554-1.531
		c2.209-0.462,4.468-0.822,6.728-1.222c2.28-0.277,4.551-0.627,6.841-0.842c2.301-0.195,4.592-0.493,6.893-0.596
		c2.291-0.103,4.581-0.288,6.852-0.308c2.28-0.021,4.54-0.051,6.769-0.072c1.633,0.041,3.267,0.072,4.869,0.103
		C108.814,72.73,109.368,72.751,109.923,72.761z"/>
	<g>
		<path class="st2" d="M127.057,97.63c1.089,0.647,2.342,1.284,3.739,1.952c0.031,0.021,0.062,0.041,0.092,0.051
			c1.438,0.657,3.01,1.387,4.715,2.024c0.853,0.308,1.726,0.627,2.63,0.955c0.894,0.329,1.839,0.565,2.794,0.863
			c1.89,0.606,3.893,1.048,5.927,1.51c2.034,0.473,4.14,0.729,6.225,1.089c2.106,0.236,4.222,0.442,6.297,0.596
			c2.075,0.082,4.129,0.123,6.102,0.154c1.983-0.082,3.893-0.185,5.701-0.298c1.808-0.092,3.503-0.411,5.074-0.606
			c1.561-0.205,2.989-0.401,4.242-0.709c1.253-0.267,2.342-0.544,3.236-0.76c1.777-0.431,2.784-0.729,2.784-0.729
			s-0.647-0.041-1.808-0.072c-0.318,0-0.678-0.01-1.079-0.01c-0.873,0-1.911-0.021-3.102,0c-0.062,0-0.123,0-0.185,0
			c-1.263,0.051-2.691-0.062-4.242-0.072c-0.77-0.021-1.572-0.031-2.414-0.051c-0.832-0.021-1.685,0-2.568-0.082
			c-1.767-0.103-3.626-0.185-5.547-0.257c-1.911-0.175-3.883-0.339-5.886-0.472c-2.003-0.236-4.027-0.473-6.061-0.699
			c-1.007-0.154-2.013-0.308-3.02-0.462c-0.996-0.154-2.013-0.257-2.989-0.473c-1.972-0.37-3.934-0.678-5.793-1.12
			c-0.935-0.205-1.87-0.38-2.763-0.596c-0.894-0.216-1.777-0.431-2.63-0.637c-0.863-0.185-1.674-0.442-2.476-0.647
			c-0.801-0.226-1.592-0.401-2.321-0.637c-1.469-0.462-2.845-0.832-4.037-1.243c-1.192-0.38-2.219-0.74-3.082-1.027
			c-0.01-0.01-0.01-0.01-0.021-0.01c-0.842-0.329-1.531-0.555-1.983-0.74c-0.39-0.154-0.616-0.247-0.688-0.267
			c0.144,0.134,0.925,0.791,2.301,1.726C125.002,96.367,125.927,97.014,127.057,97.63z"/>
		<path class="st2" d="M296.67,151.898c-0.103-0.134-0.195-0.267-0.308-0.401c-0.021-0.041-0.051-0.082-0.092-0.123
			c-0.586-0.781-1.192-1.541-1.839-2.27c-0.411-0.442-0.791-0.904-1.222-1.325c-0.421-0.431-0.842-0.853-1.284-1.253
			c-0.873-0.822-1.798-1.582-2.753-2.291c-0.966-0.709-1.983-1.335-3.02-1.921c-2.085-1.15-4.314-2.034-6.615-2.558
			c-0.216-0.051-0.421-0.092-0.637-0.133c-0.308-0.421-0.637-0.863-0.976-1.335c-1.048-1.407-2.27-3.061-3.575-4.818
			c-1.305-1.767-2.732-3.605-4.14-5.475c-0.719-0.914-1.438-1.839-2.147-2.743c-0.113-0.144-0.216-0.277-0.329-0.411
			c-0.38-1.705-0.832-3.472-1.356-5.259c-0.719-2.322-1.459-4.746-2.424-7.119c-0.914-2.404-2.024-4.777-3.174-7.119
			c-0.596-1.161-1.243-2.301-1.859-3.441c-0.668-1.12-1.325-2.239-2.013-3.328c-1.387-2.167-2.897-4.201-4.417-6.132
			c-1.5-1.931-3.112-3.677-4.664-5.28c-0.801-0.791-1.572-1.551-2.322-2.291c-0.801-0.688-1.561-1.356-2.301-2.003
			c-1.397-1.202-2.763-2.209-3.996-3.092c0.431-0.77,0.781-1.592,1.079-2.434c0.308-0.904,0.555-1.849,0.719-2.794
			c0.308-1.911,0.318-3.873,0.072-5.793c-0.144-0.955-0.329-1.911-0.596-2.845c-0.123-0.462-0.277-0.935-0.442-1.397
			c-0.175-0.483-0.318-0.894-0.596-1.448l-0.637-1.284l-1.428,0.205c-1.048,0.144-2.106,0.277-3.154,0.452
			c-1.048,0.216-2.095,0.401-3.133,0.668c-1.037,0.277-2.065,0.534-3.082,0.894c-1.017,0.318-2.024,0.698-3.01,1.12
			c-0.986,0.421-1.962,0.883-2.897,1.387c-0.873,0.472-1.705,0.976-2.517,1.52c-2.537-1.418-5.66-2.948-9.276-4.366
			c-2.825-1.109-5.937-2.157-9.296-3.061c-3.359-0.863-6.934-1.736-10.693-2.25c-3.749-0.586-7.653-1.017-11.628-1.192
			c-1.993-0.051-3.996-0.164-6.009-0.123l-3.03,0.021c-1.007,0.021-2.013,0.082-3.03,0.123l-3.02,0.175l-3.01,0.288
			c-2.003,0.164-3.986,0.431-5.958,0.698c-0.976,0.144-1.962,0.247-2.938,0.421c-0.966,0.175-1.921,0.349-2.886,0.534
			c-0.955,0.175-1.9,0.349-2.845,0.524c-0.935,0.216-1.859,0.421-2.784,0.627c-3.698,0.76-7.201,1.798-10.519,2.732
			c-3.297,1.037-6.41,2.003-9.214,3.092c-1.407,0.524-2.753,1.027-4.037,1.5c-1.263,0.534-2.465,1.037-3.585,1.52
			c-0.226,0.092-0.452,0.195-0.678,0.288c-1.633-0.154-3.287-0.298-4.961-0.431c-2.208-0.113-4.458-0.236-6.728-0.349
			c-2.28-0.082-4.581-0.062-6.913-0.072c-2.322,0-4.674,0.164-7.026,0.236c-2.352,0.092-4.715,0.37-7.077,0.544
			c-2.352,0.247-4.694,0.637-7.036,0.945c-2.322,0.431-4.653,0.832-6.934,1.325c-2.27,0.555-4.54,1.027-6.728,1.736
			c-1.099,0.329-2.198,0.647-3.277,0.976c-1.068,0.37-2.126,0.75-3.184,1.12c-0.524,0.185-1.048,0.37-1.572,0.544
			c-0.514,0.216-1.017,0.421-1.531,0.627c-1.017,0.411-2.013,0.822-2.999,1.243c-1.941,0.945-3.862,1.777-5.639,2.794
			c-3.636,1.88-6.872,4.016-9.728,6.143c-2.886,2.095-5.311,4.294-7.345,6.338c-0.935,0.935-1.777,1.839-2.537,2.712
			c-1.305-0.164-2.63-0.277-3.955-0.339c-2.64-0.103-5.321,0-7.971,0.534c-1.325,0.257-2.63,0.616-3.924,1.079
			c-0.637,0.247-1.284,0.503-1.911,0.811c-0.616,0.318-1.151,0.586-1.818,1.058l-0.031-0.031l-0.164,0.164l0.01,0.01l-0.586,0.431
			l0.205,0.873c0.175,0.76,0.329,1.531,0.524,2.28c0.216,0.75,0.39,1.52,0.647,2.26c0.452,1.5,1.037,2.958,1.674,4.386
			c0.668,1.428,1.376,2.835,2.229,4.17c0.822,1.346,1.746,2.63,2.743,3.852c0.996,1.233,2.085,2.383,3.236,3.462
			c1.151,1.079,2.383,2.075,3.667,2.989c1.274,0.925,2.64,1.736,4.037,2.465c0.699,0.37,1.407,0.709,2.137,1.027
			c0.74,0.308,1.459,0.575,2.291,0.822l0.308-0.935c0.031,0.226,0.072,0.452,0.103,0.688c0.257,1.531,0.431,3.215,0.801,4.961
			c0.359,1.757,0.729,3.606,1.12,5.516c0.503,1.89,1.017,3.842,1.551,5.824c0.606,1.962,1.253,3.944,1.911,5.927
			c0.75,1.952,1.428,3.924,2.26,5.814c0.832,1.88,1.602,3.76,2.517,5.496c0.442,0.883,0.853,1.757,1.305,2.589
			c0.462,0.822,0.904,1.633,1.346,2.424c0.883,1.561,1.798,3.01,2.64,4.335c0.883,1.305,1.685,2.506,2.476,3.523
			c0.75,1.037,1.479,1.9,2.044,2.63c0.288,0.339,0.555,0.647,0.781,0.914c-0.031,0.524-0.062,1.037-0.082,1.541
			c-0.103,1.787-0.134,3.472-0.123,5.023c0,3.112,0.216,5.701,0.36,7.509c0.082,0.904,0.175,1.613,0.236,2.106
			c0.01,0.041,0.01,0.092,0.021,0.134c-0.349,0.483-0.678,0.966-0.996,1.469c-0.76,1.15-1.448,2.352-2.075,3.595
			c-0.308,0.616-0.586,1.263-0.863,1.9c-0.257,0.647-0.534,1.294-0.74,1.962c-0.472,1.315-0.842,2.681-1.099,4.068
			c-0.123,0.699-0.236,1.397-0.298,2.095c-0.103,0.709-0.103,1.418-0.154,2.126l-0.072,0.986l0.945,0.421
			c0.072,0.031,0.134,0.062,0.195,0.082c0.031,0.01,0.051,0.021,0.082,0.031c0.883,0.37,1.654,0.575,2.506,0.77
			c0.914,0.216,1.839,0.329,2.763,0.39c0.925,0.072,1.859,0.072,2.784,0.01c0.914-0.062,1.839-0.154,2.743-0.329
			c0.904-0.164,1.808-0.39,2.671-0.678c0.873-0.277,1.736-0.606,2.558-0.986c0.832-0.359,1.633-0.801,2.424-1.243l1.161-0.699
			l1.109-0.77c0.719-0.534,1.428-1.079,2.106-1.664c0.668-0.586,1.335-1.181,1.952-1.818c0.647-0.606,1.212-1.294,1.798-1.952
			s1.12-1.356,1.674-2.044c0.39-0.524,0.77-1.058,1.13-1.602c0.164-0.021,0.318-0.051,0.483-0.072
			c1.777-0.329,3.729-0.637,5.742-1.14c1.017-0.236,2.054-0.462,3.112-0.729c1.058-0.277,2.126-0.586,3.225-0.894
			c1.099-0.288,2.188-0.647,3.297-1.007c1.109-0.37,2.229-0.74,3.359-1.12c2.229-0.811,4.499-1.674,6.738-2.578
			c1.037-0.462,2.096-0.914,3.133-1.376c2.178,0.113,4.54,0.216,7.057,0.236c3.472,0.062,7.232,0.062,11.207-0.082
			c3.986-0.123,8.177-0.318,12.511-0.709c4.325-0.37,8.803-0.812,13.323-1.469c2.26-0.339,4.54-0.657,6.821-1.068
			c1.14-0.195,2.28-0.39,3.421-0.586l3.421-0.657c4.551-0.914,9.07-2.013,13.498-3.174c2.208-0.565,4.386-1.233,6.533-1.87
			c2.126-0.688,4.232-1.376,6.307-2.044c2.054-0.729,4.078-1.438,6.04-2.178c1.941-0.791,3.842-1.561,5.691-2.311
			c3.667-1.572,7.098-3.133,10.19-4.735c2.496-1.192,4.725-2.476,6.769-3.647c0.442,0.041,0.883,0.082,1.325,0.123l8.885,0.781
			l4.458,0.401l4.468,0.36c1.551,0.113,3.102,0.134,4.664,0.092c1.551-0.051,3.102-0.175,4.653-0.401
			c3.082-0.462,6.132-1.274,9.05-2.434c1.469-0.575,2.886-1.253,4.273-2.013c0.698-0.39,1.376-0.791,2.044-1.243
			c0.39-0.267,0.76-0.524,1.14-0.822l1.448,0.349l2.476,0.493l2.506,0.401c0.842,0.103,1.674,0.216,2.517,0.298
			c0.853,0.051,1.695,0.154,2.547,0.164c0.853,0.041,1.705,0.062,2.558,0.031c0.853,0,1.705-0.072,2.558-0.123
			c0.853-0.082,1.705-0.164,2.558-0.298c0.853-0.123,1.695-0.277,2.537-0.462c0.842-0.195,1.685-0.401,2.506-0.668
			c0.832-0.247,1.644-0.544,2.455-0.863c0.801-0.318,1.592-0.698,2.363-1.099c0.77-0.411,1.52-0.853,2.25-1.335
			c0.729-0.483,1.428-1.007,2.106-1.572c0.668-0.555,1.305-1.161,1.911-1.808c0.616-0.668,1.15-1.284,1.715-2.167l0.503-0.801
			L296.67,151.898z M47.869,172.658c-0.698-1.017-1.438-2.198-2.25-3.482c-0.781-1.305-1.664-2.691-2.506-4.222
			c-0.421-0.77-0.863-1.551-1.305-2.352c-0.442-0.801-0.853-1.644-1.294-2.486c-0.894-1.685-1.715-3.482-2.578-5.29
			c-0.442-0.894-0.812-1.839-1.212-2.773c-0.411-0.925-0.812-1.859-1.222-2.804c-0.729-1.9-1.459-3.811-2.178-5.681
			c-0.637-1.911-1.274-3.79-1.89-5.609c-0.544-1.839-1.079-3.626-1.582-5.311c-0.514-1.695-0.832-3.328-1.222-4.818
			c-0.349-1.51-0.77-2.866-0.986-4.099c-0.257-1.233-0.483-2.311-0.668-3.195c-0.38-1.767-0.606-2.773-0.606-2.773
			s0.082,1.027,0.216,2.835c0.072,0.904,0.164,1.993,0.277,3.256c0.031,0.473,0.082,0.976,0.144,1.489
			c-0.359-0.164-0.729-0.349-1.089-0.524c-0.637-0.318-1.274-0.668-1.9-1.027c-0.616-0.37-1.222-0.75-1.818-1.161
			c-0.596-0.411-1.192-0.822-1.767-1.253c-1.15-0.873-2.239-1.818-3.287-2.804c-1.048-0.986-2.013-2.054-2.938-3.164
			c-0.924-1.099-1.777-2.26-2.558-3.482c-0.791-1.202-1.489-2.465-2.147-3.76c-0.627-1.305-1.202-2.63-1.705-3.996
			c-0.257-0.637-0.442-1.294-0.668-1.941c0.113,0.103,0.226,0.216,0.349,0.318l1.736,1.551c0.575,0.524,1.171,1.027,1.787,1.5
			l1.828,1.448l1.9,1.366c0.616,0.462,1.274,0.883,1.931,1.305c0.668,0.411,1.305,0.863,1.993,1.233
			c0.678,0.38,1.346,0.781,2.044,1.14l2.106,1.027c1.428,0.627,2.876,1.233,4.376,1.695c0.75,0.247,1.51,0.442,2.28,0.637
			c0.668,0.144,1.325,0.288,2.034,0.359c0.288,0.945,0.586,1.88,0.986,2.773c0.195,0.514,0.431,1.007,0.678,1.5
			c0.236,0.493,0.473,0.986,0.76,1.459c1.068,1.911,2.383,3.667,3.801,5.311c0.719,0.822,1.459,1.613,2.219,2.383l2.291,2.28
			c0.77,0.75,1.541,1.5,2.291,2.26c0.74,0.781,1.459,1.531,2.147,2.363c0.349,0.421,0.678,0.811,0.976,1.233
			c0.288,0.421,0.555,0.873,0.801,1.335c0.483,0.924,0.883,1.911,1.243,2.917c0.709,2.003,1.222,4.088,1.654,6.184
			c0.637,3.092,1.099,6.235,1.418,9.389c-0.586,1.561-1.14,3.164-1.664,4.807c-0.318,0.996-0.575,1.972-0.863,2.948
			c-0.257,1.068-0.503,2.044-0.719,3.061c-0.39,1.921-0.729,3.821-0.945,5.681C48.342,173.366,48.105,173.027,47.869,172.658z
			 M46.626,210.839c-0.401-0.082-0.822-0.185-1.222-0.318c0.01-0.267,0.021-0.534,0.051-0.801c0.051-0.627,0.144-1.253,0.247-1.88
			c0.103-0.627,0.226-1.253,0.359-1.88c0.144-0.616,0.288-1.233,0.473-1.849c0.164-0.616,0.39-1.222,0.596-1.828
			c0.226-0.606,0.452-1.212,0.709-1.798c0.493-1.202,1.048-2.383,1.664-3.523c0.308-0.585,0.637-1.15,0.966-1.705
			c0.103-0.185,0.205-0.359,0.318-0.534l0.586-0.062c0,0-0.01-0.288-0.041-0.832c0.051-0.082,0.113-0.175,0.164-0.257
			c0.698-1.12,1.469-2.188,2.25-3.267c0.781-1.068,1.623-2.095,2.465-3.123c0.873-1.017,1.746-2.034,2.691-2.999
			c-2.26,1.479-4.314,3.277-6.225,5.218c-0.503,0.503-0.986,1.027-1.448,1.572c-0.041-1.674-0.041-3.842,0-6.358
			c0.041-1.51,0.072-3.143,0.175-4.869c0.041-0.75,0.092-1.51,0.154-2.291c0.072-1.017,0.164-2.054,0.277-3.112
			c0.205-1.87,0.462-3.79,0.791-5.722c0.175-0.955,0.401-1.962,0.575-2.886c0.236-0.986,0.452-2.003,0.709-2.958
			c0.996-3.842,2.352-7.673,3.575-11.34c0.39-1.243,0.76-2.476,1.068-3.677c0.154-0.586,0.288-1.161,0.411-1.736
			c0.216-0.863,0.339-1.736,0.493-2.558c0.113-0.832,0.236-1.633,0.318-2.414c0.062-0.77,0.113-1.51,0.154-2.219
			c0.01-0.709,0.01-1.376,0.021-2.003c-0.01-1.263-0.072-2.352-0.103-3.246c-0.164-1.787-0.257-2.815-0.257-2.815
			s-0.021,0.36-0.051,1.027c-0.021,0.462-0.051,1.058-0.092,1.787c-0.072,0.883-0.144,1.972-0.288,3.195
			c-0.082,0.616-0.164,1.263-0.257,1.952c-0.123,0.678-0.247,1.397-0.38,2.147c-0.144,0.74-0.329,1.5-0.503,2.291
			c-0.236,0.781-0.421,1.602-0.698,2.414c-0.503,1.654-1.192,3.349-1.9,5.105c-0.729,1.767-1.479,3.606-2.25,5.465
			c-0.082,0.205-0.164,0.411-0.247,0.627c-0.051-0.894-0.123-1.777-0.205-2.66c-0.205-2.147-0.452-4.294-0.832-6.41
			c-0.38-2.126-0.842-4.242-1.52-6.317c-0.339-1.038-0.719-2.054-1.212-3.041c-0.462-0.976-1.12-1.972-1.818-2.763
			c-0.678-0.832-1.428-1.654-2.178-2.424c-0.75-0.781-1.51-1.541-2.27-2.301l-2.27-2.291c-0.74-0.77-1.459-1.551-2.147-2.352
			c-0.688-0.811-1.346-1.644-1.962-2.506c-0.616-0.863-1.192-1.757-1.705-2.671c-0.277-0.452-0.514-0.925-0.74-1.397
			c-0.247-0.473-0.473-0.945-0.668-1.438c-0.431-0.966-0.75-1.972-1.079-2.979l-0.113-0.318l-0.329-0.031
			c-0.709-0.041-1.479-0.195-2.208-0.349c-0.74-0.175-1.479-0.359-2.209-0.596c-1.459-0.442-2.886-1.017-4.294-1.623
			c-1.387-0.637-2.763-1.315-4.109-2.065c-0.688-0.339-1.325-0.781-1.993-1.161c-0.657-0.39-1.315-0.801-1.941-1.243l-1.911-1.294
			l-1.849-1.397c-0.627-0.452-1.233-0.935-1.808-1.438l-1.787-1.479c-0.298-0.236-0.575-0.483-0.853-0.74
			c-0.062-0.216-0.123-0.421-0.175-0.627c0.216-0.134,0.452-0.277,0.678-0.401c0.041-0.021,0.082-0.051,0.134-0.072
			c0.473-0.257,0.976-0.503,1.489-0.729c1.12-0.493,2.291-0.894,3.492-1.212c2.404-0.616,4.91-0.996,7.447-1.099
			c0.945-0.041,1.9-0.051,2.856-0.031c-0.462,0.565-0.873,1.099-1.253,1.602c-0.555,0.74-1.037,1.428-1.438,2.044
			c-0.503,0.76-0.904,1.418-1.202,1.941c-0.473,0.842-0.729,1.356-0.781,1.479c0.072-0.113,0.39-0.596,0.966-1.356
			c0.586-0.791,1.51-1.88,2.702-3.195c0.031-0.021,0.041-0.041,0.072-0.062c0.062-0.072,0.133-0.144,0.205-0.226
			c0.031-0.031,0.062-0.072,0.092-0.103c0.606-0.647,1.294-1.346,2.054-2.075c0.38-0.37,0.791-0.74,1.212-1.13
			c2.547-2.311,5.783-4.869,9.687-7.355c2.239-1.418,4.684-2.835,7.324-4.16c0.791-0.411,1.602-0.801,2.434-1.181
			c1.767-0.894,3.667-1.602,5.578-2.414c0.966-0.349,1.952-0.719,2.948-1.079c0.493-0.185,0.986-0.37,1.489-0.555
			c0.514-0.164,1.017-0.318,1.531-0.483c1.027-0.329,2.065-0.657,3.102-0.986c1.058-0.277,2.126-0.565,3.195-0.842
			c2.137-0.616,4.355-1.007,6.554-1.531c2.209-0.462,4.468-0.822,6.728-1.222c2.28-0.277,4.551-0.627,6.841-0.842
			c2.301-0.195,4.592-0.493,6.893-0.596c2.291-0.103,4.581-0.288,6.851-0.308c2.28-0.021,4.54-0.051,6.769-0.072
			c1.633,0.041,3.267,0.072,4.869,0.103c0.555,0.01,1.109,0.031,1.664,0.041c0.021,0,0.051,0,0.072,0
			c2.178,0.072,4.304,0.257,6.4,0.339c2.085,0.072,4.129,0.267,6.122,0.442c1.983,0.185,3.924,0.329,5.794,0.534
			c1.87,0.216,3.677,0.421,5.413,0.616c3.472,0.36,6.636,0.883,9.45,1.253c2.825,0.37,5.28,0.77,7.293,1.109
			c1.685,0.277,3.071,0.493,4.109,0.657c1.305,0.195,2.075,0.298,2.219,0.318c-0.154-0.041-0.996-0.298-2.434-0.719
			c-0.966-0.277-2.219-0.637-3.719-1.058c-0.986-0.277-2.085-0.575-3.277-0.914c-1.192-0.339-2.506-0.596-3.893-0.935
			c-2.784-0.637-5.917-1.459-9.389-2.044c-1.736-0.329-3.534-0.657-5.403-1.017c-1.87-0.329-3.831-0.555-5.824-0.842
			c-1.274-0.195-2.578-0.37-3.903-0.524c0.359-0.103,0.729-0.216,1.099-0.329c1.305-0.36,2.681-0.729,4.119-1.13
			c2.856-0.832,5.999-1.531,9.286-2.373c3.318-0.719,6.81-1.51,10.447-2.157c0.914-0.164,1.828-0.339,2.753-0.503
			c0.925-0.144,1.859-0.288,2.794-0.421c1.88-0.277,3.78-0.575,5.701-0.791c1.921-0.236,3.862-0.483,5.814-0.606l2.928-0.247
			l2.938-0.144c0.986-0.051,1.962-0.123,2.938-0.154l2.938-0.051c1.952-0.072,3.903,0.021,5.835,0.051
			c0.966,0,1.921,0.092,2.876,0.133c0.955,0.051,1.9,0.072,2.845,0.144c1.88,0.175,3.76,0.267,5.578,0.524
			c3.657,0.401,7.16,1.007,10.467,1.644c3.297,0.719,6.41,1.469,9.235,2.311c0.719,0.226,1.418,0.442,2.106,0.657
			c2.003,0.657,3.862,1.294,5.526,1.962c0.38,0.154,0.76,0.308,1.12,0.452c0.863,0.349,1.664,0.688,2.414,1.017
			c0.801,0.349,1.531,0.688,2.198,1.017c1.551,0.77,2.773,1.387,3.575,1.859c0.709,0.411,1.109,0.678,1.202,0.74
			c-0.103-0.103-0.699-0.647-1.787-1.479c-0.277-0.216-0.596-0.452-0.955-0.709c-0.483-0.339-1.027-0.719-1.633-1.12
			c-0.38-0.247-0.781-0.503-1.212-0.781c0.37-0.123,0.74-0.236,1.12-0.349c0.472-0.164,0.966-0.288,1.448-0.421
			c0.483-0.134,0.955-0.288,1.448-0.39l1.448-0.38l1.459-0.329c0.966-0.247,1.962-0.401,2.938-0.616
			c0.483-0.113,0.986-0.175,1.479-0.267l1.479-0.267l1.489-0.226c0.103,0.267,0.205,0.544,0.298,0.832
			c0.164,0.472,0.318,0.945,0.442,1.438c0.092,0.298,0.175,0.596,0.236,0.904c0.38,1.592,0.575,3.215,0.596,4.859
			c0,0.822-0.041,1.654-0.134,2.486c-0.062,0.411-0.092,0.832-0.185,1.243c-0.041,0.205-0.082,0.411-0.123,0.616
			c-0.709-0.473-1.356-0.894-1.941-1.243c-1.839-1.068-2.948-1.664-3.082-1.726c0.031,0.021,0.103,0.103,0.236,0.216
			c0,0.01,0,0.01,0.01,0.01c0.38,0.36,1.181,1.109,2.342,2.157c0.627,0.555,1.305,1.253,2.085,2.013
			c0.257,0.247,0.534,0.514,0.811,0.77c0.123,0.113,0.236,0.226,0.36,0.349c0.442,0.442,0.873,0.935,1.346,1.428
			c0.586,0.637,1.253,1.243,1.87,1.972c0.627,0.709,1.274,1.438,1.952,2.209c0.647,0.781,1.325,1.582,2.013,2.414
			c1.346,1.685,2.702,3.513,4.058,5.413c1.366,1.911,2.63,3.975,3.924,6.071c0.637,1.048,1.222,2.147,1.849,3.215
			c0.586,1.099,1.192,2.188,1.746,3.308c1.12,2.239,2.198,4.489,3.154,6.769c0.38,0.883,0.75,1.767,1.099,2.65
			c0.164,0.38,0.318,0.76,0.462,1.14c0.401,0.986,0.77,1.972,1.12,2.938c0.76,2.229,1.541,4.376,2.157,6.461
			c0.144,0.472,0.277,0.945,0.411,1.418c0.462,1.561,0.894,3.051,1.263,4.468c0.955,3.667,1.644,6.78,2.065,8.978
			c0.442,2.198,0.637,3.472,0.637,3.472s0.164-1.284,0.175-3.544c0.031-2.147-0.062-5.167-0.503-8.772
			c0.021,0.031,0.051,0.072,0.082,0.103c0.76,0.904,1.582,1.746,2.363,2.558c1.253,1.264,2.506,2.404,3.688,3.359
			c-0.914-0.031-1.828,0-2.722,0.134c1.15,0,2.27,0.164,3.379,0.38c0.01,0,0.031,0.01,0.041,0.01
			c1.12,0.247,2.219,0.544,3.287,0.925c0.175,0.062,0.349,0.133,0.524,0.195c1.941,0.75,3.78,1.736,5.485,2.886
			c0.914,0.647,1.798,1.325,2.64,2.075c0.832,0.74,1.644,1.5,2.393,2.332c0.38,0.411,0.74,0.832,1.099,1.263
			c0.37,0.411,0.688,0.873,1.037,1.305c0.308,0.411,0.606,0.832,0.894,1.253c-0.565,0.113-1.14,0.226-1.705,0.339
			c-2.476,0.473-4.961,0.935-7.458,1.212c-1.243,0.123-2.506,0.185-3.739,0.062c-1.243-0.123-2.455-0.452-3.657-0.791
			c-2.424-0.699-4.869-1.366-7.345-1.88c-2.476-0.524-4.972-0.945-7.468-1.325c-5.003-0.75-10.015-1.305-15.049-1.787
			c-5.023-0.452-10.056-0.853-15.09-1.161c-5.044-0.349-10.108-0.472-15.162-0.339c-10.108,0.257-20.185,1.376-30.149,3.051
			c-9.964,1.695-19.835,3.914-29.573,6.626c-9.738,2.691-19.353,5.794-28.865,9.183c-9.502,3.41-18.901,7.108-28.187,11.094
			c-4.633,1.993-9.245,4.047-13.816,6.184c-4.581,2.137-9.122,4.325-13.611,6.656l-0.051,0.031l-0.041,0.051
			c-2.137,2.876-4.592,5.506-7.211,7.971c-2.63,2.455-5.413,4.746-8.279,6.903c-2.886,2.167-5.845,4.212-8.885,6.153
			c-0.37,0.236-0.74,0.473-1.109,0.699C46.801,210.87,46.719,210.86,46.626,210.839z M292.88,153.531
			c-0.544,0.514-1.109,1.007-1.726,1.459c-0.606,0.452-1.243,0.873-1.9,1.253c-0.647,0.39-1.335,0.74-2.024,1.058
			c-0.699,0.318-1.407,0.596-2.126,0.863c-0.719,0.257-1.448,0.493-2.188,0.688c-0.74,0.216-1.5,0.37-2.25,0.514
			c-0.76,0.144-1.52,0.257-2.291,0.339c-0.77,0.103-1.551,0.144-2.321,0.195c-0.781,0.02-1.551,0.062-2.332,0.031
			c-0.781,0-1.561-0.041-2.342-0.072c-0.781-0.031-1.572-0.134-2.352-0.185l-2.342-0.298l-2.332-0.401l-2.322-0.493l-2.311-0.575
			l-1.027-0.267l-0.842,0.709c-0.401,0.339-1.017,0.781-1.572,1.15c-0.575,0.38-1.171,0.75-1.777,1.089
			c-1.212,0.688-2.476,1.305-3.78,1.839c-2.609,1.068-5.352,1.828-8.146,2.28c-2.794,0.483-5.65,0.657-8.516,0.555l-4.438-0.195
			l-4.468-0.175c-2.044-0.072-4.078-0.154-6.122-0.205c-0.914-0.031-1.818-0.051-2.732-0.072c-0.031,0-0.072,0-0.103,0
			c-2.989-0.041-5.978-0.062-8.978-0.021c-1.5,0.041-3,0.082-4.489,0.164c-1.5,0.072-3,0.164-4.489,0.298
			c-1.5,0.134-2.989,0.318-4.468,0.514l-1.448,0.236l-0.77,0.123l-2.198,0.452l2.239-0.123l2.229-0.051c0.062,0,0.123,0,0.185,0
			c1.428-0.02,2.845-0.02,4.273,0.021c1.479,0.051,2.958,0.082,4.448,0.164c1.479,0.062,2.958,0.175,4.438,0.267
			c1.335,0.082,2.66,0.175,3.996,0.288c-0.606,0.267-1.222,0.544-1.859,0.832c-0.76,0.318-1.541,0.637-2.332,0.966
			c-3.164,1.356-6.646,2.64-10.324,4.027c-1.859,0.647-3.77,1.305-5.711,1.983c-1.972,0.627-3.975,1.264-6.009,1.921
			c-2.065,0.596-4.15,1.202-6.266,1.818c-2.137,0.555-4.294,1.13-6.471,1.695c-4.355,1.099-8.813,2.126-13.302,2.989l-3.359,0.688
			c-1.12,0.205-2.239,0.401-3.369,0.606c-2.229,0.431-4.479,0.76-6.697,1.12c-2.229,0.329-4.438,0.657-6.626,0.986
			c-2.188,0.277-4.345,0.586-6.482,0.822c-4.263,0.473-8.392,0.914-12.327,1.243c-3.924,0.318-7.642,0.596-11.084,0.781
			c-0.945,0.051-1.869,0.103-2.763,0.144c1.849-0.914,3.677-1.818,5.424-2.763c1.972-1.099,3.862-2.209,5.65-3.246
			c1.777-1.058,3.4-2.157,4.91-3.154c1.52-0.976,2.886-1.911,4.047-2.804c1.192-0.873,2.198-1.664,3.03-2.301
			c1.561-1.212,2.465-1.962,2.578-2.054c-0.134,0.051-1.233,0.514-3.01,1.356c-0.945,0.452-2.106,0.986-3.4,1.644
			c-1.294,0.668-2.804,1.335-4.417,2.116c-1.623,0.75-3.349,1.613-5.187,2.496c-1.87,0.842-3.832,1.726-5.835,2.691
			c-2.024,0.904-4.119,1.839-6.256,2.794c-2.126,0.945-4.314,1.839-6.492,2.773c-0.688,0.277-1.387,0.565-2.075,0.842
			c-0.76,0.308-1.531,0.616-2.291,0.924c-0.729,0.298-1.459,0.596-2.178,0.883c-2.188,0.791-4.304,1.674-6.4,2.404
			c-2.085,0.74-4.099,1.5-6.03,2.137c-1.202,0.411-2.363,0.781-3.482,1.14c0.38-0.668,0.77-1.335,1.13-2.024l1.151-2.332
			c-1.048,1.387-2.085,2.763-3.174,4.088l-0.647,0.77l-1.007,1.192l-1.489,1.623l-0.236,0.257c-1.192,1.222-2.393,2.404-3.698,3.462
			c-0.627,0.555-1.284,1.068-1.962,1.561c-0.668,0.503-1.356,0.955-2.054,1.397c-0.709,0.431-1.418,0.842-2.147,1.222
			c-0.729,0.37-1.469,0.729-2.229,1.017c-0.75,0.308-1.531,0.555-2.301,0.77c-0.781,0.205-1.561,0.401-2.352,0.524
			c-0.791,0.154-1.592,0.216-2.393,0.257c-0.791,0.041-1.592,0.031-2.383-0.041c-0.637-0.051-1.274-0.144-1.9-0.257
			c0.339-0.205,0.668-0.411,1.007-0.616c3.061-1.9,6.061-3.914,8.968-6.04c1.387-1.017,2.763-2.065,4.099-3.143
			c1.469-1.181,2.907-2.414,4.304-3.688c1.335-1.222,2.64-2.476,3.873-3.801c0.606-0.668,1.222-1.335,1.798-2.034
			c0.575-0.678,1.109-1.376,1.654-2.085c4.458-2.291,8.998-4.448,13.549-6.543c4.581-2.116,9.194-4.14,13.837-6.112
			c9.286-3.924,18.695-7.581,28.197-10.929c9.512-3.338,19.127-6.389,28.854-9.029c9.728-2.609,19.538-4.931,29.46-6.656
			c9.923-1.715,19.948-2.876,30.015-3.195c5.033-0.154,10.067-0.062,15.09,0.267c5.044,0.288,10.067,0.657,15.09,1.089
			c5.023,0.452,10.036,0.986,15.018,1.705c4.982,0.729,9.923,1.685,14.782,3.071c1.212,0.329,2.455,0.637,3.729,0.74
			c1.284,0.113,2.558,0.031,3.811-0.103c2.517-0.318,4.992-0.822,7.468-1.325c0.596-0.123,1.192-0.247,1.777-0.38
			c0.113,0.164,0.216,0.318,0.318,0.483C293.496,152.915,293.188,153.243,292.88,153.531z"/>
	</g>
</g>
</svg>
