<?xml version="1.0" encoding="utf-8"?>
<!-- Generator: Adobe Illustrator 16.0.0, SVG Export Plug-In . SVG Version: 6.00 Build 0)  -->
<!DOCTYPE svg PUBLIC "-//W3C//DTD SVG 1.1//EN" "http://www.w3.org/Graphics/SVG/1.1/DTD/svg11.dtd">
<svg role="img" version="1.1" id="Layer_1" xmlns="http://www.w3.org/2000/svg" xmlns:xlink="http://www.w3.org/1999/xlink" x="0px" y="0px"
	 width="400px" height="267px" viewBox="0 0 400 267" enable-background="new 0 0 400 267" xml:space="preserve">
<g>
	<defs>
		<rect id="SVGID_1_" x="1.695" y="0.357" width="395.265" height="266.404"/>
	</defs>
	<clipPath id="SVGID_2_">
		<use xlink:href="#SVGID_1_"  overflow="visible"/>
	</clipPath>
	<g transform="matrix(1 0 0 1 0 -2.980232e-08)" clip-path="url(#SVGID_2_)">

			<image overflow="visible" width="592" height="399" xlink:href="D889B65152AA29A9.png"  transform="matrix(0.6677 0 0 0.6677 1.6953 0.3574)">
		</image>
	</g>
</g>
<rect x="-2.978" y="-5.651" fill="#C7F2F3" width="403.945" height="275.75"/>
<path fill="#6DBC64" d="M-3.644,159.211c0,0,4.917-6.036,7.023-0.231c0,0,6.789-6.269,8.896,2.555c0,0,4.214-2.089,5.853,0.464
	c0,0,3.511-4.644,5.852,4.179c0,0,2.576-1.858,3.98,3.482c0,0,7.96-10.447,16.623-4.409c0,0,9.364-3.716,11.705,5.107
	c0,0,2.341-5.107,9.364-4.875c0,0,5.792-6.104,10.349,0.281c0,0,9.653-7.447,13.943,1.595c0,0,12.067-3.987,15.285,3.458
	c0,0,7.24-4.521,9.921,1.33c0,0,3.217-6.384,7.508-3.192c0,0,2.682-5.852,8.312-3.19c0,0,6.704-5.85,6.704,2.926
	c0,0,1.608-1.332,2.145,0.797c0,0,4.291-7.181,10.458-3.457c0,0,1.341-7.979,9.385-4.256c0,0,8.313-5.052,9.385,2.661
	c0,0,4.827-3.191,8.044,0.266c0,0,5.899-2.66,7.776,1.329c0,0,7.507-5.319,12.334-0.798c0,0,6.166-4.254,7.507,1.861
	c0,0,3.486-0.799,4.023,1.861c0,0,2.949-1.862,3.486,0.267c0,0,3.705-9.736,13.68-5.1c0,0,4.982-4.019,8.413,1.236
	c0,0,5.3-4.946,10.908,0.31c0,0,7.789-7.107,13.399,4.327c0,0,5.609-4.02,9.037-1.546c0,0,5.297-6.8,12.776,0
	c0,0,5.921-3.092,8.726-0.309c0,0,0.311-7.109,6.544-3.091c0,0,1.246-4.637,4.051-3.091c0,0,7.792-10.818,15.271,0.309
	c0,0,6.854-0.001,8.102,4.946c0,0,4.985-4.639,9.659-0.31c0,0,1.247-3.4,3.429-1.546c0,0,5.609-9.271,11.529-3.091
	c0,0,5.298-5.564,9.972,0.927c0,0,6.256-2.393,8.835,4.691c0,0,7.539-3.543,10.515,0.982c0,0,4.167-5.312,8.531-1.377
	c0,0,2.578-5.903,16.465-1.771l-0.652,103.269l-403.922,3.115L-3.644,159.211z"/>
<path fill="none" stroke="#4B8942" stroke-width="1.25" stroke-miterlimit="10" d="M-3.644,159.211c0,0,4.917-6.036,7.023-0.231
	c0,0,6.789-6.269,8.896,2.555c0,0,4.214-2.089,5.853,0.464c0,0,3.511-4.644,5.852,4.179c0,0,2.576-1.858,3.98,3.482
	c0,0,7.96-10.447,16.623-4.409c0,0,9.364-3.716,11.705,5.107c0,0,2.341-5.107,9.364-4.875c0,0,5.792-6.104,10.349,0.281
	c0,0,9.653-7.447,13.943,1.595c0,0,12.067-3.987,15.285,3.458c0,0,7.24-4.521,9.921,1.33c0,0,3.217-6.384,7.508-3.192
	c0,0,2.682-5.852,8.312-3.19c0,0,6.704-5.85,6.704,2.926c0,0,1.608-1.332,2.145,0.797c0,0,4.291-7.181,10.458-3.457
	c0,0,1.341-7.979,9.385-4.256c0,0,8.313-5.052,9.385,2.661c0,0,4.827-3.191,8.044,0.266c0,0,5.899-2.66,7.776,1.329
	c0,0,7.507-5.319,12.334-0.798c0,0,6.166-4.254,7.507,1.861c0,0,3.486-0.799,4.023,1.861c0,0,2.949-1.862,3.486,0.267
	c0,0,3.705-9.736,13.68-5.1c0,0,4.982-4.019,8.413,1.236c0,0,5.3-4.946,10.908,0.31c0,0,7.789-7.107,13.399,4.327
	c0,0,5.609-4.02,9.037-1.546c0,0,5.297-6.8,12.776,0c0,0,5.921-3.092,8.726-0.309c0,0,0.311-7.109,6.544-3.091
	c0,0,1.246-4.637,4.051-3.091c0,0,7.792-10.818,15.271,0.309c0,0,6.854-0.001,8.102,4.946c0,0,4.985-4.639,9.659-0.31
	c0,0,1.247-3.4,3.429-1.546c0,0,5.609-9.271,11.529-3.091c0,0,5.298-5.564,9.972,0.927c0,0,6.256-2.393,8.835,4.691
	c0,0,7.539-3.543,10.515,0.982c0,0,4.167-5.312,8.531-1.377c0,0,2.578-5.903,16.465-1.771l-0.652,103.269l-403.922,3.115
	L-3.644,159.211z"/>
<path fill="#8C5F3E" d="M69.215,83.156c0-0.667,1.669-9.18-8.513-8.346c-8.096,0.664-27.906,16.208-16.977,36.586
	c7.902,14.735,18.55,14.706,15.708,24.564c-1.469,5.103-10.528,7.354-14.706,1.005c0,0,6.518,14.873,19.886,9.358
	c0,0-4.846,10.527-17.045,4.846c0,0,5.514,13.537,18.883,6.35c0,0-1.504,6.852-11.197,4.011c0,0,8.69,7.354,22.227-1.337
	s19.385-17.212,13.035-31.584c-6.351-14.371-21.223-25.902-21.892-31.083C67.957,92.346,69.215,83.156,69.215,83.156z"/>
<path fill="none" stroke="#5F3821" stroke-width="1.25" stroke-miterlimit="10" d="M69.215,83.156c0-0.667,1.669-9.18-8.513-8.346
	c-8.096,0.664-27.906,16.208-16.977,36.586c7.902,14.735,18.55,14.706,15.708,24.564c-1.469,5.103-10.528,7.354-14.706,1.005
	c0,0,6.518,14.873,19.886,9.358c0,0-4.846,10.527-17.045,4.846c0,0,5.514,13.537,18.883,6.35c0,0-1.504,6.852-11.197,4.011
	c0,0,8.69,7.354,22.227-1.337s19.385-17.212,13.035-31.584c-6.351-14.371-21.223-25.902-21.892-31.083
	C67.957,92.346,69.215,83.156,69.215,83.156z"/>
<path fill="#5F3821" d="M61.689,147.49c0,0,5.984-5.448,7.019-13.136c0,0,0.444,5.322-1.922,8.723
	C64.457,146.424,61.689,147.49,61.689,147.49z"/>
<ellipse transform="matrix(0.8968 0.4424 -0.4424 0.8968 45.6002 -20.8355)" fill="#E7F6F6" cx="67.462" cy="87.329" rx="2.253" ry="6.009"/>
<path fill="none" stroke="#75B1AD" stroke-width="1.25" stroke-miterlimit="10" d="M66.942,92.73
	c-1.331,0.592-2.139-0.012-2.139-0.012c-1.115-0.55-0.83-3.41,0.639-6.385c1.469-2.977,3.564-4.942,4.68-4.392
	c0,0,1.109-0.005,0.961,1.474"/>
<path fill="#559899" d="M29.871,276.233c0-0.696-1.161-18.344,11.841-26.699c0,0,52.938,17.413,59.208,14.627l-0.465,12.537
	L29.871,276.233z"/>
<path fill="none" stroke="#2D5958" stroke-width="1.25" stroke-miterlimit="10" d="M29.871,276.233
	c0-0.696-1.161-18.344,11.841-26.699c0,0,52.938,17.413,59.208,14.627l-0.465,12.537L29.871,276.233z"/>
<path fill="#F2D5C0" d="M111.6,226.314c0.697,0,9.751,7.431,27.398,8.822l-2.787,13.933c0,0-26.005-7.431-29.488-7.895
	C103.241,240.71,111.6,226.314,111.6,226.314z"/>
<path fill="none" stroke="#D18E7A" stroke-width="1.25" stroke-miterlimit="10" d="M111.6,226.314c0.697,0,9.751,7.431,27.398,8.822
	l-2.787,13.933c0,0-26.005-7.431-29.488-7.895C103.241,240.71,111.6,226.314,111.6,226.314z"/>
<path fill="#F2D5C0" d="M136.211,234.904c0,0-0.929-4.411,2.787-5.341c3.715-0.928,11.088-0.297,14.396,3.484
	c3.251,3.714,4.644,10.215,1.161,15.324c-4.456,6.533-16.252,1.69-19.039-0.697c-1.625-1.393-4.645-8.125-1.625-10.68
	C135.415,235.705,136.211,234.904,136.211,234.904z"/>
<path fill="#F2D5C0" d="M136.211,235.137c0,0,9.289,3.948,15.557,2.09"/>
<path fill="none" stroke="#D18E7A" stroke-width="1.25" stroke-miterlimit="10" d="M136.211,234.904c0,0-0.929-4.411,2.787-5.341
	c3.715-0.928,11.088-0.297,14.396,3.484c3.251,3.714,4.644,10.215,1.161,15.324c-4.456,6.533-16.252,1.69-19.039-0.697
	c-1.625-1.393-4.191-6.753-2.246-10.196C134.242,235.759,136.211,234.904,136.211,234.904z"/>
<path fill="#353434" d="M142.599,237.422c0.679-0.491,6.503-14.405,6.503-14.405s4.167-0.396,5.205,2.352l-6.013,12.551
	L142.599,237.422z"/>
<path fill="none" stroke="#111111" stroke-width="1.25" stroke-miterlimit="10" d="M142.563,237.117
	c1.107-2.57,6.54-14.101,6.54-14.101s4.167-0.396,5.205,2.352l-6.013,12.551c0,0-1.082,0.113-2.955-0.032
	C143.477,237.741,142.563,237.117,142.563,237.117z"/>
<path fill="#E7F6F6" d="M99.991,271.59c11.609-10.68,20.2-66.869,18.575-96.591c-1.625-29.72-23.452-27.397-23.452-27.397
	c-30.185-5.573-33.899,33.899-34.363,47.134c-0.465,13.233-11.146,32.506-14.164,39.937c-3.018,7.431-11.145,14.86-11.145,14.86
	s13.466,16.021,35.525,20.201C93.025,273.912,99.991,271.59,99.991,271.59z"/>
<path fill="#95D0D3" d="M81.851,249.05c0,0-6.24-0.678-12.973-5.091c-6.733-4.411-11.904-21.972-11.904-21.972
	s2.545,18.307,11.093,23.364C76.303,250.226,81.851,249.05,81.851,249.05z"/>
<path fill="#95D0D3" d="M81.648,236.065c-11.609,0-19.968-13.931-19.968-13.931s3.025,9.266,10.758,12.627
	C80.17,238.124,81.648,236.065,81.648,236.065z"/>
<path fill="#75B1AD" d="M94.132,193.839c0.301,1.313-7.701,5.065-16.896,7.167c-9.194,2.104-17.651,3.001-17.952,1.688
	c-0.3-1.312,6.9-5.855,16.094-7.958C84.573,192.635,93.833,192.528,94.132,193.839z"/>
<path fill="none" d="M136.211,235.602"/>
<polygon fill="#353434" points="129.246,245.354 146.485,247.032 156.862,251.999 155.67,259.294 131.844,257.583 "/>
<path fill="none" stroke="#62A7A8" stroke-width="1.25" stroke-miterlimit="10" d="M99.991,271.59
	c11.609-10.68,20.2-66.869,18.575-96.591c-1.625-29.72-23.452-27.397-23.452-27.397c-30.185-5.573-33.899,33.899-34.363,47.134
	c-0.465,13.233-11.146,32.506-14.164,39.937c-3.018,7.431-11.145,14.86-11.145,14.86s13.466,16.021,35.525,20.201
	C93.025,273.912,99.991,271.59,99.991,271.59z"/>
<polygon fill="none" stroke="#111111" stroke-width="1.25" stroke-miterlimit="10" points="129.246,245.354 146.485,247.032
	156.862,252.146 155.67,259.294 131.844,257.583 "/>
<polygon fill="#111111" points="156.862,252.146 155.522,259.294 131.844,257.583 130.806,250.062 "/>
<path fill="#F2D5C0" d="M142.713,246.282c6.037,0.696,3.018,4.876-0.929,5.34c-6.344,0.745-10.217-8.127-10.449-5.34
	s3.948,9.752,6.733,11.607c2.786,1.857,13.699,0,12.074,2.323c-1.626,2.323-11.145,4.877-22.754,2.089
	c-11.609-2.786-10.216-13.93-10.216-13.93l6.966-11.61c0,0,9.75-0.463,12.538,3.252
	C139.463,243.727,142.713,246.282,142.713,246.282z"/>
<path fill="none" stroke="#D18E7A" stroke-width="1.25" stroke-miterlimit="10" d="M142.713,246.282
	c6.037,0.696,3.018,4.876-0.929,5.34c-6.344,0.745-10.217-8.127-10.449-5.34s3.948,9.752,6.733,11.607
	c2.786,1.857,13.699,0,12.074,2.323c-1.626,2.323-11.145,4.877-22.754,2.089c-11.609-2.786-10.216-13.93-10.216-13.93l7.771-11.63
	c0,0,8.945-0.443,11.732,3.271C139.463,243.727,142.713,246.282,142.713,246.282z"/>
<path fill="#F2D5C0" d="M125.311,236.866c-6.501-2.09-11.157-0.801-21.838-7.303c-8.275-5.037-14.163-8.125-14.163-8.125
	c-3.483-6.037-1.858-32.274-1.858-32.274c-6.501-5.34-21.825,2.089-21.825,2.089s0,34.829,5.108,43.651
	c0,0,15.557,12.771,40.865,12.771c0,0,4.411,0.93,6.733,2.091c0,0,2.757-3.944,4.896-7.39
	C125.433,238.826,125.311,236.866,125.311,236.866z"/>
<path fill="none" stroke="#D18E7A" stroke-width="1.25" stroke-miterlimit="10" d="M125.433,236.866
	c-6.501-2.09-11.279-0.801-21.96-7.303c-8.275-5.037-14.163-8.125-14.163-8.125c-3.483-6.037-1.858-32.274-1.858-32.274
	c-6.501-5.34-21.825,2.089-21.825,2.089s0,34.829,5.108,43.651c0,0,15.557,12.771,40.865,12.771c0,0,3.798,0.397,6.12,1.559"/>
<path fill="#D18E7A" d="M93.722,223.76c0.503,0.504-3.109-1.63-6.981-2.812c-4.141-1.263-8.576-1.599-8.576-1.599
	S87.167,217.21,93.722,223.76z"/>
<path fill="#E7F6F6" d="M75.843,151.55c0,0-13.234,11.609-14.627,24.379c-1.394,12.771,1.393,24.846-1.857,26.703
	c-3.25,1.855,8.126-6.038,20.2-7.662c12.196-1.643,13.7-1.625,13.7-1.625s-4.412-7.199-5.108-14.63c-0.65-6.938,0-5.804,0-5.804
	s-2.322-9.288-6.037-14.164C78.397,153.871,75.843,151.55,75.843,151.55z"/>
<path fill="none" stroke="#62A7A8" stroke-width="1.25" stroke-miterlimit="10" d="M75.843,151.55c0,0-13.234,11.609-14.627,24.379
	c-1.394,12.771,1.393,24.846-1.857,26.703c-3.25,1.855,8.126-6.038,20.2-7.662c12.196-1.643,13.7-1.625,13.7-1.625
	s-3.145-5.638-4.414-12.992c-0.583-3.372-0.992-5.552-0.981-6.391"/>
<path fill="#F2D5C0" d="M110.692,158.687c-1.247-5.85,6.08-24.564,6.08-24.564l-25.875-10.027c0,0,0,17.378-5.144,23.729
	c0,0,3.898,7.854,12.47,10.862C106.796,161.694,110.692,158.687,110.692,158.687z"/>
<path fill="none" stroke="#C57967" stroke-width="1.25" stroke-miterlimit="10" d="M110.692,158.687
	c-1.247-5.85,6.08-24.564,6.08-24.564l-25.875-10.027c0,0,0,17.378-5.144,23.729c0,0,3.898,7.854,12.47,10.862
	C106.796,161.694,110.692,158.687,110.692,158.687z"/>
<path fill="#F2D5C0" d="M130.552,77.626c0,0,9.272,7.815,5.166,23.313c0,0-1.722,5.298,1.192,8.742c0,0,2.213,2.544,3.58,3.187
	c2.251,1.06,3.971,3.304,2.381,5.423c-1.589,2.119-4.238,2.251-4.238,2.251s-0.795,4.371-2.252,5.96c0,0-6.093,1.192-11.126-5.96
	c0,0-0.663,9.14,7.153,11.656c0,0-1.06,2.252-2.384,4.371c-0.706,1.13-0.699,8.696-8.381,6.842s-20.286-6.208-23.199-10.579
	c0,0-2.185-1.036-8.723-0.742c-4.53,0.204-31.914-14.034-20.229-44.915c0,0,4.747-13.848,25.611-18.188
	C115.39,64.768,130.552,77.626,130.552,77.626z"/>
<path fill="#9E6D49" d="M123.129,104.707c0,0,3.991-6.505,8.428-7.541c0,0-2.938-1.396-5.323,0.591
	C124.281,99.385,123.129,104.707,123.129,104.707z"/>
<ellipse fill="#2B2D2D" cx="129.89" cy="107.429" rx="1.987" ry="2.914"/>
<path fill="none" stroke="#C57967" stroke-width="1.25" stroke-miterlimit="10" d="M89.534,133.389
	c-1.18,0.273,0.94-1.167-0.186-1.299c-4.504-0.529-31.728-13.848-20.043-44.729c0,0,5.675-14.034,26.54-18.374
	c20.289-4.22,34.708,8.638,34.708,8.638s9.272,7.815,5.166,23.313c0,0-1.722,5.298,1.192,8.742c0,0,2.213,2.544,3.58,3.187
	c2.251,1.06,3.971,3.304,2.381,5.423c-1.589,2.119-4.238,2.251-4.238,2.251s-0.795,4.371-2.252,5.96c0,0-6.093,1.192-11.126-5.96
	c0,0-0.663,9.14,7.153,11.656c0,0-1.06,2.252-2.384,4.371c-0.706,1.13-1.325,9.273-9.008,7.419
	c-2.604-0.629-7.737-3.583-10.88-5.216"/>
<path fill="#F2D5C0" d="M99.424,109.946c0,0-5.033-4.901-9.006-1.325c-4.785,4.307,3.864,19.54,10.729,17.087
	c1.854-0.663,1.722-3.708,1.722-3.708"/>
<path fill="#E7F6F6" d="M83.598,147.602c0,0,2.006-1.338,2.674-2.841c0,0,7.353,10.196,16.544,12.2
	c9.191,2.004,10.026,0.167,10.026,0.167s2.006,1.837,1.671,4.846c0,0-9.191,1.672-17.045-2.006
	C87.85,155.464,83.598,147.602,83.598,147.602z"/>
<path fill="none" stroke="#62A7A8" stroke-width="1.25" stroke-miterlimit="10" d="M83.598,147.602c0,0,2.006-1.338,2.674-2.841
	c0,0,7.353,10.196,16.544,12.2c9.191,2.004,10.026,0.167,10.026,0.167s2.144,1.665,2.848,4.683c0,0-10.368,1.835-18.222-1.843
	C87.85,155.464,83.598,147.602,83.598,147.602z"/>
<path fill="#9E6D49" d="M90.322,134.004c-4.503-0.528-33.792-16.295-22.108-47.176c0,0,6.343-14.355,27.208-18.695
	c20.289-4.22,35.131,9.493,35.131,9.493s4.429-2.816,8.435,1.023c0,0-3.672-1.169-4.841-0.334c0,0,3.172,1.669,3.339,5.341
	c0,0-2.111-3.849-3.78-3.348c0,0,1.11,1.846,0.775,7.188c0,0-3.171-8.847-6.51-8.179c0,0,2.837,2.837,1.67,8.846
	c0,0-3.84-9.013-9.181-8.513c0,0,5.174,6.176-0.5,12.853c0,0,2.67-11.017-3.506-12.019c0,0,2.219,21.353-10.958,28.034
	c-12.548,6.362-16.174,22.106-15.173,24.61"/>
<path fill="#5F3821" d="M81.567,121.047c-9.006-6.729-9.682-22.367-9.682-22.367s-0.508,10.314,2.745,15.49
	C77.884,119.345,81.567,121.047,81.567,121.047z"/>
<path fill="#5F3821" d="M82.235,113.369c-5.342-2.17-8.847-11.351-8.847-11.351s2.277,4.462,4.938,7.124
	S82.235,113.369,82.235,113.369z"/>
<path fill="#5F3821" d="M93.084,101.517c-13.187-0.5-18.695-12.519-18.695-12.519s2.016,6.246,7.043,9.941
	C85.629,102.025,93.084,101.517,93.084,101.517z"/>
<path fill="#5F3821" d="M92.584,95.842c-6.677,1.502-12.853-4.173-12.853-4.173s2.737,1.208,6.729,2.54
	C90.452,95.54,92.584,95.842,92.584,95.842z"/>
<path fill="#5F3821" d="M106.104,81.487c-7.177-5.676-16.358-4.841-16.358-4.841s5.438-1.068,10.168,0.559
	C104.646,78.832,106.104,81.487,106.104,81.487z"/>
<path fill="#5F3821" d="M107.94,74.476c-3.839-2.503-14.188-0.334-14.188-0.334s5.571-1.965,8.824-1.669
	C105.83,72.77,107.94,74.476,107.94,74.476z"/>
<path fill="none" stroke="#5F3821" stroke-width="1.25" stroke-miterlimit="10" d="M90.322,134.004
	c-5.249,0.585-33.792-16.295-22.108-47.176c0,0,6.343-14.355,27.208-18.695c20.289-4.22,35.131,9.493,35.131,9.493
	s4.429-2.816,8.435,1.023c0,0-3.672-1.169-4.841-0.334c0,0,3.172,1.669,3.339,5.341c0,0-1.924-2.791-3.78-3.162
	c0,0,1.11,1.66,0.775,7.001c0,0-3.171-8.847-6.51-8.179c0,0,2.837,2.837,1.67,8.846c0,0-3.84-9.013-9.181-8.513
	c0,0,5.174,6.176-0.5,12.853c0,0,2.67-11.017-3.506-12.019c0,0,2.034,20.239-11.329,27.478
	c-12.692,6.874-14.663,23.385-14.968,26.168"/>
<g>
	<path fill="#F2D5C0" d="M99.952,110.091c0,0-5.289-5.15-9.464-1.392c-5.028,4.526,4.06,20.531,11.273,17.955
		c1.949-0.696,1.81-3.897,1.81-3.897"/>
	<path fill="none" stroke="#C57967" stroke-width="1.25" stroke-miterlimit="10" d="M92.437,112.04c0,0,4.872-1.114,8.49,5.149"/>
	<path fill="none" stroke="#C57967" stroke-width="1.25" stroke-miterlimit="10" d="M100.231,116.215c0,0-3.619,1.113-1.949,4.593"
		/>
	<path fill="none" stroke="#C57967" stroke-width="1.25" stroke-miterlimit="10" d="M101.065,112.297c0,0-5.656-8.581-10.336-3.705
		c-4.686,4.88,3.819,20.638,11.032,18.062c1.949-0.696,1.81-3.897,1.81-3.897"/>
</g>
<path fill="#D18E7A" d="M136.211,235.137c0,0,9.289,3.948,15.557,2.09c0,0-2.457,2.333-7.478,1.354
	C139.27,237.601,136.211,235.137,136.211,235.137z"/>
<path fill="#C8D5D5" d="M345.028,32.863c0.567,2.062-26.849,10.79-53.008,17.98c-26.156,7.191-47.823,11.346-48.389,9.282
	c-0.569-2.064,23.304-10.895,49.46-18.085C319.254,34.851,344.461,30.8,345.028,32.863z"/>
<path fill="#C8D5D5" d="M258.155,79.883c0.353,5.905-5.512,12.213-12.232,12.644c-6.718,0.43-12.369-4.86-12.722-10.764
	c-0.354-5.904,4.695-14.195,11.382-14.99C254.847,65.552,257.804,73.98,258.155,79.883z"/>
<path fill="#8B9A99" d="M243.279,81.554l-5.855,2.717c0,0,0.224-1.482,2.729-2.165C242.658,81.425,243.279,81.554,243.279,81.554z"
	/>
<path fill="#8B9A99" d="M243.317,78.765l-7.326-1.427c0,0,1.932-0.745,3.812-0.133C242.323,78.025,243.317,78.765,243.317,78.765z"
	/>
<path fill="#8B9A99" d="M244.064,84.404l-2.923,5.761c0,0,0.088-2.255,0.915-3.412C242.886,85.596,244.064,84.404,244.064,84.404z"
	/>
<path fill="#8B9A99" d="M253.208,88.5l-3.114-5.264c0,0,1.909,0.794,2.358,2.36C252.901,87.163,253.208,88.5,253.208,88.5z"/>
<path fill="#8B9A99" d="M250.638,81.529l5.837,0.407c0,0-1.82-1.143-3.473-1.037C251.35,81.005,250.638,81.529,250.638,81.529"/>
<path fill="#8B9A99" d="M252.667,70.474l-2.607,4.96c0,0,1.568-1.684,2.094-2.822C252.676,71.474,252.667,70.474,252.667,70.474z"/>
<path fill="#8B9A99" d="M247.773,75.024l-1.403-7.269c0,0,1.419,1.21,1.564,3.655C248.08,73.854,247.773,75.024,247.773,75.024z"/>
<path fill="#8B9A99" d="M244.856,92.597c-5.732-0.498-10.437-5.654-10.828-12.234c-0.151-2.521,0.352-4.917,1.345-6.981
	c0,0-4.821,6.424-0.489,13.584C239.244,94.171,244.856,92.597,244.856,92.597z"/>
<path fill="#8B9A99" d="M252.49,89.998c3.127-2.544,6.021-6.657,5.092-11.723c-1.579-8.609-5.727-11.666-12.507-11.232
	c-0.722,0.047-2.204,0.241-2.885,0.412c0,0,10.988-4.711,15.144,6.665C261.58,85.748,252.49,89.998,252.49,89.998z"/>
<path fill="#8B9A99" d="M241.994,87.13c1.333,0.949,2.925,1.455,4.608,1.347c3.261-0.209,5.914-2.663,6.878-5.966
	c0,0-1.79,3.871-5.877,4.991c-2.613,0.717-5.547-0.749-5.547-0.749"/>
<path fill="#8B9A99" d="M250.443,72.378c-1.388-1.085-3.091-1.676-4.894-1.56c-3.944,0.252-7.003,3.794-7.253,8.15
	c0,0,2.354-6.683,7.009-7.391c2.78-0.423,4.996,0.907,4.996,0.907"/>
<path fill="#6B6D6D" d="M305.412,81.798c0,0,1.788-0.033,1.938,3.453l2.122-0.379c0,0-0.616-3.662-1.683-3.544
	C305.918,81.533,305.412,81.798,305.412,81.798z"/>
<path fill="#6B6D6D" d="M316.217,79.219c0,0,1.773-0.189,2.232,3.271l2.081-0.566c0,0-0.936-3.593-1.99-3.381
	C316.696,78.913,316.217,79.219,316.217,79.219z"/>
<path fill="#6B6D6D" d="M293.881,90.122l1.67-1.818c0,0,18.984-4.359,22.7-5.876c0,0,5.174-0.833,6.048-2.355
	c0.248-0.432,0.729-1.757,0.729-1.757l1.841-0.361c0,0-0.27,3.629-2.627,4.951c-2.358,1.321-11.542,3.117-11.542,3.117
	L293.881,90.122z"/>
<path fill="none" stroke="#656666" stroke-width="1.25" stroke-miterlimit="10" d="M305.412,81.798c0,0,1.788-0.033,1.938,3.453
	l2.122-0.379c0,0-0.616-3.662-1.683-3.544C305.918,81.533,305.412,81.798,305.412,81.798z"/>
<path fill="none" stroke="#656666" stroke-width="1.25" stroke-miterlimit="10" d="M316.217,79.219c0,0,1.791,0.008,2.248,3.469
	l2.383-0.7c0.146,0.539-0.816-3.745-2.308-3.446C316.696,78.913,316.217,79.219,316.217,79.219z"/>
<path fill="none" stroke="#656666" stroke-width="1.25" stroke-miterlimit="10" d="M293.125,90.463l2.027-2.326
	c0,0,22.377-4.747,26.095-6.265c0,0,2.319-0.666,3.191-2.188c0.247-0.43,0.403-1.284,0.403-1.284l2.285-0.639
	c0,0-0.445,3.413-2.805,4.734c-2.357,1.322-8.626,2.973-8.626,2.973L293.125,90.463z"/>
<path fill="#9C9F9F" d="M299.369,86.338c-0.167,1.025,0.505,4.162,0.505,4.162l-2.114,0.338c0,0-0.581-2.934-0.352-4.632
	c0.301-2.218,1.646-3.096,1.646-3.096l2.464-0.131C301.519,82.979,299.826,83.521,299.369,86.338z"/>
<path fill="#9C9F9F" d="M314.23,82.663c-0.074,1.036,0.87,4.102,0.87,4.102l-2.075,0.523c0,0-0.837-2.872-0.761-4.584
	c0.104-2.236,1.368-3.229,1.368-3.229l2.443-0.349C316.076,79.126,314.437,79.816,314.23,82.663z"/>
<path fill="#9C9F9F" d="M290.073,94.222l2.49-2.301c0,0,23.177-4.563,26.913-6.034c0,0,2.325-0.638,3.22-2.148
	c0.251-0.428,0.419-1.279,0.419-1.279l2.292-0.611c0,0-0.486,3.408-2.861,4.7c-2.379,1.292-8.665,2.864-8.665,2.864L290.073,94.222z
	"/>
<path fill="none" stroke="#656666" stroke-width="1.25" stroke-miterlimit="10" d="M299.369,86.338
	c-0.167,1.025,0.505,4.162,0.505,4.162l-2.114,0.338c0,0-0.581-2.934-0.352-4.632c0.301-2.218,1.646-3.096,1.646-3.096l2.464-0.131
	C301.519,82.979,299.826,83.521,299.369,86.338z"/>
<path fill="none" stroke="#656666" stroke-width="1.25" stroke-miterlimit="10" d="M314.23,82.663
	c-0.074,1.036,0.834,4.555,0.834,4.555l-2.062,0.365c0,0-0.813-3.167-0.737-4.88c0.104-2.236,1.368-3.229,1.368-3.229l2.443-0.349
	C316.076,79.126,314.437,79.816,314.23,82.663z"/>
<path fill="none" stroke="#656666" stroke-width="1.25" stroke-miterlimit="10" d="M289.64,94.443l2.708-2.413
	c0,0,23.393-4.673,27.129-6.144c0,0,2.325-0.638,3.22-2.148c0.251-0.428,0.419-1.279,0.419-1.279l2.292-0.611
	c0,0-0.486,3.408-2.861,4.7c-2.379,1.292-8.665,2.864-8.665,2.864L289.64,94.443z"/>
<path fill="#8B9A99" d="M317.979,35.879c-7.18,1.674-15.312,3.741-23.894,6.101c-1.386,0.38-3.738,1.026-7.6,2.135
	c0,0,6.801-3.008,17.591-5.797C315.234,35.432,317.979,35.879,317.979,35.879z"/>
<path fill="#8B9A99" d="M334.001,37.334c6.312-2.448,9.396-4.089,10.638-5.273c0,0,0.177,1.381-3.667,3.172
	C338.34,36.46,334.001,37.334,334.001,37.334"/>
<path fill="#8B9A99" d="M334.059,37.831c-7.335,2.693-17.47,5.955-29.025,9.294c14.224-3.553,14.314-3.153,20.773-5.383
	C330.949,39.966,334.059,37.831,334.059,37.831z"/>
<path fill="#8B9A99" d="M266.849,57.253c-13.247,2.897-22.081,4.102-22.435,2.815c-0.349-1.267,6.329-5.169,20.184-8.868
	c0,0-22.21,4.981-21.037,9.303C244.499,63.945,266.849,57.253,266.849,57.253z"/>
<path fill="#8B9A99" d="M259.47,55.259c0.098,0.096,6.967-3.534,17.766-6.893c0,0-2.774-0.153-10.823,2.878
	C262.928,52.557,259.47,55.259,259.47,55.259z"/>
<path fill="#8B9A99" d="M320.23,36.766c-5.421,1.097-11.954,2.895-20.297,5.102c0,0,5.454-2.621,10.067-3.527
	c4.614-0.907,8.125-1.341,8.125-1.341c5.577-1.129,12.083-1.763,12.179-1.211c0.24,1.375-4.198,3.119-10.604,4.58
	c0,0,11.082-4.203,8.125-4.074C324.871,36.422,320.23,36.766,320.23,36.766z"/>
<path fill="#8B9A99" d="M269.442,54.088c6.577-1.36,15.837-3.626,26.031-6.428c0.992-0.272,2.117-0.708,3.227-0.873
	c0,0-9.131,3.512-16.01,4.811C276.906,52.691,269.442,54.088,269.442,54.088"/>
<path fill="#8B9A99" d="M289.537,46.821l-23.116,8.755c0,0,5.812-3.458,11.234-5.245C283.08,48.543,289.537,46.821,289.537,46.821z"
	/>
<path fill="#8B9A99" d="M285.049,47.533l-33.174,9.065c0,0,7.018-3.051,15.669-5.261C276.194,49.125,285.049,47.533,285.049,47.533z
	"/>
<path fill="#8B9A99" d="M288.982,45.941l-10.421,0.842c0,0,3.226-1.293,5.925-1.546C287.299,44.973,288.982,45.941,288.982,45.941"
	/>
<path fill="#8B9A99" d="M294.608,44.662l-0.739-2.162c0,0-0.706,1.088-0.102,2.049C294.374,45.51,294.608,44.662,294.608,44.662"/>
<polygon fill="#8B9A99" points="298.95,43.569 310.332,38.581 311.273,38.599 300.729,43.465 "/>
<path fill="#8B9A99" d="M300.767,43.749l34.95-9.788c0,0-3.256,1.848-22.08,6.901C307.761,42.439,300.767,43.749,300.767,43.749z"/>
<path fill="#8B9A99" d="M298.608,44.618l17.879-1.555c0,0-7.706-0.296-10.931,0.126S298.608,44.618,298.608,44.618z"/>
<path fill="#8B9A99" d="M295.666,45.261l5.907,2.197c0,0-0.257-1.263-3.251-1.978C296.667,45.084,295.666,45.261,295.666,45.261z"/>
<path fill="#8B9A99" d="M292.093,46.192l-4.69,4.419c0,0,1.824-0.221,3.164-1.831C291.907,47.17,292.093,46.192,292.093,46.192z"/>
<path fill="#C8D5D5" d="M295.442,52.256c0,0,1.178,0.712,2.324-0.493l-1.565-5.568l5.211-1.717c0,0,1.309-1.388-0.471-1.976
	c-0.184-0.061-13.515,4.148-13.515,4.148s-0.755,1.877,0.818,1.954l5.65-1.656L295.442,52.256z"/>
<path fill="none" stroke="#758180" stroke-width="1.25" stroke-miterlimit="10" d="M295.442,52.256c0,0,1.178,0.712,2.324-0.493
	l-1.565-5.568l5.211-1.717c0,0,1.309-1.388-0.471-1.976c-0.184-0.061-13.515,4.148-13.515,4.148s-0.755,1.877,0.818,1.954
	l5.65-1.656L295.442,52.256z"/>
<path fill="#C8D5D5" d="M247.145,79.634c0,0-6.576-7.224-7.096-7.796c-0.764-0.842-1.312-2.601,0.931-1.508
	c2.628,1.281,8.365,6.822,8.365,6.822L247.145,79.634z"/>
<path fill="#C8D5D5" d="M249.979,79.981c0,0-3.058,9.653-3.3,10.415c-0.356,1.122-1.61,2.448-1.749-0.224
	c-0.159-3.131,1.852-11.207,1.852-11.207L249.979,79.981z"/>
<path fill="none" stroke="#8B9A99" stroke-width="1.25" stroke-miterlimit="10" d="M247.145,79.634c0,0-6.576-7.224-7.096-7.796
	c-0.764-0.842-1.312-2.601,0.931-1.508c2.628,1.281,8.365,6.822,8.365,6.822L247.145,79.634z"/>
<path fill="none" stroke="#8B9A99" stroke-width="1.25" stroke-miterlimit="10" d="M249.979,79.981c0,0-3.058,9.653-3.3,10.415
	c-0.356,1.122-1.61,2.448-1.749-0.224c-0.159-3.131,1.852-11.207,1.852-11.207L249.979,79.981z"/>
<path fill="#00517C" d="M247.467,77.751l28.8-10.253c0,0-0.646-10.44,18.185-16.064c10.246-3.061,11.479,1.743,11.479,1.743
	s4.501-2.954,7.191,0.894c0,0,10.679-4.005,17.349,6.508c0,0,4.359-1.607,4.969,1.031c0.412,1.789,1.105,7.068-5.728,11.95
	c-6.833,4.881-30.023,12.112-39.613,8.468c-9.781-3.715-11.421-7.99-11.421-7.99l-29.841,7.864c0,0-2.234-0.085-2.33-1.64
	C246.411,78.708,247.467,77.751,247.467,77.751z"/>
<path fill="none" stroke="#00436F" stroke-width="1.25" stroke-miterlimit="10" d="M247.467,77.751l28.8-10.253
	c0,0-0.646-10.44,18.185-16.064c10.246-3.061,11.479,1.743,11.479,1.743s4.501-2.954,7.191,0.894c0,0,10.679-4.005,17.349,6.508
	c0,0,4.359-1.607,4.969,1.031c0.412,1.789,1.105,7.068-5.728,11.95c-6.833,4.881-30.023,12.112-39.613,8.468
	c-9.781-3.715-11.421-7.99-11.421-7.99l-29.841,7.864c0,0-2.234-0.085-2.33-1.64C246.411,78.708,247.467,77.751,247.467,77.751z"/>
<path fill="#93F1F2" d="M330.471,60.58c-6.67-10.513-17.349-6.508-17.349-6.508s-1.274,6.933,3.03,13.116
	c0,0,6.593-0.494,10.291-2.727C330.138,62.227,330.471,60.58,330.471,60.58z"/>
<path fill="#93F1F2" d="M304.038,70.028c0,0,4.954-0.22,7.626-2.127c0,0-0.943-9.497-7.11-7.841
	C299.495,61.418,304.038,70.028,304.038,70.028z"/>
<path fill="none" stroke="#4CB1BF" stroke-width="1.25" stroke-miterlimit="10" d="M330.471,60.58
	c-6.67-10.513-17.349-6.508-17.349-6.508s-1.274,6.933,3.03,13.116c0,0,6.593-0.494,10.291-2.727
	C330.138,62.227,330.471,60.58,330.471,60.58z"/>
<path fill="none" stroke="#4CB1BF" stroke-width="1.25" stroke-miterlimit="10" d="M304.038,70.028c0,0,4.954-0.22,7.626-2.127
	c0,0-0.943-9.497-7.11-7.841C299.495,61.418,304.038,70.028,304.038,70.028z"/>
</svg>
