<?xml version="1.0" encoding="utf-8"?>
<!-- Generator: Adobe Illustrator 16.0.0, SVG Export Plug-In . SVG Version: 6.00 Build 0)  -->
<!DOCTYPE svg PUBLIC "-//W3C//DTD SVG 1.1//EN" "http://www.w3.org/Graphics/SVG/1.1/DTD/svg11.dtd">
<svg role="img" version="1.1" xmlns="http://www.w3.org/2000/svg" xmlns:xlink="http://www.w3.org/1999/xlink" x="0px" y="0px"
	 width="399.96px" height="267.12px" viewBox="0 0 399.96 267.12" enable-background="new 0 0 399.96 267.12" xml:space="preserve">
<g id="Layer_12">
	<rect x="-29" y="-18.213" fill="#9ADDED" width="449.333" height="304"/>
</g>
<g id="Layer_16">
	<g>
		<g>

				<ellipse transform="matrix(0.9533 -0.3021 0.3021 0.9533 -10.4395 62.5615)" fill="#064477" cx="197.027" cy="65.029" rx="2.589" ry="2.318"/>

				<ellipse transform="matrix(0.9533 -0.3021 0.3021 0.9533 -10.4395 62.5615)" fill="none" stroke="#022842" stroke-miterlimit="10" cx="197.027" cy="65.029" rx="2.589" ry="2.318"/>
		</g>
		<g>
			<path fill="#064477" d="M183.731,93.155c0,0-10.632,10.691-13.885,12.861c-2.739,1.827-3.244,4.374-1.031,4.82
				c2.213,0.445,2.676-3.271,9.78-2.315c7.105,0.957,6.824,3.155,9.616-0.629c2.792-3.784,5.701-7.641,13.431-12.525
				c6.277-3.966,6.111-3.949,6.111-3.949s-4.56-2.213-16.224-0.378C185.64,91.966,183.731,93.155,183.731,93.155z"/>
			<path fill="#012842" d="M205.342,90.657c1.787,0.317,2.411,0.759,2.411,0.759s0.166-0.016-6.111,3.95
				c-7.73,4.885-10.639,8.741-13.431,12.525c-2.792,3.784-2.511,1.586-9.616,0.629c-7.104-0.957-7.566,2.76-9.78,2.315
				c-1.106-0.224-1.413-1.194-1.186-2.261c0,0,5.066-3.971,10.733-2.368c5.668,1.603,6.62,1.822,8.369-0.239
				C193.673,97.787,205.342,90.657,205.342,90.657z"/>
			<path fill="none" stroke="#022842" stroke-miterlimit="10" d="M183.731,93.155c0,0-10.632,10.691-13.885,12.861
				c-2.739,1.827-3.244,4.374-1.031,4.82c2.213,0.445,2.676-3.271,9.78-2.315c7.105,0.957,6.824,3.155,9.616-0.629
				c2.792-3.784,5.701-7.641,13.431-12.525c6.277-3.966,6.113-4.509,6.113-4.509s-4.562-1.653-16.226,0.182
				C185.64,91.966,183.731,93.155,183.731,93.155z"/>
		</g>
		<path fill="#064477" d="M183.639,94.226c-0.189-0.529-4.098-23.146,14.654-28.722c18.752-5.576,28.369,12.498,28.369,12.498
			s-10.195,13.073-25.517,14.607C192.01,93.524,183.639,94.226,183.639,94.226z"/>
		<path fill="none" stroke="#022842" stroke-miterlimit="10" d="M183.639,94.226c-0.189-0.529-4.098-23.146,14.654-28.722
			c18.752-5.576,28.369,12.498,28.369,12.498s-8.408,12.582-25.517,14.607C192.027,93.689,183.639,94.226,183.639,94.226z"/>
	</g>
	<path fill="#D39262" d="M133.426,87.364c0,0-6.398,5.819-3.754,11.949c2.644,6.129,8.255,13.008,11.254,17.235
		c3,4.227,4.765,11.529,8.087,11.749c3.322,0.221,16.559-11.562,17.503-13.657c0.944-2.095-1.078-4.096-1.73-3.353
		c-1.241,1.414-12.261,4.814-12.897,4.858c-0.487,0.034-1.938-2.458-3.467-7.162c-1.53-4.704-6.913-17.258-12.804-20.381
		C129.725,85.48,133.426,87.364,133.426,87.364z"/>
	<path fill="none" stroke="#875532" stroke-miterlimit="10" d="M133.426,87.364c0,0-6.398,5.819-3.754,11.949
		c2.644,6.129,8.255,13.008,11.254,17.235c3,4.227,4.765,11.529,8.087,11.749c3.322,0.221,16.688-12.119,17.434-14.453
		c0.7-2.188-1.009-3.3-1.662-2.557c-1.241,1.414-12.261,4.814-12.897,4.858c-0.487,0.034-1.938-2.458-3.467-7.162
		c-1.53-4.704-6.913-17.258-12.804-20.381C129.725,85.48,133.426,87.364,133.426,87.364z"/>
	<path fill="#D39262" d="M164.204,112.115c0.129-0.095,0.926-1.896,1.358-4.163c0.432-2.267,3.003-8.418,8.431-7.26
		c5.427,1.159,6.938,4.335,6.452,5.291c-0.486,0.956-1.267,0.519-1.267,0.519s1.289,0.857,0.672,2.067
		c-0.617,1.21-1.778,0.418-1.778,0.418s1.077,1.511,0.079,2.367c-0.998,0.856-2.221-0.202-2.664-0.834
		c-1.092-1.559-4.667-4.379-5.622-3.063c-0.403,0.557-3.77,6.223-3.77,6.223L164.204,112.115z"/>
	<path fill="none" stroke="#875532" stroke-miterlimit="10" d="M170.588,104.936c0,0,2.672-0.445,4.976,1.571
		c1.821,1.593,2.824,2.962,2.824,2.962"/>
	<path fill="none" stroke="#875532" stroke-miterlimit="10" d="M170.042,102.933c0,0,3.056-0.996,5.32,0.502
		c2.371,1.569,4.243,3.564,4.243,3.564"/>
	<path fill="none" stroke="#875532" stroke-miterlimit="10" d="M163.544,112.114c1.113-0.948,1.585-1.896,2.018-4.162
		c0.432-2.267,3.003-8.418,8.431-7.26c5.427,1.159,6.938,4.335,6.452,5.291c-0.486,0.956-1.267,0.519-1.267,0.519
		s1.289,0.857,0.672,2.067c-0.617,1.21-1.778,0.418-1.778,0.418s1.077,1.511,0.079,2.367c-0.998,0.856-2.221-0.202-2.664-0.834
		c-1.092-1.559-4.667-4.379-5.622-3.063c-0.403,0.557-3.75,7.166-3.75,7.166"/>
</g>
<g id="Layer_2">
	<rect x="-25" y="-13.88" fill="none" stroke="#000000" stroke-miterlimit="10" width="441.5" height="298.5"/>
	<rect x="-7.5" y="105.785" opacity="0.5" fill="#EEFDFF" width="411" height="166.335"/>
	<rect x="-7.5" y="105.785" fill="none" stroke="#64A5AF" stroke-miterlimit="10" width="411" height="5.884"/>
</g>
<g id="Layer_4">
	<g>
		<path fill="#21120E" d="M334.067,179.817c0.289-0.097,8.549-3.698,10.991,3.953c1.446,4.531-2.157,6.099-1.735,9.642
			c0.482,4.05,4.436,0.578,4.436,0.578s-0.019,4.019-5.014,4.821c-5.399,0.868-15.385-4.564-13.402-12.245
			C330.886,180.589,334.067,179.817,334.067,179.817z"/>
		<path fill="none" stroke="#54251E" stroke-miterlimit="10" d="M334.067,179.817c0.289-0.097,8.549-3.698,10.991,3.953
			c1.446,4.531-2.157,6.099-1.735,9.642c0.482,4.05,4.436,0.578,4.436,0.578s-0.019,4.019-5.014,4.821
			c-5.399,0.868-15.385-4.564-13.402-12.245C330.886,180.589,334.067,179.817,334.067,179.817z"/>
		<path fill="#54251E" d="M335.586,193.417c-3.761-2.604-0.672-11.393-0.672-11.393s-2.799,4.503-2.192,7.308
			C333.452,192.712,335.586,193.417,335.586,193.417z"/>
		<path fill="#54251E" d="M340.024,192.678c-4.238-3.973-3.797-10.859-3.797-10.859s-1.194,2.52,0.088,6.799
			C337.353,192.079,340.024,192.678,340.024,192.678z"/>
		<path fill="#54251E" d="M341.451,190.405c1.357-6.855-2.796-8.291-2.796-8.291s3.56,0.75,3.834,3.719
			S341.451,190.405,341.451,190.405z"/>
	</g>
</g>
<g id="Layer_6">
	<g>
		<path fill="#F7C8AD" d="M131.817,226.17c0,0,0.839-6.024,0.466-9.038c0,0,15.85-3.721,18.181-1.329c0,0,0.933,9.836,1.585,11.431
			c0,0-6.34,6.823-11.748,5.051S131.817,226.17,131.817,226.17z"/>
		<path fill="none" stroke="#D88673" stroke-miterlimit="10" d="M131.817,226.17c0,0,0.839-6.024,0.466-9.038
			c0,0,15.85-3.721,18.181-1.329c0,0,0.933,9.836,1.585,11.431c0,0-6.34,6.823-11.748,5.051S131.817,226.17,131.817,226.17z"/>
	</g>
</g>
<g id="Layer_7">
	<path fill="#81DAEF" d="M130.926,224.474c0,0,4.16,8.058,11.832,7.305c7.45-0.731,8.91-6.282,8.91-6.282v-2.045l3.214-0.584
		c0,0,0.876,18.259-12.27,17.967C129.465,240.542,130.926,224.474,130.926,224.474z"/>
	<path fill="none" stroke="#52A5B2" stroke-miterlimit="10" d="M130.926,224.474c0,0,4.16,8.058,11.832,7.305
		c7.45-0.731,8.91-6.282,8.91-6.282l0.46-1.947l2.754-0.682c0,0,0.876,18.259-12.27,17.967
		C129.465,240.542,130.926,224.474,130.926,224.474z"/>
	<path fill="#5D8988" d="M153.567,222.722c0.438-1.752,2.482-1.314,2.482-1.314s0,0,1.315,7.741
		c1.314,7.74,5.697,7.157,4.967,12.708c-0.73,5.551,2.336,22.787,2.336,22.787l8.034,21.764c-21.617,8.324-60.18-1.169-60.18-1.169
		l7.595-17.234c0,0,0-2.192,0.439-8.327s-0.852-15.039-0.852-15.039l6.986-23.086c0.73-1.022,2.922,0.585,2.922,0.585
		c0.256-0.283,0.833-0.312,1.61-0.17c0,0-1.025,16.385,11.682,15.8C155.612,237.183,153.567,222.722,153.567,222.722z"/>
	<path fill="none" stroke="#395957" stroke-miterlimit="10" d="M120.117,268.004c0,0,8.128,5.112,23.372,4.381
		c15.191-0.729,21.618-6.866,21.618-6.866"/>
	<path fill="#395957" d="M124.039,287.433c0.292-0.73,0.432-5.315,2.299-11.491c0,0-2.73,3.592-3.736,7.612
		c-1.005,4.021-0.44,3.584-0.44,3.584"/>
	<path fill="#395957" d="M145.298,289.729l0.269-12.962c0,0,1.885,6.341,1.885,12.962c0,0.72,0.288,0.145,0.288,0.145l-1.735-0.107"
		/>
	<path fill="#395957" d="M164.521,288.159c0,0-2.848-8.234-5.258-12.852c0,0,5.713,7.097,6.719,12.556c0.13,0.707,0,0.575,0,0.575
		L164.521,288.159z"/>
	<path fill="none" stroke="#395957" stroke-miterlimit="10" d="M153.567,222.722c0.438-1.752,2.482-1.314,2.482-1.314
		s0,0,1.315,7.741c1.314,7.74,5.697,7.157,4.967,12.708c-0.73,5.551,2.336,22.787,2.336,22.787l8.034,21.764
		c-21.617,8.324-60.18-1.169-60.18-1.169l7.595-17.234c0,0,0-2.192,0.439-8.327s-0.852-15.039-0.852-15.039l6.986-23.086
		c0.73-1.022,2.922,0.585,2.922,0.585c0.256-0.283,0.833-0.312,1.61-0.17c0,0-1.025,16.385,11.682,15.8
		C155.612,237.183,153.567,222.722,153.567,222.722z"/>
	<g>
		<path fill="#663026" d="M151.311,175.996c-0.074-0.286,1.959-4.186,7.922-3.57c6.475,0.664,11.021,8.029,9.372,20.147
			c-1.648,12.114,0.03,13.104,2.043,14.211c2.015,1.106-15.355-0.812-14.986-14.733c0.369-13.919-2.443-13.397-2.443-13.397
			L151.311,175.996z"/>
		<path fill="#471E19" d="M152.636,177.583c0,0,0.889-2.464,4.833-1.755c4.182,0.753,5.609,5.973,5.683,6.259
			c0,0,0.134-6.419-5.228-7.47C153.311,173.714,152.636,177.583,152.636,177.583"/>
		<path fill="#471E19" d="M154.411,178.55c2.499-0.95,4.818,2.517,4.818,2.517s-0.724-3.322-3.19-3.402
			C153.571,177.585,154.411,178.55,154.411,178.55z"/>
		<path fill="none" stroke="#471E19" stroke-miterlimit="10" d="M151.311,175.996c-0.074-0.286,1.959-4.186,7.922-3.57
			c6.475,0.664,11.021,8.029,9.372,20.147c-1.648,12.114,0.03,13.104,2.043,14.211c2.015,1.106-16.119-1.937-14.986-14.733
			c1.228-13.87-2.443-13.397-2.443-13.397L151.311,175.996z"/>
		<path fill="#81DAEF" d="M149.918,177.644c-0.727-1.034-0.58-3.385,1.421-2.664c0.732,0.263,5.613,4.401,3.287,6.189
			c0,0-0.854,0.265-1.487-0.06C152.116,180.582,149.918,177.644,149.918,177.644z"/>
		<path fill="none" stroke="#52A5B2" stroke-miterlimit="10" d="M149.918,177.644c-0.727-1.034-0.58-3.385,1.421-2.664
			c0.732,0.263,5.613,4.401,3.287,6.189c0,0-0.854,0.265-1.487-0.06C152.116,180.582,149.918,177.644,149.918,177.644z"/>
	</g>
	<g>
		<path fill="#F7C8AD" d="M154.138,207.003c0.247,1.108,0.757,1.932,1.568,2.135c1.788,0.451,4.571-2.023,5.309-4.957
			c0.739-2.93,0.173-5.884-1.614-6.333c-1.445-0.362-3.386,0.864-4.467,2.897"/>
		<path fill="none" stroke="#D88673" stroke-miterlimit="10" d="M159.675,201.298c0,0-2.481-1.219-3.726,2.52"/>
		<path fill="none" stroke="#D88673" stroke-miterlimit="10" d="M156.636,202.838c0,0,1.519,0.622,1.485,1.88
			c-0.047,1.798-1.637,1.995-1.637,1.995"/>
		<path fill="none" stroke="#D88673" stroke-miterlimit="10" d="M154.138,207.003c0.247,1.108,0.757,1.932,1.568,2.135
			c1.788,0.451,4.571-2.023,5.309-4.957c0.739-2.93,0.173-5.884-1.614-6.333c-1.445-0.362-3.386,0.864-4.467,2.897"/>
	</g>
	<path fill="#F7C8AD" d="M137.8,174.928c0,0-10.409-3.469-16.962,7.325c-6.042,9.953,0.868,19.468,1.542,21.589
		s1.157,13.204,10.312,18.408c0,0,5.783,4.145,11.084,2.893c5.301-1.255,10.035-6.788,11.084-9.061
		c1.156-2.505,2.505-5.589,1.06-14.456c-0.648-3.976-0.327-8.2-0.579-10.217c-0.289-2.312,1.446-11.18-5.589-15.517
		C143.643,172.127,137.8,174.928,137.8,174.928z"/>
	<path fill="none" stroke="#D88673" stroke-miterlimit="10" d="M137.8,174.928c0,0-10.409-3.469-16.962,7.325
		c-6.042,9.953,0.868,19.468,1.542,21.589s1.157,13.204,10.312,18.408c0,0,5.783,4.145,11.084,2.893
		c5.301-1.255,10.035-6.788,11.084-9.061c1.156-2.505,2.505-5.589,1.06-14.456c-0.648-3.976-0.327-8.2-0.579-10.217
		c-0.289-2.312,1.446-11.18-5.589-15.517C143.643,172.127,137.8,174.928,137.8,174.928z"/>

		<ellipse transform="matrix(0.9782 -0.2077 0.2077 0.9782 -38.7941 32.4035)" fill="#262222" cx="134.881" cy="200.907" rx="1.549" ry="2.367"/>

		<ellipse transform="matrix(0.9782 -0.2074 0.2074 0.9782 -38.1731 34.9321)" fill="#262222" cx="147.478" cy="199.484" rx="1.549" ry="2.367"/>
	<path fill="#471E19" d="M128.564,198.082c0.185-0.554,1.247-2.916,3.527-5.195c1.842-1.843,4.397-3.281,4.397-3.281
		s-3.686-0.369-6.081,2.211C128.095,194.306,128.564,198.082,128.564,198.082z"/>
	<path fill="#471E19" d="M144.966,189.789c0,0,2.21,0.184,3.5,1.476c1.291,1.29,2.396,3.684,2.396,3.684s0.463-2.483-1.474-4.422
		C147.36,188.5,144.966,189.789,144.966,189.789z"/>
	<path fill="none" stroke="#D88673" stroke-miterlimit="10" d="M142.042,197.673c0,0-0.717,2.039-0.209,3.541
		c0.595,1.761,1.848,1.856,1.848,1.856s2.479,0.336,1.928,2.698c-0.674,2.892-4.626,1.831-4.626,1.831"/>
	<path fill="#510B0B" d="M134.813,217.624c0,0,1.379-0.772,2.121-3.085c0.741-2.312,2.438-5.011,6.148-4.529
		c3.71,0.482,2.65,7.132,5.513,7.228c-0.317,1.349-3.074,2.796-5.513,3.084c-4.017,0.476-5.195-0.866-6.467-1.541
		C135.344,218.106,134.813,217.624,134.813,217.624z"/>
	<ellipse fill="#BC3939" cx="142.181" cy="218.153" rx="3.233" ry="1.783"/>
	<path fill="#663026" d="M155.482,195.784c-0.032-1.806-0.015-3.366-0.141-4.375c-0.289-2.312,1.446-11.18-5.589-15.517
		c-6.109-3.766-11.951-0.965-11.951-0.965s-10.409-3.469-16.962,7.325c-6.042,9.953,0.868,19.468,1.542,21.589
		c0,0,0.814-0.08,3.03-11.164c1.394-6.972,8.92-10.232,13.354-13.701c0,0,8.354,1.158,12.144,6.555
		C156.594,193.626,155.482,195.784,155.482,195.784z"/>
	<path fill="#471E19" d="M137.438,176.017c0,0,1.061,0.964,1.253,4.24"/>
	<ellipse fill="none" stroke="#822727" stroke-miterlimit="10" cx="142.181" cy="218.153" rx="3.233" ry="1.783"/>
	<path fill="none" stroke="#471E19" stroke-miterlimit="10" d="M155.768,198.345c-0.032-1.806-0.141-6.188-0.267-7.195
		c-0.29-2.313,1.299-11.074-5.737-15.411c-6.109-3.766-11.963-0.811-11.963-0.811s-10.409-3.469-16.962,7.325
		c-6.042,9.953,0.868,19.468,1.542,21.589c0,0-1.691,1.382,0.525-9.702c1.394-6.972,11.425-11.694,15.859-15.163
		c0,0,8.354,1.158,12.144,6.555C156.594,193.626,155.768,198.345,155.768,198.345z"/>
	<path fill="#471E19" d="M137.438,176.017c0,0,1.384,0.062,1.516,2.434c0.132,2.37-0.552,1.615-0.552,1.615L137.438,176.017z"/>
	<g>
		<path fill="#663026" d="M121.513,178.109c0.053-0.29-2.267-4.026-8.167-2.967c-6.407,1.148-10.388,8.832-7.836,20.793
			c2.551,11.957,0.952,13.069-0.974,14.324c-1.926,1.255,15.252-1.959,13.841-15.814c-1.411-13.853,1.434-13.543,1.434-13.543
			L121.513,178.109z"/>
		<path fill="#471E19" d="M120.31,179.792c0,0-1.071-2.391-4.95-1.388c-4.114,1.064-5.146,6.376-5.198,6.666
			c0,0-0.615-6.391,4.653-7.84C119.349,175.983,120.31,179.792,120.31,179.792"/>
		<path fill="#471E19" d="M118.613,180.889c-2.563-0.761-4.616,2.869-4.616,2.869s0.472-3.366,2.926-3.63
			C119.378,179.864,118.613,180.889,118.613,180.889z"/>
		<path fill="none" stroke="#471E19" stroke-miterlimit="10" d="M121.513,178.109c0.053-0.29-2.267-4.026-8.167-2.967
			c-6.407,1.148-10.388,8.832-7.836,20.793c2.551,11.957,0.952,13.069-0.974,14.324c-1.926,1.255,15.252-1.959,13.841-15.814
			c-1.411-13.853,1.434-13.543,1.434-13.543L121.513,178.109z"/>
		<path fill="#81DAEF" d="M123.025,179.649c0.647-1.087,0.325-3.42-1.616-2.552c-0.711,0.317-5.269,4.811-2.814,6.42
			c0,0,0.873,0.201,1.477-0.171C121.054,182.743,123.025,179.649,123.025,179.649z"/>
		<path fill="none" stroke="#52A5B2" stroke-miterlimit="10" d="M123.025,179.649c0.647-1.087,0.325-3.42-1.616-2.552
			c-0.711,0.317-5.269,4.811-2.814,6.42c0,0,0.873,0.201,1.477-0.171C121.054,182.743,123.025,179.649,123.025,179.649z"/>
	</g>
	<g>
		<path fill="#F7C8AD" d="M124.654,211.168c-0.13,1.131-0.553,2.001-1.339,2.287c-1.732,0.633-4.756-1.541-5.792-4.383
			c-1.037-2.837-0.778-5.833,0.952-6.467c1.401-0.509,3.458,0.511,4.742,2.422"/>
		<path fill="none" stroke="#D88673" stroke-miterlimit="10" d="M118.559,206.067c0,0,2.342-1.469,3.965,2.12"/>
		<path fill="none" stroke="#D88673" stroke-miterlimit="10" d="M121.74,207.284c0,0-1.446,0.776-1.284,2.023
			c0.232,1.784,1.834,1.815,1.834,1.815"/>
		<path fill="none" stroke="#D88673" stroke-miterlimit="10" d="M124.654,211.168c-0.13,1.131-0.553,2.001-1.339,2.287
			c-1.732,0.633-4.756-1.541-5.792-4.383c-1.037-2.837-0.778-5.833,0.952-6.467c1.401-0.509,3.458,0.511,4.742,2.422"/>
	</g>
	<g>
		<g>
			<path fill="#F7C8AD" d="M154.011,189.021c-4.444,1.617-7.677-2.829-9.293-5.253c-1.616-2.426-6.603-2.808-8.688-4.242
				c-3.232-2.223-0.202-5.052-0.202-5.052s10.103-4.443,16.163,3.031s6.465,6.667,6.465,6.667s27.493,17.515,25.253,30.104
				c-1.617,9.09-9.697,15.961-11.516,18.183c0,0-14.343-1.617-11.516-12.123c0,0,5.859-7.678,8.082-7.879
				c0,0-4.647-3.636-7.678-11.111C158.052,193.868,154.011,189.021,154.011,189.021z"/>
			<path fill="none" stroke="#D88673" stroke-miterlimit="10" d="M167.548,211.446c0,0,3.636,3.434,7.272,3.03"/>
			<path fill="none" stroke="#D88673" stroke-miterlimit="10" d="M154.011,189.021c-4.444,1.617-7.677-2.829-9.293-5.253
				c-1.616-2.426-6.603-2.808-8.688-4.242c-3.232-2.223-0.202-5.052-0.202-5.052s10.103-4.443,16.163,3.031s6.465,6.667,6.465,6.667
				s27.493,17.515,25.253,30.104c-1.617,9.09-9.697,15.961-11.516,18.183c0,0-14.343-1.617-11.516-12.123
				c0,0,5.859-7.678,8.082-7.879c0,0-4.647-3.636-7.678-11.111C158.052,193.868,154.011,189.021,154.011,189.021z"/>
			<path fill="#81DAEF" d="M164.512,215.038c-0.387-0.867-0.978,1.902-0.399,6.913c0.576,4.979,4.505,7.918,7.879,8.688
				c3.374,0.77,2.829-0.808,2.829-0.808s1.171,2.305-1.817,4.04c-2.986,1.734-3.707,1.384-8.082,5.253
				c-0.894,0.79-3.434,3.232-3.434,3.232s0.369,0.603-1.315-1.585c-3.951-5.134-7.132-16.397-5.151-18.214
				c2.425-2.224,3.99-5.207,5.052-4.243c0,0,1.901-2.75,3.185-3.469C164.181,214.33,164.512,215.038,164.512,215.038z"/>
			<path fill="none" stroke="#52A5B2" stroke-miterlimit="10" d="M164.465,215.038c-0.52,0.284-0.945,2.833-0.353,6.913
				c0.72,4.961,4.505,7.918,7.879,8.688c3.374,0.77,2.829-0.808,2.829-0.808s1.171,2.305-1.817,4.04
				c-2.986,1.734-3.707,1.384-8.082,5.253c-0.894,0.79-3.434,3.232-3.434,3.232s0.369,0.603-1.315-1.585
				c-3.951-5.134-7.132-16.397-5.151-18.214c2.425-2.224,3.99-5.207,5.052-4.243c0,0,1.447-3.191,2.787-3.797
				C163.69,214.145,164.465,215.038,164.465,215.038z"/>
			<g>
				<path fill="#52A5B2" d="M161.961,230.389c-4.042-4.937-2.044-11.006-2.044-11.006s-1.662,2.266-1.274,5.601
					C159.137,229.237,161.961,230.389,161.961,230.389z"/>
				<path fill="#52A5B2" d="M157.547,226.602c0,0,1.72,4.935,4.671,6.993c2.372,1.656,4.198,2.125,4.198,2.125
					s-2.245,0.64-4.832-1.168C156.841,231.24,157.547,226.602,157.547,226.602z"/>
			</g>
		</g>
		<g>
			<path fill="#F7C8AD" d="M101.793,229.051c0,0,3.374,5.976,10.216,10.602c6.842,4.627,11.565,4.53,11.565,4.53
				s6.072-17.732,3.277-20.432c-2.795-2.697-7.518-3.951-9.252-6.264C115.865,215.173,101.793,229.051,101.793,229.051z"/>
			<path fill="none" stroke="#D88673" stroke-miterlimit="10" d="M102.167,229.35c0,0,3.001,5.677,9.843,10.303
				c6.842,4.627,11.565,4.53,11.565,4.53s6.072-17.732,3.277-20.432c-2.795-2.697-7.518-3.951-9.252-6.264
				C115.865,215.173,102.167,229.35,102.167,229.35z"/>
			<path fill="#F7C8AD" d="M116.54,193.103c0,0-6.747,11.374-11.277,17.733c-4.529,6.361-6.746,17.444-0.385,21.975
				c4.703,3.349,13.935-7.394,14.746-15.71c1.157-11.854,5.976-21.107,5.976-21.107c0.963,0.771,4.433-0.288,4.53-3.662
				s0.657-5.423,2.409-6.65c3.855-2.697,6.923-7.599,5.205-9.637c-2.602-3.085-12.434-2.023-17.059,8.386
				c-4.625,10.407-3.758,8.287-3.758,8.287"/>
			<path fill="none" stroke="#D88673" stroke-miterlimit="10" d="M116.576,225.468c1.615-2.663,2.782-5.646,3.048-8.367
				c1.157-11.854,5.976-21.107,5.976-21.107c0.963,0.771,4.433-0.288,4.53-3.662s0.657-5.423,2.409-6.65
				c3.855-2.697,6.923-7.599,5.205-9.637c-2.602-3.085-12.434-2.023-17.059,8.386c-4.625,10.407-3.758,8.287-3.758,8.287"/>
			<path fill="#81DAEF" d="M120.78,219.703c0.385-0.867,2.795,0.675,2.217,5.686c-0.575,4.979-6.458,13.784-9.831,14.553
				c-3.374,0.771-2.987-1.541-2.987-1.541s-0.579,2.603,2.409,4.338c2.988,1.733,6.458,1.154,7.614,1.444
				c1.157,0.29,1.638,1.445,1.638,1.445s1.499,0.742,3.181-1.445c3.951-5.134,5.064-17.867,4.39-20.47s-3.137-4.78-4.197-3.817
				c0,0-2.024-2.407-3.277-1.638C120.684,219.027,120.78,219.703,120.78,219.703z"/>
			<g>
				<path fill="#52A5B2" d="M123.382,230.497c-2.023,8.386-9.156,10.892-9.156,10.892s3.273,0.09,6.204-2.953
					C124.165,234.559,123.382,230.497,123.382,230.497z"/>
				<path fill="#52A5B2" d="M122.708,238.4c0,0,3.566-5.784,3.566-10.698c0-3.951-0.771-6.361-0.771-6.361s2.11,2.012,2.11,6.324
					C127.612,235.564,122.708,238.4,122.708,238.4z"/>
			</g>
			<path fill="none" stroke="#52A5B2" stroke-miterlimit="10" d="M121.073,219.376c0.552,0.101,2.502,1.002,1.924,6.013
				c-0.575,4.979-6.458,13.784-9.831,14.553c-3.374,0.771-2.987-1.541-2.987-1.541s-0.579,2.603,2.409,4.338
				c2.988,1.733,6.458,1.154,7.614,1.444c1.157,0.29,1.638,1.445,1.638,1.445s1.499,0.742,3.181-1.445
				c3.951-5.134,5.064-17.867,4.39-20.47s-3.137-4.78-4.197-3.817c0,0-1.114-1.623-2.584-1.623
				C121.625,218.272,121.073,219.376,121.073,219.376z"/>
			<path fill="none" stroke="#D88673" stroke-miterlimit="10" d="M117.252,192.222c0,0-7.46,12.478-11.99,18.837
				c-5.327,7.481-6.352,16.775,0.283,22.938"/>
		</g>
	</g>
</g>
<g id="Layer_8">
	<path fill="#20333F" d="M206.624,291.092c0-0.474-0.316-12.616,1.735-15.14c2.049-2.522,52.984-3.154,53.142-2.68
		c0.157,0.473,1.262,8.516,0.946,14.35c0,0-10.407,5.834-24.601,5.36C223.654,292.511,206.624,291.092,206.624,291.092z"/>
	<path fill="none" stroke="#0E171C" stroke-miterlimit="10" d="M206.624,291.092c0-0.474-0.316-12.616,1.735-15.14
		c2.049-2.522,52.984-3.154,53.142-2.68c0.157,0.473,1.262,8.516,0.946,14.35c0,0-10.407,5.834-24.601,5.36
		C223.654,292.511,206.624,291.092,206.624,291.092z"/>
	<path fill="#F8FEFF" d="M199.527,205.62c0,0,3.47-2.68,9.146-4.572c5.675-1.894,31.695-6.939,40.054-5.678
		s14.192,14.035,12.459,25.39c-1.734,11.353-2.052,41.946-2.052,41.946s2.366-0.473,1.735,2.996c0,0,1.577,2.207,0.631,4.888
		c0,0,7.57,12.774-17.661,16.559c-25.232,3.784-36.586-9.935-36.586-9.935s0.787-14.823,0.315-21.289
		c-0.473-6.464-1.418-22.706-1.262-31.223C206.465,216.186,199.527,205.62,199.527,205.62z"/>
	<path fill="none" stroke="#9CB9BC" stroke-miterlimit="10" d="M199.527,205.62c0,0,3.47-2.68,9.146-4.572
		c5.675-1.894,31.695-6.939,40.054-5.678s14.192,14.035,12.459,25.39c-1.734,11.353-2.052,41.946-2.052,41.946
		s2.366-0.473,1.735,2.996c0,0,1.577,2.207,0.631,4.888c0,0,7.57,12.774-17.661,16.559c-25.232,3.784-36.586-9.935-36.586-9.935
		s0.787-14.823,0.315-21.289c-0.473-6.464-1.418-22.706-1.262-31.223C206.465,216.186,199.527,205.62,199.527,205.62z"/>
	<path fill="#EFAA8B" d="M221.774,200.178c0,0,0.416-5.675,0.083-9.181c0,0,17.528-4.924,20.7-1.753c0,0-0.252,7.096,0.5,8.098
		c0,0-3.685-0.771-6.665,3.165c-3.027,3.996-3.615,6.276-4.908,7.979C231.164,208.906,221.774,200.178,221.774,200.178z"/>
	<path fill="none" stroke="#C46F4E" stroke-miterlimit="10" d="M221.774,200.178c0,0,0.416-5.675,0.083-9.181
		c0,0,17.528-4.924,20.7-1.753c0,0-0.252,7.096,0.5,8.098c0,0-4.499-0.782-6.511,2.705c-2.302,3.988-4.979,8.387-5.062,8.132
		C231.316,207.677,221.774,200.178,221.774,200.178z"/>
	<path fill="#9CB9BC" d="M258.955,262.287c0,0-0.946,3.47-6.465,5.362c0,0,4.182-0.194,5.792-1.929
		c1.609-1.733,1.734-3.344,1.734-3.344"/>
	<path fill="#9CB9BC" d="M254.73,273.349c3.143-2.413,5.82-8.561,5.92-9.23c0,0,1.178,2.019-1.011,5.639
		C258.575,271.519,254.73,273.349,254.73,273.349"/>
	<path fill="#9CB9BC" d="M261.492,268.831c0,0-0.505,3.03-3.924,6.41c0,0,2.492-0.518,3.419-2.369
		C261.914,271.019,261.492,268.831,261.492,268.831z"/>
	<path fill="none" stroke="#9CB9BC" stroke-miterlimit="10" d="M229.12,205.688c0,0-2.522,17.319-1.366,33.521
		c1.262,17.66,6.939,21.288,5.993,29.489c0,0-0.475,5.047-1.577,8.988c-1.104,3.941,0.787,9.619,0.787,9.619l7.256,0.473
		c0,0-3.344-7.059-2.524-10.092c1.577-5.835,2.838-6.938,2.365-10.723c-0.473-3.785-6.17-19.019-6.307-28.543
		c-0.158-11.039,2.718-37.907,2.718-37.907l-4.425,7.929L229.12,205.688z"/>
	<path fill="#EFAA8B" d="M261.189,190.804c0,0,12.777-11.925,14.651-14.48c1.873-2.556,13.624-15.729,17.888-9.03
		c3.576,5.623,2.215,9.881-2.556,16.186c-4.771,6.304-19.591,23.852-19.591,23.852s-8.519-2.556-9.711-8.008
		S261.189,190.804,261.189,190.804z"/>
	<path fill="none" stroke="#C46F4E" stroke-miterlimit="10" d="M261.189,190.804c0,0,12.777-11.925,14.651-14.48
		c1.873-2.556,13.624-15.729,17.888-9.03c3.576,5.623,2.215,9.881-2.556,16.186c-4.771,6.304-19.591,23.852-19.591,23.852
		s-8.519-2.556-9.711-8.008S261.189,190.804,261.189,190.804z"/>
	<path fill="#EFAA8B" d="M265.618,139.866c0,0,6.986,14.312,8.008,20.273c1.021,5.964,7.154,17.377,13.629,16.866
		c6.474-0.512,8.295-2.901,8.466-6.648c0.168-3.749-10.694-17.229-15.281-23.166c-4.591-5.942-9.711-12.606-9.711-12.606
		s-3.235-7.154-9.71-9.2c-0.828-0.262-4.769-3.407-5.28-3.918s-8.009-1.023-6.646,1.363c1.364,2.385,3.749,1.193,4.09,1.193
		s1.703,2.384,1.703,2.384s-10.223,3.408-10.903,8.007c-0.68,4.6,8.007,3.067,12.437,0.683c0,0,1.642,0.556,3.238,3.065
		C262.041,141.91,265.618,139.866,265.618,139.866z"/>
	<path fill="none" stroke="#C46F4E" stroke-miterlimit="10" d="M295.698,173.471c1.358-6.799-8.294-17.402-15.259-26.279
		c-4.632-5.903-9.711-12.606-9.711-12.606s-3.235-7.154-9.71-9.2c-0.828-0.262-4.769-3.407-5.28-3.918s-8.009-1.023-6.646,1.363
		c1.364,2.385,3.749,1.193,4.09,1.193s1.703,2.384,1.703,2.384s-10.223,3.408-10.903,8.007c-0.68,4.6,8.007,3.067,12.437,0.683
		c0,0,1.642,0.556,3.238,3.065c2.384,3.748,5.961,1.704,5.961,1.704s5.063,10.764,8.008,20.273
		c1.673,5.402,6.378,15.917,12.371,16.818"/>
	<path fill="none" stroke="#C46F4E" stroke-miterlimit="10" d="M254.57,126.501c0,0,3.195-1.023,5.621,0.34"/>
	<g>
		<path fill="#EFAA8B" d="M187.973,229.408c0,0-4.258,5.52-4.101,9.147c0.158,3.626,2.681,22.551,13.089,33.59
			c0,0,4.1,5.988,8.988,2.994c0,0,5.52,7.413,10.251,3.785c0,0,6.938-5.835-3.786-15.771c-2.599-2.406-7.096,1.579-8.357,2.839
			c0,0-3.153-4.572-3.469-8.987c-0.315-4.416-0.787-15.612-5.992-20.658C189.392,231.301,187.973,229.408,187.973,229.408z"/>
		<path fill="#EFAA8B" d="M202.051,267.752c0,0,3.154-4.575,5.676-5.52"/>
	</g>
	<g>
		<path fill="none" stroke="#C46F4E" stroke-miterlimit="10" d="M187.542,228.644c0,0-4.258,5.519-4.1,9.146
			c0.158,3.627,2.681,22.552,13.089,33.59c0,0,4.099,5.99,8.988,2.995c0,0,5.521,7.413,10.25,3.786c0,0,6.939-5.836-3.785-15.771
			c-2.598-2.408-7.096,1.577-8.356,2.838c0,0-3.153-4.571-3.469-8.988c-0.315-4.415-0.788-15.611-5.993-20.658
			C188.961,230.536,187.542,228.644,187.542,228.644z"/>
		<path fill="none" stroke="#C46F4E" stroke-miterlimit="10" d="M202.051,267.752c0,0,3.154-4.575,5.676-5.52"/>
	</g>
	<path fill="#F8FEFF" d="M250.297,195.773c0,0,5.3-1.461,9.87-5.665c4.567-4.205,3.106-2.376,3.106-2.376s-3.1,5.121,2.742,13.342
		c4.202,5.913,9.504,4.021,9.504,4.021s-12.247,10.419-14.988,16.085C257.789,226.846,250.297,195.773,250.297,195.773z"/>
	<path fill="none" stroke="#9CB9BC" stroke-miterlimit="10" d="M250.297,195.773c0,0,5.3-1.461,9.87-5.665
		c4.567-4.205,3.106-2.376,3.106-2.376s-3.1,5.121,2.742,13.342c4.202,5.913,9.504,4.021,9.504,4.021s-11.835,10.067-14.839,15.791"
		/>
	<path fill="#9CB9BC" d="M270.949,209.116c-3.764,3.715-7.492,1.097-8.225,1.464c0,0,1.23-0.607,3.467-0.234
		C268.429,210.719,270.949,209.116,270.949,209.116z"/>
	<path fill="#9CB9BC" d="M266.689,213.081c-2.742,2.376-4.725-0.125-4.725-0.125s1.063,2.638,2.521,1.878
		C265.943,214.074,266.689,213.081,266.689,213.081z"/>
	<g>
		<path fill="#F8FEFF" d="M184.861,229.906c0,0,6.465,10.407,17.977,9.46c0,0,1.419-5.992,5.047-11.984
			c3.627-5.992-5.046-24.127-8.357-21.762s-6.199,9.313-8.516,13.562C188.173,224.386,184.861,229.906,184.861,229.906z"/>
		<path fill="#9CB9BC" d="M201.577,235.582c-3.311-0.472-5.046-5.52-5.046-5.52s-0.067,3.41,1.915,5.02
			C200.428,236.692,201.577,235.582,201.577,235.582z"/>
		<path fill="#9CB9BC" d="M207.885,227.382c-2.05-1.577-3.312-6.15-3.47-6.781c0,0-0.266,2.757,0.849,4.986
			C206.378,227.815,207.885,227.382,207.885,227.382"/>
		<path fill="none" stroke="#9CB9BC" stroke-miterlimit="10" d="M184.861,229.906c0,0,6.465,10.407,17.977,9.46
			c0,0,1.419-5.992,5.047-11.984c3.627-5.992-5.046-24.127-8.357-21.762s-6.199,9.313-8.516,13.562
			C188.173,224.386,184.861,229.906,184.861,229.906z"/>
	</g>
	<path fill="#F8FEFF" d="M231.455,208.944c0,0-3.839-4.591-4.757-8.598c0,0-1.335-0.503-3.005-1.17s-1.502-1.251-1.502-1.251
		l-0.417-5.343c0,0-4.34-2.003-5.843,1.086s-3.589,6.593-3.589,6.593s4.591,6.01,4.424,8.347c0,0,2.921-2.002,5.342-5.925
		c1.156-1.875,1.438-1.952,4.256,2.588C229.37,210.11,231.455,208.944,231.455,208.944z"/>
	<path fill="#F8FEFF" d="M231.289,208.775c0,0,3.006-6.093,3.088-9.599c0,0,7.735-1.28,8.097-4.172
		c0.167-1.336,0.251-4.174,0.251-4.174s5.844,1.752,5.759,4.841c0,0-1.586,3.589-3.339,8.013c-0.681,1.719-0.25,3.424-0.25,3.424
		s-7.931-5.091-8.265-6.011C236.63,201.098,233.291,208.191,231.289,208.775z"/>
	<path fill="none" stroke="#9CB9BC" stroke-miterlimit="10" d="M217.935,193.752c0.082,0.334,2.337,5.425,7.263,5.927"/>
	<path fill="none" stroke="#9CB9BC" stroke-miterlimit="10" d="M231.455,208.944c0,0-3.839-4.591-4.757-8.598
		c0,0-1.335-0.503-3.005-1.17s-1.502-1.251-1.502-1.251l-0.417-5.343c0,0-4.34-2.003-5.843,1.086s-3.589,6.593-3.589,6.593
		s4.591,6.01,4.424,8.347c0,0,2.921-2.002,5.342-5.925c1.156-1.875,1.187-1.652,4.005,2.886
		C229.119,210.41,231.455,208.944,231.455,208.944z"/>
	<path fill="none" stroke="#9CB9BC" stroke-miterlimit="10" d="M231.289,208.775c0,0,3.006-6.093,3.088-9.599
		c0,0,7.735-1.28,8.097-4.172c0.167-1.336,0.251-4.174,0.251-4.174s5.844,1.752,5.759,4.841c0,0-1.586,3.589-3.339,8.013
		c-0.681,1.719-0.25,3.424-0.25,3.424s-7.931-5.091-8.265-6.011C236.63,201.098,233.291,208.191,231.289,208.775z"/>
	<g>
		<g>
			<g>
				<path fill="#EFAA8B" d="M212.692,171.319c0,0-3.15-5.703-6.305-3.395c-2.584,1.888-0.107,8.306,2.484,10.918
					c1.868,1.883,5.421,2.335,5.412-1.81"/>
				<path fill="none" stroke="#C46F4E" stroke-miterlimit="10" d="M211.686,172.99c0,0-2.451-2.48-4.597-1.845"/>
				<path fill="none" stroke="#C46F4E" stroke-miterlimit="10" d="M210.431,172.11c0,0-2.351,0.387-1.256,3.127
					c1.37,3.444,2.803,2.559,3.28,1.686"/>
				<path fill="none" stroke="#C46F4E" stroke-miterlimit="10" d="M213.39,173.266c0,0-2.357-7.811-7.002-5.341
					c-2.827,1.5-0.247,8.814,2.343,11.427c1.87,1.884,5.562,1.826,5.554-2.318"/>
			</g>
			<path fill="#EFAA8B" d="M214.851,144.978c-0.511,0.17-4.94,10.222-3.747,17.888c1.191,7.666,1.191,14.31,0.851,16.524
				c-0.34,2.215-0.934,7.969,8.178,13.801c8.519,5.45,12.606,4.429,15.844,2.555c6.86-3.971,13.288-12.947,13.799-18.229
				s0.342-23.853-1.873-28.962c-2.216-5.11-10.563-12.777-24.361-10.052C217.548,139.687,214.851,144.978,214.851,144.978z"/>
			<path fill="none" stroke="#C46F4E" stroke-miterlimit="10" d="M214.851,144.978c-0.511,0.17-4.94,10.222-3.747,17.888
				c1.191,7.666,1.191,14.31,0.851,16.524c-0.34,2.215-0.934,7.969,8.178,13.801c8.519,5.45,12.606,4.429,15.844,2.555
				c6.86-3.971,13.288-12.947,13.799-18.229s0.342-23.853-1.873-28.962c-2.216-5.11-10.563-12.777-24.361-10.052
				C217.548,139.687,214.851,144.978,214.851,144.978z"/>
			<path fill="#774E38" d="M212.126,152.643c-0.172,0.512-0.683,3.919,2.725,4.941c0,0-0.512-3.406,0.682-4.26
				c0,0-0.172,2.556,0.851,3.748c0,0,1.705-3.237,3.238-3.237c0,0,5.961-0.511,9.029-3.576c0,0-1.023,3.064-2.216,3.576
				c0,0,5.281-1.021,6.475-3.236c0,0-0.171,2.214-1.364,3.236c0,0,3.068-1.361,3.75-2.726c0,0-0.17,1.876-0.853,2.387
				c0,0,3.748-1.532,4.43-3.408c0,0-0.681,3.578-1.874,4.43c0,0,6.644-3.407,6.304-7.496c0,0-1.364,9.54,0.851,13.971
				c0,0-0.34-1.876,0.854-3.238c0,0,0.34,5.112,2.044,7.496c1.703,2.386,1.532,7.325,1.532,7.325l2.896-2.214
				c0,0,2.385-4.601,1.533-7.496c-0.853-2.897-0.002-6.134-1.705-8.177c0,0,1.532,1.021,1.703,2.043
				c0.173,1.022-0.34-4.771-1.189-5.962c-0.852-1.192-0.854-3.237-1.875-4.089c0,0,0.512-7.667-6.644-8.007l-1.533,0.171
				c0,0-3.749-3.919-7.326-3.067c0,0-3.408-3.578-9.199-1.363c0,0,2.725,0.172,3.407,1.193c0,0-8.519-1.194-12.778,4.259
				c0,0-6.645,6.645-6.473,11.585c0,0-2.044,5.963-1.533,12.096c0.255,3.062,0.852,3.067,0.852,3.067s2.555,3.237,2.386,4.77
				l1.873-0.512c0,0-2.385-5.963-2.044-10.904C211.273,155.028,212.126,152.643,212.126,152.643z"/>
			<path fill="none" stroke="#513122" stroke-miterlimit="10" d="M212.126,152.643c-0.172,0.512-0.683,3.919,2.725,4.941
				c0,0-0.512-3.406,0.682-4.26c0,0-0.172,2.556,0.851,3.748c0,0,1.705-3.237,3.238-3.237c0,0,5.961-0.511,9.029-3.576
				c0,0-1.023,3.064-2.216,3.576c0,0,5.281-1.021,6.475-3.236c0,0-0.171,2.214-1.364,3.236c0,0,3.068-1.361,3.75-2.726
				c0,0-0.17,1.876-0.853,2.387c0,0,3.748-1.532,4.43-3.408c0,0-0.681,3.578-1.874,4.43c0,0,6.644-3.407,6.304-7.496
				c0,0-1.364,9.54,0.851,13.971c0,0-0.34-1.876,0.854-3.238c0,0,0.34,5.112,2.044,7.496c1.703,2.386,1.532,7.325,1.532,7.325
				l2.896-2.214c0,0,2.385-4.601,1.533-7.496c-0.853-2.897-0.002-6.134-1.705-8.177c0,0,1.532,1.021,1.703,2.043
				c0.173,1.022-0.34-4.771-1.189-5.962c-0.852-1.192-0.854-3.237-1.875-4.089c0,0,0.512-7.667-6.644-8.007l-1.533,0.171
				c0,0-3.749-3.919-7.326-3.067c0,0-3.408-3.578-9.199-1.363c0,0,2.725,0.172,3.407,1.193c0,0-8.519-1.194-12.778,4.259
				c0,0-6.645,6.645-6.473,11.585c0,0-2.044,5.963-1.533,12.096c0.255,3.062,0.852,3.067,0.852,3.067s2.555,3.237,2.386,4.77
				l1.873-0.512c0,0-2.385-5.963-2.044-10.904C211.273,155.028,212.126,152.643,212.126,152.643z"/>
			<g>
				<path fill="#EFAA8B" d="M248.559,172.065c0,0,2.704-5.928,6.027-3.868c2.72,1.687,0.741,8.275-1.643,11.077
					c-1.72,2.021-5.229,2.742-5.535-1.391"/>
				<path fill="none" stroke="#C46F4E" stroke-miterlimit="10" d="M249.689,173.654c0,0,2.254-2.66,4.443-2.19"/>
				<path fill="none" stroke="#C46F4E" stroke-miterlimit="10" d="M250.874,172.681c0,0,2.373,0.205,1.491,3.022
					c-1.104,3.538-2.6,2.765-3.142,1.931"/>
				<path fill="none" stroke="#C46F4E" stroke-miterlimit="10" d="M248.012,174.059c0,0,1.754-7.967,6.574-5.861
					c2.933,1.282,0.919,8.772-1.465,11.574c-1.72,2.021-5.406,2.245-5.713-1.888"/>
			</g>
			<path fill="none" stroke="#C46F4E" stroke-miterlimit="10" d="M227.969,167.636c0,0,0.852,4.429-0.341,5.28
				c-1.193,0.852-3.576,1.364-3.747,3.237c-0.172,1.874,2.554,3.919,4.258,3.577"/>

				<ellipse transform="matrix(0.9784 0.2069 -0.2069 0.9784 39.8118 -42.1173)" fill="#262222" cx="221.24" cy="169.254" rx="1.449" ry="2.641"/>

				<ellipse transform="matrix(0.9784 0.2066 -0.2066 0.9784 40.0989 -45.2661)" fill="#262222" cx="236.781" cy="169.358" rx="1.449" ry="2.64"/>
			<path fill="#513122" d="M216.894,162.524c0.172-0.511,0.833-2.604,4.594-5.423c1.888-1.416,4.437-2.073,4.437-2.073
				s-4.079-0.861-5.961,1.021C216.555,159.457,216.894,162.524,216.894,162.524z"/>
			<path fill="#513122" d="M235.465,158.436c0,0,2.383,0.239,5.792,4.43c0,0,0.052-2.146-1.68-3.72
				C237.684,157.423,235.465,158.436,235.465,158.436z"/>
			<path fill="#631C1C" d="M222.347,189.271c0,0,1.193-1.192,1.704-2.896s1.875-4.445,5.45-4.6c3.919-0.171,5.624,4.77,6.646,5.621
				c1.022,0.852,1.022,0.852,1.022,0.852s-1.193,3.238-7.326,3.749C225.255,192.379,222.347,189.271,222.347,189.271z"/>
		</g>
		<ellipse fill="#D86868" cx="229.332" cy="188.844" rx="3.066" ry="1.619"/>
		<ellipse fill="none" stroke="#A83D3D" stroke-miterlimit="10" cx="229.332" cy="188.844" rx="3.066" ry="1.619"/>
	</g>
</g>
<g id="Layer_5">
	<path fill="#EA8181" d="M326.152,198.622c0,0-11.149,0.272-19.034,1.632c-2.471,0.426-7.887,6.526-7.887,19.306
		c0,12.78,2.177,40.516,2.177,40.516s0,3.263-1.36,4.894c-1.359,1.632-1.632,4.896,2.176,7.886l-0.544,10.605l51.12,1.632
		l-0.816-12.781c0,0,2.448-2.175,0.816-4.35c-1.632-2.176-1.36-8.158-0.816-11.692s6.254-30.455,5.166-36.98
		c-1.087-6.526-4.35-17.131-14.139-19.034C333.221,198.352,326.152,198.622,326.152,198.622z"/>
	<path fill="#B54E4E" d="M306.686,274.105c-3.535-0.544-6.909-4.785-6.909-4.785s-0.131,2.338,2.088,3.867
		S306.686,274.105,306.686,274.105z"/>
	<path fill="#B54E4E" d="M353.442,269.36c-1.76,3.673-6.082,5.67-6.082,5.67s2.791-0.006,4.322-1.613
		c1.53-1.607,1.661-3.01,1.661-3.01"/>
	<path fill="#B54E4E" d="M292.435,225.27c0,0-0.18,1.888,9.208,1.645c7.549-0.194,11.371-3.095,9.282-3.819
		C297.384,218.396,292.435,225.27,292.435,225.27z"/>
	<path fill="#B54E4E" d="M358.714,231.067c0,0-0.298,1.871-9.328-0.704c-7.262-2.072-10.24-5.834-8.035-6.015
		C355.634,223.177,358.714,231.067,358.714,231.067z"/>
	<path fill="none" stroke="#B54E4E" stroke-miterlimit="10" d="M326.152,198.622c0,0-11.149,0.272-19.034,1.632
		c-2.471,0.426-7.887,6.526-7.887,19.306c0,12.78,2.177,40.516,2.177,40.516s0,3.263-1.36,4.894
		c-1.359,1.632-1.632,4.896,2.176,7.886l-0.544,10.605l51.12,1.632l-0.816-12.781c0,0,2.448-2.175,0.816-4.35
		c-1.632-2.176-1.36-8.158-0.816-11.692s6.254-30.455,5.166-36.98c-1.087-6.526-4.35-17.131-14.139-19.034
		C333.221,198.352,326.152,198.622,326.152,198.622z"/>
	<path fill="#C68B63" d="M295.062,221.494c0,0,5.491,38.715,20.907,38.715c9.098,0,3.483-17.228,2.903-18.002
		c-0.58-0.773-9.681-19.164-10.454-24.584C307.644,212.203,295.062,221.494,295.062,221.494z"/>
	<path fill="#C68B63" d="M344.617,221.106c0,0-7.937,11.229-11.033,15.292c-3.098,4.065-12.777,21.103-5.809,24.393
		s13.938-6.583,17.616-12.003c2.46-3.625,12.002-19.939,12.39-22.842C358.169,223.043,344.617,221.106,344.617,221.106z"/>
	<path fill="none" stroke="#9E573B" stroke-miterlimit="10" d="M295.062,221.494c0,0,5.391,38.837,20.807,38.837
		c9.098,0,3.584-17.35,3.004-18.124c-0.58-0.773-9.681-19.164-10.454-24.584C307.644,212.203,295.062,221.494,295.062,221.494z"/>
	<path fill="none" stroke="#9E573B" stroke-miterlimit="10" d="M344.617,221.106c0,0-7.937,11.229-11.033,15.292
		c-3.098,4.065-12.777,21.103-5.809,24.393s13.938-6.583,17.616-12.003c2.46-3.625,12.002-19.939,12.39-22.842
		C358.169,223.043,344.617,221.106,344.617,221.106z"/>
	<path fill="#EA8181" d="M309.022,201.07c0,0-7.56-1.036-11.639,2.227c-4.079,3.264-4.84,9.1-3.862,14.904
		c0.86,5.101-1.087,7.068-1.087,7.068s3.264-3.807,10.876-2.99c7.614,0.815,7.614,0.815,7.614,0.815s0-6.255,0-9.789
		S309.022,201.07,309.022,201.07z"/>
	<path fill="#EA8181" d="M348.688,203.494c0,0,7.578,0.883,10.712,5.061c3.137,4.178,2.419,10.019,0.022,15.396
		c-2.104,4.726-0.709,7.117-0.709,7.117s-2.211-4.5-9.787-5.609s-7.576-1.109-7.576-1.109s1.56-6.058,2.441-9.48
		C344.674,211.446,348.688,203.494,348.688,203.494z"/>
	<path fill="none" stroke="#B54E4E" stroke-miterlimit="10" d="M308.733,201.036c-1.423-0.15-7.743-0.623-11.35,2.261
		c-4.079,3.264-4.84,9.1-3.862,14.904c0.86,5.101-1.087,7.068-1.087,7.068s3.264-3.807,10.876-2.99
		c7.614,0.815,7.614,0.815,7.614,0.815s0-3.933,0-7.322"/>
	<path fill="none" stroke="#B54E4E" stroke-miterlimit="10" d="M348.688,203.494c0,0,7.578,0.883,10.712,5.061
		c3.137,4.178,2.419,10.019,0.022,15.396c-2.104,4.726-0.697,6.919-0.697,6.919s-2.223-4.302-9.799-5.411s-7.576-1.109-7.576-1.109
		s1.086-4.216,1.957-7.602"/>
	<path fill="#21120E" d="M305.018,175.826c-3.844-14.905,2.906-27.278,12.936-32.903c10.031-5.625,19.312,2.344,19.312,2.344
		s5.653-0.561,8.248,7.874c2.626,8.531,3.939,19.688,1.502,26.905c-2.438,7.218-22.358,16.098-30.936,14.061
		C308.58,192.325,305.018,175.826,305.018,175.826z"/>
	<path fill="none" stroke="#54251E" stroke-miterlimit="10" d="M305.018,175.826c-3.844-14.905,2.906-27.278,12.936-32.903
		c10.031-5.625,19.312,2.344,19.312,2.344s5.653-0.561,8.248,7.874c2.626,8.531,3.939,19.688,1.502,26.905
		c-2.438,7.218-22.358,16.098-30.936,14.061C308.58,192.325,305.018,175.826,305.018,175.826z"/>
	<g>
		<path fill="#C68B63" d="M308.259,179.827c0,0-2.901-6.378-6.855-4.339c-3.238,1.669-1.206,8.718,1.451,11.777
			c1.919,2.209,5.973,3.117,6.501-1.243"/>
		<path fill="none" stroke="#9E573B" stroke-miterlimit="10" d="M306.874,181.46c0,0-2.511-2.907-5.078-2.5"/>
		<path fill="none" stroke="#9E573B" stroke-miterlimit="10" d="M305.537,180.38c0,0-2.77,0.119-1.863,3.133
			c1.139,3.786,3.867,2.933,3.578,2.173"/>
		<path fill="none" stroke="#9E573B" stroke-miterlimit="10" d="M308.259,179.827c0,0-2.901-6.378-6.855-4.339
			c-3.238,1.669-1.206,8.718,1.451,11.777c1.919,2.209,5.973,3.117,6.501-1.243"/>
	</g>
	<path fill="#C68B63" d="M309.237,157.922c-0.608,0.067-5.777,15.522-2.496,27.333c3.28,11.812,11.43,21.708,22.442,18.771
		c0,0,6.396-1.572,10.591-8.808c3.637-6.271,5.084-18.829,5.084-18.829c1.22-19.499-8.53-29.436-18.843-30.561
		c-10.312-1.125-16.592,11.999-16.872,12.374"/>
	<path fill="none" stroke="#9E573B" stroke-miterlimit="10" d="M309.237,157.922c-0.608,0.067-5.777,15.522-2.496,27.333
		c3.28,11.812,11.43,21.708,22.442,18.771c0,0,6.396-1.572,10.591-8.808c3.637-6.271,5.084-18.829,5.084-18.829
		c1.22-19.499-8.53-29.436-18.843-30.561c-10.312-1.125-16.592,11.999-16.872,12.374"/>
	<g>
		<path fill="#C68B63" d="M343.859,177.917c0,0,3.013-6.325,6.929-4.218c3.209,1.727,1.055,8.737-1.656,11.751
			c-1.957,2.174-6.026,3.012-6.478-1.356"/>
		<path fill="none" stroke="#9E573B" stroke-miterlimit="10" d="M345.214,179.573c0,0,2.562-2.861,5.123-2.41"/>
		<path fill="none" stroke="#9E573B" stroke-miterlimit="10" d="M346.571,178.52c0,0,2.768,0.167,1.807,3.164
			c-1.205,3.767-3.917,2.863-3.614,2.109"/>
		<path fill="none" stroke="#9E573B" stroke-miterlimit="10" d="M343.859,177.917c0,0,3.013-6.325,6.929-4.218
			c3.209,1.727,1.055,8.737-1.656,11.751c-1.957,2.174-6.026,3.012-6.478-1.356"/>
	</g>

		<ellipse transform="matrix(0.9903 0.139 -0.139 0.9903 27.414 -42.4159)" fill="#262222" cx="317.346" cy="175.039" rx="1.675" ry="2.787"/>

		<ellipse transform="matrix(0.9902 0.1393 -0.1393 0.9902 27.7278 -44.5714)" fill="#262222" cx="332.179" cy="175.738" rx="1.675" ry="2.788"/>
	<path d="M311.686,169.884c0,0,0.719-2.566,2.426-4.03c1.706-1.463,4.406-3.532,4.406-3.532s-3.353,0.22-5.612,3.232
		C311.269,167.736,311.686,169.884,311.686,169.884z"/>
	<path d="M332.943,163.746c0,0,2.051,1.368,3.163,3.313c1.204,2.109,1.355,3.464,1.355,3.464s0.602-2.259-0.753-4.519
		C335.994,164.812,332.943,163.746,332.943,163.746z"/>
	<path fill="none" stroke="#9E573B" stroke-miterlimit="10" d="M324.053,174.592c0,0,0.524,3.717-1.354,4.972
		c-0.904,0.603-2.562,1.507-2.26,3.465c0.301,1.959,2.862,4.369,6.177,1.809"/>
	<path fill="#6D1B1B" d="M317.123,190.26c0,0,1.958,0.904,4.068-0.753c2.119-1.664,5.876-2.109,9.039,0.452
		c0,0,1.505,1.054,3.163,0.903c0,0-2.561,3.015-3.615,5.725c-1.056,2.713-2.079,4.117-5.688,3.848
		c-3.329-0.248-4.025-5.266-5.16-7.613C318.131,191.165,317.123,190.26,317.123,190.26z"/>
	<ellipse fill="#D86868" cx="325.184" cy="197.642" rx="3.39" ry="2.411"/>
	<path fill="#21120E" d="M326.011,143.558c0,0-10.242-0.303-15.366,8.437c0,0-4.669,6.177-2.561,12.353c0,0,0.452-2.108,1.657-2.71
		c0,0-0.602,1.807,0,3.464c0,0,2.411-0.452,4.972-2.862c0,0-2.513,2.739-1.205,2.411c0.604-0.151,2.863-0.904,3.615-2.261
		c0,0,0.153,2.412-1.506,3.014c0,0,2.559,0.752,4.971-2.411c0,0,0.454,1.056-0.3,1.958c0,0,1.807-0.149,2.711-1.656
		c0,0,0.752,1.053,0.301,1.656c0,0,1.507-0.603,1.809-1.656c0,0,1.055,0.603,0.754,1.656c0,0,1.657-3.614,1.808-7.682
		c0,0,0.15,6.026,2.711,8.286c0,0-0.001-1.357,0.15-2.261c0,0,0.604,1.658,2.412,2.412c0,0,0.15-1.056,0-1.959
		c0,0,0.299,1.808,2.56,2.409l0.544-1.577c0,0,1.264,1.276,4.277,1.879c0,0-1.93-2.624-0.904-2.11
		c0.603,0.303,3.163,2.11,5.875,1.056c0,0-1.842-1.48-1.842-3.168c0,0-0.093-9.427-5.345-14.249
		C332.391,142.736,326.011,143.558,326.011,143.558z"/>
	<path fill="#54251E" d="M323.392,146.768c0,0-1.731,6.55-6.607,9.456c-3.15,1.878-4.361,4.886-4.361,4.886s0.135-4.215,4.072-6.039
		S323.392,146.768,323.392,146.768z"/>
	<path fill="#54251E" d="M320.392,159.047c0,0,4.687-7.124,5.155-11.905c0,0-0.189,3.777-1.368,7.449
		C323.315,157.28,320.392,159.047,320.392,159.047z"/>
	<path fill="#54251E" d="M323.205,164.766c0.81-0.644,2.905-1.781,2.811-9.28c0,0-0.459,2.635-1.549,5.636
		c-0.383,1.056-1.345,3.072-1.345,3.072"/>
	<path fill="#54251E" d="M329.578,164.578c-4.056-5.57-1.781-13.78-1.781-13.78s0.03,6.865,0.799,9.65
		C329.364,163.234,329.578,164.578,329.578,164.578"/>
	<ellipse fill="none" stroke="#A83D3D" stroke-miterlimit="10" cx="325.184" cy="197.642" rx="3.39" ry="2.411"/>
	<path fill="none" stroke="#54251E" stroke-miterlimit="10" d="M312.226,149.745c-0.564,0.674-1.095,1.421-1.581,2.249
		c0,0-4.669,6.177-2.561,12.353c0,0,0.452-2.108,1.657-2.71c0,0-0.602,1.807,0,3.464c0,0,2.411-0.452,4.972-2.862
		c0,0-2.513,2.739-1.205,2.411c0.604-0.151,2.863-0.904,3.615-2.261c0,0,0.153,2.412-1.506,3.014c0,0,2.559,0.752,4.971-2.411
		c0,0,0.454,1.056-0.3,1.958c0,0,1.807-0.149,2.711-1.656c0,0,0.752,1.053,0.301,1.656c0,0,1.507-0.603,1.809-1.656
		c0,0,1.055,0.603,0.754,1.656c0,0,1.657-3.614,1.808-7.682c0,0,0.15,6.026,2.711,8.286c0,0-0.001-1.357,0.15-2.261
		c0,0,0.604,1.658,2.412,2.412c0,0,0.15-1.056,0-1.959c0,0,0.299,1.808,2.56,2.409l0.544-1.577c0,0,1.264,1.276,4.277,1.879
		c0,0-1.93-2.624-0.904-2.11c0.603,0.303,3.163,2.11,5.875,1.056c0,0-1.842-1.48-1.842-3.168c0,0-0.042-4.318-1.697-8.604"/>
</g>
<g id="Layer_13">
	<path fill="#C68B63" d="M333.317,215.053c0.208,3.223,0.519,4.367,1.351,8.733c0.552,2.896,4.294,18.792,3.52,25.18
		c-0.774,6.389-8.518,17.81-12.777,10.066c-4.259-7.743-3.098-20.907-2.903-29.424c0.193-8.518-0.581-17.424-0.581-17.424
		s0.265-7.948,6.503-10.235c0,0,4.783-5.095,6.239-8.423c1.456-3.329,5.721-15.392,9.463-13.831
		c3.743,1.56-1.516,22.632-6.967,28.077c-1.352,1.351-3.847,3.535-3.847,3.535V215.053z"/>
	<path fill="none" stroke="#9E573B" stroke-miterlimit="10" d="M332.669,261.202c-1.71,0.613-5.36,0.37-7.208-2.588
		c-4.685-7.493-3.148-20.489-2.954-29.006c0.193-8.518-0.581-17.424-0.581-17.424s0.265-7.948,6.503-10.235
		c0,0,4.783-5.095,6.239-8.423c1.456-3.329,5.721-15.392,9.463-13.831c3.743,1.56-1.516,22.632-6.967,28.077
		c-1.352,1.351-3.847,3.535-3.847,3.535v3.745c0.208,3.223,0.519,4.367,1.351,8.733c0.552,2.896,4.294,18.792,3.52,25.18"/>
	<path fill="#C68B63" d="M324.099,211.04c0,0-0.774,8.906-0.581,17.423c0.193,8.518,1.767,20.56-2.493,28.303
		c-4.258,7.743-12.414-2.558-13.188-8.944c-0.774-6.388,6.886-23.262,7.55-26.134c0.668-2.893,1.355-8.324,1.162-8.905
		c0,0-10.479-14.473-11.207-17.801c-0.727-3.328-3.222-15.911,1.562-15.286c4.784,0.624,7.486,15.077,7.486,15.077
		s10.192,8.736,9.671,15.809L324.099,211.04z"/>
	<path fill="none" stroke="#9E573B" stroke-miterlimit="10" d="M307.81,246.038c0.469-7.295,6.968-21.715,7.577-24.351
		c0.668-2.893,1.355-8.324,1.162-8.905c0,0-10.479-14.473-11.207-17.801c-0.727-3.328-3.222-15.911,1.562-15.286
		c4.784,0.624,7.486,15.077,7.486,15.077s10.192,8.736,9.671,15.809l0.038,0.459c0,0-0.774,8.906-0.581,17.423
		c0.193,8.518,1.355,21.68-2.904,29.423c-1.064,1.938-3.981,2.474-5.318,2.392"/>
</g>
<g id="Layer_14">
	<rect x="-25" y="-13.88" opacity="0.2" fill="none" stroke="#000000" stroke-miterlimit="10" width="441.5" height="298.5"/>
	<rect x="-7.5" y="105.785" opacity="0.2" fill="#D2F9FF" width="411" height="166.335"/>
	<rect x="-7.5" y="105.785" opacity="0.2" fill="none" stroke="#64A5AF" stroke-miterlimit="10" width="411" height="5.884"/>
</g>
<g id="Layer_10">
</g>
<g id="Layer_11">
	<g>
		<path fill="#D39262" d="M68.999,98.497c0,0-5.022-0.471-4.708,5.336c0.313,5.808,3.923,21.19,3.923,23.229
			s-0.157,2.825-0.157,2.825s-3.924,0-5.179,7.69s-1.727,14.284-2.825,15.225c-1.099,0.941-2.982,1.727-2.511,4.081
			c0,0-2.511,5.65,0.314,8.161c0,0,0.784-0.313,0.627-2.197c-0.156-1.884,1.57-2.825,1.57-2.825s3.924,2.825,4.081,8.632
			c0,0-0.628,1.883-2.197,3.296c-1.57,1.413-3.454,1.884-2.668,3.454c0.785,1.569,3.61-1.257,4.708-2.512
			c1.099-1.256,1.099-1.256,1.099-1.256s-0.628,3.139-2.04,4.708c-1.413,1.57-2.668,1.099-2.198,2.669
			c0.471,1.569,2.198,1.256,3.454-0.313c1.255-1.57,2.354-4.396,2.354-5.808c0,0,0.47,4.395-0.471,5.964
			c-0.941,1.57-3.139,2.669-2.04,3.924c1.099,1.256,3.923-1.727,4.552-4.395c0.628-2.668,2.04-9.887-2.668-20.561
			c0,0-0.471-2.041,2.197-5.964c2.668-3.924,9.731-17.423,11.301-22.445c1.569-5.022,1.413-19.933-0.314-24.484
			S68.999,98.497,68.999,98.497z"/>
		<path fill="#875532" d="M77.317,131.3c-0.197,4.16-3.767,2.354-3.767,2.354s1.266,0.033,2.33-0.675
			C76.943,132.271,77.317,131.3,77.317,131.3z"/>
		<path fill="#875532" d="M61.622,161.749c-2.982-2.981-3.14-3.924-3.14-3.924s1.089,0.769,1.976,1.743
			S61.622,161.749,61.622,161.749"/>
		<path fill="none" stroke="#875532" stroke-miterlimit="10" d="M68.999,98.497c0,0-5.022-0.471-4.708,5.336
			c0.313,5.808,3.923,21.19,3.923,23.229s-0.157,2.825-0.157,2.825s-3.924,0-5.179,7.69s-1.727,14.284-2.825,15.225
			c-1.099,0.941-2.982,1.727-2.511,4.081c0,0-2.511,5.65,0.314,8.161c0,0,0.784-0.313,0.627-2.197
			c-0.156-1.884,1.57-2.825,1.57-2.825s3.924,2.825,4.081,8.632c0,0-0.628,1.883-2.197,3.296c-1.57,1.413-3.454,1.884-2.668,3.454
			c0.785,1.569,3.61-1.257,4.708-2.512c1.099-1.256,1.099-1.256,1.099-1.256s-0.628,3.139-2.04,4.708
			c-1.413,1.57-2.668,1.099-2.198,2.669c0.471,1.569,2.198,1.256,3.454-0.313c1.255-1.57,2.354-4.396,2.354-5.808
			c0,0,0.47,4.395-0.471,5.964c-0.941,1.57-3.139,2.669-2.04,3.924c1.099,1.256,3.923-1.727,4.552-4.395
			c0.628-2.668,2.04-9.887-2.668-20.561c0,0-0.471-2.041,2.197-5.964c2.668-3.924,9.731-17.423,11.301-22.445
			c1.569-5.022,1.413-19.933-0.314-24.484S68.999,98.497,68.999,98.497z"/>
	</g>
	<path fill="#875532" d="M482.363,35.667c0,0,1.749,4.133,4.058,0.537c0,0-1.354,0.813-2.309,0.655
		C483.41,36.743,482.363,35.667,482.363,35.667z"/>
	<path fill="#D39262" d="M61.942,89.536c0,0.487-2.599,7.147,1.787,12.182c4.385,5.035,10.396,5.198,10.396,5.198
		s12.019,15.755,31.023,6.66c19.004-9.096,26.151-22.09,26.151-22.09s-1.787-20.629-8.284-19.004
		c-6.497,1.625-9.908,5.198-15.268,7.309c-4.733,1.865-16.081,3.249-16.081,3.249s-11.208-6.984-19.329-2.274
		C64.451,85.339,66.307,85.171,61.942,89.536z"/>
	<path fill="none" stroke="#875532" stroke-miterlimit="10" d="M76.968,109.843c4.621,4.063,14.623,10.222,28.18,3.732
		c19.004-9.096,26.151-22.09,26.151-22.09s-1.787-20.629-8.284-19.004c-6.497,1.625-9.908,5.198-15.268,7.309
		c-4.733,1.865-16.081,3.249-16.081,3.249s-11.208-6.984-19.329-2.274c-7.886,4.574-6.03,4.406-10.395,8.771
		c0,0.487-2.599,7.147,1.787,12.182c1.379,1.583,2.918,2.685,4.381,3.452"/>
	<g>
		<path fill="#D39262" d="M123.479,78.074c0.558-0.139,3.206-2.369,3.344-4.18c0.139-1.812,7.691-9.615,14.77-9.615
			c1.533,0,2.508-1.672,5.434,0.697c0,0,2.229-0.14,2.926,1.532c0,0,2.229-1.812,3.483,1.672c0,0,3.483,0.697,3.483,3.623
			c0,0,1.812,2.37,1.533,4.181c0,0,2.647,0.558,1.532,5.574l-1.532-0.14c0,0,0.976,2.648-0.418,4.18l-0.558-0.557
			c0,0,0,2.787-1.672,4.041c-1.672,1.254-3.763,1.672-4.459,1.812c-0.697,0.139-3.484,0.139-3.484,0.139s-1.951,3.763-7.246,5.156
			c-4.449,1.17-12.958,0.836-13.298-9.149C127.055,79.278,123.479,78.074,123.479,78.074z"/>
		<g>
			<path fill="none" stroke="#875532" stroke-miterlimit="10" d="M137.273,73.179c0,0,4.245-3.969,1.821-7.461
				c-1.988-2.863-6.935,0.376-8.694,3.516c-1.27,2.266-1.079,6.383,2.373,6.122"/>
			<path fill="none" stroke="#000000" stroke-miterlimit="10" d="M135.722,72.121c0,0,1.673-2.97,0.8-5.403"/>
			<path fill="none" stroke="#000000" stroke-miterlimit="10" d="M136.254,70.622c0,0-0.697-2.681-2.804-1.258
				c-2.648,1.787-1.397,4.294-0.879,3.879"/>
		</g>
		<path fill="none" stroke="#875532" stroke-miterlimit="10" d="M123.479,78.074c0.558-0.139,3.206-2.369,3.344-4.18
			c0.139-1.812,7.691-9.615,14.77-9.615c1.533,0,2.508-1.672,5.434,0.697c0,0,2.229-0.14,2.926,1.532c0,0,2.229-1.812,3.483,1.672
			c0,0,3.483,0.697,3.483,3.623c0,0,1.812,2.37,1.533,4.181c0,0,2.647,0.558,1.532,5.574l-1.532-0.14c0,0,0.976,2.648-0.418,4.18
			l-0.558-0.557c0,0,0,2.787-1.672,4.041c-1.672,1.254-3.763,1.672-4.459,1.812c-0.697,0.139-3.484,0.139-3.484,0.139
			s-1.951,3.763-7.246,5.156c-4.449,1.17-12.958,0.836-13.298-9.149C127.055,79.278,123.479,78.074,123.479,78.074z"/>
		<path fill="#F2C291" d="M127.798,90.057c-0.135-0.541-2.787-8.639,4.32-12.68l4.877-1.672c0,0,11.705-9.754,17.417,1.393
			c0,0,1.394,2.508,0.418,5.295c0,0,1.672-1.533,1.672-2.787c0,0,0.697,5.156-2.229,7.803c-2.926,2.647-6.41,3.623-6.41,3.623
			s-2.508,5.713-11.705,5.713C132.101,96.746,129.053,95.074,127.798,90.057z"/>
		<path fill="none" stroke="#875532" stroke-miterlimit="10" d="M127.798,90.057c-0.135-0.541-2.787-8.639,4.32-12.68l4.877-1.672
			c0,0,11.705-9.754,17.417,1.393c0,0,1.394,2.508,0.418,5.295c0,0,1.672-1.533,1.672-2.787c0,0,0.697,5.156-2.229,7.803
			c-2.926,2.647-6.41,3.623-6.41,3.623s-2.508,5.713-11.705,5.713C132.101,96.746,129.053,95.074,127.798,90.057z"/>

			<ellipse transform="matrix(0.8875 -0.4609 0.4609 0.8875 -20.3732 74.7909)" fill="#1E1C1B" cx="142.956" cy="79.112" rx="2.183" ry="1.686"/>

			<ellipse transform="matrix(0.8875 -0.4608 0.4608 0.8875 -24.0077 78.1934)" fill="#1E1C1B" cx="148.139" cy="88.265" rx="2.09" ry="1.613"/>
		<path fill="none" stroke="#63341F" stroke-miterlimit="10" d="M138.249,80.442c0,0-5.583,3.034-1.812,8.918
			c3.483,5.435,8.414,1.791,7.524,2.229"/>
		<path fill="none" stroke="#875532" stroke-miterlimit="10" d="M146.052,79.746c0,0-3.484,3.622-4.459,3.762
			c-0.976,0.14-2.017,3.279-1.394,3.902c0.697,0.697,3,1.039,4.737,0.279c2.229-0.976,4.599-3.483,4.599-3.483"/>
	</g>
	<path fill="#875532" d="M141.593,83.508c0.418,0,2.508,0.558,2.647,4.181c0,0-3.902,0.976-4.041-0.279
		C140.061,86.155,141.593,83.508,141.593,83.508z"/>
	<path fill="none" stroke="#875532" stroke-miterlimit="10" d="M141.593,83.508c0.418,0,2.508,0.558,2.647,4.181
		c0,0-3.902,0.976-4.041-0.279C140.061,86.155,141.593,83.508,141.593,83.508z"/>
	<g>
		<path fill="#D39262" d="M118.673,75.768c0.154-0.463,3.551-9.881,6.948-15.131c3.396-5.25,5.712-14.05,5.712-14.05
			s2.934-10.653,8.492-19.763c5.558-9.11,5.867-10.499,5.867-10.499s4.787-0.154,5.25,2.162c0,0-5.493,23.96-9.264,31.497
			c-0.309,0.617-2.471,13.433-4.787,21.461c-2.315,8.028-7.31,23.309-12.714,19.757c-5.404-3.551-5.504-14.816-5.504-14.816"/>
		<path fill="none" stroke="#875532" stroke-miterlimit="10" d="M118.673,75.768c0.154-0.463,3.551-9.881,6.948-15.131
			c3.396-5.25,5.712-14.05,5.712-14.05s2.934-10.653,8.492-19.763c5.558-9.11,5.867-10.499,5.867-10.499s4.787-0.154,5.25,2.162
			c0,0-5.493,23.96-9.264,31.497c-0.309,0.617-2.471,13.433-4.787,21.461c-1.91,6.622-5.062,15.583-9.932,20.221"/>
		<path fill="#875532" d="M130.225,53.203c0,0.617-0.168,5.244,3.106,2.676c0,0-1.027,0.192-1.734-0.385
			C130.642,54.712,130.225,53.203,130.225,53.203z"/>
	</g>
</g>
<g id="Layer_3">
	<path fill="#664434" d="M50.245,290.621c0,0-22.113-34.808-26.631-74.327c-1.819-15.91-5.962-160.579-5.962-160.579
		S28.271,39.791,50.1,31.663c20.195-7.52,38.545-3.066,64.665-5.385s49.907-7.42,69.03-17.158
		c19.123-9.739,35.914-20.869,35.914-20.869l-18.657-1.855c0,0-21.455,14.84-33.115,18.086s-39.179,10.202-88.619,9.275
		C41.543,13.048,18.05,32.665,18.05,32.665l0.795-53.261l-48.178,1.717l2,306.667L50.245,290.621z"/>
	<path fill="#3A241B" d="M18.908,53.639C16.589,56.421,8.242,68.479,6.851,69.87c0,0,1.854-5.565,5.255-8.966
		C15.507,57.504,18.908,53.639,18.908,53.639"/>
	<path fill="none" stroke="#3A241B" stroke-miterlimit="10" d="M51.04,292.211c0,0-23.306-35.321-27.823-77.507
		c-1.705-15.923-5.564-158.191-5.564-158.191s6.207-11.845,24.35-21.887c18.854-10.436,46.642-6.028,72.762-8.347
		s49.907-7.42,69.03-17.158c19.123-9.739,35.914-20.869,35.914-20.869l-18.657-1.855c0,0-21.455,14.84-33.115,18.086
		s-39.179,10.202-88.619,9.275c-37.773-0.709-62.062,20.1-62.062,20.1l1.192-57.236L-30-22.88l-5.333,317.333L51.04,292.211z"/>
	<path fill="#D39262" d="M160.978,18.023c0,0,2.316-2.625,0.154-3.242s-2.625-0.927-3.551-1.39
		c-0.926-0.463-2.624,0.154-1.235,1.853c1.39,1.699,1.544,1.081,2.007,1.235s-3.159,3.314-3.159,3.314s2.695,1.317,3.931,0.083
		S160.978,18.023,160.978,18.023z"/>
	<path fill="none" stroke="#875532" stroke-miterlimit="10" d="M160.978,18.023c0,0,2.316-2.625,0.154-3.242
		s-2.994-0.758-3.92-1.222c-0.926-0.463-2.774,0.893-1.009,2.197c1.366,1.009,1.663,0.831,2.435,0.831
		c0.488,0-3.918,3.622-3.918,3.622s2.665,1.469,4.69-0.832C160.304,18.361,160.978,18.023,160.978,18.023z"/>
	<g>
		<path fill="#D39262" d="M154.647,7.524c0,0-2.007-2.47-3.396-1.544c0,0-2.625-1.39-3.397-0.618c0,0-2.162-0.772-3.706,1.544
			c-1.543,2.316-4.015,8.646-0.618,9.109c0,0,0.31,3.243,2.008,2.779c0,0,1.081-0.463,0.926-1.698c-0.154-1.235,0-3.088,0-3.088
			s-0.138,3.458,1.699,2.934c1.081-0.309,0.618-2.162,0.926-2.779c0,0-0.309,2.779,1.39,2.625c1.699-0.155,1.698-3.397,2.162-6.022
			C153.104,8.142,154.647,7.524,154.647,7.524z"/>
		<path fill="none" stroke="#875532" stroke-miterlimit="10" d="M143.531,16.016c0,0,0-5.25,2.625-8.337"/>
		<path fill="none" stroke="#875532" stroke-miterlimit="10" d="M146.387,15.696c0,0-0.252-4.956,2.084-8.481"/>
		<path fill="none" stroke="#875532" stroke-miterlimit="10" d="M148.907,15.612c0,0,0.469-6.209,2.036-8.397"/>
		<path fill="none" stroke="#875532" stroke-miterlimit="10" d="M154.647,7.524c0,0-2.007-2.47-3.396-1.544
			c0,0-2.344-1.371-3.604-0.195c0,0-1.955-1.195-3.499,1.121c-1.543,2.316-4.015,8.646-0.618,9.109c0,0,0.31,3.243,2.008,2.779
			c0,0,1.081-0.463,0.926-1.698c-0.154-1.235,0-3.088,0-3.088s-0.138,3.458,1.699,2.934c1.081-0.309,0.618-2.162,0.926-2.779
			c0,0-0.309,2.779,1.39,2.625c1.699-0.155,1.698-3.397,2.162-6.022C153.104,8.142,154.647,7.524,154.647,7.524z"/>
	</g>
</g>
<g id="Layer_15">
	<g>
		<path fill="#D39262" d="M77.925,81.683c0,0-9.719-3.498-14.902-5.183c-3.715-1.208-12.569-4.924-12.569-4.924
			s-2.98-6.609-6.868-8.293c-3.888-1.685-9.002-4.092-8.941-5.313c0.13-2.591-0.778-5.571-3.499-4.535c0,0-7.904-1.944-8.682-4.924
			c0,0-2.073-4.146-2.98-1.555c0,0-1.684-2.721-1.944,0.647c0,0-2.202-0.388-1.684,1.426c0,0-1.296,0.259-0.389,2.333
			c0,0,2.851,6.738,10.755,8.811c0,0,11.532,14.253,17.104,16.975c0,0,1.036,2.461,3.369,3.498c0,0,17.104,17.105,22.547,16.846
			c0.549-0.026,5.053-1.037,8.034-9.459C78.506,84.558,77.925,81.683,77.925,81.683z"/>
		<path fill="#875532" d="M52.009,80.517c-2.333,1.166-4.924,0-4.924,0c-5.183-2.332-4.017-7.515-4.017-7.515
			s1.078,5.712,4.719,6.783C51.429,80.856,52.009,80.517,52.009,80.517z"/>
		<path fill="none" stroke="#875532" stroke-miterlimit="10" d="M19.485,46.956c0,0,1.426,3.757,3.628,5.572
			c2.203,1.814,3.499,2.203,3.499,2.203"/>
		<path fill="none" stroke="#875532" stroke-miterlimit="10" d="M17.412,47.085c0,0,0.519,3.758,3.628,6.608
			c3.11,2.851,5.312,3.369,5.312,3.369"/>
		<path fill="none" stroke="#875532" stroke-miterlimit="10" d="M77.925,81.683c0,0-9.719-3.498-14.902-5.183
			c-3.715-1.208-12.569-4.924-12.569-4.924s-2.98-6.609-6.868-8.293c-3.888-1.685-9.002-4.092-8.941-5.313
			c0.13-2.591-0.778-5.571-3.499-4.535c0,0-7.904-1.944-8.682-4.924c0,0-2.073-4.146-2.98-1.555c0,0-1.684-2.721-1.944,0.647
			c0,0-2.202-0.388-1.684,1.426c0,0-1.296,0.259-0.389,2.333c0,0,2.851,6.738,10.755,8.811c0,0,11.532,14.253,17.104,16.975
			c0,0,1.036,2.461,3.369,3.498c0,0,17.104,17.105,22.547,16.846"/>
	</g>
	<path fill="none" stroke="#875532" stroke-miterlimit="10" d="M15.857,49.029c0,0,2.332,6.479,8.682,9.459"/>
</g>
<g id="Layer_9">
	<path opacity="0.8" fill="none" stroke="#FFFFFF" stroke-miterlimit="10" d="M205.367,102.283c0,0-0.418,18.789,10.488,27.098"/>
	<path opacity="0.8" fill="none" stroke="#FFFFFF" stroke-miterlimit="10" d="M214.135,96.438
		c0.141,0.564,1.253,25.26,22.129,30.897"/>
	<path opacity="0.8" fill="none" stroke="#FFFFFF" stroke-miterlimit="10" d="M221.232,90.593c0,0,7.099,23.59,24.426,24.008"/>
</g>
</svg>
