<?xml version="1.0" encoding="utf-8"?>
<!-- Generator: Adobe Illustrator 18.1.1, SVG Export Plug-In . SVG Version: 6.00 Build 0)  -->
<svg version="1.1" id="Layer_1" xmlns="http://www.w3.org/2000/svg" xmlns:xlink="http://www.w3.org/1999/xlink" x="0px" y="0px"
	 width="500px" height="500px" viewBox="0 0 500 500" enable-background="new 0 0 500 500" xml:space="preserve">
<g>
	<g>
		<path fill="#F3EB85" stroke="#9A9143" stroke-width="2.0778" stroke-miterlimit="10" d="M301.442,110.481
			c0,0,5.847,4.12,13.203,4.414c0,0-0.883,6.474-10.593,3.237l-5.591-3.372L301.442,110.481z"/>
		<g>
			<path fill="#F3EB85" d="M301.442,110.481c0,0,1.923,5.983,9.378,5.983"/>
			<path fill="#9A9143" d="M301.442,110.481c0,0,0.559,0.59,1.339,1.322c0.394,0.365,0.852,0.763,1.344,1.156
				c0.491,0.396,1.031,0.773,1.589,1.119c0.268,0.191,0.575,0.318,0.847,0.499c0.291,0.147,0.583,0.284,0.862,0.439
				c0.294,0.131,0.578,0.259,0.847,0.379c0.27,0.135,0.545,0.217,0.793,0.331c0.252,0.095,0.482,0.22,0.697,0.286
				c0.213,0.071,0.401,0.155,0.559,0.219c0.314,0.135,0.501,0.232,0.501,0.232s-0.183,0.078-0.517,0.181
				c-0.333,0.092-0.821,0.254-1.416,0.262c-0.297,0.01-0.63,0.057-0.971,0.013c-0.342-0.04-0.709-0.078-1.082-0.157
				c-0.365-0.106-0.752-0.207-1.125-0.359c-0.365-0.173-0.746-0.335-1.091-0.561c-0.698-0.44-1.324-0.993-1.801-1.594
				c-0.479-0.599-0.83-1.224-1.03-1.797c-0.225-0.559-0.305-1.065-0.339-1.413C301.415,110.685,301.442,110.481,301.442,110.481z"/>
		</g>
		<g>
			<defs>
				<path id="SVGID_1_" d="M134.328,232.368c-1.267,6.627-3.887,12.993-7.655,18.591c9.162,0.657,17.487-6.119,21.263-14.416
					c3.662-8.047,3.78-17.246,2.986-26.051c-0.794-8.806-2.434-17.584-2.047-26.417c0.091-2.077,0.365-4.314,1.782-5.835
					c1.336-1.433,4.023-1.678,5.143-0.164c0.914-1.65,1.829-3.301,2.744-4.952c-2.248-3.398-6.846-4.953-10.908-4.207
					c-4.384,0.805-8.102,3.845-10.679,7.481c-2.577,3.636-4.169,7.863-5.726,12.039c-4.483,12.025-8.96,25.079-5.745,37.432
					c1.45-2.873,2.902-5.745,4.346-8.619c-1.98,6.028-1.692,12.778,0.825,18.606c1.429-2.557,2.854-5.115,4.285-7.67
					C134.798,229.588,134.592,230.984,134.328,232.368z"/>
			</defs>
			<use xlink:href="#SVGID_1_"  overflow="visible" fill="#F3EB85"/>
			<clipPath id="SVGID_2_">
				<use xlink:href="#SVGID_1_"  overflow="visible"/>
			</clipPath>
			<g clip-path="url(#SVGID_2_)">
				<g>
					<path fill="#F3EB85" d="M141.469,200.035c0,0,4.949,22.666,0,35.728"/>
					<path fill="#9A9143" d="M141.469,200.035c0,0,0.816,2.138,1.568,5.468c0.182,0.833,0.387,1.735,0.551,2.699
						c0.162,0.963,0.365,1.977,0.482,3.038c0.138,1.058,0.292,2.152,0.366,3.272c0.105,1.117,0.153,2.258,0.213,3.398
						c0.052,1.14,0.006,2.286,0.013,3.41c-0.008,1.126-0.132,2.234-0.189,3.304c-0.106,1.071-0.263,2.101-0.396,3.075
						c-0.186,0.972-0.388,1.884-0.577,2.721c-0.218,0.834-0.479,1.585-0.689,2.249c-0.185,0.671-0.476,1.22-0.673,1.679
						c-0.416,0.912-0.669,1.416-0.669,1.416s0.09-0.571,0.275-1.54c0.088-0.486,0.232-1.06,0.296-1.745
						c0.085-0.675,0.182-1.436,0.287-2.266c0.055-0.838,0.118-1.74,0.21-2.688c0.026-0.959,0.057-1.966,0.11-3.005
						c0.003-1.043,0.006-2.121,0.01-3.217c-0.03-1.097-0.012-2.21-0.082-3.324c-0.034-1.115-0.057-2.231-0.137-3.328
						c-0.064-1.098-0.1-2.182-0.182-3.229c-0.143-2.101-0.277-4.061-0.392-5.742C141.603,202.312,141.469,200.035,141.469,200.035z"
						/>
				</g>
				<g>
					<path fill="#F3EB85" d="M132.301,205.299c0,0-2.746-12.719,4.316-22.528"/>
					<path fill="#9A9143" d="M132.301,205.299c0,0-0.651-1.381-1.037-3.609c-0.218-1.11-0.337-2.425-0.369-3.842
						c0.009-0.707,0.001-1.442,0.062-2.186c0.077-0.742,0.129-1.5,0.279-2.246c0.135-0.748,0.274-1.495,0.496-2.214
						c0.173-0.729,0.435-1.422,0.698-2.086c0.132-0.331,0.24-0.665,0.386-0.976c0.157-0.306,0.311-0.606,0.46-0.897
						c0.287-0.587,0.586-1.125,0.924-1.588c0.315-0.474,0.613-0.9,0.891-1.264c0.3-0.352,0.578-0.645,0.802-0.886
						c0.45-0.481,0.723-0.735,0.723-0.735s-0.127,0.363-0.377,0.962c-0.126,0.299-0.273,0.662-0.461,1.061
						c-0.155,0.419-0.312,0.898-0.512,1.399c-0.208,0.498-0.369,1.062-0.558,1.648c-0.2,0.581-0.376,1.202-0.541,1.85
						c-0.087,0.321-0.176,0.648-0.265,0.979c-0.067,0.337-0.134,0.678-0.213,1.018c-0.164,0.679-0.289,1.378-0.405,2.08
						c-0.153,0.695-0.206,1.408-0.324,2.1c-0.082,0.7-0.163,1.388-0.241,2.054c-0.034,0.671-0.134,1.32-0.159,1.939
						c-0.039,0.622-0.076,1.21-0.11,1.753c-0.055,1.09-0.095,2.01-0.115,2.659C132.313,204.926,132.301,205.299,132.301,205.299z"/>
				</g>
				<g>
					<path fill="#F3EB85" d="M136.617,204.35c0,0,1.569,12.114,0,15.081"/>
					<path fill="#9A9143" d="M136.617,204.35c0,0,0.12,0.224,0.282,0.624c0.163,0.4,0.379,0.976,0.571,1.676
						c0.206,0.699,0.391,1.523,0.533,2.413c0.148,0.89,0.253,1.847,0.296,2.81c0.041,0.963,0.014,1.934-0.074,2.844
						c-0.089,0.912-0.242,1.764-0.459,2.484c-0.199,0.722-0.487,1.306-0.713,1.683c-0.27,0.374-0.436,0.546-0.436,0.546
						s0.008-0.27,0.041-0.669c-0.005-0.206-0.011-0.456-0.018-0.743c-0.001-0.278-0.054-0.61-0.059-0.951
						c-0.018-0.344-0.077-0.728-0.088-1.121c-0.027-0.396-0.088-0.82-0.098-1.252c-0.025-0.435-0.085-0.886-0.097-1.342
						c-0.038-0.459-0.049-0.924-0.075-1.391c-0.043-0.934-0.05-1.873-0.041-2.758c0.007-0.885,0.044-1.716,0.105-2.434
						C136.398,205.335,136.617,204.35,136.617,204.35z"/>
				</g>
				<g>
					<path fill="#F3EB85" d="M142.568,174.924c0,0,6.121-9.024,15.975,0"/>
					<path fill="#9A9143" d="M142.568,174.924c0,0,0.084-0.292,0.34-0.751c0.12-0.237,0.294-0.503,0.503-0.809
						c0.228-0.285,0.467-0.639,0.805-0.949c0.312-0.341,0.695-0.665,1.129-0.98c0.442-0.297,0.921-0.627,1.476-0.843
						c0.279-0.11,0.562-0.222,0.849-0.336c0.296-0.087,0.605-0.153,0.916-0.217c0.618-0.177,1.274-0.105,1.918-0.151
						c0.631,0.097,1.285,0.133,1.877,0.325c0.296,0.094,0.588,0.195,0.872,0.303c0.287,0.1,0.567,0.204,0.815,0.356
						c0.511,0.273,1,0.549,1.431,0.843c0.414,0.318,0.788,0.641,1.126,0.937c0.355,0.276,0.623,0.592,0.853,0.877
						c0.238,0.275,0.43,0.529,0.59,0.733c0.317,0.412,0.476,0.661,0.476,0.661s-0.284-0.117-0.744-0.346
						c-0.229-0.116-0.508-0.25-0.811-0.421c-0.303-0.171-0.646-0.357-1.037-0.519c-0.387-0.17-0.798-0.355-1.215-0.572
						c-0.436-0.176-0.91-0.307-1.369-0.504c-0.459-0.208-0.977-0.229-1.462-0.39c-0.495-0.119-1.005-0.129-1.507-0.209l-0.754,0.012
						l-0.377-0.003l-0.369,0.055c-0.248,0.032-0.494,0.063-0.737,0.094c-0.24,0.062-0.476,0.122-0.709,0.182
						c-0.464,0.129-0.911,0.299-1.335,0.469c-0.411,0.199-0.819,0.37-1.174,0.58c-0.723,0.396-1.316,0.794-1.727,1.09
						C142.803,174.734,142.568,174.924,142.568,174.924z"/>
				</g>
				<g>
					<path fill="#F3EB85" d="M148.351,174.924c0,0,5.201-3.29,13.196,1.962"/>
					<path fill="#9A9143" d="M148.351,174.924c0,0,0.141-0.188,0.454-0.459c0.314-0.26,0.804-0.597,1.455-0.877
						c0.327-0.123,0.686-0.285,1.081-0.369c0.394-0.109,0.817-0.179,1.259-0.223c0.442-0.059,0.9-0.04,1.367-0.039
						c0.46,0.046,0.935,0.079,1.394,0.175c0.453,0.118,0.923,0.186,1.348,0.362c0.429,0.161,0.861,0.297,1.242,0.506
						c0.386,0.198,0.754,0.397,1.092,0.598c0.327,0.223,0.625,0.45,0.896,0.66c0.557,0.394,0.928,0.857,1.204,1.141
						c0.267,0.301,0.405,0.487,0.405,0.487s-0.236-0.04-0.623-0.135c-0.393-0.083-0.906-0.278-1.54-0.436
						c-0.314-0.085-0.65-0.178-0.993-0.294c-0.352-0.092-0.721-0.184-1.093-0.297c-0.369-0.125-0.767-0.177-1.152-0.294
						c-0.387-0.116-0.789-0.164-1.183-0.259c-0.394-0.095-0.794-0.125-1.184-0.211c-0.392-0.029-0.779-0.108-1.156-0.128
						c-0.377-0.031-0.745-0.064-1.096-0.067c-0.354-0.025-0.686-0.01-1.004-0.02c-0.625,0.023-1.166,0.056-1.555,0.096
						C148.585,174.885,148.351,174.924,148.351,174.924z"/>
				</g>
			</g>
			<use xlink:href="#SVGID_1_"  overflow="visible" fill="none" stroke="#9A9143" stroke-width="2.0778" stroke-miterlimit="10"/>
		</g>
		<path fill="#E08227" stroke="#843B1C" stroke-width="2.0778" stroke-miterlimit="10" d="M155.392,176.245
			c0,0,1.405-4.869,3.784-5.244l7.258-1.177l-3.531,13.732l-6.693-3.783C154.958,179.064,154.579,177.434,155.392,176.245z"/>
		<g>
			<g>
				<defs>
					<path id="SVGID_3_" d="M237.949,187.72c-0.16,3.682,0.541,7.458,1.773,10.948c2.116,5.992,5.664,11.352,8.99,16.767
						c9.875,16.082,18.021,33.151,26.147,50.184c2.05,4.297,4.1,8.593,6.149,12.89c5.613-1.831,10.916-4.611,15.616-8.185
						c-2.676-1.484-5.355-2.965-8.034-4.444c-5.608-7.831-10.459-16.21-14.461-24.971c0.59-6.874-0.749-13.906-3.835-20.078
						c0,0-0.385-0.769-0.945-1.889c-0.43-6.102,0.693-12.342,1.186-18.499c0.623-7.778-0.061-16.364-5.373-22.079
						c-3.734-4.017-9.528-6.007-14.942-5.133c-3.624,0.585-7.005,2.441-9.529,5.1C238.928,181.203,238.093,184.424,237.949,187.72z"
						/>
				</defs>
				<use xlink:href="#SVGID_3_"  overflow="visible" fill="#AA7D50"/>
				<clipPath id="SVGID_4_">
					<use xlink:href="#SVGID_3_"  overflow="visible"/>
				</clipPath>
				<path clip-path="url(#SVGID_4_)" fill="#272135" stroke="#4B415E" stroke-width="2.0778" stroke-miterlimit="10" d="
					M271.592,273.837c0,0,3.903-2.602,19.753-8.924l14.273,6.59l-31.409,14.265L271.592,273.837z"/>
				<use xlink:href="#SVGID_3_"  overflow="visible" fill="none" stroke="#754D29" stroke-width="2.0778" stroke-miterlimit="10"/>
			</g>
			<circle fill="#AA7D50" stroke="#8D6439" stroke-width="2.0778" stroke-miterlimit="10" cx="258.735" cy="207.228" r="3.722"/>
			<circle fill="#AA7D50" stroke="#8D6439" stroke-width="2.0778" stroke-miterlimit="10" cx="255.013" cy="191.795" r="3.722"/>
		</g>
		<g>
			<g>
				<defs>
					<path id="SVGID_5_" d="M172.388,285.742c-6.025-0.78-11.92-2.566-17.364-5.266c1.338-14.712,4.176-29.287,8.466-43.414
						c7.061-7.527,10.94-17.965,10.47-28.279c-0.256-5.628-1.735-11.124-2.443-16.713c-0.708-5.589-0.573-11.547,2.157-16.475
						c1.664-3.004,4.513-5.473,7.711-6.592c5.631-2.111,12.291-0.366,16.366,3.948c2.397,2.538,3.869,5.812,4.948,9.132
						c3.86,11.873,3.069,25.192-2.169,36.526c-5.41,11.705-15.507,21.169-27.559,25.767c-2.842,10.469-4.388,21.29-4.591,32.136
						c1.873,2.839,3.294,5.974,4.205,9.257C172.52,285.759,172.454,285.751,172.388,285.742z"/>
				</defs>
				<use xlink:href="#SVGID_5_"  overflow="visible" fill="#AA7D50"/>
				<clipPath id="SVGID_6_">
					<use xlink:href="#SVGID_5_"  overflow="visible"/>
				</clipPath>
				<path clip-path="url(#SVGID_6_)" fill="#272135" stroke="#4B415E" stroke-width="2.0778" stroke-miterlimit="10" d="
					M155.023,270.265c0,0,4.571,1.054,20.046,8.244l5.001,14.905l-31.929-13.058L155.023,270.265z"/>
				<use xlink:href="#SVGID_5_"  overflow="visible" fill="none" stroke="#754D29" stroke-width="2.0778" stroke-miterlimit="10"/>
			</g>
			<circle fill="#AA7D50" stroke="#8D6439" stroke-width="2.0778" stroke-miterlimit="10" cx="186.742" cy="207.228" r="3.722"/>
			<circle fill="#AA7D50" stroke="#8D6439" stroke-width="2.0778" stroke-miterlimit="10" cx="186.742" cy="191.795" r="3.722"/>
		</g>
		<path fill="#991B26" stroke="#E83E52" stroke-width="2.0778" stroke-miterlimit="10" d="M312.482,254.882
			c-12.243,10.138-39.83,28.102-89.335,29.614s-78.137-14.735-90.976-24.107c-2.962-2.162-5.595,0.416-3.888,3.662
			c10.802,20.537,53.507,37.544,95.347,36.266c41.84-1.278,83.427-20.86,92.956-42.018
			C318.092,254.957,315.307,252.544,312.482,254.882z"/>
		<g>
			<defs>
				<path id="SVGID_7_" d="M259.348,158.659c0.446-0.649,0.854-1.322,1.219-2.011c2.535-4.786,3.352-10.273,3.987-15.652
					c0.635-5.379,1.147-10.858,3.16-15.886c3.822-9.55,10.964-17.892,29.282-19.955c4.085-1.476,8.07-3.226,11.923-5.232
					c0.501,2.701-0.082,5.597-1.615,7.88c-1.414,2.107-3.616,3.663-6.053,4.308c4.447,1.338,7.32,6.26,8.225,10.977
					c1,5.209,0.428,10.66,1.769,15.792c1.027,3.929,3.135,7.505,4.221,11.418c1.382,4.979,0.73,11.217-5.045,13.249
					c-1.555,0.547-3.249,0.621-4.87,0.319c-4.737-0.884-8.188-4.279-11.127-7.844c-1.279-1.551-2.931-3.333-4.905-2.951
					c-1.208,0.234-2.092,1.28-2.469,2.467c2.527,10.001,3.552,20.377,3.065,30.68c-0.127,2.693-0.517,5.372-1.185,7.985
					c-1.934,7.562-4.695,14.632-8.907,21.327c-3.188,5.067-8.509,8.366-14.464,8.981c-2.283,0.236-4.581,0.319-6.855,0.266
					c-10.47-0.242-20.684-3.045-30.875-5.458c-19.675-4.659-39.646-7.918-59.629-11.028c-4.955-8.695-7.284-18.83-6.831-28.825
					c0.14-3.08,1.153-6.044,2.941-8.556c2.431-3.417,5.238-6.569,8.35-9.379c3.848-3.475,8.997-5.136,14.17-4.778
					c4.27,0.296,9.185,0.789,11.781,1.351l30.75,6.657c2.915,0.631,5.885,0.988,8.867,1.015
					C252.355,165.903,255.998,163.529,259.348,158.659z"/>
			</defs>
			<use xlink:href="#SVGID_7_"  overflow="visible" fill="#C3996B"/>
			<clipPath id="SVGID_8_">
				<use xlink:href="#SVGID_7_"  overflow="visible"/>
			</clipPath>
			<g clip-path="url(#SVGID_8_)">
				<path fill="#E08227" stroke="#843B1C" stroke-width="2.0778" stroke-miterlimit="10" d="M315.921,137.651
					c-5.128,1.94-9.59,4.811-13.223,7.712l-11.071-12.581c2.703-6.045,7.892-12.385,17.429-17.691l0.196-4.904
					c-11.012,5.619-17.218,12.497-20.582,19.234l-10.021-11.387l-2.55,3.727l10.715,12.176c-3.192,9.674-1.228,18.374-0.217,21.7
					c0.224,0.736,1.085,1.048,1.731,0.63l2.092-1.353c0,0-2.954-7.809-0.454-17.396l9.411,10.694
					c-4.599,4.238-7.192,7.878-7.192,7.878l3.335,3.727c0,0,9.22-12.948,23.737-18.44L315.921,137.651z"/>
				<circle fill="#F6C444" stroke="#A36A28" stroke-width="2.0778" stroke-miterlimit="10" cx="289.241" cy="133.139" r="2.943"/>
				<circle fill="#F6C444" stroke="#A36A28" stroke-width="2.0778" stroke-miterlimit="10" cx="301.992" cy="148.244" r="2.943"/>
			</g>
			<use xlink:href="#SVGID_7_"  overflow="visible" fill="none" stroke="#754D29" stroke-width="2.0778" stroke-miterlimit="10"/>
		</g>
		<g>
			<g>
				<defs>
					<path id="SVGID_9_" d="M165.716,285.742c-6.025-0.78-11.92-2.566-17.364-5.266c1.338-14.712,4.176-29.287,8.466-43.414
						c7.061-7.527,10.94-17.965,10.47-28.279c-0.256-5.628-1.735-11.124-2.443-16.713c-0.708-5.589-0.573-11.547,2.157-16.475
						c1.664-3.004,4.513-5.473,7.711-6.592c5.631-2.111,12.291-0.366,16.366,3.948c2.397,2.538,3.869,5.812,4.948,9.132
						c3.86,11.873,3.069,25.192-2.169,36.526c-5.41,11.705-15.507,21.169-27.559,25.767c-2.842,10.469-4.388,21.29-4.591,32.136
						c1.873,2.839,3.294,5.974,4.205,9.257C165.848,285.759,165.782,285.751,165.716,285.742z"/>
				</defs>
				<use xlink:href="#SVGID_9_"  overflow="visible" fill="#C3996B"/>
				<clipPath id="SVGID_10_">
					<use xlink:href="#SVGID_9_"  overflow="visible"/>
				</clipPath>
				<path clip-path="url(#SVGID_10_)" fill="#272135" stroke="#4B415E" stroke-width="2.0778" stroke-miterlimit="10" d="
					M148.351,270.265c0,0,4.571,1.054,20.046,8.244l5.001,14.905l-31.929-13.058L148.351,270.265z"/>
				<use xlink:href="#SVGID_9_"  overflow="visible" fill="none" stroke="#754D29" stroke-width="2.0778" stroke-miterlimit="10"/>
			</g>
			<circle fill="#E4B687" stroke="#986B44" stroke-width="2.0778" stroke-miterlimit="10" cx="180.07" cy="207.228" r="3.722"/>
			<circle fill="#E4B687" stroke="#986B44" stroke-width="2.0778" stroke-miterlimit="10" cx="180.07" cy="191.795" r="3.722"/>
		</g>
		<g>
			<g>
				<defs>
					<path id="SVGID_11_" d="M242.767,187.72c-0.16,3.682,0.541,7.458,1.773,10.948c2.116,5.992,5.664,11.352,8.99,16.767
						c9.875,16.082,18.021,33.151,26.147,50.184c2.05,4.297,4.1,8.593,6.149,12.89c5.613-1.831,10.916-4.611,15.616-8.185
						c-2.676-1.484-5.355-2.965-8.034-4.444c-5.608-7.831-10.459-16.21-14.461-24.971c0.59-6.874-0.749-13.906-3.835-20.078
						c0,0-0.384-0.769-0.945-1.889c-0.43-6.102,0.693-12.342,1.186-18.499c0.623-7.778-0.061-16.364-5.373-22.079
						c-3.734-4.017-9.528-6.007-14.942-5.133c-3.624,0.585-7.005,2.441-9.529,5.1C243.745,181.203,242.911,184.424,242.767,187.72z"
						/>
				</defs>
				<use xlink:href="#SVGID_11_"  overflow="visible" fill="#C3996B"/>
				<clipPath id="SVGID_12_">
					<use xlink:href="#SVGID_11_"  overflow="visible"/>
				</clipPath>
				<path clip-path="url(#SVGID_12_)" fill="#272135" stroke="#4B415E" stroke-width="2.0778" stroke-miterlimit="10" d="
					M276.41,273.837c0,0,3.903-2.602,19.753-8.924l14.273,6.59l-31.409,14.265L276.41,273.837z"/>
				<use xlink:href="#SVGID_11_"  overflow="visible" fill="none" stroke="#754D29" stroke-width="2.0778" stroke-miterlimit="10"/>
			</g>
			<circle fill="#E4B687" stroke="#986B44" stroke-width="2.0778" stroke-miterlimit="10" cx="263.553" cy="207.228" r="3.722"/>
			<circle fill="#E4B687" stroke="#986B44" stroke-width="2.0778" stroke-miterlimit="10" cx="259.83" cy="191.795" r="3.722"/>
		</g>
		<path fill="#F3EB85" stroke="#9A9143" stroke-width="2.0778" stroke-miterlimit="10" d="M251.29,164.597
			c0,0,17.156,12.682,22.747-13.802l1.766,7.062c0,0,4.673-1.887,0-20.598l3.825,4.414c0,0,1.177-4.414-1.766-14.713
			c0,0,1.471-5.885,7.357-10.888c5.885-5.002,7.432-10.274,7.432-10.274s-22.464-9.279-31.562,20.279
			C256.108,142.261,263.012,158.501,251.29,164.597z"/>
		<path fill="#E08227" stroke="#9A4C23" stroke-width="2.0778" stroke-miterlimit="10" d="M213.419,203.506l3.263,14.65
			c0.164,0.735,0.733,1.312,1.466,1.486l7.01,1.66c1.392,0.33,2.659-0.89,2.382-2.294l-3.529-17.895L213.419,203.506z"/>
		<polygon fill="#E08227" stroke="#9A4C23" stroke-width="2.0778" stroke-miterlimit="10" points="210.409,160.659 231.645,165.197
			234.508,190.226 227.58,201.114 211.359,199.054 206.063,185.91 		"/>

			<path fill="none" stroke="#674322" stroke-width="2.0778" stroke-linecap="round" stroke-linejoin="round" stroke-miterlimit="10" d="
			M301.442,153.345c0,0,1.125,12.165,8.979,10.202"/>

			<ellipse transform="matrix(-0.678 -0.7351 0.7351 -0.678 410.3507 446.0749)" fill="#231F20" cx="302.888" cy="133.151" rx="1.428" ry="3.771"/>

			<path fill="none" stroke="#674322" stroke-width="2.0778" stroke-linecap="round" stroke-linejoin="round" stroke-miterlimit="10" d="
			M309.251,151.972c0,0-0.196,3.531,2.55,4.512c0,0,0.196-2.55-1.766-5.885L309.251,151.972z"/>
		<g>
			<defs>
				<path id="SVGID_13_" d="M318.931,256.464c-13.125,10.868-42.699,30.127-95.771,31.748c-53.071,1.621-83.766-15.796-97.53-25.843
					c-3.175-2.318-5.998,0.446-4.168,3.926c11.581,22.016,57.362,40.249,102.216,38.879s89.437-22.363,99.652-45.045
					C324.945,256.544,321.959,253.957,318.931,256.464z"/>
			</defs>
			<use xlink:href="#SVGID_13_"  overflow="visible" fill="#BE1E2D"/>
			<clipPath id="SVGID_14_">
				<use xlink:href="#SVGID_13_"  overflow="visible"/>
			</clipPath>
			<path clip-path="url(#SVGID_14_)" fill="#262261" stroke="#5657A4" stroke-width="2.0778" stroke-miterlimit="10" d="
				M317.202,259.297l-1.219,22.205l-16.486-10.284l-6.986,22.786l-16.649-13.222l-7.607,22.231l-16.257-16.78l-8.782,22.297
				l-19.405-19.85c-0.063-0.056-18.926,20.819-18.926,20.819l-10.005-21.775l-15.302,17.656l-8.828-21.775l-15.89,14.125
				l-8.239-22.364l-15.89,11.182l-2.448-22.103l-14.031,7.39l7.651,31.78l86.513,15.89l25.307,4.12c0,0-0.5-1.756-1.281-4.474
				l7.803-0.433l85.499-20.663l5.877-32.156L317.202,259.297z"/>
			<use xlink:href="#SVGID_13_"  overflow="visible" fill="none" stroke="#E83E52" stroke-width="2.0778" stroke-miterlimit="10"/>
		</g>
		<g>
			<path fill="#F3EB85" d="M260.992,160.407c0,0,1.962-7.847,0.785-24.718s7.455-22.756,7.455-22.756"/>
			<path fill="#9A9143" d="M260.992,160.407c0,0,0.097-0.775,0.179-2.129c0.033-0.676,0.072-1.498,0.118-2.44
				c0.02-0.941,0.042-2.003,0.066-3.161c-0.004-1.157-0.009-2.41-0.014-3.736c-0.035-1.324-0.072-2.721-0.111-4.165
				c-0.047-1.444-0.129-2.935-0.206-4.45c-0.063-1.531-0.182-3.018-0.287-4.627c-0.04-1.554-0.13-3.08-0.021-4.69
				c0.016-0.396,0.033-0.79,0.049-1.182c0.049-0.386,0.097-0.771,0.146-1.152c0.102-0.763,0.175-1.518,0.348-2.249
				c0.552-2.941,1.55-5.596,2.735-7.671c0.582-1.044,1.204-1.949,1.817-2.696c0.592-0.763,1.192-1.36,1.701-1.824
				c0.501-0.474,0.947-0.786,1.245-0.999c0.303-0.208,0.473-0.303,0.473-0.303s-0.594,0.516-1.415,1.583
				c-0.414,0.528-0.88,1.198-1.352,1.998c-0.481,0.793-0.948,1.731-1.4,2.771c-0.89,2.089-1.616,4.643-1.999,7.445
				c-0.132,0.693-0.165,1.416-0.228,2.141c-0.074,0.727-0.108,1.458-0.114,2.191c-0.085,1.443,0.03,3.018,0.09,4.565
				c0.074,1.489,0.176,3.097,0.214,4.619c0.069,1.536,0.036,3.051,0.028,4.516c-0.01,1.465-0.091,2.881-0.169,4.222
				c-0.083,1.341-0.209,2.607-0.346,3.772c-0.135,1.166-0.3,2.229-0.465,3.168c-0.163,0.939-0.34,1.752-0.498,2.418
				C261.258,159.672,260.992,160.407,260.992,160.407z"/>
		</g>
		<g>
			<path fill="#F3EB85" d="M266.877,153.737c0,0,1.569-6.67-1.962-20.795"/>
			<path fill="#9A9143" d="M266.877,153.737c0,0-0.022-0.334-0.06-0.918c-0.039-0.578-0.12-1.396-0.211-2.367
				c-0.102-0.966-0.221-2.093-0.348-3.301c-0.142-1.202-0.294-2.485-0.446-3.767c-0.074-0.643-0.149-1.285-0.222-1.918
				c-0.069-0.635-0.137-1.26-0.202-1.865c-0.084-0.603-0.119-1.195-0.176-1.754c-0.069-0.556-0.11-1.088-0.144-1.581
				c-0.07-0.985-0.136-1.81-0.146-2.397c-0.019-0.585-0.006-0.927-0.006-0.927s0.163,0.297,0.408,0.831
				c0.238,0.535,0.599,1.297,0.911,2.245c0.338,0.942,0.679,2.057,0.957,3.274c0.291,1.214,0.536,2.526,0.684,3.853
				c0.081,0.662,0.134,1.329,0.168,1.986c0.055,0.655,0.023,1.308,0.037,1.934c-0.022,1.257-0.112,2.431-0.288,3.429
				c-0.154,0.998-0.376,1.818-0.569,2.379C267.037,153.435,266.877,153.737,266.877,153.737z"/>
		</g>
		<g>
			<path fill="#F3EB85" d="M273.939,126.273c0,0-1.822-9.143,9.024-13.732c10.201-4.316,9.689-6.742,9.689-6.742
				c-10.473-3.066-16.751,4.388-16.751,4.388"/>
			<path fill="#9A9143" d="M273.939,126.273c-0.162-0.604-0.262-1.234-0.292-1.866c-0.037-0.633-0.025-1.274,0.051-1.911
				c0.024-0.321,0.085-0.636,0.149-0.952c0.058-0.318,0.12-0.636,0.222-0.943c0.155-0.633,0.417-1.229,0.679-1.83
				c0.299-0.576,0.597-1.17,0.98-1.702c0.379-0.537,0.774-1.067,1.243-1.528c0.229-0.235,0.444-0.49,0.687-0.71l0.751-0.637
				c0.485-0.453,1.047-0.787,1.595-1.145c0.538-0.381,1.123-0.663,1.703-0.958l0.871-0.444l0.833-0.39
				c1.153-0.512,2.214-1.022,3.29-1.605c0.544-0.275,1.049-0.596,1.573-0.892c0.507-0.312,1.013-0.625,1.484-0.967
				c0.47-0.34,0.918-0.702,1.283-1.084c0.185-0.189,0.348-0.386,0.462-0.566c0.066-0.094,0.1-0.172,0.136-0.244
				c0.006-0.025,0.018-0.056,0.023-0.067c0.009,0.025-0.013-0.08,0.023,0.172l0.69,0.745l-1.046-0.277
				c-0.35-0.082-0.695-0.212-1.053-0.248l-1.068-0.167c-0.356-0.074-0.716-0.068-1.075-0.091c-0.359-0.014-0.72-0.069-1.08-0.053
				l-1.083,0.039c-0.364-0.003-0.717,0.084-1.078,0.121c-0.361,0.043-0.72,0.097-1.074,0.184c-0.353,0.085-0.719,0.136-1.067,0.248
				l-1.052,0.325l-1.03,0.403c-0.341,0.142-0.672,0.309-1.012,0.463c-0.662,0.339-1.314,0.708-1.945,1.119
				c-0.623,0.421-1.244,0.859-1.811,1.373c0.451-0.617,0.965-1.198,1.531-1.725c0.562-0.532,1.168-1.021,1.81-1.465
				c0.643-0.443,1.319-0.841,2.023-1.198l1.084-0.474c0.362-0.162,0.746-0.263,1.12-0.397c0.373-0.142,0.761-0.23,1.151-0.309
				c0.39-0.074,0.776-0.197,1.174-0.229l1.192-0.14c0.398-0.047,0.798-0.025,1.199-0.038c0.4,0.006,0.804-0.016,1.2,0.043
				l1.194,0.127c0.403,0.024,0.785,0.143,1.178,0.216l1.173,0.252l0.605,0.13l0.085,0.615c0.056,0.407,0.008,0.457-0.01,0.635
				c-0.03,0.14-0.069,0.257-0.11,0.38c-0.088,0.214-0.186,0.417-0.295,0.582c-0.214,0.349-0.45,0.633-0.694,0.894
				c-0.488,0.525-1.008,0.954-1.539,1.352s-1.077,0.75-1.625,1.098c-0.559,0.316-1.116,0.647-1.687,0.928
				c-1.121,0.586-2.317,1.135-3.446,1.614l-0.876,0.362l-0.811,0.367c-0.542,0.243-1.094,0.473-1.589,0.794
				c-0.509,0.299-1.034,0.58-1.495,0.942l-0.719,0.514c-0.234,0.179-0.438,0.389-0.659,0.582c-0.459,0.375-0.834,0.825-1.225,1.266
				c-0.397,0.436-0.717,0.935-1.049,1.426c-0.297,0.512-0.588,1.032-0.818,1.586c-0.135,0.269-0.233,0.553-0.328,0.838
				c-0.102,0.284-0.201,0.57-0.266,0.866c-0.16,0.585-0.287,1.186-0.353,1.796C273.946,125.028,273.9,125.649,273.939,126.273z"/>
		</g>
		<path fill="#F89B36" stroke="#9A4C23" stroke-width="2.0778" stroke-miterlimit="10" d="M237.75,185.623l-2.169-19.716
			c-0.163-1.341-1.42-2.269-2.749-2.03l-3.505-0.757c-0.832-0.18-1.599,0.502-1.518,1.35l2.286,23.9
			c0,9.416-10.317,8.823-10.317,8.823s-10.317,0.593-10.317-8.823l2.626-27.458c0.065-0.685-0.405-1.305-1.082-1.426l-3.44-0.617
			c-1.329-0.238-2.586,0.69-2.749,2.03l-3.017,24.774c-0.439,3.609-0.069,7.304,1.322,10.664
			c4.603,11.122,15.446,10.938,16.657,10.882c1.2,0.056,11.86,0.237,16.532-10.586C237.8,193.18,238.205,189.355,237.75,185.623z"/>
		<circle fill="#F6C444" stroke="#A36A28" stroke-width="2.0778" stroke-miterlimit="10" cx="208.123" cy="164.821" r="1.667"/>
		<circle fill="#F6C444" stroke="#A36A28" stroke-width="2.0778" stroke-miterlimit="10" cx="206.945" cy="173.845" r="1.667"/>
		<circle fill="#F6C444" stroke="#A36A28" stroke-width="2.0778" stroke-miterlimit="10" cx="205.867" cy="184.733" r="1.667"/>
		<circle fill="#F6C444" stroke="#A36A28" stroke-width="2.0778" stroke-miterlimit="10" cx="207.534" cy="195.326" r="1.667"/>
		<circle fill="#F6C444" stroke="#A36A28" stroke-width="2.0778" stroke-miterlimit="10" cx="215.97" cy="201.408" r="1.667"/>
		<circle fill="#F6C444" stroke="#A36A28" stroke-width="2.0778" stroke-miterlimit="10" cx="226.367" cy="200.231" r="1.667"/>
		<circle fill="#F6C444" stroke="#A36A28" stroke-width="2.0778" stroke-miterlimit="10" cx="233.429" cy="193.365" r="1.667"/>
		<circle fill="#F6C444" stroke="#A36A28" stroke-width="2.0778" stroke-miterlimit="10" cx="233.625" cy="185.125" r="1.667"/>
		<circle fill="#F6C444" stroke="#A36A28" stroke-width="2.0778" stroke-miterlimit="10" cx="232.644" cy="175.905" r="1.667"/>
		<circle fill="#F6C444" stroke="#A36A28" stroke-width="2.0778" stroke-miterlimit="10" cx="232.056" cy="168.647" r="1.667"/>
	</g>
	<g>
		<path fill="#C3996B" stroke="#8D6439" stroke-width="2.0778" stroke-miterlimit="10" d="M378.322,230.445
			c0-3.476-3.438-6.293-7.678-6.293s-7.678,2.817-7.678,6.293c0,2.269,1.478,4.24,3.676,5.347v20.565h8.006v-20.565
			C376.844,234.685,378.322,232.714,378.322,230.445z"/>
		<path fill="#0B80B8" stroke="#035D80" stroke-width="2.0778" stroke-miterlimit="10" d="M408.44,305.246h-75.592
			c-1.312,0-2.375-1.063-2.375-2.375v-8.409c0-1.312,1.063-2.375,2.375-2.375h75.592c1.312,0,2.375,1.063,2.375,2.375v8.409
			C410.815,304.183,409.752,305.246,408.44,305.246z"/>
		<path fill="#00A54D" stroke="#016836" stroke-width="2.0778" stroke-miterlimit="10" d="M400.384,291.74h-59.48
			c-1.553,0-2.812-1.259-2.812-2.812v-9.959c0-1.553,1.259-2.812,2.812-2.812h59.48c1.553,0,2.812,1.259,2.812,2.812v9.959
			C403.196,290.481,401.937,291.74,400.384,291.74z"/>
		<path fill="#F8E511" stroke="#B3A032" stroke-width="2.0778" stroke-miterlimit="10" d="M394.415,275.118h-47.541
			c-1.312,0-2.375-1.063-2.375-2.375v-8.409c0-1.312,1.063-2.375,2.375-2.375h47.541c1.312,0,2.375,1.063,2.375,2.375v8.409
			C396.79,274.054,395.726,275.118,394.415,275.118z"/>
		<path fill="#F89B36" stroke="#B66528" stroke-width="2.0778" stroke-miterlimit="10" d="M390.225,261.266h-39.163
			c-1.139,0-2.062-0.923-2.062-2.062V251.9c0-1.139,0.923-2.062,2.062-2.062h39.163c1.139,0,2.062,0.923,2.062,2.062v7.303
			C392.288,260.342,391.364,261.266,390.225,261.266z"/>
		<path fill="#ED3149" stroke="#A31D29" stroke-width="2.0778" stroke-miterlimit="10" d="M384.747,248.799h-28.206
			c-1.105,0-2-0.895-2-2v-7.082c0-1.105,0.895-2,2-2h28.206c1.105,0,2,0.895,2,2v7.082
			C386.747,247.903,385.852,248.799,384.747,248.799z"/>
	</g>
	<g>
		<g>
			<g>
				<g>
					<g>
						<defs>
							<path id="SVGID_15_" d="M56.704,280.807c-1.26-1.87-3.091-3.353-5.192-4.17l-3.547,0.564l-3.547-0.564
								c-2.101,0.817-3.932,2.301-5.192,4.17c-0.431,0.639-0.425,1.501-0.022,2.157c0.767,1.248,1.69,2.401,2.741,3.421
								c0.344,0.335,0.703,0.654,1.074,0.959c2.128-0.009,4.063-0.012,4.944-0.013c0.881,0.001,2.817,0.003,4.944,0.013
								c0.372-0.305,0.73-0.625,1.074-0.959c1.052-1.02,1.974-2.173,2.741-3.421C57.129,282.308,57.135,281.447,56.704,280.807z"/>
						</defs>
						<use xlink:href="#SVGID_15_"  overflow="visible" fill="#707B8D"/>
						<clipPath id="SVGID_16_">
							<use xlink:href="#SVGID_15_"  overflow="visible"/>
						</clipPath>

							<line clip-path="url(#SVGID_16_)" fill="#707B8D" stroke="#3E4856" stroke-width="1.697" stroke-miterlimit="10" x1="35.461" y1="281.991" x2="58.843" y2="281.991"/>

							<use xlink:href="#SVGID_15_"  overflow="visible" fill="none" stroke="#3E4856" stroke-width="1.697" stroke-miterlimit="10"/>
					</g>
					<g>
						<defs>
							<path id="SVGID_17_" d="M48.695,277.342c1.74,0,3.479,0.003,5.219,0.008c1.114-0.971,1.946-2.272,2.334-3.697
								c-2.951-4.318-5.89-8.644-8.828-12.972c-2.585,0.937-4.9,2.586-6.666,4.69c-0.895,1.066-1.196,2.5-0.935,3.867
								c0.551,2.885,1.679,5.661,3.302,8.109C44.979,277.344,46.837,277.342,48.695,277.342z"/>
						</defs>
						<use xlink:href="#SVGID_17_"  overflow="visible" fill="#707B8D"/>
						<clipPath id="SVGID_18_">
							<use xlink:href="#SVGID_17_"  overflow="visible"/>
						</clipPath>
						<path clip-path="url(#SVGID_18_)" fill="#707B8D" stroke="#3E4856" stroke-width="1.697" stroke-miterlimit="10" d="
							M37.417,265.008c6.004,5.681,13.208,10.088,20.999,12.848"/>

							<use xlink:href="#SVGID_17_"  overflow="visible" fill="none" stroke="#3E4856" stroke-width="1.697" stroke-miterlimit="10"/>
					</g>
					<path fill="#707B8D" stroke="#3E4856" stroke-width="1.697" stroke-miterlimit="10" d="M54.255,292.599
						c-0.125-1.364-0.253-2.744-0.71-4.035c-0.226-0.639-0.543-1.258-0.953-1.797c-1.247,0-2.495,0-3.743,0
						c-0.589,0-1.178,0-1.768,0c-1.247,0-2.495,0-3.743,0c-0.41,0.539-0.727,1.159-0.953,1.797c-0.457,1.291-0.586,2.671-0.71,4.035
						c-0.248,2.707-0.496,5.414-0.743,8.121c0.248,0,0.496,0,0.744,0c1.802,0,3.603,0,5.405,0c0.589,0,1.178,0,1.768,0h3.118
						c1.627,0,2.903-1.398,2.755-3.018C54.567,296.001,54.411,294.3,54.255,292.599z"/>
					<g>
						<defs>
							<path id="SVGID_19_" d="M53.12,297.245c0.671,2.294,1.022,4.691,1.298,7.088c0.056,0.486-0.328,0.913-0.818,0.913
								c-5.096,0-10.191,0-15.287,0c-0.517,0-0.923-0.477-0.819-0.983c0.886-4.301,3.038-8.337,6.13-11.456
								c1.247-1.258,2.879-2.44,4.63-2.171c1.793,0.276,3.004,1.968,3.761,3.617C52.46,295.224,52.821,296.224,53.12,297.245z"/>
						</defs>
						<use xlink:href="#SVGID_19_"  overflow="visible" fill="#ECC58D"/>
						<clipPath id="SVGID_20_">
							<use xlink:href="#SVGID_19_"  overflow="visible"/>
						</clipPath>

							<line clip-path="url(#SVGID_20_)" fill="#ECC58D" stroke="#86673A" stroke-width="1.697" stroke-miterlimit="10" x1="34.624" y1="300.72" x2="58.277" y2="300.72"/>

							<use xlink:href="#SVGID_19_"  overflow="visible" fill="none" stroke="#86673A" stroke-width="1.697" stroke-miterlimit="10"/>
					</g>
				</g>
				<g>
					<g>
						<defs>
							<path id="SVGID_21_" d="M60.208,280.807c1.26-1.87,3.091-3.353,5.192-4.17l3.547,0.564l3.547-0.564
								c2.101,0.817,3.932,2.301,5.192,4.17c0.431,0.639,0.425,1.501,0.022,2.157c-0.767,1.248-1.69,2.401-2.741,3.421
								c-0.344,0.335-0.703,0.654-1.074,0.959c-2.128-0.009-4.063-0.012-4.944-0.013c-0.881,0.001-2.817,0.003-4.944,0.013
								c-0.372-0.305-0.73-0.625-1.074-0.959c-1.052-1.02-1.974-2.173-2.741-3.421C59.783,282.308,59.777,281.447,60.208,280.807z"
								/>
						</defs>
						<use xlink:href="#SVGID_21_"  overflow="visible" fill="#707B8D"/>
						<clipPath id="SVGID_22_">
							<use xlink:href="#SVGID_21_"  overflow="visible"/>
						</clipPath>

							<line clip-path="url(#SVGID_22_)" fill="#707B8D" stroke="#3E4856" stroke-width="1.697" stroke-miterlimit="10" x1="81.45" y1="281.991" x2="58.069" y2="281.991"/>

							<use xlink:href="#SVGID_21_"  overflow="visible" fill="none" stroke="#3E4856" stroke-width="1.697" stroke-miterlimit="10"/>
					</g>
					<g>
						<defs>
							<path id="SVGID_23_" d="M68.216,277.342c-1.74,0-3.479,0.003-5.219,0.008c-1.114-0.971-1.946-2.272-2.334-3.697
								c2.951-4.318,5.89-8.644,8.828-12.972c2.585,0.937,4.9,2.586,6.666,4.69c0.895,1.066,1.196,2.5,0.935,3.867
								c-0.551,2.885-1.679,5.661-3.302,8.109C71.932,277.344,70.074,277.342,68.216,277.342z"/>
						</defs>
						<use xlink:href="#SVGID_23_"  overflow="visible" fill="#707B8D"/>
						<clipPath id="SVGID_24_">
							<use xlink:href="#SVGID_23_"  overflow="visible"/>
						</clipPath>
						<path clip-path="url(#SVGID_24_)" fill="#707B8D" stroke="#3E4856" stroke-width="1.697" stroke-miterlimit="10" d="
							M79.495,265.008c-6.004,5.681-13.208,10.088-20.999,12.848"/>

							<use xlink:href="#SVGID_23_"  overflow="visible" fill="none" stroke="#3E4856" stroke-width="1.697" stroke-miterlimit="10"/>
					</g>
					<path fill="#707B8D" stroke="#3E4856" stroke-width="1.697" stroke-miterlimit="10" d="M62.656,292.599
						c0.125-1.364,0.253-2.744,0.71-4.035c0.226-0.639,0.543-1.258,0.953-1.797c1.247,0,2.495,0,3.743,0c0.589,0,1.178,0,1.768,0
						c1.247,0,2.495,0,3.743,0c0.41,0.539,0.727,1.159,0.953,1.797c0.457,1.291,0.586,2.671,0.71,4.035
						c0.248,2.707,0.496,5.414,0.743,8.121c-0.248,0-0.496,0-0.744,0c-1.802,0-3.603,0-5.405,0c-0.589,0-1.178,0-1.768,0h-3.118
						c-1.627,0-2.903-1.398-2.755-3.018C62.345,296.001,62.501,294.3,62.656,292.599z"/>
					<g>
						<defs>
							<path id="SVGID_25_" d="M63.792,297.245c-0.671,2.294-1.022,4.691-1.298,7.088c-0.056,0.486,0.328,0.913,0.818,0.913
								c5.096,0,10.191,0,15.287,0c0.517,0,0.923-0.477,0.819-0.983c-0.886-4.301-3.038-8.337-6.13-11.456
								c-1.247-1.258-2.879-2.44-4.63-2.171c-1.793,0.276-3.004,1.968-3.761,3.617C64.452,295.224,64.09,296.224,63.792,297.245z"/>
						</defs>
						<use xlink:href="#SVGID_25_"  overflow="visible" fill="#ECC58D"/>
						<clipPath id="SVGID_26_">
							<use xlink:href="#SVGID_25_"  overflow="visible"/>
						</clipPath>

							<line clip-path="url(#SVGID_26_)" fill="#ECC58D" stroke="#86673A" stroke-width="1.697" stroke-miterlimit="10" x1="82.287" y1="300.72" x2="58.634" y2="300.72"/>

							<use xlink:href="#SVGID_25_"  overflow="visible" fill="none" stroke="#86673A" stroke-width="1.697" stroke-miterlimit="10"/>
					</g>
				</g>
			</g>
			<path fill="#3B4549" stroke="#76878B" stroke-width="1.697" stroke-miterlimit="10" d="M67.919,254.712h-8.556h-1.815h-8.555
				c-5.468,1.886-3.677,6.788-3.677,6.788l9.173,12.754c0.456,0.634,1.19,1.01,1.971,1.01h1.088h1.815h1.089
				c0.781,0,1.515-0.376,1.971-1.01l9.173-12.754C71.596,261.5,73.387,256.597,67.919,254.712z"/>
		</g>
		<path fill="#ECC58D" stroke="#86673A" stroke-width="1.697" stroke-miterlimit="10" d="M61.487,251.6h-6.062h-12.35v2.964
			c0,1.799,1.609,3.258,3.595,3.258h8.755h6.062h8.755c1.985,0,3.595-1.459,3.595-3.258V251.6H61.487z"/>
		<g>
			<g>
				<g>
					<g>
						<defs>
							<path id="SVGID_27_" d="M14.874,266.578c-0.214,0.125-0.425,0.254-0.634,0.387c-2.727-7.053-3.767-15.013-1.356-22.175
								c2.383-7.077,8.622-13.098,16.021-13.895c-0.394,3.134-0.427,6.311-0.113,9.454c-2.84,0.74-5.153,3.032-6.442,5.696
								c-1.395,2.884-1.744,6.162-1.772,9.366c-0.027,3.094,0.253,6.29,1.746,9.006c-0.701-0.173-1.473-0.063-2.191,0.097
								C18.288,264.925,16.507,265.626,14.874,266.578z"/>
						</defs>
						<use xlink:href="#SVGID_27_"  overflow="visible" fill="#B4B8C7"/>
						<clipPath id="SVGID_28_">
							<use xlink:href="#SVGID_27_"  overflow="visible"/>
						</clipPath>
						<g clip-path="url(#SVGID_28_)">
							<path fill="#B4B8C7" stroke="#4E5668" stroke-width="1.697" stroke-miterlimit="10" d="M19.389,233.248
								c1.313,3.628,3.504,6.936,6.332,9.561"/>
							<path fill="#B4B8C7" stroke="#4E5668" stroke-width="1.697" stroke-miterlimit="10" d="M12.615,240.627
								c2.479,3.2,5.998,5.581,9.889,6.694"/>
							<path fill="#B4B8C7" stroke="#4E5668" stroke-width="1.697" stroke-miterlimit="10" d="M10.447,250.722
								c3.121,2.222,7.169,3.097,10.929,2.363"/>
							<path fill="#B4B8C7" stroke="#4E5668" stroke-width="1.697" stroke-miterlimit="10" d="M10.054,258.661
								c3.751,1.825,8.408,1.645,12.007-0.463"/>
						</g>

							<use xlink:href="#SVGID_27_"  overflow="visible" fill="none" stroke="#4E5668" stroke-width="1.697" stroke-miterlimit="10"/>
					</g>

						<path fill="#89878D" stroke="#413F42" stroke-width="1.697" stroke-linecap="round" stroke-linejoin="round" stroke-miterlimit="10" d="
						M20,279.519l1.051-3.922c-0.725-0.175-1.416-0.531-1.982-1.097c-1.637-1.637-1.637-4.291,0-5.929
						c1.637-1.637,4.291-1.637,5.928,0c0.566,0.566,0.923,1.257,1.097,1.982l3.922-1.051l0.04,0.04
						c-0.35-1.417-1.049-2.766-2.157-3.873c-3.24-3.24-8.493-3.24-11.733,0c-3.24,3.24-3.24,8.493,0,11.733
						c1.107,1.107,2.457,1.807,3.874,2.157L20,279.519z"/>
				</g>
				<path fill="#ECC58D" stroke="#86673A" stroke-width="1.697" stroke-miterlimit="10" d="M35.233,225.07v24.551H35.21
					c-5.295,0-9.617-4.299-9.617-9.617v-5.317c0-5.317,4.322-9.617,9.617-9.617H35.233z"/>
			</g>
			<g>
				<g>
					<g>
						<defs>
							<path id="SVGID_29_" d="M102.038,266.578c0.214,0.125,0.425,0.254,0.634,0.387c2.727-7.053,3.767-15.013,1.356-22.175
								c-2.383-7.077-8.622-13.098-16.021-13.895c0.394,3.134,0.427,6.311,0.113,9.454c2.84,0.74,5.153,3.032,6.442,5.696
								c1.395,2.884,1.744,6.162,1.772,9.366c0.027,3.094-0.253,6.29-1.746,9.006c0.701-0.173,1.473-0.063,2.191,0.097
								C98.624,264.925,100.405,265.626,102.038,266.578z"/>
						</defs>
						<use xlink:href="#SVGID_29_"  overflow="visible" fill="#B4B8C7"/>
						<clipPath id="SVGID_30_">
							<use xlink:href="#SVGID_29_"  overflow="visible"/>
						</clipPath>
						<g clip-path="url(#SVGID_30_)">
							<path fill="#B4B8C7" stroke="#4E5668" stroke-width="1.697" stroke-miterlimit="10" d="M97.522,233.248
								c-1.313,3.628-3.504,6.936-6.332,9.561"/>
							<path fill="#B4B8C7" stroke="#4E5668" stroke-width="1.697" stroke-miterlimit="10" d="M104.297,240.627
								c-2.479,3.2-5.998,5.581-9.889,6.694"/>
							<path fill="#B4B8C7" stroke="#4E5668" stroke-width="1.697" stroke-miterlimit="10" d="M106.464,250.722
								c-3.121,2.222-7.169,3.097-10.929,2.363"/>
							<path fill="#B4B8C7" stroke="#4E5668" stroke-width="1.697" stroke-miterlimit="10" d="M106.858,258.661
								c-3.751,1.825-8.408,1.645-12.007-0.463"/>
						</g>

							<use xlink:href="#SVGID_29_"  overflow="visible" fill="none" stroke="#4E5668" stroke-width="1.697" stroke-miterlimit="10"/>
					</g>

						<path fill="#89878D" stroke="#413F42" stroke-width="1.697" stroke-linecap="round" stroke-linejoin="round" stroke-miterlimit="10" d="
						M96.911,279.519l-1.051-3.922c0.725-0.175,1.416-0.531,1.982-1.097c1.637-1.637,1.637-4.291,0-5.929
						c-1.637-1.637-4.291-1.637-5.928,0c-0.566,0.566-0.923,1.257-1.097,1.982l-3.922-1.051l-0.04,0.04
						c0.35-1.417,1.049-2.766,2.157-3.873c3.24-3.24,8.493-3.24,11.733,0c3.24,3.24,3.24,8.493,0,11.733
						c-1.107,1.107-2.457,1.807-3.874,2.157L96.911,279.519z"/>
				</g>
				<path fill="#ECC58D" stroke="#86673A" stroke-width="1.697" stroke-miterlimit="10" d="M81.679,225.07v24.551h0.023
					c5.295,0,9.617-4.299,9.617-9.617v-5.317c0-5.317-4.322-9.617-9.617-9.617H81.679z"/>
			</g>
		</g>
		<path fill="#3B4549" stroke="#76878B" stroke-width="1.697" stroke-miterlimit="10" d="M78.194,218.225H61.203h-5.494H38.718
			c-3.515,0-6.364,2.849-6.364,6.364v22.719c0,3.515,2.849,6.364,6.364,6.364h16.991h5.494h16.991c3.515,0,6.364-2.85,6.364-6.364
			V224.59C84.558,221.075,81.709,218.225,78.194,218.225z"/>
		<g>
			<path fill="#ECC58D" stroke="#86673A" stroke-width="1.697" stroke-miterlimit="10" d="M68.361,228.125h-6.765h-6.28H48.55
				c-3.209,0-5.81,2.601-5.81,5.81v2.145c0,3.209,2.601,5.81,5.81,5.81h6.765h6.28h6.765c3.209,0,5.81-2.601,5.81-5.81v-2.145
				C74.171,230.726,71.57,228.125,68.361,228.125z"/>
			<g>
				<circle fill="#8BC53F" stroke="#60893C" stroke-width="1.697" stroke-miterlimit="10" cx="48.374" cy="233.97" r="2.074"/>
				<circle fill="#ED3149" stroke="#A31D29" stroke-width="1.697" stroke-miterlimit="10" cx="58.456" cy="233.97" r="2.074"/>
				<circle fill="#F8E511" stroke="#B3A032" stroke-width="1.697" stroke-miterlimit="10" cx="68.538" cy="233.97" r="2.074"/>
			</g>
		</g>
		<g>
			<defs>
				<path id="SVGID_31_" d="M80.435,218.684c0,0-12.216,1.697-21.979,1.358c-9.764,0.339-21.979-1.358-21.979-1.358
					s-1.433-30.099,18.304-39.297c2.322-1.082,5.03-1.082,7.352,0C81.869,188.585,80.435,218.684,80.435,218.684z"/>
			</defs>
			<use xlink:href="#SVGID_31_"  overflow="visible" fill="#BBDDD1"/>
			<clipPath id="SVGID_32_">
				<use xlink:href="#SVGID_31_"  overflow="visible"/>
			</clipPath>

				<rect x="56.106" y="213.7" clip-path="url(#SVGID_32_)" fill="#ECC58D" stroke="#86673A" stroke-width="1.697" stroke-miterlimit="10" width="4.47" height="7.637"/>
			<g clip-path="url(#SVGID_32_)">
				<g>
					<circle fill="#D0D2D3" stroke="#808184" stroke-width="1.697" stroke-miterlimit="10" cx="70.877" cy="203.107" r="4.658"/>
					<circle fill="#D0D2D3" stroke="#808184" stroke-width="1.697" stroke-miterlimit="10" cx="70.877" cy="203.107" r="2.261"/>
				</g>
				<g>
					<circle fill="#D0D2D3" stroke="#808184" stroke-width="1.697" stroke-miterlimit="10" cx="45.804" cy="203.107" r="4.658"/>
					<circle fill="#D0D2D3" stroke="#808184" stroke-width="1.697" stroke-miterlimit="10" cx="45.804" cy="203.107" r="2.261"/>
				</g>
			</g>
			<g clip-path="url(#SVGID_32_)">
				<g>
					<path fill="#FAAF40" stroke="#B1722A" stroke-width="1.697" stroke-miterlimit="10" d="M58.851,190.106l-0.006-1.485
						l-4.172,0.016c0,0-1.023-0.034-1.059-0.229c-0.291-1.568-0.997-1.318-0.997-1.318l0.007,1.685h-0.001v3.041
						c0,0,0.707,0.247,0.992-1.322c0.035-0.196,1.058-0.234,1.058-0.234h4.172v-0.154H58.851z"/>
					<path fill="#FAAF40" stroke="#B1722A" stroke-width="1.697" stroke-miterlimit="10" d="M57.83,190.106l0.006-1.485l4.172,0.016
						c0,0,1.023-0.034,1.059-0.229c0.291-1.568,0.997-1.318,0.997-1.318l-0.007,1.685h0.001v3.041c0,0-0.707,0.247-0.992-1.322
						c-0.035-0.196-1.058-0.234-1.058-0.234h-4.172v-0.154H57.83z"/>
				</g>
				<path fill="#FAAF40" stroke="#B1722A" stroke-width="1.697" stroke-miterlimit="10" d="M62.301,184.526
					c0-1.054-1.773-1.909-3.96-1.909s-3.96,0.855-3.96,1.909c0,0.883,1.25,1.618,2.938,1.837v8.463h2.044v-8.463
					C61.051,186.145,62.301,185.409,62.301,184.526z"/>
			</g>
			<path clip-path="url(#SVGID_32_)" fill="#3B4549" stroke="#76878B" stroke-width="1.697" stroke-miterlimit="10" d="
				M65.449,194.373h-6.597H57.83h-6.597c-0.915,0-1.657,0.742-1.657,1.658v16.256h8.254h1.022h8.254V196.03
				C67.106,195.115,66.364,194.373,65.449,194.373z"/>
			<g clip-path="url(#SVGID_32_)">

					<rect x="62.913" y="197.295" fill="#FAAF40" stroke="#B1722A" stroke-width="1.697" stroke-miterlimit="10" width="1.508" height="7.165"/>

					<rect x="57.587" y="197.295" fill="#FAAF40" stroke="#B1722A" stroke-width="1.697" stroke-miterlimit="10" width="1.508" height="7.165"/>

					<rect x="52.26" y="197.295" fill="#FAAF40" stroke="#B1722A" stroke-width="1.697" stroke-miterlimit="10" width="1.508" height="7.165"/>
			</g>
			<path clip-path="url(#SVGID_32_)" fill="#F8E511" stroke="#3B4549" stroke-width="1.697" stroke-miterlimit="10" d="
				M69.196,210.212h-2.561v1.414h-7.783H57.83h-7.783v-1.414h-2.561c-0.929,0-1.682,0.753-1.682,1.682v2.196
				c0,0.41,0.332,0.742,0.742,0.742H57.83h1.022h11.283c0.41,0,0.742-0.332,0.742-0.742v-2.196
				C70.877,210.964,70.124,210.212,69.196,210.212z"/>
			<use xlink:href="#SVGID_31_"  overflow="visible" fill="none" stroke="#49685D" stroke-width="1.697" stroke-miterlimit="10"/>
		</g>
	</g>
	<g>
		<g>
			<circle fill="#B2B5C1" stroke="#4A4A4C" stroke-width="2.0778" stroke-miterlimit="10" cx="124.268" cy="390.035" r="10.043"/>
			<circle fill="#6F6F76" cx="124.268" cy="390.035" r="4.502"/>
		</g>
		<g>
			<circle fill="#B2B5C1" stroke="#4A4A4C" stroke-width="2.0778" stroke-miterlimit="10" cx="167.243" cy="390.035" r="10.043"/>
			<circle fill="#6F6F76" cx="167.243" cy="390.035" r="4.502"/>
		</g>

			<rect x="114.398" y="332.916" fill="#ED3244" stroke="#AC1F25" stroke-width="2.0778" stroke-miterlimit="10" width="12.467" height="23.181"/>
		<path fill="#646E6D" stroke="#2E3836" stroke-width="2.0778" stroke-miterlimit="10" d="M127.421,326.142h-6.789h-1.176h-6.789
			c0,0-2.251,0.908-2.251,6.774h9.04h1.176h9.04C129.672,327.05,127.421,326.142,127.421,326.142z"/>
		<g>
			<defs>
				<path id="SVGID_33_" d="M107.992,392.9v-31.262c0,0-10.494,12.734-16.55,29.102c-0.387,1.045,0.409,2.159,1.522,2.159H107.992z"
					/>
			</defs>
			<use xlink:href="#SVGID_33_"  overflow="visible" fill="#FFFFFF"/>
			<clipPath id="SVGID_34_">
				<use xlink:href="#SVGID_33_"  overflow="visible"/>
			</clipPath>
			<g clip-path="url(#SVGID_34_)">

					<line fill="#FFFFFF" stroke="#333132" stroke-width="2.0778" stroke-miterlimit="10" x1="106.433" y1="365.62" x2="93.967" y2="395.922"/>

					<line fill="#FFFFFF" stroke="#333132" stroke-width="2.0778" stroke-miterlimit="10" x1="107.992" y1="364.928" x2="100.2" y2="397.134"/>
			</g>
			<use xlink:href="#SVGID_33_"  overflow="visible" fill="none" stroke="#333132" stroke-width="2.0778" stroke-miterlimit="10"/>
		</g>
		<path fill="#646E6D" stroke="#2E3836" stroke-width="2.0778" stroke-miterlimit="10" d="M110.402,383.932
			c-2.725,0-4.935-7.136-4.935-15.938s2.209-15.938,4.935-15.938h43.475v31.875H110.402z"/>
		<path fill="#2EABDB" stroke="#035D80" stroke-width="2.0778" stroke-miterlimit="10" d="M139.678,383.932v-31.875h22.106v31.341
			C161.784,383.397,139.051,383.305,139.678,383.932z"/>
		<polygon fill="#0B80B8" stroke="#035D80" stroke-width="2.0778" stroke-miterlimit="10" points="144.18,376.529 150.933,372.893
			150.933,338.955 179.503,338.955 179.503,382.762 144.18,382.762 		"/>
		<path fill="#2EABDB" stroke="#035D80" stroke-width="2.0778" stroke-miterlimit="10" d="M182.424,337.988l-3.102-5.072h-12.113
			h-3.99h-12.113l-3.102,5.072c-0.537,0.878,0.095,2.006,1.124,2.006h14.09h3.99h14.09
			C182.329,339.994,182.961,338.867,182.424,337.988z"/>
		<g>
			<circle fill="#0B80B8" stroke="#FFFFFF" stroke-width="2.0778" stroke-miterlimit="10" cx="165.725" cy="367.713" r="7.195"/>
			<g>
				<path fill="#FFFFFF" d="M162.323,370.317c-0.011-0.151-0.011-0.327,0-0.528c0-0.262,0.051-0.506,0.152-0.739
					c0.1-0.23,0.227-0.446,0.384-0.647c0.154-0.2,0.33-0.387,0.525-0.557c0.198-0.17,0.4-0.319,0.611-0.452
					c-0.181-0.16-0.349-0.33-0.506-0.511c-0.154-0.181-0.292-0.387-0.414-0.617c-0.33-0.582-0.455-1.107-0.368-1.572
					c0.087-0.468,0.295-0.86,0.633-1.182c0.335-0.322,0.763-0.565,1.28-0.73c0.517-0.165,1.036-0.238,1.564-0.216
					c0.528,0.019,1.023,0.138,1.491,0.352c0.465,0.216,0.82,0.544,1.061,0.988c0.1,0.179,0.157,0.376,0.165,0.587
					c0.011,0.211,0.011,0.411,0,0.601c-0.008,0.2-0.043,0.398-0.106,0.587c-0.06,0.192-0.141,0.371-0.241,0.541
					c-0.149,0.262-0.341,0.49-0.571,0.687c-0.23,0.195-0.468,0.379-0.709,0.549c0.241,0.179,0.495,0.368,0.76,0.563
					c0.268,0.198,0.484,0.425,0.655,0.684c0.262,0.403,0.409,0.793,0.438,1.174s-0.027,0.739-0.173,1.069
					c-0.146,0.333-0.368,0.633-0.663,0.904c-0.295,0.271-0.649,0.498-1.061,0.676c-0.341,0.151-0.717,0.252-1.128,0.303
					c-0.414,0.049-0.822,0.043-1.228-0.016s-0.79-0.179-1.15-0.354c-0.363-0.176-0.668-0.414-0.92-0.714
					c-0.17-0.2-0.287-0.425-0.354-0.676C162.386,370.818,162.345,370.566,162.323,370.317z M165.559,368.48
					c-0.26,0.17-0.498,0.349-0.714,0.533c-0.216,0.187-0.409,0.411-0.579,0.671c0,0.019-0.016,0.051-0.046,0.097
					s-0.046,0.16-0.046,0.338c0,0.051,0.003,0.105,0.008,0.165c0.005,0.062,0.024,0.133,0.054,0.211
					c0.179,0.262,0.422,0.438,0.73,0.528c0.306,0.089,0.614,0.108,0.925,0.054c0.311-0.057,0.59-0.179,0.841-0.371
					c0.252-0.189,0.422-0.436,0.511-0.736c-0.041-0.17-0.124-0.33-0.254-0.476c-0.13-0.143-0.279-0.279-0.444-0.398
					c-0.168-0.122-0.338-0.233-0.511-0.338C165.859,368.653,165.7,368.561,165.559,368.48z M164.582,364.928
					c-0.022,0.06-0.024,0.116-0.008,0.165c0.014,0.051,0.032,0.106,0.051,0.165c0.141,0.222,0.303,0.422,0.482,0.603
					c0.181,0.181,0.376,0.357,0.587,0.528c0.241-0.162,0.473-0.335,0.693-0.519c0.222-0.187,0.417-0.406,0.587-0.655
					c0.041-0.111,0.065-0.192,0.076-0.241c0.011-0.051-0.005-0.141-0.046-0.271c-0.149-0.151-0.335-0.254-0.555-0.311
					c-0.222-0.054-0.452-0.073-0.687-0.06c-0.235,0.016-0.457,0.07-0.668,0.165c-0.211,0.097-0.376,0.219-0.498,0.371
					C164.585,364.887,164.582,364.909,164.582,364.928z"/>
			</g>
		</g>

			<rect x="155.072" y="343.803" fill="#3861AC" stroke="#214285" stroke-width="2.0778" stroke-miterlimit="10" width="7.965" height="8.773"/>

			<rect x="166.187" y="343.803" fill="#3861AC" stroke="#214285" stroke-width="2.0778" stroke-miterlimit="10" width="7.965" height="8.773"/>
		<path fill="#172B27" stroke="#424C48" stroke-width="2.0778" stroke-miterlimit="10" d="M107.436,382.762h14.408v-10.908h-14.882
			c-0.826,0-1.495,0.669-1.495,1.495v7.445C105.467,381.881,106.349,382.762,107.436,382.762z"/>
		<polygon fill="#DE2241" stroke="#9B1C2A" stroke-width="2.0778" stroke-miterlimit="10" points="106.26,382.762 106.26,395.749
			112.658,395.749 116.303,387.957 124.268,387.957 132.233,387.957 135.877,395.749 155.634,395.749 159.279,387.957
			167.244,387.957 175.209,387.957 178.853,395.749 184.871,395.749 184.871,382.762 		"/>
	</g>
	<g>
		<path fill="none" stroke="#564060" stroke-width="2.0778" stroke-miterlimit="10" d="M303.522,366.038
			c13.625,4.812-5.474,31.473,44.288,23.61c9.475-1.497,19.413-1.034,28.054,5.592"/>
		<g>
			<path fill="#F9E600" stroke="#C0B030" stroke-width="2.0778" stroke-miterlimit="10" d="M275.193,324.202
				c-2.458,1.443-4.404,3.782-5.473,6.438c-1.695,4.211-1.235,9.14,0.842,13.176c2.698,5.243,7.945,9.004,13.544,10.576
				c22.269-4.292,20.434-23.646,9.959-30.444C289.376,320.905,281.746,320.354,275.193,324.202z"/>
			<path fill="#F9E600" stroke="#C0B030" stroke-width="2.0778" stroke-miterlimit="10" d="M251.733,355.727
				c5.717-0.504,11.492-0.665,17.141-1.66c6.749-1.188,13.265-3.556,20.057-4.471c0.028-0.004,0.055-0.007,0.083-0.011
				c5.973-0.792,15.476,2.544,19.011,9.764c3.043,6.215,0.726,15.881-3.303,20.82c-3.756,4.605-9.496,9.227-22.434,11.68
				c0,0-33.857,6.888-53.208-18.156c-3.592-4.649-3.197-7.224-0.535-10.186C234.209,357.202,248.356,356.025,251.733,355.727z"/>
			<path fill="#F9E600" stroke="#C0B030" stroke-width="2.0778" stroke-miterlimit="10" d="M246.694,372.472
				c-2.065-2.014-0.63-5.278,2.246-5.489c5.95-0.435,9.024-0.725,13.369-1.964c4.151-1.184,8.146-2.884,12.324-3.97
				c4.178-1.086,8.67-1.53,12.771-0.183c1.546,0.508,3.022,1.314,4.292,2.35c3.438,2.806,4.001,7.859,1.438,11.48
				c-1.086,1.534-2.354,2.94-3.777,4.17c-4.378,3.785-10.184,5.876-15.97,5.752c-4.964-0.106-9.908-1.463-14.316-3.749
				C252.933,377.687,249.108,374.826,246.694,372.472z"/>

				<ellipse transform="matrix(-0.9956 -0.0936 0.0936 -0.9956 556.6923 695.8366)" fill="#231F20" cx="294.66" cy="334.867" rx="1.72" ry="3.191"/>
			<path fill="#FAAF40" stroke="#AE6628" stroke-width="2.0778" stroke-miterlimit="10" d="M306.33,335.38
				c0,0,4.668,0.5,5.236,2.827c0.446,1.829-1.667,3.492-4.086,2.982c-0.669,0.501-3.812,2.201-6.378,2.112
				c-4.181,2.072-2.034-3.493-1.631-7.523c0.294-1.391-0.615-3.873,0.418-4.628C302.393,331.78,304.204,334.233,306.33,335.38z"/>
			<g>
				<path fill="#FAAF40" d="M299.078,340.745c2.588,1.549,6.172,1.015,8.401,0.444"/>
				<g>
					<path fill="#AE6628" d="M298.554,341.642c2.855,1.552,6.142,1.302,9.202,0.549c1.298-0.319,0.748-2.323-0.552-2.004
						c-2.493,0.613-5.256,0.935-7.601-0.34C298.427,339.209,297.377,341.003,298.554,341.642L298.554,341.642z"/>
				</g>
			</g>
		</g>
		<g>
			<circle fill="#13783C" stroke="#37B34A" stroke-width="2.0778" stroke-miterlimit="10" cx="254.944" cy="391.867" r="8.21"/>
			<circle fill="#37B34A" cx="254.944" cy="391.867" r="3.079"/>
		</g>
		<g>
			<circle fill="#13783C" stroke="#37B34A" stroke-width="2.0778" stroke-miterlimit="10" cx="293.943" cy="390.328" r="9.75"/>
			<circle fill="#37B34A" cx="293.943" cy="390.328" r="3.656"/>
		</g>
		<circle fill="#ED3149" stroke="#A31D29" stroke-width="2.0778" stroke-miterlimit="10" cx="376.219" cy="394.805" r="4.618"/>
	</g>
</g>
</svg>
