<?xml version="1.0" encoding="utf-8"?>
<!-- Generator: Adobe Illustrator 18.1.1, SVG Export Plug-In . SVG Version: 6.00 Build 0)  -->
<svg version="1.1" id="Layer_1" xmlns="http://www.w3.org/2000/svg" xmlns:xlink="http://www.w3.org/1999/xlink" x="0px" y="0px" width="500px" height="500px" viewBox="0 0 500 500" enable-background="new 0 0 500 500" xml:space="preserve"><clipPath id="SVGID_4_">
						<use xlink:href="#SVGID_3_" overflow="visible"/>
					</clipPath><clipPath id="SVGID_2_">
				<use xlink:href="#SVGID_1_" overflow="visible"/>
			</clipPath>
<symbol id="New_Symbol_3" viewBox="-35.08 -21.25 70.17 42.626">
	<g>
		<g>
			<path fill="#5AB140" stroke="#3D7A29" stroke-width="0.5" stroke-miterlimit="10" d="M-24.07-14.92c0,0,0.5,0.792,1.25,1.167
				c0,0,0.333,0.833,0.875,0.917c0,0,0.542,6.167,2.042,6.583l5.75-3.667l-2.333-6.083c0,0-3.417-0.125-3.583,0.417
				c0,0-0.75-0.667-1.417-0.875c0,0,0.25,1,0.917,1.625c0,0-0.417-0.208-1.042-0.125c0,0-1.25-0.5-2.167-1.333
				c0,0-0.292,0.667,0.75,1.625C-23.028-14.67-23.57-14.962-24.07-14.92z"/>
			<g>
				<path fill="#3D7A29" d="M-20.903-12.628c-0.013,0.011,0.25,0.129,0.637,0.029c0.386-0.081,0.835-0.342,1.234-0.645
					c0.192-0.163,0.374-0.335,0.539-0.5c0.168-0.162,0.292-0.345,0.414-0.485c0.221-0.302,0.342-0.524,0.342-0.524
					s-0.216,0.135-0.502,0.366c-0.299,0.216-0.656,0.546-1.041,0.83c-0.182,0.156-0.37,0.3-0.553,0.426
					c-0.186,0.117-0.35,0.25-0.51,0.322C-20.65-12.634-20.902-12.616-20.903-12.628z"/>
			</g>
			<g>
				<path fill="#3D7A29" d="M-19.57-12.628c0,0,0.172-0.022,0.408-0.089c0.239-0.062,0.534-0.185,0.831-0.302
					c0.285-0.142,0.572-0.275,0.78-0.398c0.21-0.118,0.356-0.21,0.356-0.21s-0.172-0.034-0.424-0.004
					c-0.254,0.023-0.569,0.126-0.874,0.248c-0.145,0.077-0.289,0.154-0.425,0.227c-0.135,0.073-0.245,0.171-0.346,0.241
					C-19.459-12.763-19.57-12.628-19.57-12.628z"/>
			</g>

				<path fill="none" stroke="#3D7A29" stroke-width="0.4" stroke-linecap="round" stroke-linejoin="round" stroke-miterlimit="10" d="
				M-23.028-14.67c0,0,0.646,0.604,1.021,0.479c0,0,0.281,0.562,0.625,0.75"/>

				<path fill="none" stroke="#3D7A29" stroke-width="0.4" stroke-linecap="round" stroke-linejoin="round" stroke-miterlimit="10" d="
				M-20.57-14.837c0,0,0.5,0.333,0.5,0.708"/>
		</g>
		<g>
			<path fill="#5AB140" stroke="#3D7A29" stroke-width="0.5" stroke-miterlimit="10" d="M-13.195-11.378c0,0-10.667,4.958-13.75,12
				c0,0-2.875,1.75-4.75,4.5l-1.803,1.803c-0.125,0.125-0.187,0.299-0.169,0.474l0.097,0.973c-0.554-0.082-0.979-0.048-1.25,0.125
				c0,0-0.125,1.25,0.5,2.375l0.216,0.486c0.175,0.393,0.553,0.658,0.982,0.688c0,0,1.384,0.112,2.719-0.048
				c0.391-0.047,0.958-0.5,0.958-0.5h1.352c0.644,0,1.25-0.303,1.637-0.818l0.136-0.182l2.644-1.665
				c0.481-0.303,0.885-0.712,1.181-1.197l0.504-0.824c0.277-0.454,0.453-0.963,0.515-1.491l0.156-1.323c0,0,1.625-3.75,3.125-6
				l7.125-1.75l1.5-4L-13.195-11.378z"/>
			<g>
				<path fill="#3D7A29" d="M-33.32,8.354c-0.023-0.263,0.065-0.581,0.223-0.834c0.159-0.26,0.404-0.473,0.682-0.636
					c0.558-0.337,1.24-0.473,1.913-0.545l0.008-0.001c0.041-0.004,0.072-0.036,0.078-0.074l0.101-0.63l-0.063,0.055
					c0.579-0.038,1.195,0.268,1.496,0.806c-0.26-0.558-0.861-0.937-1.504-0.944c-0.03,0-0.055,0.02-0.062,0.048l-0.002,0.007
					l-0.149,0.62l0.086-0.075c-0.693,0.024-1.409,0.102-2.066,0.43c-0.326,0.159-0.639,0.386-0.866,0.699
					c-0.224,0.315-0.375,0.68-0.374,1.107c0,0.138,0.112,0.25,0.251,0.25c0.138,0,0.25-0.112,0.25-0.251
					c0-0.007,0-0.014-0.001-0.021L-33.32,8.354z"/>
			</g>
			<g>
				<path fill="#3D7A29" d="M-29.992,3.196c0,0,0.125-0.131,0.344-0.284c0.22-0.15,0.521-0.337,0.849-0.435
					c0.163-0.052,0.331-0.073,0.483-0.094c0.151-0.027,0.293-0.071,0.42-0.085c0.127-0.032,0.236-0.042,0.318-0.064
					c0.082-0.02,0.129-0.031,0.129-0.031c0.011,0.002,0.021-0.005,0.024-0.016s-0.005-0.021-0.016-0.024
					c-0.001,0.012-0.16-0.13-0.45-0.183c-0.289-0.077-0.698,0.001-1.03,0.201c-0.706,0.341-1.101,0.99-1.101,0.99
					c-0.006,0.009-0.003,0.022,0.006,0.028C-30.009,3.205-29.998,3.203-29.992,3.196z"/>
			</g>
			<g>
				<path fill="#3D7A29" d="M-23.32-2.88c0,0,1.479-1.261,3.184-2.122c0.86-0.414,1.744-0.735,2.417-0.961
					c0.675-0.218,1.151-0.333,1.151-0.333c0.011-0.002,0.018-0.013,0.016-0.024c-0.002-0.009-0.01-0.016-0.019-0.016
					c0,0-0.122-0.004-0.336-0.01c-0.215-0.011-0.522,0.015-0.886,0.074c-0.365,0.059-0.782,0.171-1.215,0.332
					c-0.425,0.18-0.861,0.405-1.28,0.656c-0.842,0.495-1.621,1.079-2.166,1.558c-0.55,0.475-0.892,0.815-0.892,0.815
					c-0.008,0.007-0.009,0.02-0.002,0.028C-23.341-2.875-23.328-2.874-23.32-2.88z"/>
			</g>
			<g>
				<path fill="#3D7A29" d="M-27.563,1.078c0,0,0.239-0.064,0.563-0.241c0.328-0.17,0.725-0.469,1.078-0.815
					c0.176-0.166,0.353-0.33,0.509-0.493c0.151-0.168,0.271-0.344,0.376-0.492c0.203-0.304,0.3-0.541,0.3-0.541
					c0.005-0.011,0-0.023-0.011-0.028c-0.006-0.003-0.013-0.002-0.018,0.001c0,0-0.225,0.121-0.505,0.354
					c-0.136,0.12-0.298,0.258-0.449,0.425c-0.146,0.172-0.289,0.368-0.438,0.558c-0.292,0.37-0.639,0.693-0.918,0.913
					c-0.281,0.221-0.499,0.32-0.499,0.32c-0.01,0.004-0.015,0.016-0.01,0.026C-27.583,1.076-27.573,1.08-27.563,1.078z"/>
			</g>
			<g>
				<path fill="#3D7A29" d="M-23.468,6.228c0,0,0.229-0.004,0.525-0.117c0.139-0.068,0.323-0.125,0.478-0.244
					c0.158-0.114,0.321-0.246,0.479-0.387c0.133-0.165,0.261-0.335,0.366-0.506c0.109-0.169,0.153-0.363,0.202-0.515
					c0.077-0.321,0.025-0.546,0.025-0.546l-0.002-0.011c-0.002-0.01-0.012-0.016-0.022-0.014c-0.007,0.002-0.012,0.007-0.014,0.013
					c0,0-0.055,0.189-0.197,0.447C-21.767,4.607-22,4.925-22.275,5.203c-0.534,0.578-1.213,0.99-1.213,0.99
					c-0.009,0.005-0.012,0.017-0.006,0.026c0.004,0.006,0.01,0.009,0.016,0.009L-23.468,6.228z"/>
			</g>
			<g>
				<path fill="#3D7A29" d="M-21.345,2.216c0,0,0.343-0.456,0.766-1.198c0.439-0.738,0.886-1.78,1.507-2.717
					c0.305-0.472,0.636-0.925,0.96-1.333c0.318-0.411,0.62-0.793,0.923-1.069c0.296-0.28,0.575-0.482,0.797-0.569
					c0.106-0.064,0.202-0.062,0.265-0.084c0.064-0.015,0.099-0.023,0.099-0.023l0.005-0.001c0.011-0.002,0.017-0.013,0.015-0.024
					c-0.002-0.009-0.01-0.015-0.019-0.015c0,0-0.036-0.001-0.104-0.002c-0.066,0.005-0.175-0.02-0.299,0.017
					c-0.266,0.027-0.603,0.204-0.963,0.458c-0.355,0.265-0.716,0.629-1.048,1.057c-0.326,0.433-0.626,0.924-0.905,1.423
					c-0.58,0.991-0.985,2.06-1.357,2.816c-0.368,0.764-0.675,1.24-0.675,1.24c-0.006,0.009-0.004,0.022,0.005,0.028
					C-21.364,2.227-21.352,2.225-21.345,2.216z"/>
			</g>
			<g>
				<path fill="#3D7A29" d="M-18.721-5.074c0,0,0.144-0.143,0.416-0.272c0.269-0.13,0.645-0.258,1.036-0.321
					c0.195-0.033,0.393-0.044,0.576-0.061c0.182-0.028,0.352-0.068,0.5-0.1c0.295-0.068,0.499-0.156,0.499-0.156
					c0.011-0.005,0.016-0.017,0.011-0.029c-0.002-0.005-0.007-0.009-0.011-0.011c0,0-0.203-0.086-0.518-0.121
					c-0.157-0.01-0.342-0.025-0.538,0.004c-0.194,0.033-0.398,0.093-0.597,0.164c-0.4,0.13-0.784,0.315-1.032,0.512
					c-0.253,0.188-0.373,0.365-0.373,0.365c-0.006,0.009-0.004,0.022,0.005,0.028C-18.738-5.066-18.728-5.068-18.721-5.074z"/>
			</g>
			<g>
				<path fill="#3D7A29" d="M-33.8,11.366c-0.046-0.281-0.034-0.657,0.174-0.767c0.084-0.044,0.271-0.062,0.406-0.081
					c0.145-0.016,0.3-0.027,0.432-0.02c0.068,0.003,0.128-0.04,0.147-0.103l0.006-0.018c0.093-0.297,0.233-0.585,0.313-0.885
					l0.238-0.921c0.003-0.011-0.003-0.023-0.015-0.026c-0.006-0.002-0.013,0-0.018,0.003c-0.279,0.208-0.439,0.514-0.582,0.807
					c-0.136,0.301-0.181,0.627-0.242,0.949l0.153-0.121c-0.173,0.014-0.322,0.046-0.478,0.083l-0.229,0.064
					c-0.066,0.022-0.16,0.043-0.241,0.106c-0.164,0.125-0.193,0.323-0.191,0.478c0.003,0.162,0.038,0.316,0.088,0.463
					c0.004,0.01,0.015,0.016,0.025,0.013C-33.804,11.386-33.799,11.376-33.8,11.366z"/>
			</g>
			<g>
				<path fill="#FFFFFF" d="M-24.632,5.184c0,0-0.562-1.437-1.312-2.031"/>
				<path fill="#3D7A29" d="M-24.632,5.184c0,0,0.003-0.166-0.051-0.397c-0.035-0.112-0.06-0.25-0.122-0.383
					c-0.059-0.134-0.129-0.274-0.202-0.414c-0.173-0.263-0.377-0.511-0.579-0.65c-0.198-0.144-0.359-0.187-0.359-0.187
					s0.081,0.145,0.192,0.338c0.061,0.094,0.112,0.216,0.188,0.331c0.073,0.117,0.147,0.245,0.216,0.376
					c0.165,0.246,0.318,0.503,0.462,0.685C-24.748,5.066-24.632,5.184-24.632,5.184z"/>
			</g>
			<g>
				<path fill="#3D7A29" d="M-31.101,11.434c-0.285-0.228-0.669-0.363-0.821-0.664c-0.077-0.151-0.115-0.301-0.104-0.478
					c0.001-0.186-0.007-0.369,0.028-0.525c0.065-0.333,0.221-0.642,0.438-0.895c0.208-0.247,0.536-0.429,0.829-0.645
					c0.265-0.183,0.566-0.202,0.932-0.185c0.345,0.015,0.71,0.068,0.997,0.201c0.252,0.131,0.435,0.439,0.416,0.754
					c-0.024,0.342-0.091,0.718-0.324,0.934l-0.015,0.014c-0.031,0.029-0.033,0.077-0.004,0.109c0.017,0.018,0.042,0.026,0.065,0.024
					c0.328-0.036,0.67-0.054,0.969-0.205c-0.316,0.081-0.648,0.059-0.969,0.045l0.046,0.146c0.365-0.248,0.436-0.675,0.506-1.038
					c0.062-0.414-0.127-0.877-0.53-1.093c-0.376-0.185-0.754-0.24-1.136-0.272c-0.194-0.008-0.371-0.026-0.593,0.005
					c-0.211,0.036-0.408,0.124-0.581,0.246c-0.287,0.228-0.612,0.412-0.877,0.733c-0.258,0.305-0.417,0.69-0.451,1.084
					c-0.023,0.208,0.005,0.393,0.019,0.573c0.006,0.19,0.066,0.408,0.19,0.565C-31.813,11.201-31.423,11.271-31.101,11.434z"/>
			</g>
			<path fill="#231F20" d="M-30.811,9.608c-0.032-0.461,0.098-0.846,0.292-0.859c0.193-0.014,0.376,0.349,0.409,0.81
				c0.032,0.461-0.098,0.846-0.292,0.859C-30.596,10.432-30.779,10.069-30.811,9.608z"/>

				<path fill="none" stroke="#3D7A29" stroke-width="0.4" stroke-linecap="round" stroke-linejoin="round" stroke-miterlimit="10" d="
				M-31.32,10.278c0,0,0.875,1.156,1.562-1.094"/>
		</g>
		<path fill="#B8AB0D" stroke="#7C7005" stroke-width="0.75" stroke-miterlimit="10" d="M-11.82-12.128c0,0,8.833-4.833,16.167-2.5
			c0,0,8.833-1.333,11.25-0.083c0,0,5.417,0.25,7.833,1.417l-1,6.833l-28.25,4L-11.82-12.128z"/>
		<g>
			<path fill="#5AB140" stroke="#3D7A29" stroke-width="0.5" stroke-miterlimit="10" d="M-19.539-18.597
				c0,0-0.188,1.156,0.688,2.125l0.938-0.562C-17.914-17.035-18.695-17.691-19.539-18.597z"/>
			<path fill="#5AB140" stroke="#3D7A29" stroke-width="0.5" stroke-miterlimit="10" d="M-17.744-18.453c0,0-0.474,1.071,0.128,2.23
				l1.049-0.307C-16.566-16.531-17.157-17.363-17.744-18.453z"/>
			<path fill="#5AB140" stroke="#3D7A29" stroke-width="0.5" stroke-miterlimit="10" d="M-12.163-17.19
				c0.177,0.05,0.312,0.191,0.343,0.372c0.037,0.216,0.056,0.58,0,1.189c0,0,0.875,0,0.75,0.875c0,0,1.25,0.125,1,2.25
				c0,0,0.875-0.125,1.125,0.25c0,0,4.083-0.771,6-1.25c2.5-0.625,5.625,0.5,6.5,0.875c1.494,0.64,6.125,1.375,6.125,1.375
				l-20.75,6.75c-7.5-3.625-7.625-10.75-7.625-10.75c-0.75-0.312-1.25-1.188-1.25-1.188s-1.708-1.146-1.625-2.188
				c1.375,1.125,1.938,1.5,1.938,1.5s0.643-0.421,1.559-0.749c1.023-0.366,2.142-0.372,3.187-0.078L-12.163-17.19z"/>
			<g>
				<path fill="#3D7A29" d="M-12.153-6.295c0,0,0.278-0.326,0.648-0.846c0.179-0.264,0.401-0.563,0.609-0.903
					c0.207-0.341,0.427-0.704,0.648-1.067c0.408-0.746,0.797-1.505,1.021-2.108c0.244-0.597,0.281-1.034,0.281-1.034
					s-0.043,0.097-0.119,0.266c-0.079,0.167-0.215,0.394-0.366,0.671c-0.318,0.548-0.742,1.278-1.165,2.008
					c-0.405,0.742-0.82,1.479-1.102,2.051C-11.983-6.689-12.153-6.295-12.153-6.295z"/>
			</g>
			<g>
				<path fill="#3D7A29" d="M-10.778-7.503c0,0,0.224-0.246,0.506-0.65c0.288-0.401,0.617-0.968,0.916-1.554
					c0.273-0.598,0.513-1.218,0.599-1.715c0.106-0.496,0.021-0.832,0.021-0.832s-0.046,0.328-0.237,0.769
					c-0.081,0.226-0.214,0.476-0.332,0.751c-0.121,0.275-0.264,0.565-0.41,0.852c-0.138,0.292-0.276,0.585-0.406,0.859
					c-0.135,0.272-0.239,0.538-0.345,0.759C-10.664-7.815-10.778-7.503-10.778-7.503z"/>
			</g>
			<g>
				<path fill="#3D7A29" d="M-11.736-9.003c0,0,0.23-0.152,0.535-0.42c0.31-0.264,0.677-0.658,1.028-1.069
					c0.164-0.214,0.323-0.434,0.468-0.643c0.147-0.207,0.253-0.424,0.35-0.603c0.185-0.368,0.243-0.64,0.243-0.64
					s-0.686,0.817-1.372,1.634c-0.164,0.21-0.327,0.42-0.481,0.617c-0.157,0.194-0.283,0.394-0.405,0.554
					C-11.6-9.242-11.736-9.003-11.736-9.003z"/>
			</g>
			<g>
				<path fill="#3D7A29" d="M-8.07-7.212c0,0,0.312-0.288,0.781-0.72c0.228-0.22,0.517-0.452,0.809-0.715
					c0.297-0.259,0.617-0.531,0.952-0.783c0.646-0.535,1.337-1.011,1.861-1.366c0.533-0.349,0.889-0.582,0.889-0.582
					s-0.102,0.034-0.279,0.093c-0.176,0.064-0.432,0.148-0.72,0.293c-0.29,0.139-0.629,0.306-0.967,0.525
					c-0.339,0.217-0.693,0.462-1.033,0.725c-0.665,0.545-1.276,1.151-1.675,1.656C-7.859-7.588-8.07-7.212-8.07-7.212z"/>
			</g>
			<g>
				<path fill="#3D7A29" d="M-17.195-16.212c0,0,0.344-0.077,0.851-0.097c0.497-0.027,1.185,0.055,1.88,0.058
					c0.687-0.009,1.368-0.001,1.863,0.064c0.243,0.044,0.443,0.099,0.542,0.198c0.111,0.091,0.101,0.2,0.114,0.193
					c-0.018,0.007,0.04-0.098-0.053-0.241c-0.087-0.14-0.29-0.286-0.548-0.369c-0.258-0.082-0.562-0.156-0.891-0.186
					c-0.328-0.031-0.677-0.049-1.024-0.06c-0.344,0.005-0.688,0.011-1.011,0.016c-0.331-0.005-0.645,0.051-0.903,0.104
					C-16.896-16.41-17.195-16.212-17.195-16.212z"/>
			</g>
			<g>
				<path fill="#3D7A29" d="M-16.486-15.462c0,0,0.22-0.121,0.56-0.185c0.348-0.077,0.768-0.058,1.273-0.023
					c0.491-0.009,0.966-0.058,1.317-0.081c0.351-0.022,0.6-0.002,0.6-0.002s-0.21-0.145-0.582-0.222
					c-0.371-0.088-0.86-0.076-1.333-0.094c-0.229,0.011-0.479-0.005-0.721,0.023c-0.24,0.024-0.455,0.109-0.628,0.188
					C-16.35-15.686-16.486-15.462-16.486-15.462z"/>
			</g>
			<g>
				<path fill="#3D7A29" d="M-16.486-14.962c0,0,0.301-0.154,0.769-0.277c0.232-0.069,0.51-0.107,0.804-0.139
					c0.292-0.037,0.607-0.012,0.954-0.021c0.673-0.046,1.323-0.159,1.804-0.211c0.24-0.018,0.441-0.03,0.579,0
					c0.139,0.024,0.215,0.065,0.215,0.065c0.016-0.002-0.265-0.264-0.793-0.29c-0.512-0.056-1.175,0.021-1.822,0.037
					c-0.312,0.027-0.661,0.019-0.983,0.077c-0.321,0.052-0.603,0.168-0.835,0.272C-16.26-15.223-16.486-14.962-16.486-14.962z"/>
			</g>
			<g>
				<path fill="#3D7A29" d="M-0.986-11.795c0,0,0.311-0.157,0.789-0.318c0.476-0.164,1.124-0.331,1.783-0.383
					c0.328-0.041,0.66-0.051,0.972-0.043c0.31,0.022,0.606,0.017,0.856,0.058c0.253,0.023,0.464,0.053,0.612,0.076
					c0.151,0.017,0.237,0.027,0.237,0.027s-0.078-0.037-0.215-0.102c-0.14-0.055-0.335-0.162-0.59-0.222
					c-0.498-0.163-1.207-0.255-1.912-0.192c-0.35,0.049-0.698,0.113-1.013,0.216c-0.318,0.093-0.593,0.238-0.824,0.361
					C-0.75-12.058-0.986-11.795-0.986-11.795z"/>
			</g>
			<g>
				<path fill="#3D7A29" d="M-2.07-12.462c0,0,0.318-0.043,0.794-0.108c0.235-0.03,0.51-0.064,0.804-0.101
					c0.293-0.038,0.605-0.071,0.919-0.085c0.624-0.065,1.25-0.065,1.724-0.062C2.408-12.81,2.61-12.816,2.749-12.8
					c0.142,0.003,0.223,0.005,0.223,0.005s-0.076-0.03-0.208-0.081c-0.134-0.047-0.326-0.121-0.566-0.166
					c-0.239-0.045-0.521-0.108-0.826-0.116c-0.305-0.018-0.631-0.014-0.956,0.004c-0.649,0.062-1.286,0.201-1.744,0.367
					C-1.788-12.629-2.07-12.462-2.07-12.462z"/>
			</g>
		</g>
		<path fill="#5AB140" stroke="#3D7A29" stroke-width="0.5" stroke-miterlimit="10" d="M28.514-8.92c0,0,4.125-0.375,5.316-2.933
			c0.109-0.234,0.065-0.512-0.133-0.678c-0.304-0.256-0.861-0.635-1.808-1.014l-6.333,4L28.514-8.92z"/>
		<g>
			<path fill="#5AB140" stroke="#3D7A29" stroke-width="0.5" stroke-miterlimit="10" d="M26.68-9.337
				c0.823-0.25,2.491-0.544,2.708-0.833c0.694-0.004,1.015-0.096,1.25-0.208c0,0,3.542,0.5,4.167,0.167c0,0-0.208-0.958-2.917-1.667
				c-1.9-0.497-4.167-0.292-4.167-0.292l-4.167,1.292L26.68-9.337z"/>
			<g>
				<path fill="#3D7A29" d="M29.472-10.17c0,0-0.031-0.002-0.064-0.018c-0.039-0.014-0.04-0.057-0.042-0.093
					c-0.008-0.042,0.012-0.111,0.009-0.18c-0.001-0.072,0.005-0.154,0.015-0.238c-0.004-0.086-0.008-0.172-0.012-0.252
					c0.003-0.082-0.03-0.163-0.035-0.231c-0.029-0.138-0.079-0.238-0.079-0.238s-0.077,0.079-0.144,0.209
					c-0.072,0.13-0.111,0.313-0.129,0.507c0.011,0.19,0.04,0.407,0.191,0.55c0.073,0.083,0.2,0.071,0.237,0.041
					C29.464-10.141,29.472-10.17,29.472-10.17z"/>
			</g>
			<g>
				<path fill="#3D7A29" d="M30.639-10.378c0,0,0.06-0.05,0.118-0.092c0.064-0.041,0.104-0.091,0.152-0.135
					c0.012-0.031,0.027-0.063,0.045-0.093c0.019-0.028,0.019-0.078,0.034-0.109c0.019-0.074,0.026-0.154,0.026-0.154
					s-0.072-0.033-0.162-0.025c-0.095,0.001-0.192,0.065-0.271,0.153c-0.026,0.054-0.047,0.11-0.06,0.164
					c-0.015,0.054,0.007,0.114,0.015,0.157C30.568-10.421,30.639-10.378,30.639-10.378z"/>
			</g>
			<g>
				<path fill="#3D7A29" d="M30.097-10.253c0,0-0.034-0.01-0.07-0.037c-0.044-0.027-0.043-0.075-0.035-0.124
					c0.002-0.057,0.049-0.135,0.073-0.22c0.03-0.089,0.07-0.184,0.117-0.28c0.032-0.101,0.065-0.205,0.102-0.301
					c0.04-0.095,0.045-0.199,0.072-0.28c0.036-0.169,0.034-0.3,0.034-0.3s-0.109,0.067-0.233,0.195
					c-0.128,0.126-0.247,0.325-0.347,0.541c-0.071,0.223-0.133,0.479-0.033,0.701c0.045,0.122,0.187,0.161,0.239,0.143
					C30.075-10.227,30.097-10.253,30.097-10.253z"/>
			</g>
		</g>
		<g>
			<path fill="#5AB140" stroke="#3D7A29" stroke-width="0.5" stroke-miterlimit="10" d="M15.014-11.003c0,0,6-4.875,8.708-4.125
				c0,0,1.458-0.542,2-1.083c0,0-1.792-0.917,0.375-3.958v2.125c0,0,1.667-0.208,2.417,0c0,0,1.25-1.708,2.958-2.583
				c0,0-1.125,1.875-1.75,2.875c0,0,2.083-0.25,2.542,0.375c0,0,0.958-0.792,2.125-1l-1.25,1.625c0,0,0.917,0.333,0.917,1.542
				s-1.917,2.875-4.792,3.792s-4.458,0.5-4.458,0.5l-1,1.292L15.014-11.003z"/>
			<g>
				<path fill="#3D7A29" d="M25.722-16.212c0.444,0.364,0.997,0.58,1.562,0.707c0.569,0.12,1.162,0.119,1.74,0.042l-0.135-0.027
					c0.967,0.528,2.026,0.954,3.135,0.924c-0.528-0.141-1.028-0.322-1.515-0.538c-0.482-0.22-0.971-0.446-1.412-0.725
					c-0.042-0.026-0.09-0.035-0.135-0.027c-0.536,0.093-1.084,0.101-1.628,0.044C26.79-15.87,26.247-15.997,25.722-16.212z"/>
			</g>
			<g>
				<path fill="#3D7A29" d="M25.962-18.003c0,0,0.068,0.093,0.18,0.193c0.059,0.043,0.118,0.111,0.193,0.155
					c0.072,0.048,0.15,0.099,0.227,0.149c0.165,0.079,0.317,0.165,0.44,0.219c0.121,0.054,0.21,0.127,0.21,0.127
					s0.037-0.121-0.044-0.279c-0.072-0.16-0.237-0.301-0.407-0.414c-0.184-0.09-0.374-0.156-0.531-0.165
					C26.075-18.03,25.962-18.003,25.962-18.003z"/>
			</g>
			<g>
				<path fill="#3D7A29" d="M29.585-17.66c0,0,0.078,0.064,0.182,0.127c0.103,0.069,0.24,0.12,0.359,0.185
					c0.131,0.04,0.245,0.097,0.354,0.135c0.105,0.041,0.198,0.085,0.198,0.085s0.025-0.103-0.033-0.237
					c-0.052-0.139-0.201-0.27-0.365-0.351c-0.088-0.025-0.175-0.046-0.256-0.056c-0.082-0.013-0.162,0.011-0.226,0.018
					C29.666-17.723,29.585-17.66,29.585-17.66z"/>
			</g>
			<g>
				<path fill="#3D7A29" d="M33.462-15.566c0,0,0.003-0.105-0.021-0.233c-0.019-0.131-0.082-0.279-0.13-0.423
					c-0.039-0.066-0.071-0.131-0.096-0.192c-0.02-0.059-0.064-0.109-0.073-0.152c-0.046-0.082-0.002-0.187-0.002-0.187
					s-0.024-0.004-0.072,0.009c-0.04,0.013-0.118,0.06-0.148,0.142c-0.082,0.168-0.034,0.371,0.025,0.541
					c0.045,0.081,0.094,0.155,0.141,0.223c0.046,0.069,0.118,0.114,0.166,0.16C33.36-15.596,33.462-15.566,33.462-15.566z"/>
			</g>

				<path fill="none" stroke="#3D7A29" stroke-width="0.4" stroke-linecap="round" stroke-linejoin="round" stroke-miterlimit="10" d="
				M31.086-16.503c0,0,0.729-0.469,1.177-0.875"/>

				<path fill="none" stroke="#3D7A29" stroke-width="0.4" stroke-linecap="round" stroke-linejoin="round" stroke-miterlimit="10" d="
				M28.743-18.347c0,0-1.25,1.312-0.375,2.125"/>
			<g>
				<path fill="#3D7A29" d="M22.524-15.16c0,0,0.23-0.007,0.531,0.079c0.154,0.03,0.318,0.116,0.494,0.187
					c0.174,0.082,0.356,0.178,0.521,0.306c0.353,0.218,0.672,0.501,0.927,0.706c0.248,0.211,0.434,0.347,0.434,0.347
					s-0.02-0.053-0.065-0.141c-0.05-0.083-0.101-0.221-0.202-0.356c-0.182-0.287-0.496-0.621-0.875-0.889
					c-0.39-0.249-0.853-0.403-1.209-0.382C22.723-15.296,22.524-15.16,22.524-15.16z"/>
			</g>
			<g>
				<path fill="#3D7A29" d="M27.055-12.847c0,0-0.076-0.259-0.273-0.61c-0.104-0.175-0.228-0.382-0.396-0.573
					c-0.17-0.19-0.367-0.381-0.581-0.554c-0.227-0.156-0.467-0.294-0.705-0.394c-0.235-0.11-0.48-0.143-0.679-0.181
					c-0.411-0.051-0.677,0.031-0.677,0.031s0.266,0.05,0.623,0.188c0.354,0.144,0.809,0.361,1.2,0.677
					c0.205,0.144,0.398,0.307,0.569,0.473c0.169,0.169,0.339,0.316,0.464,0.462C26.867-13.044,27.055-12.847,27.055-12.847z"/>
			</g>
			<g>
				<path fill="#3D7A29" d="M28.337-12.628c0,0-0.083-0.32-0.361-0.727c-0.145-0.196-0.314-0.433-0.545-0.637
					c-0.224-0.212-0.49-0.406-0.764-0.589c-0.569-0.332-1.197-0.545-1.681-0.611c-0.237-0.055-0.444-0.044-0.584-0.057
					c-0.141-0.003-0.222-0.004-0.222-0.004s0.075,0.029,0.207,0.081c0.132,0.045,0.32,0.111,0.539,0.198
					c0.225,0.071,0.468,0.2,0.737,0.307c0.264,0.121,0.537,0.264,0.796,0.428c0.532,0.306,1.007,0.704,1.344,1.028
					C28.14-12.886,28.337-12.628,28.337-12.628z"/>
			</g>
			<g>
				<path fill="#3D7A29" d="M28.055-15.628c0,0,0.087,0.159,0.258,0.356c0.166,0.202,0.427,0.426,0.703,0.633
					c0.291,0.185,0.603,0.351,0.87,0.409c0.266,0.072,0.451,0.009,0.451,0.009s-0.164-0.067-0.36-0.215
					c-0.104-0.063-0.212-0.164-0.341-0.247c-0.128-0.086-0.261-0.184-0.393-0.284c-0.281-0.177-0.559-0.365-0.79-0.479
					C28.225-15.567,28.055-15.628,28.055-15.628z"/>
			</g>
		</g>
		<g>
			<defs>
				<path id="SVGID_1_" d="M-18.713-0.107c1.086,1.116,2.918,2.928,3.768,3.353l4.911,10.157c0.379,0.785,1.032,1.403,1.836,1.74
					l8.374,3.505c0.776,0.325,1.602,0.51,2.443,0.54c2.522,0.089,8.198,0.095,12.811-1.317c0,0,5.168-3.56,9.669-9.799
					c0.391-0.541,0.624-1.178,0.694-1.841c0.169-1.589,0.497-4.944,0.762-9.36c0,0,2-3.625,2.875-5.875c0,0,0.125-0.75-3.25-1.125
					c0,0-0.125-0.75-2.375-1.125c0,0-9-0.75-13.75-0.625c0,0-5.875,0.25-8.125,1c0,0-5.125-0.25-8.375,2.875
					c0,0-2.75,0.75-5.75,2.75c0,0-1.375,0.25-4.375,2.25l-1.973,1.315C-19.082-1.329-19.165-0.571-18.713-0.107z"/>
			</defs>
			<use xlink:href="#SVGID_1_" overflow="visible" fill="#756D0B"/>

			<g clip-path="url(#SVGID_2_)">
				<g>
					<defs>
						<path id="SVGID_3_" d="M-14.486,5.455c0,0-0.833-2.583,0.083-3.167l2.083-1l1.517-1.936c0.586-0.748,1.364-1.314,2.257-1.639
							c2.21-0.803,6.441-2.355,7.476-2.842c0.843-0.397,2.276-1.088,3.299-1.584c0.816-0.395,1.708-0.585,2.614-0.551
							c2.178,0.081,6.293,0.368,8.088,1.385c0,0,1.667-0.75,2.5-0.75s5.917,1.167,7.583,2.417c0,0,0.167,0.667,0.25,1.833
							l0.417-0.917c0,0,1.417-0.083,2,0.25c0.583,0.333,1.333,1.5,1.333,1.5l0.917,12.167l-11.833,4.333L-9.07,18.288L-14.486,5.455
							z"/>
					</defs>
					<use xlink:href="#SVGID_3_" overflow="visible" fill="#756D0B"/>

					<g clip-path="url(#SVGID_4_)">
						<path fill="#756D0B" stroke="#685A05" stroke-width="0.75" stroke-miterlimit="10" d="M-13.153,0.122l3.75,6.25
							c0,0,1.667,6,5.5,7.417"/>
						<path fill="#756D0B" stroke="#685A05" stroke-width="0.75" stroke-miterlimit="10" d="M-1.736-6.295c0,0,0.417,1.917,1.25,3
							c0,0,0.333,8.75,1.5,10.083c0,0,0.333,2.167,0,3.75"/>
						<path fill="#756D0B" stroke="#685A05" stroke-width="0.75" stroke-miterlimit="10" d="M8.847,11.788
							c0,0,1.667-1.833,3.333-8.917c0,0,1-3.5,1-5.25s-0.25-4.833-0.25-4.833"/>
						<path fill="#756D0B" stroke="#685A05" stroke-width="0.75" stroke-miterlimit="10" d="M24.014-5.545
							c0,0-0.75,4.75-2.333,9.583c0,0,0,7.083-4,9.417"/>
					</g>
					<use xlink:href="#SVGID_3_" overflow="visible" fill="none" stroke="#685A05" stroke-width="0.75" stroke-miterlimit="10"/>
				</g>
				<path fill="#756D0B" stroke="#6B600C" stroke-width="0.75" stroke-miterlimit="10" d="M-9.445,14.997l2.375-0.062
					c0,0-1.75-0.812-2.25-1.5c0,0-0.062-0.812,0.188-1.062c0,0,1.938-0.375,3.375,0.25c0,0-0.714-0.667-1.187-1.21
					c-0.11-0.126-0.105-0.314,0.011-0.435l2.277-2.364c0.505-0.524,1.151-0.891,1.86-1.057l1.762-0.411
					c0.532-0.124,1.082,0.101,1.376,0.562c0.286,0.447,0.643,0.97,0.901,1.228c0,0,0.72-0.4,1.008-1.232
					c0.166-0.48,0.62-0.803,1.119-0.899l2.037-0.394c0.57-0.11,1.155-0.078,1.708,0.097c0.546,0.173,1.251,0.417,1.812,0.681
					c0.356,0.167,0.589,0.52,0.631,0.911l0.185,1.711c0,0,1.097-0.569,1.816-1.411c0.375-0.439,0.826-0.799,1.373-0.987
					c1.529-0.524,4.526-1.454,5.936-1.227c0,0,1,0.75,1.562,2.125c0,0,0.312,1.25-0.812,3.125c0,0,1.562-1.562,2.186-3.418
					c0.154-0.459,0.54-0.805,1.022-0.853l1.667-0.167c0,0,1.375,0.625-1.375,4.063l-4.938,9.25l-20.062,0.688L-9.445,14.997z"/>
			</g>
			<use xlink:href="#SVGID_1_" overflow="visible" fill="none" stroke="#494205" stroke-width="0.75" stroke-miterlimit="10"/>
		</g>
	</g>
	<g>
		<g>
			<path fill="#8C7B18" d="M-9.42,0.829c0,0,0.414-0.313,1.068-0.709c0.657-0.395,1.553-0.88,2.495-1.247
				c0.474-0.177,0.957-0.321,1.404-0.462c0.443-0.156,0.855-0.308,1.21-0.447c0.352-0.151,0.654-0.257,0.863-0.356
				c0.211-0.088,0.331-0.153,0.331-0.153L-2.061-2.62c0,0-0.133-0.021-0.366-0.032c-0.234-0.02-0.564-0.005-0.96,0.033
				c-0.396,0.036-0.847,0.144-1.319,0.291C-5.17-2.155-5.643-1.919-6.107-1.673c-0.93,0.491-1.803,1.071-2.397,1.579
				c-0.603,0.499-0.964,0.865-0.964,0.865L-9.42,0.829z"/>
		</g>
		<g>
			<path fill="#8C7B18" d="M-9.363,2.916c0,0,1.652-1.029,3.454-1.648c0.452-0.15,0.911-0.271,1.335-0.395
				c0.42-0.14,0.809-0.279,1.143-0.411c0.332-0.143,0.615-0.246,0.811-0.343c0.197-0.087,0.309-0.15,0.309-0.15l-0.012-0.074
				c0,0-0.126-0.022-0.345-0.035c-0.221-0.022-0.53-0.01-0.903,0.018C-3.943-0.093-4.367,0-4.812,0.13
				C-5.25,0.284-5.699,0.496-6.141,0.715c-0.885,0.434-1.729,0.939-2.312,1.385c-0.592,0.436-0.954,0.756-0.954,0.756L-9.363,2.916z
				"/>
		</g>
		<g>
			<path fill="#8C7B18" d="M-2.061,1.641c0,0-0.388,0.025-0.976,0.106c-0.588,0.07-1.359,0.251-2.12,0.481
				C-5.537,2.341-5.92,2.457-6.264,2.605c-0.333,0.17-0.633,0.351-0.865,0.545c-0.231,0.195-0.419,0.363-0.533,0.504
				c-0.119,0.134-0.179,0.222-0.179,0.222l0.04,0.063c0,0,0.106-0.015,0.276-0.06c0.175-0.037,0.405-0.12,0.686-0.204
				c0.276-0.092,0.584-0.218,0.909-0.364c0.316-0.167,0.654-0.345,0.991-0.524c1.383-0.658,2.892-1.073,2.892-1.073L-2.061,1.641z"/>
		</g>
		<g>
			<path fill="#8C7B18" d="M-1.72,3.093c0,0-0.441-0.006-1.112,0.066c-0.671,0.059-1.553,0.265-2.408,0.574
				c-0.427,0.153-0.854,0.321-1.232,0.525c-0.363,0.227-0.686,0.467-0.925,0.715c-0.24,0.248-0.428,0.463-0.536,0.637
				c-0.115,0.167-0.169,0.271-0.169,0.271l0.05,0.056c0,0,0.113-0.04,0.29-0.126c0.184-0.078,0.423-0.214,0.719-0.353
				c0.29-0.149,0.618-0.328,0.965-0.525c0.339-0.211,0.699-0.444,1.078-0.65c0.765-0.398,1.587-0.684,2.218-0.866
				c0.629-0.179,1.071-0.249,1.071-0.249L-1.72,3.093z"/>
		</g>
		<g>
			<path fill="#8C7B18" d="M-1.553,4.604c0,0-0.471-0.026-1.193,0.051c-0.721,0.062-1.667,0.309-2.563,0.704
				c-0.447,0.197-0.89,0.418-1.273,0.678C-6.759,6.186-6.944,6.313-7.088,6.47C-7.24,6.619-7.376,6.765-7.488,6.914
				c-0.457,0.587-0.619,1.064-0.619,1.064l0.059,0.047c0,0,0.11-0.064,0.279-0.187C-7.6,7.719-7.36,7.55-7.072,7.347
				c0.278-0.198,0.602-0.43,0.949-0.678c0.337-0.257,0.699-0.533,1.089-0.777c0.788-0.471,1.661-0.795,2.337-0.979
				c0.673-0.183,1.15-0.234,1.15-0.234L-1.553,4.604z"/>
		</g>
		<g>
			<path fill="#8C7B18" d="M-1.39,5.906c0,0-0.353-0.004-0.893,0.06c-0.54,0.051-1.247,0.232-1.932,0.498
				c-0.342,0.131-0.686,0.274-0.984,0.45C-5.483,7.112-5.732,7.322-5.908,7.54C-6.085,7.758-6.22,7.946-6.292,8.099
				C-6.37,8.245-6.403,8.337-6.403,8.337L-6.35,8.39c0,0,0.094-0.031,0.239-0.099c0.151-0.061,0.342-0.171,0.58-0.284
				C-5.3,7.886-5.044,7.738-4.776,7.57c0.259-0.18,0.532-0.385,0.823-0.567c0.589-0.35,1.232-0.609,1.728-0.782
				C-1.732,6.053-1.38,5.98-1.38,5.98L-1.39,5.906z"/>
		</g>
		<g>
			<path fill="#8C7B18" d="M-13.64,4.187c-0.004-0.014,0.331-0.242,0.644-0.265c0.082-0.001,0.161,0.018,0.223,0.015
				c0.058-0.021,0.109-0.058,0.161-0.113c0.099-0.111,0.217-0.242,0.218-0.249l0.012-0.074c0,0-0.069-0.176-0.255-0.276
				c-0.092-0.053-0.206-0.064-0.321-0.046c-0.111,0.04-0.212,0.125-0.302,0.205c-0.184,0.156-0.327,0.339-0.378,0.504
				c-0.062,0.163-0.066,0.261-0.066,0.261L-13.64,4.187z"/>
		</g>
		<g>
			<path fill="#8C7B18" d="M-12.443,5.382c0,0,0.457-0.213,0.893-0.332c0.114-0.023,0.23-0.031,0.327-0.059
				c0.089-0.047,0.167-0.106,0.228-0.184c0.059-0.084,0.114-0.149,0.148-0.22c0.036-0.062,0.054-0.112,0.054-0.112l-0.018-0.073
				c0,0-0.039-0.034-0.105-0.07c-0.068-0.045-0.158-0.068-0.27-0.094c-0.11-0.022-0.229-0.005-0.347,0.036
				c-0.11,0.061-0.209,0.159-0.307,0.251c-0.419,0.335-0.654,0.803-0.654,0.803L-12.443,5.382z"/>
		</g>
		<g>
			<path fill="#8C7B18" d="M-11.77,7.63c0,0,0.491-0.365,1-0.591c0.133-0.051,0.27-0.084,0.385-0.135
				c0.106-0.067,0.199-0.144,0.271-0.234c0.07-0.097,0.135-0.172,0.174-0.25c0.042-0.069,0.063-0.122,0.063-0.122L-9.9,6.227
				c0,0-0.048-0.029-0.129-0.055c-0.083-0.035-0.192-0.045-0.325-0.052c-0.132-0.004-0.271,0.036-0.41,0.101
				c-0.127,0.085-0.241,0.209-0.352,0.327c-0.226,0.231-0.428,0.475-0.538,0.688c-0.118,0.208-0.176,0.347-0.176,0.347L-11.77,7.63z
				"/>
		</g>
		<g>
			<path fill="#8C7B18" d="M-10.94,9.963c0,0,0.509-0.351,1.034-0.551c0.136-0.044,0.276-0.07,0.395-0.114
				c0.111-0.061,0.208-0.132,0.287-0.218c0.077-0.093,0.148-0.163,0.192-0.238c0.047-0.066,0.073-0.118,0.073-0.118l-0.018-0.073
				c0,0-0.047-0.032-0.126-0.063c-0.082-0.04-0.19-0.057-0.324-0.072c-0.133-0.012-0.277,0.02-0.421,0.078
				c-0.134,0.078-0.257,0.197-0.376,0.31c-0.242,0.221-0.459,0.458-0.579,0.667c-0.129,0.205-0.193,0.342-0.193,0.342L-10.94,9.963z
				"/>
		</g>
		<g>
			<path fill="#8C7B18" d="M-9.438,10.715c0,0,0.326-0.127,0.602-0.158c0.074-0.002,0.149,0.013,0.207,0.003
				c0.051-0.028,0.092-0.071,0.126-0.135c0.066-0.127,0.123-0.285,0.122-0.292l-0.01-0.074c0,0-0.025-0.04-0.071-0.084
				c-0.047-0.054-0.111-0.089-0.193-0.13c-0.081-0.037-0.17-0.035-0.258-0.012c-0.08,0.045-0.148,0.126-0.212,0.199
				c-0.133,0.14-0.246,0.286-0.294,0.42c-0.057,0.131-0.074,0.213-0.074,0.213L-9.438,10.715z"/>
		</g>
		<g>
			<path fill="#8C7B18" d="M-9.543,12.28c0,0,0.51-0.299,1.01-0.524c0.131-0.05,0.267-0.086,0.38-0.14
				c0.103-0.071,0.191-0.152,0.256-0.247c0.062-0.101,0.119-0.18,0.149-0.261c0.034-0.072,0.049-0.126,0.049-0.126l-0.031-0.068
				c0,0-0.05-0.025-0.13-0.044c-0.084-0.028-0.188-0.031-0.315-0.032c-0.126,0.002-0.255,0.045-0.382,0.11
				c-0.116,0.085-0.219,0.205-0.322,0.318c-0.443,0.424-0.719,0.962-0.719,0.962L-9.543,12.28z"/>
		</g>
		<g>
			<path fill="#8C7B18" d="M1.793,5.414c0,0,1.883-0.225,3.738-0.081c0.463,0.042,0.922,0.11,1.352,0.161
				c0.431,0.033,0.835,0.054,1.186,0.057c0.353-0.006,0.648,0.004,0.86-0.013C9.14,5.53,9.265,5.512,9.265,5.512l0.017-0.073
				c0,0-0.106-0.067-0.298-0.16c-0.191-0.102-0.475-0.206-0.82-0.321c-0.346-0.114-0.762-0.19-1.21-0.243
				C6.501,4.688,6.018,4.708,5.539,4.733c-0.959,0.047-1.91,0.163-2.607,0.323C2.231,5.206,1.779,5.34,1.779,5.34L1.793,5.414z"/>
		</g>
		<g>
			<path fill="#8C7B18" d="M1.71,4.245c0,0,2.004-0.291,3.989-0.172c0.496,0.035,0.987,0.099,1.447,0.145
				c0.461,0.03,0.893,0.049,1.268,0.052c0.377-0.007,0.691,0.003,0.917-0.013C9.556,4.25,9.688,4.233,9.688,4.233l0.016-0.073
				c0,0-0.114-0.067-0.322-0.161C9.177,3.895,8.872,3.79,8.501,3.677C8.13,3.563,7.686,3.489,7.206,3.44
				C6.725,3.416,6.209,3.441,5.698,3.473C4.675,3.534,3.663,3.671,2.921,3.852c-0.746,0.169-1.226,0.32-1.226,0.32L1.71,4.245z"/>
		</g>
		<g>
			<path fill="#8C7B18" d="M4.209,2.164c0,0,1.593-0.15,3.16-0.068c0.39,0.035,0.78,0.07,1.146,0.104
				C8.88,2.209,9.221,2.204,9.519,2.18c0.298-0.033,0.548-0.048,0.727-0.085c0.178-0.027,0.283-0.056,0.283-0.056l0.011-0.074
				c0,0-0.092-0.057-0.259-0.132c-0.165-0.084-0.409-0.163-0.705-0.251C9.28,1.496,8.927,1.446,8.548,1.419
				C8.167,1.416,7.76,1.456,7.357,1.496C6.55,1.571,5.752,1.689,5.166,1.837c-0.589,0.138-0.97,0.253-0.97,0.253L4.209,2.164z"/>
		</g>
		<g>
			<path fill="#8C7B18" d="M1.731,0.954c0,0,0.389-0.096,0.97-0.174c0.584-0.075,1.36-0.143,2.132-0.105
				c0.386,0.026,0.766,0.081,1.121,0.12C6.31,0.819,6.645,0.832,6.938,0.831c0.295-0.011,0.541-0.002,0.721-0.02
				c0.178-0.008,0.285-0.025,0.285-0.025l0.02-0.072c0,0-0.084-0.066-0.242-0.159C7.567,0.453,7.331,0.35,7.041,0.24
				c-0.29-0.111-0.644-0.18-1.025-0.223C5.632,0,5.221,0.033,4.816,0.075C4.005,0.156,3.211,0.321,2.641,0.524
				C2.067,0.716,1.708,0.883,1.708,0.883L1.731,0.954z"/>
		</g>
		<g>
			<path fill="#8C7B18" d="M1.806-1.077c0,0,0.597-0.188,1.502-0.356c0.907-0.168,2.128-0.31,3.345-0.278
				c0.609,0.025,1.211,0.094,1.773,0.159C8.992-1.499,9.52-1.45,9.973-1.407c0.461,0.041,0.846,0.075,1.115,0.099
				c0.272,0.026,0.434,0.029,0.434,0.029l0.023-0.071c0,0-0.136-0.085-0.384-0.211c-0.246-0.134-0.614-0.282-1.067-0.433
				C9.867-2.072,9.617-2.135,9.35-2.193c-0.266-0.069-0.553-0.09-0.848-0.136C7.907-2.373,7.271-2.353,6.64-2.31
				C5.378-2.225,4.136-1.985,3.244-1.688c-0.899,0.283-1.462,0.54-1.462,0.54L1.806-1.077z"/>
		</g>
		<g>
			<path fill="#8C7B18" d="M2.036-3.212c0,0,0.552-0.146,1.382-0.27c0.833-0.123,1.948-0.225,3.058-0.18
				c0.555,0.031,1.104,0.098,1.617,0.158c0.517,0.041,1,0.08,1.413,0.113c0.423,0.025,0.775,0.045,1.021,0.06
				c0.25,0.015,0.398,0.01,0.398,0.01l0.021-0.072c0,0-0.124-0.079-0.352-0.193C10.37-3.709,10.033-3.841,9.62-3.98
				C9.413-4.049,9.185-4.106,8.941-4.158C8.699-4.221,8.436-4.239,8.168-4.281C7.625-4.319,7.045-4.299,6.469-4.262
				C5.318-4.188,4.183-3.99,3.363-3.738C2.536-3.499,2.015-3.284,2.015-3.284L2.036-3.212z"/>
		</g>
		<g>
			<path fill="#8C7B18" d="M2.462-5.172c0,0,0.954-0.078,1.878-0.049c0.232,0.015,0.463,0.047,0.677,0.054
				C5.23-5.18,5.43-5.207,5.604-5.256c0.174-0.056,0.322-0.095,0.427-0.148c0.105-0.044,0.168-0.083,0.168-0.083l0.006-0.075
				c0,0-0.055-0.047-0.156-0.106c-0.1-0.068-0.248-0.123-0.428-0.188c-0.18-0.061-0.394-0.088-0.623-0.092
				C4.769-5.93,4.528-5.872,4.289-5.819C3.325-5.648,2.444-5.245,2.444-5.245L2.462-5.172z"/>
		</g>
		<g>
			<path fill="#8C7B18" d="M13.037,5.745c0,0,1.543,0.001,3.038,0.226c0.37,0.071,0.741,0.142,1.088,0.208
				c0.349,0.042,0.677,0.069,0.965,0.071c0.289-0.005,0.531,0.002,0.706-0.019c0.174-0.01,0.277-0.03,0.277-0.03l0.019-0.073
				c0,0-0.083-0.065-0.235-0.154c-0.15-0.099-0.376-0.199-0.652-0.314c-0.276-0.113-0.61-0.194-0.973-0.256
				c-0.366-0.038-0.76-0.036-1.151-0.033c-0.782,0-1.56,0.044-2.136,0.137c-0.578,0.082-0.954,0.161-0.954,0.161L13.037,5.745z"/>
		</g>
		<g>
			<path fill="#8C7B18" d="M14.216,4.187c0,0,0.408-0.067,1.002-0.06c0.598,0.008,1.387,0.094,2.13,0.33
				c0.369,0.127,0.72,0.289,1.046,0.437c0.335,0.135,0.648,0.261,0.917,0.37c0.281,0.109,0.516,0.199,0.68,0.263
				c0.167,0.067,0.275,0.096,0.275,0.096l0.048-0.057c0,0-0.204-0.39-0.691-0.814c-0.12-0.108-0.261-0.208-0.417-0.306
				c-0.15-0.108-0.332-0.178-0.509-0.271c-0.375-0.143-0.794-0.233-1.211-0.301c-0.835-0.137-1.679-0.13-2.29-0.008
				c-0.617,0.108-0.995,0.248-0.995,0.248L14.216,4.187z"/>
		</g>
		<g>
			<path fill="#8C7B18" d="M13.363,2.844c0,0,0.471-0.023,1.157,0.034c0.688,0.058,1.597,0.193,2.463,0.461
				c0.431,0.142,0.848,0.318,1.237,0.476c0.399,0.141,0.771,0.273,1.09,0.385c0.332,0.107,0.608,0.195,0.802,0.258
				c0.197,0.063,0.319,0.089,0.319,0.089l0.041-0.063c0,0-0.075-0.098-0.222-0.251c-0.143-0.16-0.375-0.353-0.667-0.567
				c-0.292-0.217-0.669-0.409-1.087-0.582c-0.428-0.147-0.901-0.246-1.372-0.329C16.18,2.59,15.226,2.545,14.52,2.615
				C13.81,2.672,13.356,2.77,13.356,2.77L13.363,2.844z"/>
		</g>
		<g>
			<path fill="#8C7B18" d="M13.862,1.343c0,0,0.462-0.043,1.134-0.003c0.675,0.041,1.566,0.167,2.408,0.443
				c0.419,0.146,0.82,0.328,1.193,0.496c0.383,0.154,0.74,0.297,1.046,0.421c0.318,0.122,0.583,0.224,0.769,0.295
				c0.189,0.074,0.307,0.107,0.307,0.107l0.046-0.059c0,0-0.066-0.101-0.2-0.262c-0.129-0.168-0.344-0.372-0.621-0.599
				c-0.138-0.114-0.299-0.222-0.474-0.328c-0.17-0.116-0.372-0.193-0.571-0.294c-0.417-0.159-0.882-0.269-1.346-0.357
				c-0.928-0.177-1.87-0.213-2.563-0.125c-0.697,0.074-1.137,0.191-1.137,0.191L13.862,1.343z"/>
		</g>
		<g>
			<path fill="#8C7B18" d="M15.113-0.376c0,0,1.597,0.213,3.064,0.768c0.365,0.144,0.718,0.313,1.051,0.456
				c0.34,0.128,0.662,0.238,0.948,0.319c0.29,0.073,0.529,0.149,0.709,0.181c0.176,0.041,0.284,0.053,0.284,0.053l0.038-0.065
				c0,0-0.065-0.087-0.194-0.218c-0.124-0.14-0.325-0.303-0.575-0.49c-0.25-0.187-0.571-0.354-0.925-0.507
				c-0.364-0.129-0.768-0.22-1.169-0.305c-0.801-0.173-1.611-0.277-2.22-0.28c-0.61-0.014-1.009,0.013-1.009,0.013L15.113-0.376z"/>
		</g>
		<g>
			<path fill="#8C7B18" d="M14.95-2.591c0,0,0.438,0.01,1.068,0.113c0.632,0.105,1.459,0.302,2.233,0.627
				c0.384,0.17,0.75,0.372,1.092,0.554c0.354,0.166,0.684,0.321,0.967,0.454c0.297,0.128,0.545,0.235,0.718,0.31
				c0.177,0.076,0.289,0.111,0.289,0.111l0.048-0.057c0,0-0.056-0.101-0.174-0.261c-0.112-0.167-0.304-0.372-0.551-0.604
				c-0.246-0.234-0.577-0.451-0.948-0.652c-0.384-0.176-0.816-0.308-1.247-0.423c-0.863-0.231-1.747-0.342-2.407-0.321
				c-0.663,0.008-1.089,0.074-1.089,0.074L14.95-2.591z"/>
		</g>
		<g>
			<path fill="#8C7B18" d="M15.034-4.201c0,0,0.329-0.01,0.802,0.041c0.476,0.054,1.099,0.157,1.689,0.358
				c0.293,0.107,0.573,0.241,0.836,0.353c0.269,0.098,0.525,0.18,0.754,0.241c0.234,0.052,0.426,0.113,0.575,0.137
				c0.144,0.032,0.236,0.04,0.236,0.04l0.042-0.062c0,0-0.043-0.079-0.137-0.201c-0.089-0.129-0.243-0.277-0.439-0.446
				c-0.197-0.169-0.459-0.313-0.753-0.439c-0.303-0.101-0.641-0.159-0.975-0.207c-0.668-0.099-1.338-0.112-1.831-0.037
				c-0.496,0.062-0.807,0.147-0.807,0.147L15.034-4.201z"/>
		</g>
		<g>
			<path fill="#8C7B18" d="M23.107,6.141c0,0,0.362,0.245,0.738,0.424c0.092,0.054,0.182,0.118,0.272,0.15
				c0.095,0.011,0.187,0.003,0.272-0.035c0.087-0.043,0.158-0.076,0.214-0.127c0.054-0.041,0.088-0.078,0.088-0.078l0.015-0.073
				c0,0-0.016-0.048-0.049-0.107c-0.031-0.068-0.083-0.128-0.145-0.202c-0.063-0.07-0.144-0.114-0.235-0.142
				c-0.095-0.007-0.203,0.015-0.309,0.027c-0.416,0.012-0.846,0.09-0.846,0.09L23.107,6.141z"/>
		</g>
		<g>
			<path fill="#8C7B18" d="M22.694,4.56c0,0,0.655,0.224,1.179,0.58c0.123,0.099,0.246,0.197,0.361,0.29
				c0.126,0.067,0.253,0.118,0.379,0.146c0.13,0.021,0.237,0.05,0.33,0.051c0.087,0.009,0.148,0.005,0.148,0.005l0.051-0.055
				c0,0-0.002-0.06-0.025-0.149c-0.017-0.096-0.072-0.204-0.145-0.333c-0.074-0.127-0.195-0.238-0.338-0.336
				c-0.155-0.078-0.339-0.123-0.517-0.167c-0.354-0.093-0.708-0.15-0.977-0.136c-0.27,0.004-0.438,0.029-0.438,0.029L22.694,4.56z"/>
		</g>
		<g>
			<path fill="#8C7B18" d="M23.598,3.055c0,0,0.464,0.408,0.86,0.83c0.095,0.113,0.178,0.235,0.271,0.33
				c0.106,0.079,0.216,0.141,0.331,0.176c0.12,0.03,0.217,0.061,0.305,0.065c0.081,0.011,0.139,0.008,0.139,0.008l0.055-0.051
				c0,0,0.006-0.057-0.004-0.14c-0.003-0.09-0.037-0.192-0.081-0.316c-0.047-0.121-0.133-0.234-0.24-0.337
				c-0.122-0.086-0.273-0.15-0.419-0.216c-0.563-0.301-1.183-0.415-1.183-0.415L23.598,3.055z"/>
		</g>
		<g>
			<path fill="#8C7B18" d="M24.098,0.221c0,0,0.416,0.375,0.711,0.783C24.879,1.113,24.933,1.23,25,1.322
				c0.081,0.079,0.17,0.142,0.268,0.184c0.104,0.038,0.188,0.077,0.269,0.092c0.073,0.02,0.129,0.026,0.129,0.026l0.064-0.039
				c0,0,0.019-0.051,0.029-0.13c0.018-0.084,0.007-0.185-0.01-0.308c-0.02-0.121-0.083-0.239-0.17-0.349
				c-0.103-0.095-0.24-0.168-0.37-0.24c-0.502-0.327-1.078-0.403-1.078-0.403L24.098,0.221z"/>
		</g>
		<g>
			<path fill="#8C7B18" d="M25.006-1.371c0,0,0.315,0.539,0.493,1.081c0.038,0.14,0.059,0.284,0.099,0.407
				c0.058,0.116,0.126,0.218,0.21,0.301c0.091,0.081,0.16,0.156,0.234,0.203c0.065,0.049,0.116,0.076,0.116,0.076l0.073-0.017
				c0,0,0.033-0.046,0.066-0.125c0.042-0.081,0.062-0.19,0.081-0.323c0.016-0.133-0.011-0.278-0.063-0.423
				c-0.073-0.137-0.186-0.265-0.293-0.39c-0.398-0.53-0.963-0.841-0.963-0.841L25.006-1.371z"/>
		</g>
		<g>
			<path fill="#8C7B18" d="M3.348,11.2c0.001,0.011,0.075-0.193,0.006-0.5c-0.022-0.151-0.061-0.335,0.024-0.496
				c0.078-0.157,0.275-0.277,0.51-0.357C4.375,9.698,4.986,9.54,5.613,9.35c0.318-0.093,0.632-0.19,0.903-0.157
				c0.269,0.029,0.534,0.19,0.793,0.395c0.241,0.198,0.516,0.464,0.767,0.689c0.264,0.239,0.485,0.44,0.643,0.664
				c0.17,0.213,0.218,0.388,0.22,0.625c-0.002,0.234-0.071,0.508-0.127,0.756c-0.109,0.499-0.257,0.905-0.349,1.199
				c-0.103,0.292-0.162,0.46-0.162,0.46l0.063,0.04c0,0,0.548-0.495,1.015-1.503c0.109-0.252,0.233-0.523,0.283-0.894
				c0.07-0.368-0.078-0.844-0.318-1.151c-0.241-0.304-0.546-0.545-0.82-0.741c-0.288-0.208-0.54-0.412-0.866-0.63
				c-0.305-0.203-0.679-0.409-1.11-0.423C6.121,8.67,5.778,8.827,5.475,8.938C4.854,9.174,4.29,9.389,3.787,9.604
				C3.539,9.72,3.299,9.885,3.206,10.132c-0.09,0.243-0.01,0.451,0.024,0.594c0.096,0.296,0.045,0.455,0.045,0.455L3.348,11.2z"/>
		</g>
		<g>
			<path fill="#8C7B18" d="M4.52,12.95c0.003-0.004-0.084-0.075-0.109-0.246c-0.026-0.167,0.031-0.432,0.248-0.623
				c0.211-0.2,0.557-0.328,0.926-0.511c0.184-0.087,0.374-0.177,0.567-0.269c0.099-0.048,0.194-0.092,0.224-0.088
				c0.019,0.005,0.008,0.005,0.071,0.053c0.116,0.113,0.283,0.29,0.388,0.431c0.111,0.151,0.204,0.297,0.243,0.425
				c0.059,0.127,0.06,0.21,0.048,0.33c-0.009,0.088-0.08,0.241-0.151,0.39c-0.156,0.321-0.216,0.656-0.186,0.86
				c0.016,0.211,0.066,0.319,0.066,0.319l0.075,0c0,0,0.038-0.109,0.119-0.273c0.045-0.081,0.097-0.174,0.163-0.272
				c0.066-0.102,0.156-0.182,0.262-0.3c0.107-0.121,0.248-0.257,0.351-0.526c0.1-0.235,0.076-0.568-0.021-0.815
				c-0.111-0.252-0.272-0.448-0.447-0.612c-0.185-0.172-0.337-0.29-0.562-0.444c-0.109-0.079-0.34-0.168-0.536-0.109
				c-0.183,0.052-0.27,0.131-0.358,0.182c-0.18,0.116-0.356,0.23-0.527,0.34c-0.333,0.216-0.688,0.421-0.911,0.716
				c-0.232,0.294-0.242,0.633-0.175,0.827c0.069,0.204,0.187,0.268,0.177,0.267L4.52,12.95z"/>
		</g>
		<g>
			<path fill="#8C7B18" d="M5.575,13.287c0.12-0.176,0.292-0.287,0.453-0.353l-0.328-0.123c-0.003,0.24-0.051,0.473-0.133,0.686
				c-0.038,0.106-0.018,0.216,0.006,0.337c0.032,0.123,0.079,0.254,0.167,0.422l0.07,0.027c0.179-0.07,0.299-0.182,0.388-0.307
				c0.081-0.127,0.139-0.268,0.123-0.415c-0.038-0.293-0.115-0.572-0.216-0.83L5.97,12.391l-0.195,0.216
				c-0.172,0.19-0.254,0.433-0.271,0.654L5.575,13.287z"/>
		</g>
		<g>
			<path fill="#8C7B18" d="M-2.733,13.686c0,0-0.128-0.121-0.352-0.333c-0.112-0.106-0.248-0.235-0.404-0.382
				c-0.15-0.149-0.351-0.311-0.493-0.496c-0.147-0.182-0.152-0.412-0.091-0.696c0.06-0.283,0.148-0.573,0.281-0.856
				c0.131-0.282,0.307-0.556,0.514-0.799c0.114-0.122,0.142-0.137,0.247-0.137c0.111,0.003,0.318,0.036,0.477,0.059
				c0.334,0.055,0.648,0.133,0.892,0.273c0.141,0.071,0.506,0.464,0.653,0.597c0.462,0.472,0.906,0.899,1.31,1.243
				c0.408,0.341,0.745,0.627,1.002,0.808c0.249,0.188,0.402,0.285,0.402,0.285l0.054-0.052c0,0-0.09-0.157-0.266-0.415
				c-0.168-0.265-0.438-0.616-0.758-1.039c-0.324-0.42-0.73-0.885-1.179-1.368c-0.188-0.175-0.271-0.233-0.415-0.358l-0.197-0.163
				C-1.184,9.75-1.248,9.738-1.352,9.684C-1.734,9.519-2.125,9.474-2.487,9.45C-2.678,9.441-2.821,9.42-3.061,9.43
				C-3.318,9.428-3.595,9.65-3.683,9.804c-0.219,0.303-0.388,0.624-0.511,0.952c-0.121,0.326-0.201,0.657-0.23,0.972
				c-0.045,0.305,0.011,0.701,0.239,0.916c0.207,0.212,0.406,0.332,0.575,0.469c0.171,0.13,0.32,0.244,0.442,0.337
				c0.245,0.187,0.385,0.294,0.385,0.294L-2.733,13.686z"/>
		</g>
		<g>
			<path fill="#8C7B18" d="M1.011,14.788c0,0-0.712-0.898-1.472-1.746c-0.183-0.219-0.359-0.446-0.544-0.637
				c-0.199-0.176-0.398-0.327-0.591-0.432c-0.196-0.102-0.358-0.189-0.489-0.23c-0.125-0.048-0.207-0.065-0.207-0.065l-0.051,0.055
				c0,0,0.022,0.08,0.077,0.202c0.049,0.129,0.146,0.285,0.259,0.475c0.117,0.186,0.279,0.375,0.467,0.564
				c0.202,0.173,0.439,0.335,0.669,0.505c0.892,0.707,1.832,1.364,1.832,1.364L1.011,14.788z"/>
		</g>
		<g>
			<path fill="#8C7B18" d="M2.843,14.037c0,0,0.112,0.451,0.345,0.848c0.05,0.105,0.096,0.217,0.162,0.302
				c0.081,0.069,0.171,0.119,0.27,0.135c0.102,0.013,0.185,0.024,0.261,0.009C3.951,15.323,4,15.308,4,15.308l0.049-0.057
				c0,0,0.008-0.05,0.007-0.119c0.005-0.076-0.012-0.154-0.027-0.251c-0.019-0.092-0.064-0.173-0.125-0.246
				c-0.076-0.058-0.178-0.101-0.272-0.154c-0.364-0.244-0.728-0.487-0.728-0.487L2.843,14.037z"/>
		</g>
		<g>
			<path fill="#8C7B18" d="M-6.013,11.56c0,0-0.036,0.209-0.021,0.373c-0.003,0.047-0.015,0.102-0.003,0.133
				c0.027,0.018,0.067,0.022,0.124,0.004c0.113-0.033,0.247-0.107,0.252-0.111l0.056-0.05c0.005-0.004,0.095-0.128,0.142-0.236
				c0.025-0.055,0.026-0.095,0.011-0.124c-0.03-0.015-0.085-0.011-0.133-0.014c-0.161-0.036-0.373-0.026-0.373-0.026L-6.013,11.56z"/>
		</g>
		<g>
			<path fill="#8C7B18" d="M-2.699,15.717c0,0-0.907-0.489-1.739-1.046c-0.205-0.147-0.399-0.307-0.593-0.436
				c-0.203-0.112-0.402-0.204-0.588-0.262c-0.19-0.052-0.345-0.103-0.47-0.117c-0.12-0.022-0.197-0.024-0.197-0.024l-0.044,0.061
				c0,0,0.026,0.072,0.089,0.179c0.057,0.115,0.162,0.246,0.292,0.403c0.132,0.154,0.312,0.298,0.518,0.432
				c0.218,0.115,0.468,0.204,0.713,0.295c0.967,0.407,1.993,0.585,1.993,0.585L-2.699,15.717z"/>
		</g>
		<g>
			<path fill="#8C7B18" d="M-6.04,15.418c0,0,0.829,0.678,1.796,1.16c0.236,0.13,0.474,0.264,0.709,0.358
				c0.242,0.072,0.475,0.118,0.684,0.119c0.209-0.002,0.383-0.005,0.51-0.036c0.125-0.021,0.199-0.048,0.199-0.048l0.018-0.073
				c0,0-0.054-0.058-0.151-0.135c-0.095-0.087-0.24-0.173-0.408-0.285c-0.17-0.105-0.375-0.199-0.599-0.282
				c-0.231-0.065-0.486-0.112-0.738-0.175c-0.993-0.282-1.981-0.667-1.981-0.667L-6.04,15.418z"/>
		</g>
		<g>
			<path fill="#8C7B18" d="M11.227,10.959c0,0,0.321,0.186,0.453,0.668c0.068,0.234,0.074,0.516,0.042,0.822
				c-0.017,0.153-0.046,0.313-0.079,0.478c-0.014,0.062-0.042,0.212-0.047,0.207l-0.082,0.248c-0.023,0.075-0.107,0.115-0.236,0.191
				c-0.13,0.064-0.294,0.153-0.44,0.244c-0.279,0.2-0.515,0.421-0.685,0.639c-0.344,0.436-0.463,0.805-0.463,0.805l0.055,0.051
				c0,0,0.091-0.035,0.233-0.105c0.149-0.064,0.335-0.177,0.566-0.296c0.227-0.122,0.472-0.281,0.735-0.45
				c0.122-0.097,0.25-0.18,0.404-0.31c0.141-0.12,0.362-0.319,0.406-0.596l0.042-0.26c0.03-0.175,0.016-0.199,0.025-0.307
				c0.007-0.176,0.011-0.354,0.002-0.528c-0.012-0.348-0.097-0.684-0.234-0.933c-0.272-0.517-0.677-0.637-0.659-0.633L11.227,10.959
				z"/>
		</g>
		<g>
			<path fill="#8C7B18" d="M14.026,14.492c0,0,0.74-0.223,1.787-0.733c0.523-0.254,1.12-0.585,1.722-1.001
				c0.295-0.211,0.623-0.411,0.904-0.754c0.136-0.166,0.256-0.395,0.297-0.619c0.048-0.258,0.021-0.481-0.024-0.696
				c-0.099-0.426-0.236-0.765-0.35-1.13c-0.135-0.323-0.157-0.788-0.694-1.153c-0.066-0.036-0.145-0.065-0.201-0.079
				c-0.097-0.026-0.154-0.029-0.228-0.033c-0.138-0.003-0.26,0.019-0.366,0.047c-0.218,0.058-0.362,0.128-0.514,0.193
				c-0.29,0.12-0.577,0.229-0.84,0.324c-0.527,0.2-0.985,0.319-1.307,0.42c-0.326,0.092-0.512,0.145-0.512,0.145l0.005,0.075
				c0,0,0.785,0.135,1.965-0.058c0.294-0.05,0.606-0.121,0.937-0.223c0.334-0.11,0.63-0.202,0.683-0.124
				c0.11,0.021,0.261,0.366,0.41,0.721c0.145,0.345,0.325,0.709,0.428,1.025c0.102,0.321,0.084,0.588-0.104,0.858
				c-0.179,0.263-0.475,0.49-0.75,0.714c-0.556,0.44-1.103,0.822-1.59,1.121c-0.975,0.599-1.688,0.893-1.688,0.893L14.026,14.492z"/>
		</g>
		<g>
			<path fill="#8C7B18" d="M14.24,11.152c0.539-0.211,1.122-0.411,1.637-0.285c0.127,0.03,0.247,0.072,0.351,0.134
				c0.101,0.06,0.196,0.145,0.265,0.236c0.149,0.193,0.246,0.445,0.345,0.718l0.054-0.312c-0.46,0.441-1.002,0.768-1.499,1.145
				c-0.502,0.38-1.016,0.741-1.553,1.168l0.026,0.07c0.349-0.008,0.682-0.086,1.01-0.187c0.326-0.104,0.64-0.246,0.935-0.421
				c0.596-0.346,1.063-0.868,1.5-1.382l0.134-0.157l-0.08-0.155c-0.135-0.261-0.28-0.554-0.524-0.801
				c-0.126-0.127-0.267-0.224-0.429-0.295c-0.159-0.067-0.324-0.107-0.487-0.117c-0.672-0.039-1.216,0.284-1.718,0.572L14.24,11.152
				z"/>
		</g>
		<g>
			<path fill="#8C7B18" d="M13.895,12.487c0,0,0.144-0.048,0.348-0.051c0.099,0,0.218,0.018,0.282,0.056
				c0.032,0.021,0.04,0.044,0.038,0.062c-0.004,0.01-0.006,0.044-0.021,0.049c-0.049,0.042-0.099,0.085-0.145,0.124
				c-0.013,0.035-0.052,0.07-0.064,0.111c-0.021,0.041-0.041,0.084-0.06,0.129c-0.033,0.097-0.079,0.173-0.107,0.25
				c-0.034,0.077-0.053,0.121-0.053,0.121l0.024,0.071c0,0,0.194,0.116,0.481,0.049c0.07-0.017,0.142-0.047,0.211-0.09
				c0.078-0.043,0.129-0.104,0.196-0.177c0.103-0.165,0.174-0.394,0.113-0.661c-0.031-0.139-0.1-0.24-0.201-0.332
				c-0.099-0.086-0.222-0.125-0.322-0.132c-0.203-0.014-0.339,0.06-0.446,0.118c-0.211,0.124-0.31,0.237-0.31,0.237L13.895,12.487z"/>
		</g>
		<g>
			<path fill="#8C7B18" d="M20.656,12.139c0,0,0.401-0.197,0.672-0.566c0.076-0.086,0.159-0.174,0.205-0.271
				c0.025-0.104,0.027-0.206-0.008-0.3c-0.039-0.094-0.073-0.169-0.125-0.224c-0.043-0.054-0.082-0.084-0.082-0.084l-0.074-0.011
				c-0.007-0.001-0.168,0.076-0.302,0.179c-0.068,0.052-0.116,0.116-0.149,0.19c-0.014,0.08-0.005,0.176-0.011,0.272
				c-0.051,0.364-0.184,0.768-0.184,0.768L20.656,12.139z"/>
		</g>
		<g>
			<path fill="#8C7B18" d="M16.986,16.08c0,0,0.532-0.285,1.295-0.793c0.769-0.496,1.719-1.271,2.593-2.135
				c0.437-0.431,0.866-0.876,1.226-1.328c0.338-0.469,0.627-0.926,0.823-1.347c0.197-0.419,0.346-0.775,0.421-1.037
				c0.083-0.258,0.117-0.411,0.117-0.411l-0.066-0.035c0,0-0.111,0.112-0.281,0.318c-0.168,0.204-0.409,0.495-0.697,0.844
				c-0.275,0.35-0.595,0.759-0.939,1.196c-0.326,0.448-0.671,0.931-1.046,1.394c-0.761,0.916-1.63,1.742-2.31,2.332
				c-0.681,0.588-1.177,0.939-1.177,0.939L16.986,16.08z"/>
		</g>
		<g>
			<path fill="none" d="M23.531,8.688"/>
		</g>
		<g>
			<path fill="#8C7B18" d="M-0.533,17.378c0,0,0.566-0.252,1.116-0.438c0.142-0.04,0.289-0.065,0.414-0.11
				c0.117-0.064,0.219-0.138,0.298-0.229c0.077-0.097,0.146-0.172,0.186-0.251c0.043-0.07,0.065-0.123,0.065-0.123l-0.024-0.071
				c0,0-0.049-0.028-0.13-0.054c-0.083-0.035-0.191-0.045-0.322-0.057c-0.13-0.008-0.268,0.024-0.406,0.079
				c-0.129,0.075-0.25,0.187-0.371,0.292C-0.217,16.803-0.58,17.32-0.58,17.32L-0.533,17.378z"/>
		</g>
		<g>
			<path fill="#8C7B18" d="M-1.297,15.659c0,0,0.696,0.283,1.404,0.498c0.175,0.063,0.349,0.137,0.516,0.177
				c0.171,0.019,0.333,0.019,0.478-0.013c0.145-0.037,0.266-0.065,0.355-0.112c0.087-0.037,0.14-0.073,0.14-0.073l0.012-0.074
				c0,0-0.038-0.05-0.109-0.114c-0.069-0.073-0.174-0.138-0.3-0.22c-0.127-0.077-0.28-0.129-0.448-0.166
				c-0.172-0.016-0.36-0.002-0.546,0.002c-0.739-0.024-1.489,0.02-1.489,0.02L-1.297,15.659z"/>
		</g>
		<g>
			<path fill="#8C7B18" d="M12.363,15.829c0,0,0.808,0.18,1.526,0.493c0.174,0.089,0.348,0.178,0.51,0.262
				c0.171,0.057,0.335,0.096,0.49,0.109c0.158,0.006,0.289,0.022,0.394,0.01c0.101-0.003,0.167-0.017,0.167-0.017l0.037-0.065
				c0,0-0.023-0.062-0.079-0.15c-0.051-0.097-0.146-0.199-0.265-0.321c-0.12-0.119-0.284-0.216-0.47-0.296
				c-0.194-0.059-0.412-0.083-0.625-0.109c-0.425-0.057-0.848-0.082-1.164-0.049c-0.317,0.024-0.519,0.059-0.519,0.059
				L12.363,15.829z"/>
		</g>
		<g>
			<path fill="#8C7B18" d="M14.433,16.102c0,0,0.312-0.005,0.789-0.144c0.477-0.122,1.054-0.45,1.582-0.815
				c0.268-0.178,0.534-0.356,0.763-0.543c0.213-0.202,0.396-0.403,0.536-0.593c0.279-0.379,0.436-0.688,0.436-0.688l-0.044-0.06
				c0,0-0.088,0.013-0.229,0.057c-0.148,0.036-0.333,0.126-0.553,0.235c-0.219,0.113-0.442,0.278-0.667,0.467
				c-0.21,0.203-0.41,0.442-0.624,0.663c-0.431,0.436-0.907,0.807-1.302,1.036c-0.39,0.227-0.703,0.312-0.703,0.312L14.433,16.102z"/>
		</g>
		<g>
			<path fill="#8C7B18" d="M2.564,18.563l-0.518-0.445l0.012,0.098c0.323-0.356,0.832-0.433,1.317-0.525
				c0.486-0.087,0.981-0.142,1.474-0.189c0.989-0.087,1.984-0.101,2.985-0.095c1.004,0.009,1.989,0.035,2.955,0.083
				c0.484,0.026,0.963,0.079,1.443,0.158c0.247,0.038,0.467,0.083,0.584,0.195c0.137,0.053,0.057,0.391-0.148,0.348l-0.04,0.063
				c0.307,0.213,0.67-0.261,0.462-0.594c-0.183-0.308-0.494-0.396-0.717-0.496c-0.482-0.205-0.995-0.32-1.507-0.402
				c-1.03-0.159-2.056-0.066-3.054,0.015C6.81,16.855,5.8,16.931,4.798,17.094c-0.502,0.079-0.996,0.188-1.488,0.324
				c-0.467,0.138-1.027,0.268-1.361,0.712l-0.044,0.059l0.056,0.04l0.557,0.395L2.564,18.563z"/>
		</g>
		<g>
			<path fill="#8C7B18" d="M5.465,19.248L4.848,18.69l-0.012,0.183c0.901-0.38,1.901-0.267,2.916-0.231
				c0.506,0.041,1.016,0.032,1.484-0.001c0.478-0.026,0.92-0.037,1.427,0.104l0.044-0.061c-0.319-0.458-0.91-0.677-1.433-0.752
				c-0.541-0.082-1.04-0.021-1.542,0.04c-0.502,0.065-1.006,0.09-1.524,0.174c-0.514,0.077-1.04,0.235-1.48,0.534l-0.146,0.099
				l0.134,0.084l0.705,0.443L5.465,19.248z"/>
		</g>
		<g>
			<path fill="#8C7B18" d="M-16.236-1.545c0,0,0.325,0.411,0.812,1.026c0.248,0.311,0.518,0.662,0.849,1.052
				c0.072,0.09,0.273,0.265,0.518,0.224c0.203-0.031,0.323-0.121,0.434-0.179c0.225-0.124,0.454-0.251,0.682-0.377l0.364-0.198
				c0.113-0.067,0.231-0.14,0.348-0.222c0.237-0.167,0.466-0.375,0.62-0.711c0.112-0.289,0.13-0.637,0.053-0.9
				c-0.069-0.273-0.191-0.494-0.337-0.679c-0.289-0.339-0.584-0.529-0.795-0.639c-0.208-0.115-0.336-0.164-0.336-0.164l-0.048,0.057
				c0,0,0.074,0.117,0.209,0.304c0.126,0.195,0.331,0.442,0.465,0.766c0.061,0.147,0.114,0.32,0.129,0.489
				c0.007,0.176,0.01,0.322-0.07,0.486c-0.04,0.117-0.168,0.288-0.333,0.44c-0.083,0.078-0.177,0.155-0.278,0.236l-0.298,0.219
				c-0.214,0.151-0.429,0.301-0.64,0.449c-0.106,0.078-0.199,0.142-0.248,0.154c-0.015,0.013-0.042,0.015-0.135-0.065
				c-0.351-0.337-0.679-0.651-0.96-0.92c-0.571-0.54-0.951-0.9-0.951-0.9L-16.236-1.545z"/>
		</g>
		<g>
			<path fill="#8C7B18" d="M-15.041-2.331c0,0,0.096,0.206,0.241,0.516c0.074,0.154,0.156,0.35,0.337,0.534
				c0.167,0.188,0.505,0.349,0.844,0.266c0.177-0.048,0.357-0.116,0.493-0.378l0.04-0.074c0.02-0.055,0.034-0.128,0.04-0.193
				c0.005-0.11-0.009-0.207-0.034-0.293c-0.136-0.315-0.303-0.431-0.435-0.532c-0.271-0.165-0.427-0.313-0.436-0.33l-0.075,0.005
				c0,0-0.046,0.063-0.056,0.19C-14.105-2.491-14.06-2.314-14-2.133c0.06,0.173,0.166,0.354,0.182,0.435
				c0.008,0.014,0.014,0.022,0.02,0.021c-0.001-0.011,0.008-0.03,0.02-0.031l-0.015,0.082c0.042-0.059,0.029,0.02-0.008,0.039
				c-0.097,0.057-0.239,0.065-0.385-0.028c-0.143-0.088-0.28-0.227-0.398-0.348c-0.237-0.246-0.395-0.41-0.395-0.41L-15.041-2.331z"/>
		</g>
		<g>
			<path fill="#8C7B18" d="M-17.584-0.11c0,0,0.349,0.538,0.743,1.026c0.092,0.129,0.177,0.266,0.277,0.372
				c0.114,0.091,0.232,0.162,0.355,0.199c0.127,0.033,0.23,0.063,0.321,0.064c0.085,0.007,0.142,0.001,0.142,0.001l0.05-0.056
				c0,0,0-0.058-0.016-0.141c-0.01-0.09-0.05-0.19-0.095-0.313c-0.049-0.119-0.132-0.229-0.234-0.333
				c-0.116-0.088-0.261-0.159-0.398-0.238c-0.525-0.343-1.095-0.636-1.095-0.636L-17.584-0.11z"/>
		</g>
		<g>
			<path fill="#8C7B18" d="M-10.703-5.086c0,0,0.065,0.093,0.137,0.271c0.078,0.178,0.145,0.445,0.26,0.776
				c0.109,0.331,0.353,0.733,0.753,0.99c0.388,0.266,0.93,0.408,1.452,0.313c0.261-0.038,0.515-0.13,0.747-0.262
				c0.233-0.142,0.428-0.292,0.6-0.567c0.076-0.139,0.128-0.34,0.104-0.522C-6.672-4.261-6.729-4.381-6.775-4.47
				c-0.087-0.175-0.174-0.337-0.261-0.484C-7.217-5.246-7.365-5.49-7.495-5.651c-0.121-0.164-0.203-0.253-0.203-0.253l-0.07,0.028
				c0,0,0.002,0.121,0.027,0.323c0.017,0.206,0.077,0.485,0.147,0.821c0.039,0.167,0.087,0.345,0.144,0.53
				c0.052,0.215,0.054,0.185,0.009,0.263c-0.039,0.094-0.178,0.243-0.307,0.354c-0.139,0.112-0.304,0.207-0.484,0.263
				c-0.36,0.115-0.765,0.069-1.1-0.101c-0.338-0.17-0.582-0.437-0.737-0.726c-0.158-0.287-0.275-0.555-0.386-0.725
				c-0.107-0.174-0.188-0.256-0.188-0.256L-10.703-5.086z"/>
		</g>
		<g>
			<path fill="#8C7B18" d="M-9.652-5.385c0,0,0.08,0.19,0.199,0.474c0.06,0.142,0.128,0.309,0.213,0.48
				c0.041,0.08,0.075,0.189,0.202,0.312c0.071,0.06,0.154,0.125,0.324,0.126C-8.719-3.986-8.61-3.995-8.543-4.026
				c0.065-0.026,0.117-0.066,0.16-0.108c0.161-0.173,0.189-0.33,0.212-0.484C-8.156-4.797-8.178-4.884-8.2-5.01
				c-0.071-0.219-0.189-0.404-0.329-0.524C-8.81-5.78-9.08-5.792-9.08-5.792L-9.13-5.737c0,0,0.036,0.208,0.091,0.519
				c0.021,0.137,0.056,0.275,0.088,0.421c0.026,0.057,0.057,0.162,0.074,0.182c0.022,0.042,0.014,0.099,0.044,0.083
				c0.008-0.006,0.022-0.011,0.04-0.017c0.022-0.008,0.08-0.009,0.026,0.001c0.068,0.003,0.054,0.026,0.048,0.024
				c-0.03-0.003-0.093-0.07-0.157-0.146C-9-4.815-9.127-4.944-9.234-5.055c-0.214-0.223-0.356-0.371-0.356-0.371L-9.652-5.385z"/>
		</g>
		<g>
			<path fill="#8C7B18" d="M-5.847-7.163c0,0,0.213,0.465,0.533,1.163c0.16,0.349,0.345,0.757,0.555,1.187l0.119,0.186
				C-4.605-4.586-4.645-4.61-4.55-4.515c0.011,0.013,0.085,0.065,0.118,0.08c0.175,0.088,0.34,0.092,0.478,0.095
				c0.26,0,0.528,0,0.82-0.058c0.285-0.051,0.622-0.195,0.841-0.461c0.237-0.279,0.315-0.604,0.331-0.904
				c-0.009-0.612-0.291-1.065-0.499-1.377C-2.686-7.456-2.87-7.721-3.023-7.894c-0.145-0.177-0.24-0.273-0.24-0.273l-0.067,0.033
				c0,0,0.018,0.133,0.071,0.356C-3.215-7.55-3.116-7.243-3-6.874c0.119,0.368,0.27,0.741,0.256,1.1
				c0.007,0.364-0.113,0.653-0.54,0.796c-0.204,0.067-0.449,0.098-0.69,0.124c-0.111,0.012-0.204,0.009-0.254-0.009
				C-4.25-4.876-4.229-4.855-4.265-4.882c0.052,0.053-0.019-0.026-0.022-0.033C-4.314-4.947-4.385-5.04-4.377-5.023
				c-0.251-0.408-0.497-0.782-0.706-1.104C-5.502-6.77-5.781-7.199-5.781-7.199L-5.847-7.163z"/>
		</g>
		<g>
			<path fill="#8C7B18" d="M-4.81-7.555c0,0,0.092,0.325,0.184,0.604c0.016,0.076,0.021,0.157,0.048,0.217
				c0.044,0.047,0.1,0.082,0.174,0.096c0.146,0.029,0.312,0.017,0.318,0.013l0.064-0.038c0,0,0.027-0.038,0.054-0.093
				c0.034-0.06,0.049-0.126,0.067-0.209c0.014-0.08-0.003-0.153-0.04-0.22C-3.995-7.24-4.078-7.278-4.153-7.319
				c-0.271-0.193-0.604-0.288-0.604-0.288L-4.81-7.555z"/>
		</g>
		<g>
			<path fill="#8C7B18" d="M-1.709-8.902c0,0,0.128,0.373,0.319,0.932c0.097,0.282,0.202,0.602,0.339,0.956
				c0.076,0.189,0.203,0.425,0.493,0.542c0.256,0.104,0.508,0.089,0.726,0.06c0.227-0.031,0.413-0.073,0.62-0.125
				c0.207-0.052,0.426-0.138,0.627-0.289C1.463-6.866,1.508-6.91,1.551-6.957l0.031-0.036l0.037-0.047l0.039-0.055
				c0.07-0.099,0.136-0.233,0.158-0.333c0.064-0.219,0.062-0.42,0.038-0.591C1.793-8.359,1.685-8.596,1.587-8.754
				c-0.091-0.159-0.16-0.24-0.16-0.24l-0.072,0.02c-0.019-0.007-0.005,0.443-0.1,0.951C1.227-7.9,1.189-7.78,1.136-7.682
				C1.1-7.624,1.086-7.603,1.053-7.557L1.01-7.506L1-7.493L0.997-7.49C0.984-7.474,1.013-7.509,1.01-7.505L1.009-7.505L1.005-7.501
				L0.991-7.487L0.925-7.434C0.766-7.279,0.373-7.112,0.047-7c-0.163,0.049-0.318,0.069-0.429,0.042
				C-0.47-6.964-0.586-7.061-0.659-7.203c-0.18-0.32-0.348-0.619-0.492-0.875c-0.294-0.513-0.49-0.855-0.49-0.855L-1.709-8.902z"/>
		</g>
		<g>
			<path fill="#8C7B18" d="M-0.409-9.216C-0.402-9.207-0.37-9.12-0.431-8.954c-0.02,0.086-0.08,0.191-0.028,0.385
				c0.014,0.048,0.039,0.099,0.074,0.145c0.053,0.057,0.03,0.036,0.049,0.058c0.017,0.018,0.065,0.051,0.095,0.066
				c0.12,0.064,0.257,0.069,0.367,0.045C0.344-8.3,0.554-8.418,0.643-8.691C0.65-8.75,0.67-8.9,0.639-8.962
				C0.618-9.043,0.583-9.107,0.544-9.157c-0.166-0.192-0.36-0.218-0.36-0.218l-0.069,0.03C0.106-9.347,0.031-9.159-0.037-9.007
				c-0.017,0.036-0.034,0.067-0.048,0.088C-0.11-8.878-0.096-8.919-0.118-8.87c0.035-0.055,0.057,0.015,0.052,0.047
				c-0.002,0.015,0.009,0.025,0.02,0.045c0.004,0.003,0.026,0.023,0.019,0.025c0,0-0.051-0.033-0.016,0.001
				c-0.005,0.005-0.011,0.008-0.02,0.005C-0.1-8.76-0.14-8.872-0.169-8.962c-0.047-0.202-0.186-0.314-0.18-0.298L-0.409-9.216z"/>
		</g>
		<g>
			<path fill="#8C7B18" d="M3.713-10.228c0,0,0.057,0.448,0.141,1.119c0.025,0.166,0.031,0.35,0.104,0.568
				C4.003-8.322,4.283-8.064,4.55-8.046c0.25,0.035,0.443,0.04,0.671,0.062c0.221,0.018,0.445,0.036,0.67,0.055
				c0.46,0.039,0.873,0.103,1.343,0.108c0.229-0.015,0.534-0.07,0.728-0.207c0.247-0.152,0.381-0.328,0.483-0.505
				c0.184-0.356,0.235-0.651,0.25-0.86c0.02-0.207,0.011-0.326,0.011-0.326L8.635-9.742c0,0-0.074,0.095-0.187,0.259
				c-0.122,0.157-0.267,0.399-0.482,0.59c-0.097,0.094-0.23,0.18-0.323,0.214C7.498-8.624,7.391-8.603,7.2-8.602
				C6.786-8.578,6.344-8.554,5.903-8.529c-0.225,0.01-0.45,0.02-0.672,0.029C5.017-8.492,4.774-8.475,4.604-8.477
				C4.439-8.483,4.37-8.534,4.282-8.68C4.205-8.819,4.161-9.001,4.111-9.163c-0.195-0.648-0.325-1.08-0.325-1.08L3.713-10.228z"/>
		</g>
		<g>
			<path fill="#8C7B18" d="M5.049-10.21c0,0-0.055,0.038-0.107,0.164C4.895-9.925,4.888-9.723,4.99-9.516
				C5.087-9.301,5.342-9.11,5.609-9.047C5.882-8.97,6.157-8.963,6.416-8.945C6.681-8.924,6.978-8.907,7.268-8.99
				c0.149-0.064,0.257-0.104,0.39-0.219c0.112-0.094,0.198-0.203,0.258-0.315c0.114-0.228,0.141-0.446,0.099-0.587
				c-0.032-0.14-0.087-0.2-0.087-0.2l-0.075,0.008c0,0-0.129,0.266-0.396,0.393c-0.064,0.036-0.133,0.07-0.203,0.099
				c-0.049,0.01-0.155,0.067-0.234,0.081c-0.168,0.07-0.387,0.142-0.634,0.187c-0.502,0.097-0.97,0.12-1.176-0.117
				c-0.241-0.256-0.106-0.516-0.099-0.507L5.049-10.21z"/>
		</g>
		<g>
			<path fill="#8C7B18" d="M6.163-10.778c0.005-0.001,0.01,0.081,0.113,0.206c0.091,0.128,0.283,0.227,0.501,0.264
				c0.109,0.022,0.232,0.038,0.341,0.005c0.099-0.054,0.179-0.133,0.208-0.234c0.065-0.2-0.037-0.355-0.037-0.355l-0.065-0.038
				c-0.006-0.003-0.175-0.016-0.286-0.065c-0.056-0.022-0.094-0.034-0.125-0.028c-0.024,0.023-0.051,0.076-0.094,0.116
				c-0.089,0.067-0.207,0.093-0.315,0.104c-0.099,0.012-0.188-0.03-0.188-0.03L6.163-10.778z"/>
		</g>
		<g>
			<path fill="#8C7B18" d="M11.065-10.378c0,0,0.026,0.086,0.006,0.217c-0.019,0.137-0.104,0.315-0.221,0.548
				c-0.056,0.117-0.119,0.254-0.151,0.426c-0.032,0.157-0.008,0.38,0.06,0.549c0.134,0.361,0.438,0.67,0.804,0.841
				c0.369,0.18,0.759,0.245,1.102,0.248c0.344-0.019,0.634-0.083,0.874-0.153c0.491-0.14,0.818-0.233,0.818-0.233l0.014-0.074
				c0,0-0.075-0.06-0.226-0.125c-0.149-0.075-0.377-0.125-0.644-0.167c-0.267-0.039-0.566-0.029-0.857-0.029
				c-0.289,0.021-0.59,0.043-0.855-0.024c-0.266-0.07-0.505-0.245-0.633-0.464c-0.067-0.119-0.094-0.209-0.104-0.341
				c-0.005-0.118,0.017-0.246,0.046-0.367c0.061-0.242,0.115-0.469,0.1-0.632c-0.014-0.167-0.06-0.241-0.06-0.241L11.065-10.378z"/>
		</g>
		<g>
			<path fill="#8C7B18" d="M12.338-10.489c0,0-0.095,0.093-0.187,0.311c-0.1,0.209-0.12,0.53-0.048,0.848
				c0.033,0.159,0.081,0.327,0.172,0.46c0.11,0.117,0.239,0.204,0.375,0.229c0.27,0.059,0.454-0.056,0.454-0.056l0.024-0.071
				c0.002-0.008-0.075-0.19-0.129-0.361c-0.03-0.085-0.066-0.162-0.117-0.233c-0.064-0.06-0.152-0.121-0.227-0.203
				c-0.136-0.171-0.21-0.392-0.244-0.575c-0.033-0.175-0.004-0.321-0.004-0.321L12.338-10.489z"/>
		</g>
		<g>
			<path fill="#8C7B18" d="M13.671-10.399c0,0-0.056,0.046-0.103,0.182c-0.056,0.129-0.043,0.319,0.025,0.505
				c0.031,0.094,0.073,0.199,0.146,0.269c0.086,0.051,0.184,0.073,0.276,0.046c0.185-0.048,0.264-0.209,0.264-0.209l0.004-0.075
				c0-0.006-0.057-0.162-0.059-0.279c-0.003-0.058-0.007-0.094-0.023-0.114c-0.027-0.005-0.08,0.006-0.131-0.003
				c-0.093-0.026-0.172-0.094-0.241-0.164c-0.064-0.063-0.085-0.147-0.085-0.147L13.671-10.399z"/>
		</g>
		<g>
			<path fill="#8C7B18" d="M17.77-10.492c0,0,0.029,0.064,0.01,0.179c-0.016,0.113-0.09,0.281-0.167,0.49
				c-0.164,0.416-0.344,0.964-0.537,1.536c-0.05,0.151-0.097,0.325-0.097,0.528c0.002,0.06-0.002,0.081,0.016,0.175l0.021,0.106
				c0.037,0.12,0.085,0.221,0.135,0.302c0.244,0.325,0.559,0.446,0.802,0.493c0.498,0.082,0.811-0.037,0.811-0.037l0.015-0.074
				c0,0-0.064-0.056-0.173-0.135c-0.106-0.088-0.266-0.178-0.42-0.308c-0.155-0.124-0.315-0.254-0.391-0.383
				c-0.026-0.034-0.042-0.057-0.057-0.069l-0.039-0.099c0.002,0.025-0.013-0.025-0.017-0.037c-0.026-0.085-0.031-0.205-0.02-0.339
				c0.072-0.57,0.167-1.16,0.205-1.599c0.02-0.218,0.053-0.404,0.038-0.549c-0.014-0.144-0.073-0.215-0.068-0.212L17.77-10.492z"/>
		</g>
		<g>
			<path fill="#8C7B18" d="M19.371-10.309c0,0-0.168,0.135-0.334,0.43c-0.082,0.146-0.161,0.334-0.193,0.551
				c-0.017,0.111-0.026,0.217-0.022,0.346c-0.002,0.116,0.063,0.377,0.313,0.483c0.259,0.1,0.455,0.008,0.584-0.05
				c0.131-0.057,0.25-0.171,0.314-0.226c0.126-0.146,0.23-0.296,0.295-0.446c0.062-0.154,0.116-0.28,0.133-0.387
				c0.024-0.101,0.028-0.168,0.028-0.168l-0.055-0.051c0,0-0.067,0.008-0.166,0.038c-0.106,0.024-0.228,0.085-0.378,0.156
				c-0.146,0.075-0.289,0.187-0.427,0.322l-0.129,0.168c-0.037,0.049-0.052,0.048,0.005,0.079c0.046,0.035,0.019,0.076-0.009-0.003
				c-0.024-0.072-0.043-0.164-0.053-0.247c-0.017-0.169-0.016-0.336,0.006-0.48c0.043-0.29,0.148-0.474,0.148-0.474L19.371-10.309z"/>
		</g>
		<g>
			<path fill="#8C7B18" d="M22.904-10.085c0,0-0.2,0.26-0.442,0.693c-0.254,0.43-0.497,1.04-0.746,1.644
				c-0.128,0.306-0.261,0.644-0.281,1.008c0.009,0.191,0.014,0.342,0.083,0.53c0.058,0.165,0.141,0.308,0.238,0.424
				c0.201,0.227,0.43,0.355,0.602,0.377c0.168,0.032,0.26,0.003,0.26,0.003l0.018-0.073c0,0-0.281-0.224-0.362-0.608
				c-0.025-0.094-0.043-0.195-0.054-0.3c-0.001-0.081-0.021-0.224-0.006-0.336c-0.009-0.244,0.014-0.54,0.074-0.851
				c0.133-0.63,0.285-1.254,0.413-1.716c0.132-0.462,0.266-0.759,0.266-0.759L22.904-10.085z"/>
		</g>
		<g>
			<path fill="#8C7B18" d="M24.049-9.464c-0.494,0.434-0.831,1.056-0.991,1.743l-0.09,0.388l0.514-0.026
				c0.276-0.014,0.548-0.115,0.749-0.306c0.201-0.187,0.357-0.432,0.387-0.727l-0.056-0.05c-0.282,0.06-0.493,0.12-0.695,0.179
				c-0.201,0.055-0.37,0.14-0.551,0.241l0.423,0.362c-0.047-0.577,0.094-1.184,0.37-1.759L24.049-9.464z"/>
		</g>
		<g>
			<path fill="#8C7B18" d="M26.711-8.894c0,0-0.096,0.355-0.36,0.82c-0.259,0.469-0.668,1.05-1.083,1.661
				c-0.21,0.304-0.424,0.618-0.575,0.949c-0.063,0.174-0.122,0.327-0.158,0.513c-0.018,0.101-0.039,0.245,0.009,0.404
				c0.054,0.157,0.152,0.25,0.226,0.307c0.152,0.113,0.255,0.133,0.362,0.192c0.101,0.05,0.193,0.09,0.274,0.116
				c0.156,0.06,0.253,0.083,0.253,0.083l0.047-0.058c0,0-0.043-0.091-0.134-0.23c-0.042-0.074-0.1-0.156-0.17-0.244
				c-0.062-0.084-0.162-0.21-0.208-0.283c-0.034-0.107,0.018,0.016,0.041-0.092c0.06-0.11,0.108-0.269,0.179-0.407
				c0.11-0.297,0.231-0.627,0.377-0.955c0.301-0.649,0.651-1.31,0.801-1.852c0.171-0.536,0.191-0.904,0.191-0.904L26.711-8.894z"/>
		</g>
		<g>
			<path fill="#8C7B18" d="M26.886-6.144c-0.011-0.007-0.066-0.123,0.071-0.273c0.125-0.127,0.369-0.347,0.58-0.555
				c0.114-0.102,0.237-0.197,0.328-0.303c0.074-0.119,0.128-0.24,0.148-0.363c0.016-0.126,0.031-0.229,0.02-0.317
				c-0.004-0.083-0.017-0.138-0.017-0.138l-0.061-0.044c0,0-0.057,0.005-0.136,0.028c-0.087,0.018-0.18,0.066-0.294,0.122
				c-0.11,0.059-0.207,0.149-0.295,0.258c-0.071,0.121-0.121,0.268-0.18,0.409c-0.119,0.286-0.271,0.521-0.333,0.801
				c-0.028,0.13-0.015,0.259,0.029,0.333c0.048,0.079,0.084,0.091,0.084,0.091L26.886-6.144z"/>
		</g>
	</g>
</symbol>
<g>

		<use xlink:href="#New_Symbol_3" width="70.17" height="42.626" id="XMLID_7_" x="-35.08" y="-21.25" transform="matrix(3.9745 0 0 -3.9745 260.7636 338.0915)" overflow="visible"/>

		<use xlink:href="#New_Symbol_3" width="70.17" height="42.626" id="XMLID_1_" x="-35.08" y="-21.25" transform="matrix(3.9745 0 0 -3.9745 151.6652 162.4115)" overflow="visible"/>
</g>
</svg>
